<?xml version="1.0" encoding="utf-8"?>
<!-- Generator: Adobe Illustrator 15.0.0, SVG Export Plug-In . SVG Version: 6.00 Build 0)  -->
<!DOCTYPE svg PUBLIC "-//W3C//DTD SVG 1.1//EN" "http://www.w3.org/Graphics/SVG/1.1/DTD/svg11.dtd">
<svg version="1.1" id="Layer_1" xmlns="http://www.w3.org/2000/svg" xmlns:xlink="http://www.w3.org/1999/xlink" x="0px" y="0px"
	 width="64px" height="64px" viewBox="0 0 64 64" enable-background="new 0 0 64 64" xml:space="preserve">
<title>undo_arrow</title>
<path fill="#FFFFFF" d="M12.29,53.71c0.094,0.095,0.207,0.169,0.33,0.22c0.122,0.044,0.25,0.067,0.38,0.07
	c0.267-0.001,0.523-0.109,0.71-0.3l8-8c0.359-0.42,0.311-1.051-0.109-1.41c-0.375-0.321-0.927-0.321-1.301,0l-6.3,6.3V34
	c0-12.15,9.85-22,22-22s22,9.85,22,22v19c0,0.553,0.447,1,1,1s1-0.447,1-1V34c0-13.255-10.745-24-24-24S12,20.745,12,34v16.59
	L5.71,44.3c-0.419-0.358-1.051-0.31-1.41,0.109c-0.32,0.374-0.32,0.927,0,1.301L12.29,53.71z"/>
</svg>
