<?xml version="1.0" encoding="utf-8"?>
<!-- Generator: Adobe Illustrator 15.0.0, SVG Export Plug-In . SVG Version: 6.00 Build 0)  -->
<!DOCTYPE svg PUBLIC "-//W3C//DTD SVG 1.1//EN" "http://www.w3.org/Graphics/SVG/1.1/DTD/svg11.dtd">
<svg version="1.1" id="Layer_1" xmlns="http://www.w3.org/2000/svg" xmlns:xlink="http://www.w3.org/1999/xlink" x="0px" y="0px"
	 width="64px" height="64px" viewBox="0 0 64 64" enable-background="new 0 0 64 64" xml:space="preserve">
<title>camera_rotate</title>
<path fill="#A9A9A9" d="M56,18h-8c-0.711-0.004-1.365-0.385-1.721-1c0.006-0.033,0.006-0.067,0-0.1l-2.59-4.61
	c-0.056-0.111-0.134-0.21-0.229-0.29c-0.714-1.236-2.032-1.999-3.46-2H24c-1.484-0.001-2.846,0.818-3.54,2.13l-2.69,4.78
	c-0.003,0.033-0.003,0.066,0,0.1C17.403,17.637,16.726,18.016,16,18H8c-2.209,0-4,1.791-4,4v28c0,2.209,1.791,4,4,4h48
	c2.209,0,4-1.791,4-4V22C60,19.791,58.209,18,56,18z M58,50c0,1.104-0.896,2-2,2H8c-1.104,0-2-0.896-2-2V22c0-1.104,0.896-2,2-2h8
	c1.478,0,2.835-0.815,3.53-2.12c0,0,0,0,0-0.08l2.65-4.71c0.348-0.682,1.055-1.104,1.82-1.09h16c0.759,0,1.452,0.43,1.79,1.11
	l2.63,4.68c-0.006,0.026-0.006,0.054,0,0.08c0.7,1.324,2.082,2.146,3.58,2.13h8c1.104,0,2,0.896,2,2V50z"/>
<path fill="#A9A9A9" d="M48.29,31.29L46,33.6c-0.215-7.729-6.655-13.82-14.384-13.604c-3.483,0.097-6.805,1.489-9.316,3.905
	c-0.426,0.352-0.486,0.982-0.135,1.408c0.352,0.426,0.982,0.486,1.408,0.135c0.039-0.031,0.074-0.065,0.107-0.103
	c4.772-4.599,12.369-4.459,16.967,0.313c2.055,2.132,3.249,4.948,3.353,7.908l-2.27-2.271c-0.39-0.395-1.025-0.399-1.42-0.01
	c-0.396,0.389-0.4,1.025-0.011,1.42l4,4c0.185,0.188,0.437,0.296,0.7,0.3c0.266,0.002,0.521-0.103,0.71-0.29l4-4
	c0.388-0.39,0.388-1.02,0-1.41c-0.386-0.395-1.019-0.402-1.414-0.016C48.294,31.286,48.292,31.288,48.29,31.29z"/>
<path fill="#A9A9A9" d="M40.49,42.49c-4.68,4.693-12.278,4.703-16.971,0.024c-2.154-2.148-3.412-5.034-3.52-8.075l2.27,2.271
	c0.389,0.392,1.022,0.395,1.414,0.006c0.002-0.002,0.004-0.004,0.006-0.006c0.388-0.39,0.388-1.021,0-1.41l-4-4
	c-0.39-0.388-1.02-0.388-1.41,0l-4,4c-0.419,0.359-0.468,0.991-0.109,1.41s0.991,0.468,1.41,0.109
	c0.039-0.034,0.076-0.07,0.109-0.109L18,34.4c0.217,7.729,6.659,13.818,14.388,13.601C35.967,47.9,39.37,46.433,41.9,43.9
	c0.359-0.42,0.311-1.051-0.109-1.41C41.416,42.17,40.864,42.17,40.49,42.49z"/>
</svg>
