<?xml version="1.0" encoding="utf-8"?>
<!-- Generator: Adobe Illustrator 15.0.0, SVG Export Plug-In . SVG Version: 6.00 Build 0)  -->
<!DOCTYPE svg PUBLIC "-//W3C//DTD SVG 1.1//EN" "http://www.w3.org/Graphics/SVG/1.1/DTD/svg11.dtd">
<svg version="1.1" id="Layer_1" xmlns="http://www.w3.org/2000/svg" xmlns:xlink="http://www.w3.org/1999/xlink" x="0px" y="0px"
	 width="64px" height="64px" viewBox="0 0 64 64" enable-background="new 0 0 64 64" xml:space="preserve">
<title>444</title>
<path fill="#FFFFFF" d="M49.49,13.26l-14.27,4.271V41c-1.07-0.521-2.253-0.77-3.442-0.72c-1.272,0.006-2.535,0.231-3.73,0.67
	c-2.534,0.985-4.208,3.421-4.22,6.14c0,2.25,1.94,4.59,6.2,4.59c3.159-0.123,5.995-1.96,7.401-4.789
	c0.448-1.313,0.668-2.692,0.649-4.08V24.65l11.409-2.85v-8.54H49.49z"/>
<path fill="#FFFFFF" d="M30.37,31.62H13.65V35.1h16.72V31.62L30.37,31.62z"/>
<path fill="#FFFFFF" d="M30.37,25.17H13.65v3.48h16.72V25.17L30.37,25.17z"/>
<path fill="#FFFFFF" d="M30.37,18.72H13.65v3.48h16.72V18.72L30.37,18.72z"/>
<path fill="#FFFFFF" d="M6,6v52h52V6H6z M55.689,55.689H8.31V8.31h47.379V55.689z"/>
</svg>
