<?xml version="1.0" encoding="utf-8"?>
<!-- Generator: Adobe Illustrator 15.0.0, SVG Export Plug-In . SVG Version: 6.00 Build 0)  -->
<!DOCTYPE svg PUBLIC "-//W3C//DTD SVG 1.1//EN" "http://www.w3.org/Graphics/SVG/1.1/DTD/svg11.dtd">
<svg version="1.1" id="Layer_1" xmlns="http://www.w3.org/2000/svg" xmlns:xlink="http://www.w3.org/1999/xlink" x="0px" y="0px"
	 width="64px" height="64px" viewBox="0 0 64 64" enable-background="new 0 0 64 64" xml:space="preserve">
<title>sterling</title>
<path fill="#FFFFFF" d="M31,60c14.912,0,27-12.088,27-27S45.912,6,31,6S4,18.088,4,33S16.088,60,31,60z M31,8
	c13.807,0,25,11.193,25,25c0,13.807-11.193,25-25,25C17.193,58,6,46.807,6,33C6,19.193,17.193,8,31,8z"/>
<path fill="#FFFFFF" d="M21,34h3v8c0,1.104-0.896,2-2,2c-0.552,0-1,0.447-1,1s0.448,1,1,1h17c0.553,0,1-0.447,1-1s-0.447-1-1-1
	H25.46c0.353-0.607,0.539-1.297,0.54-2v-8h7c0.553,0,1-0.447,1-1c0-0.552-0.447-1-1-1h-7v-6c0-3.313,2.687-6,6-6
	c3.313,0,6,2.687,6,6c0,0.552,0.447,1,1,1s1-0.448,1-1c0-4.418-3.582-8-8-8s-8,3.582-8,8v6h-3c-0.552,0-1,0.448-1,1
	C20,33.553,20.448,34,21,34z"/>
</svg>
