<?xml version="1.0" encoding="utf-8"?>
<!-- Generator: Adobe Illustrator 15.0.0, SVG Export Plug-In . SVG Version: 6.00 Build 0)  -->
<!DOCTYPE svg PUBLIC "-//W3C//DTD SVG 1.1//EN" "http://www.w3.org/Graphics/SVG/1.1/DTD/svg11.dtd">
<svg version="1.1" id="Layer_1" xmlns="http://www.w3.org/2000/svg" xmlns:xlink="http://www.w3.org/1999/xlink" x="0px" y="0px"
	 width="64px" height="64px" viewBox="0 0 64 64" enable-background="new 0 0 64 64" xml:space="preserve">
<title>horizontal_arrows</title>
<path fill="#A9A9A9" d="M59.71,18.29l-10-10c-0.359-0.419-0.99-0.468-1.41-0.109c-0.419,0.359-0.468,0.991-0.108,1.41
	C48.225,9.63,48.261,9.667,48.3,9.7l8.29,8.3H5c-0.552,0-1,0.448-1,1s0.448,1,1,1h51.59l-8.29,8.29c-0.388,0.39-0.388,1.02,0,1.41
	c0.185,0.188,0.437,0.296,0.7,0.3c0.266,0.001,0.521-0.103,0.71-0.29l10-10c0.095-0.094,0.169-0.207,0.22-0.33
	c0.1-0.243,0.1-0.517,0-0.76C59.875,18.499,59.801,18.388,59.71,18.29z"/>
<path fill="#A9A9A9" d="M59,44H7.41l8.29-8.29c0.359-0.419,0.31-1.051-0.109-1.41c-0.375-0.32-0.926-0.32-1.301,0l-10,10
	c-0.095,0.095-0.169,0.206-0.22,0.33c-0.154,0.374-0.067,0.805,0.22,1.09l10,10c0.194,0.179,0.447,0.278,0.71,0.28
	c0.266,0.002,0.521-0.103,0.71-0.29c0.388-0.39,0.388-1.021,0-1.41L7.41,46H59c0.553,0,1-0.447,1-1S59.553,44,59,44z"/>
</svg>
