<?xml version="1.0" encoding="utf-8"?>
<!-- Generator: Adobe Illustrator 15.0.0, SVG Export Plug-In . SVG Version: 6.00 Build 0)  -->
<!DOCTYPE svg PUBLIC "-//W3C//DTD SVG 1.1//EN" "http://www.w3.org/Graphics/SVG/1.1/DTD/svg11.dtd">
<svg version="1.1" id="Layer_1" xmlns="http://www.w3.org/2000/svg" xmlns:xlink="http://www.w3.org/1999/xlink" x="0px" y="0px"
	 width="64px" height="64px" viewBox="0 0 64 64" enable-background="new 0 0 64 64" xml:space="preserve">
<title>filing_single</title>
<path id="filing_single" fill="#A9A9A9" d="M59.93,28.63c-0.018-0.038-0.037-0.074-0.06-0.11c-0.025-0.056-0.056-0.109-0.091-0.16
	l-10-12C49.588,16.129,49.301,15.997,49,16H13c-0.297,0-0.58,0.131-0.77,0.36l-10,12c-0.035,0.051-0.065,0.104-0.09,0.16
	c-0.026,0.035-0.049,0.072-0.07,0.11C2.023,28.748,2,28.874,2,29v20c0,0.553,0.448,1,1,1h56c0.553,0,1-0.447,1-1V29
	C60,28.874,59.977,28.748,59.93,28.63z M13.47,18h35.059l8.33,10H39c-0.553,0-1,0.448-1,1c0,3.866-3.134,7-7,7s-7-3.134-7-7
	c0-0.552-0.448-1-1-1H5.14L13.47,18z M4,48V30h18.06c0.549,4.94,4.998,8.5,9.938,7.951c4.184-0.465,7.487-3.768,7.952-7.951H58v18H4
	z"/>
</svg>
