<?xml version="1.0" encoding="utf-8"?>
<!-- Generator: Adobe Illustrator 15.0.0, SVG Export Plug-In . SVG Version: 6.00 Build 0)  -->
<!DOCTYPE svg PUBLIC "-//W3C//DTD SVG 1.1//EN" "http://www.w3.org/Graphics/SVG/1.1/DTD/svg11.dtd">
<svg version="1.1" id="Layer_1" xmlns="http://www.w3.org/2000/svg" xmlns:xlink="http://www.w3.org/1999/xlink" x="0px" y="0px"
	 width="64px" height="64px" viewBox="0 0 64 64" enable-background="new 0 0 64 64" xml:space="preserve">
<title>lightening-01</title>
<path d="M26.62,61.93c0.433,0.179,0.931,0.033,1.2-0.35l24-34c0.32-0.45,0.215-1.074-0.234-1.395C51.414,26.063,51.21,25.999,51,26
	H36.18L40,3.16c0.089-0.545-0.281-1.059-0.826-1.148c-0.363-0.059-0.729,0.086-0.953,0.378l-26,34
	c-0.337,0.438-0.255,1.064,0.182,1.402C12.574,37.924,12.784,37.997,13,38h16.82L26,60.84C25.925,61.304,26.183,61.758,26.62,61.93z
	"/>
</svg>
