<?xml version="1.0" encoding="utf-8"?>
<!-- Generator: Adobe Illustrator 15.0.0, SVG Export Plug-In . SVG Version: 6.00 Build 0)  -->
<!DOCTYPE svg PUBLIC "-//W3C//DTD SVG 1.1//EN" "http://www.w3.org/Graphics/SVG/1.1/DTD/svg11.dtd">
<svg version="1.1" id="Layer_1" xmlns="http://www.w3.org/2000/svg" xmlns:xlink="http://www.w3.org/1999/xlink" x="0px" y="0px"
	 width="64px" height="64px" viewBox="0 0 64 64" enable-background="new 0 0 64 64" xml:space="preserve">
<title>umbrella</title>
<path fill="#A9A9A9" d="M32,6V5c0-0.552-0.448-1-1-1s-1,0.448-1,1v1C15.48,6.538,3.99,18.47,4,33c0,0.553,0.448,1,1,1h25v20
	c0,2.209-1.791,4-4,4s-4-1.791-4-4c0-0.553-0.448-1-1-1s-1,0.447-1,1c0,3.313,2.687,6,6,6s6-2.687,6-6V34h25c0.553,0,1-0.447,1-1
	C58.01,18.47,46.52,6.538,32,6z M6,32C6,18.193,17.193,7,31,7c13.807,0,25,11.193,25,25H6z"/>
</svg>
