<?xml version="1.0" encoding="utf-8"?>
<!-- Generator: Adobe Illustrator 15.0.0, SVG Export Plug-In . SVG Version: 6.00 Build 0)  -->
<!DOCTYPE svg PUBLIC "-//W3C//DTD SVG 1.1//EN" "http://www.w3.org/Graphics/SVG/1.1/DTD/svg11.dtd">
<svg version="1.1" id="Layer_1" xmlns="http://www.w3.org/2000/svg" xmlns:xlink="http://www.w3.org/1999/xlink" x="0px" y="0px"
	 width="64px" height="64px" viewBox="0 0 64 64" enable-background="new 0 0 64 64" xml:space="preserve">
<title>tags</title>
<path fill="#A9A9A9" d="M41,22c2.762,0,5-2.239,5-5s-2.238-5-5-5s-5,2.239-5,5S38.238,22,41,22z M41,14c1.656,0,3,1.343,3,3
	s-1.344,3-3,3s-3-1.343-3-3S39.344,14,41,14z"/>
<path fill="#A9A9A9" d="M4,37c-0.001,1.061,0.42,2.079,1.17,2.83l13,13c1.562,1.558,4.089,1.558,5.65,0l27-26
	c0.754-0.749,1.178-1.768,1.18-2.83V10c0-2.209-1.791-4-4-4H34c-1.07-0.001-2.098,0.428-2.85,1.19L5.17,34.12
	C4.408,34.883,3.986,35.922,4,37z M6.6,35.561L32.54,8.59C32.926,8.202,33.453,7.989,34,8h14c1.104,0,2,0.896,2,2v14
	c0.003,0.527-0.201,1.033-0.57,1.41l-27,26c-0.793,0.762-2.047,0.762-2.84,0l-13-13C6.214,38.037,6.002,37.529,6,37
	c-0.007-0.554,0.209-1.088,0.6-1.48V35.561z"/>
<path fill="#A9A9A9" d="M56,10h-1c-0.553,0-1,0.448-1,1s0.447,1,1,1h1c1.104,0,2,0.896,2,2v14c-0.001,0.559-0.203,1.099-0.57,1.52
	L30.54,55.41c-0.776,0.756-2.014,0.756-2.79,0l-1-1.12c-0.346-0.431-0.975-0.5-1.406-0.154s-0.5,0.976-0.154,1.406
	c0.022,0.026,0.045,0.054,0.07,0.078l1,1.16c0.752,0.778,1.788,1.218,2.87,1.22l0,0c1.053-0.002,2.063-0.418,2.81-1.16l26.89-25.9
	c0.754-0.793,1.173-1.846,1.17-2.94V14C60,11.791,58.209,10,56,10z"/>
</svg>
