<?xml version="1.0" encoding="utf-8"?>
<!-- Generator: Adobe Illustrator 15.0.0, SVG Export Plug-In . SVG Version: 6.00 Build 0)  -->
<!DOCTYPE svg PUBLIC "-//W3C//DTD SVG 1.1//EN" "http://www.w3.org/Graphics/SVG/1.1/DTD/svg11.dtd">
<svg version="1.1" id="Layer_1" xmlns="http://www.w3.org/2000/svg" xmlns:xlink="http://www.w3.org/1999/xlink" x="0px" y="0px"
	 width="64px" height="64px" viewBox="0 0 64 64" enable-background="new 0 0 64 64" xml:space="preserve">
<title>yen_yuan</title>
<path d="M31,60c14.912,0,27-12.088,27-27C58,18.088,45.912,6,31,6C16.088,6,4,18.088,4,33C4,47.912,16.088,60,31,60z M31,8
	c13.807,0,25,11.193,25,25c0,13.807-11.193,25-25,25C17.193,58,6,46.807,6,33C6,19.193,17.193,8,31,8z"/>
<path d="M29.06,30H23c-0.552,0-1,0.448-1,1s0.448,1,1,1h7v4h-7c-0.552,0-1,0.447-1,1s0.448,1,1,1h7v11c0,0.553,0.448,1,1,1
	s1-0.447,1-1V38h7c0.553,0,1-0.447,1-1s-0.447-1-1-1h-7v-4h7c0.553,0,1-0.448,1-1s-0.447-1-1-1h-6.061l8.871-12.42
	c0.322-0.448,0.223-1.073-0.225-1.396c-0.002-0.001-0.004-0.002-0.006-0.003c-0.447-0.318-1.068-0.216-1.391,0.23L31,29.28
	l-9.19-12.86c-0.322-0.445-0.942-0.548-1.39-0.23c-0.45,0.321-0.554,0.945-0.234,1.395c0.001,0.001,0.003,0.003,0.004,0.005
	L29.06,30z"/>
</svg>
