<?xml version="1.0" encoding="utf-8"?>
<!-- Generator: Adobe Illustrator 15.0.0, SVG Export Plug-In . SVG Version: 6.00 Build 0)  -->
<!DOCTYPE svg PUBLIC "-//W3C//DTD SVG 1.1//EN" "http://www.w3.org/Graphics/SVG/1.1/DTD/svg11.dtd">
<svg version="1.1" id="Layer_1" xmlns="http://www.w3.org/2000/svg" xmlns:xlink="http://www.w3.org/1999/xlink" x="0px" y="0px"
	 width="64px" height="64px" viewBox="0 0 64 64" enable-background="new 0 0 64 64" xml:space="preserve">
<title>coathanger</title>
<path d="M56.55,44.189c-2.7-2-21.28-13.689-24.55-15.739V25c0-0.552-0.448-1-1-1c-2.761,0-5-2.239-5-5s2.239-5,5-5
	c2.762,0,5,2.239,5,5c0,0.552,0.447,1,1,1s1-0.448,1-1c0.004-3.866-3.126-7.004-6.992-7.008c-3.866-0.004-7.004,3.126-7.008,6.992
	c-0.004,3.483,2.553,6.439,6,6.937v2.53c-3.27,2-21.85,13.77-24.55,15.739C2.75,46.16,1.47,48.811,2.2,51c0.6,1.859,2.46,3,4.8,3h48
	c2.391,0,4.24-1.141,4.84-3C60.52,48.811,59.279,46.189,56.55,44.189z M57.9,50.4c-0.33,1-1.43,1.6-2.9,1.6H7
	c-1.51,0-2.61-0.6-2.94-1.6C3.62,49.05,4.61,47.25,6.59,45.8c2.59-1.89,21-13.49,24.37-15.62c3.38,2.13,21.78,13.73,24.37,15.63
	C57.34,47.25,58.34,49.061,57.9,50.4z"/>
</svg>
