<?xml version="1.0" encoding="utf-8"?>
<!-- Generator: Adobe Illustrator 15.0.0, SVG Export Plug-In . SVG Version: 6.00 Build 0)  -->
<!DOCTYPE svg PUBLIC "-//W3C//DTD SVG 1.1//EN" "http://www.w3.org/Graphics/SVG/1.1/DTD/svg11.dtd">
<svg version="1.1" id="图层_1" xmlns="http://www.w3.org/2000/svg" xmlns:xlink="http://www.w3.org/1999/xlink" x="0px" y="0px"
	 width="24px" height="24px" viewBox="0 0 24 24" enable-background="new 0 0 24 24" xml:space="preserve">
<path fill="#FFFFFF" d="M11.499,0C5.17,0,0.012,5.148,0,11.478c-0.006,3.072,1.184,5.961,3.352,8.139
	C5.52,21.792,8.405,22.994,11.478,23H11.5c6.328,0,11.486-5.148,11.5-11.479C23.012,5.181,17.863,0.012,11.499,0z M16.088,15.398
	c0.194,0.193,0.193,0.512-0.002,0.707c-0.098,0.098-0.225,0.146-0.354,0.146c-0.127,0-0.256-0.049-0.354-0.146l-3.882-3.897
	L7.601,16.09c-0.098,0.098-0.226,0.146-0.354,0.146c-0.127,0-0.255-0.049-0.353-0.146c-0.195-0.195-0.195-0.513,0.001-0.707
	l3.896-3.882L6.91,7.603C6.715,7.406,6.716,7.09,6.912,6.896c0.195-0.197,0.512-0.196,0.707,0l3.881,3.896l3.896-3.881
	c0.193-0.195,0.513-0.195,0.707,0.001c0.193,0.195,0.193,0.512-0.002,0.707l-3.896,3.882L16.088,15.398z"/>
</svg>
