<?xml version="1.0" encoding="utf-8"?>
<!-- Generator: Adobe Illustrator 15.0.0, SVG Export Plug-In . SVG Version: 6.00 Build 0)  -->
<!DOCTYPE svg PUBLIC "-//W3C//DTD SVG 1.1//EN" "http://www.w3.org/Graphics/SVG/1.1/DTD/svg11.dtd">
<svg version="1.1" id="Layer_1" xmlns="http://www.w3.org/2000/svg" xmlns:xlink="http://www.w3.org/1999/xlink" x="0px" y="0px"
	 width="64px" height="64px" viewBox="0 0 64 64" enable-background="new 0 0 64 64" xml:space="preserve">
<title>world_times</title>
<path id="world_times" d="M31,56C18.297,56,8,45.703,8,33c0-12.703,10.297-23,23-23c12.703,0,23,10.297,23,23
	C54,45.703,43.703,56,31,56L31,56z M31,12c-11.598,0-21,9.402-21,21c0,11.598,9.402,21,21,21c11.598,0,21-9.402,21-21
	C52,21.402,42.598,12,31,12z M30,11h2v44h-2V11z M9,32h44v2H9V32z M31,56c-6.73,0-12-10.1-12-23c0-12.9,5.27-23,12-23
	c6.73,0,12,10.1,12,23C43,45.9,37.73,56,31,56z M31,12c-5.42,0-10,9.62-10,21s4.58,21,10,21s10-9.62,10-21S36.42,12,31,12z M31,23
	c-6.41,0-12.56-1.38-16.88-3.79l1-1.75c4,2.25,9.8,3.54,15.88,3.54s11.88-1.29,15.91-3.54l1,1.75C43.561,21.62,37.41,23,31,23z
	 M46.91,48.54C42.88,46.29,37.08,45,31,45s-11.88,1.29-15.91,3.54l-1-1.75C18.44,44.38,24.59,43,31,43s12.561,1.38,16.88,3.79
	L46.91,48.54z"/>
</svg>
