<?xml version="1.0" encoding="utf-8"?>
<!-- Generator: Adobe Illustrator 15.0.0, SVG Export Plug-In . SVG Version: 6.00 Build 0)  -->
<!DOCTYPE svg PUBLIC "-//W3C//DTD SVG 1.1//EN" "http://www.w3.org/Graphics/SVG/1.1/DTD/svg11.dtd">
<svg version="1.1" id="Layer_1" xmlns="http://www.w3.org/2000/svg" xmlns:xlink="http://www.w3.org/1999/xlink" x="0px" y="0px"
	 width="64px" height="64px" viewBox="0 0 64 64" enable-background="new 0 0 64 64" xml:space="preserve">
<title>layers</title>
<path id="layers" fill="#FFFFFF" d="M37,60H9c-0.552,0-1-0.447-1-1V23c0-0.552,0.448-1,1-1h28c0.553,0,1,0.448,1,1v36
	C38,59.553,37.553,60,37,60z M10,58h26V24H10V58z M45,52h-4c-0.553,0-1-0.447-1-1s0.447-1,1-1h3V16H18v3c0,0.552-0.448,1-1,1
	s-1-0.448-1-1v-4c0-0.552,0.448-1,1-1h28c0.553,0,1,0.448,1,1v36C46,51.553,45.553,52,45,52z M53,44h-4c-0.553,0-1-0.447-1-1
	s0.447-1,1-1h3V8H26v3c0,0.552-0.448,1-1,1s-1-0.448-1-1V7c0-0.552,0.448-1,1-1h28c0.553,0,1,0.448,1,1v36
	C54,43.553,53.553,44,53,44z"/>
</svg>
