<?xml version="1.0" encoding="utf-8"?>
<!-- Generator: Adobe Illustrator 15.0.0, SVG Export Plug-In . SVG Version: 6.00 Build 0)  -->
<!DOCTYPE svg PUBLIC "-//W3C//DTD SVG 1.1//EN" "http://www.w3.org/Graphics/SVG/1.1/DTD/svg11.dtd">
<svg version="1.1" id="Layer_1" xmlns="http://www.w3.org/2000/svg" xmlns:xlink="http://www.w3.org/1999/xlink" x="0px" y="0px"
	 width="612px" height="792px" viewBox="0 0 612 792" enable-background="new 0 0 612 792" xml:space="preserve">
<path id="albums" fill="#FFFFFF" d="M554.625,625.5H38.25V243h516.375V625.5z M57.375,606.375H535.5v-344.25H57.375V606.375z
	 M76.5,204.75h439.875v19.125H76.5V204.75z M114.75,166.5h363.375v19.125H114.75V166.5z"/>
<path id="music_note" fill="#FFFFFF" d="M393.019,311.85c-0.955-0.957-2.867-0.957-3.824-0.957l-164.476,28.688
	c-1.913,0-3.825,2.869-3.825,4.781v150.132c0,5.737-4.781,9.563-9.563,9.563h-23.906c-25.818,0-43.987,13.388-43.987,33.47
	c0,20.081,17.212,33.469,43.987,33.469c26.775,0,42.075-11.477,42.075-31.558V407.475l154.912-27.73v86.063
	c0,5.737-4.781,9.563-9.563,9.563h-23.905c-25.818,0-43.987,13.387-43.987,33.469c0,20.081,17.213,33.469,43.987,33.469
	c25.818,0,43.987-13.388,43.987-33.469V315.675C393.975,314.719,393.975,312.806,393.019,311.85z"/>
</svg>
