<?xml version="1.0" encoding="utf-8"?>
<!-- Generator: Adobe Illustrator 15.0.0, SVG Export Plug-In . SVG Version: 6.00 Build 0)  -->
<!DOCTYPE svg PUBLIC "-//W3C//DTD SVG 1.1//EN" "http://www.w3.org/Graphics/SVG/1.1/DTD/svg11.dtd">
<svg version="1.1" id="Layer_1" xmlns="http://www.w3.org/2000/svg" xmlns:xlink="http://www.w3.org/1999/xlink" x="0px" y="0px"
	 width="64px" height="64px" viewBox="0 0 64 64" enable-background="new 0 0 64 64" xml:space="preserve">
<title>file_tick</title>
<path id="file_tick" fill="#FFFFFF" d="M41.71,17.29l-11-11C30.521,6.103,30.266,5.999,30,6H10c-2.209,0-4,1.791-4,4v40
	c0,2.209,1.791,4,4,4h11c0.552,0,1-0.447,1-1s-0.448-1-1-1H10c-1.104,0-2-0.896-2-2V10c0-1.104,0.896-2,2-2h18v8
	c0,2.209,1.791,4,4,4h8v25c0,0.553,0.447,1,1,1s1-0.447,1-1V18C42.002,17.734,41.896,17.479,41.71,17.29z M30,16V8.41L39.59,18H32
	C30.896,18,30,17.104,30,16z M55.71,38.29c-0.39-0.388-1.021-0.388-1.41,0L35,57.59l-9.29-9.29c-0.419-0.358-1.051-0.31-1.41,0.109
	c-0.32,0.374-0.32,0.927,0,1.301l10,10c0.39,0.388,1.021,0.388,1.41,0l0,0l0,0l20-20c0.392-0.39,0.396-1.022,0.006-1.414
	C55.714,38.294,55.712,38.292,55.71,38.29z"/>
</svg>
