<?xml version="1.0" encoding="utf-8"?>
<!-- Generator: Adobe Illustrator 15.0.0, SVG Export Plug-In . SVG Version: 6.00 Build 0)  -->
<!DOCTYPE svg PUBLIC "-//W3C//DTD SVG 1.1//EN" "http://www.w3.org/Graphics/SVG/1.1/DTD/svg11.dtd">
<svg version="1.1" id="图层_1" xmlns="http://www.w3.org/2000/svg" xmlns:xlink="http://www.w3.org/1999/xlink" x="0px" y="0px"
	 width="24px" height="24px" viewBox="0 0 24 24" enable-background="new 0 0 24 24" xml:space="preserve">
<path d="M23,11h-9.988l0.01-9.999c0-0.553-0.446-1.001-1-1.001c-0.553,0-1,0.447-1,0.999L11.012,11H1c-0.553,0-1,0.447-1,1
	c0,0.552,0.447,1,1,1h10.01L11,22.999c-0.001,0.552,0.446,1,0.998,1.001h0.001c0.552,0,1-0.447,1.001-0.999L13.01,13H23
	c0.552,0,1-0.448,1-1C24,11.447,23.552,11,23,11z"/>
</svg>
