<?xml version="1.0" encoding="utf-8"?>
<!-- Generator: Adobe Illustrator 15.0.0, SVG Export Plug-In . SVG Version: 6.00 Build 0)  -->
<!DOCTYPE svg PUBLIC "-//W3C//DTD SVG 1.1//EN" "http://www.w3.org/Graphics/SVG/1.1/DTD/svg11.dtd">
<svg version="1.1" id="Layer_1" xmlns="http://www.w3.org/2000/svg" xmlns:xlink="http://www.w3.org/1999/xlink" x="0px" y="0px"
	 width="64px" height="64px" viewBox="0 0 64 64" enable-background="new 0 0 64 64" xml:space="preserve">
<title>pic_mountains</title>
<path id="pic_mountains" fill="#FFFFFF" d="M61,56H3c-0.552,0-1-0.447-1-1V11c0-0.552,0.448-1,1-1h58c0.553,0,1,0.448,1,1v44
	C62,55.553,61.553,56,61,56z M4,54h56V12H4V54z M16,30c-3.313,0-6-2.687-6-6s2.687-6,6-6s6,2.687,6,6S19.313,30,16,30z M16,20
	c-2.209,0-4,1.791-4,4s1.791,4,4,4s4-1.791,4-4S18.209,20,16,20z M57.71,40.29l-14-14c-0.39-0.388-1.021-0.388-1.41,0L31,37.59
	l-5.29-5.29c-0.39-0.388-1.02-0.388-1.41,0l-18,18c-0.419,0.359-0.468,0.991-0.109,1.41s0.991,0.468,1.41,0.108
	c0.039-0.033,0.075-0.069,0.109-0.108L25,34.41l11.29,11.3c0.358,0.419,0.989,0.468,1.41,0.108c0.419-0.358,0.468-0.99,0.108-1.409
	c-0.033-0.039-0.07-0.075-0.108-0.109L32.41,39L43,28.41l13.29,13.3c0.392,0.392,1.028,0.392,1.42,0S58.102,40.682,57.71,40.29z"/>
</svg>
