<?xml version="1.0" encoding="utf-8"?>
<!-- Generator: Adobe Illustrator 15.0.0, SVG Export Plug-In . SVG Version: 6.00 Build 0)  -->
<!DOCTYPE svg PUBLIC "-//W3C//DTD SVG 1.1//EN" "http://www.w3.org/Graphics/SVG/1.1/DTD/svg11.dtd">
<svg version="1.1" id="Layer_1" xmlns="http://www.w3.org/2000/svg" xmlns:xlink="http://www.w3.org/1999/xlink" x="0px" y="0px"
	 width="64px" height="64px" viewBox="0 0 64 64" enable-background="new 0 0 64 64" xml:space="preserve">
<title>moonfull</title>
<path fill="#FFFFFF" d="M58.6,40.09C55.244,41.479,51.629,42.131,48,42c-14.912,0-27-12.088-27-27
	c0.099-3.306,0.754-6.572,1.94-9.66c0.184-0.521-0.09-1.092-0.611-1.275C22.091,3.981,21.831,3.99,21.6,4.09
	C10.989,8.862,4.119,19.366,4,31c0,16.016,12.984,29,29,29c12.029,0.129,22.831-7.352,26.939-18.66
	c0.184-0.521-0.09-1.092-0.611-1.275C59.092,39.98,58.831,39.99,58.6,40.09z"/>
</svg>
