<?xml version="1.0" encoding="utf-8"?>
<!-- Generator: Adobe Illustrator 15.0.0, SVG Export Plug-In . SVG Version: 6.00 Build 0)  -->
<!DOCTYPE svg PUBLIC "-//W3C//DTD SVG 1.1//EN" "http://www.w3.org/Graphics/SVG/1.1/DTD/svg11.dtd">
<svg version="1.1" id="Layer_1" xmlns="http://www.w3.org/2000/svg" xmlns:xlink="http://www.w3.org/1999/xlink" x="0px" y="0px"
	 width="64px" height="64px" viewBox="0 0 64 64" enable-background="new 0 0 64 64" xml:space="preserve">
<title>iphone</title>
<path fill="#A9A9A9" d="M20,60h24c2.209,0,4-1.791,4-4V8c0-2.209-1.791-4-4-4H20c-2.209,0-4,1.791-4,4v48C16,58.209,17.791,60,20,60
	z M46,50H18V14h28V50z M44,58H20c-1.104,0-2-0.896-2-2v-4h28v4C46,57.104,45.104,58,44,58z M20,6h24c1.104,0,2,0.896,2,2v4H18V8
	C18,6.896,18.896,6,20,6z"/>
<path fill="#A9A9A9" d="M31,10h6c0.553,0,1-0.448,1-1s-0.447-1-1-1h-6c-0.552,0-1,0.448-1,1S30.448,10,31,10z"/>
<path fill="#A9A9A9" d="M27,10c0.266,0.001,0.521-0.103,0.71-0.29c0.389-0.392,0.386-1.025-0.006-1.414
	c-0.392-0.389-1.025-0.386-1.414,0.006C26.105,8.487,26.001,8.738,26,9C26,9.552,26.448,10,27,10z"/>
<path fill="#A9A9A9" d="M33,54h-2c-0.552,0-1,0.447-1,1s0.448,1,1,1h2c0.553,0,1-0.447,1-1S33.553,54,33,54z"/>
</svg>
