<?xml version="1.0" encoding="utf-8"?>
<!-- Generator: Adobe Illustrator 15.0.0, SVG Export Plug-In . SVG Version: 6.00 Build 0)  -->
<!DOCTYPE svg PUBLIC "-//W3C//DTD SVG 1.1//EN" "http://www.w3.org/Graphics/SVG/1.1/DTD/svg11.dtd">
<svg version="1.1" id="Layer_1" xmlns="http://www.w3.org/2000/svg" xmlns:xlink="http://www.w3.org/1999/xlink" x="0px" y="0px"
	 width="64px" height="64px" viewBox="0 0 64 64" enable-background="new 0 0 64 64" xml:space="preserve">
<title>apple</title>
<path fill="#FFFFFF" d="M41.8,19.2c-4.1-0.3-7.5,2.3-9.5,2.3s-5-2.2-8.2-2.2c-4.249,0.145-8.115,2.495-10.2,6.2
	c-4.4,7.6-1.1,18.8,3.1,25c2.1,3,4.6,6.4,7.8,6.3c3.2-0.1,4.3-2,8.101-2c3.801,0,4.899,2,8.199,2c3.301,0,5.5-3.1,7.602-6.1
	c1.484-2.146,2.632-4.507,3.398-7c-5.522-2.365-8.084-8.761-5.72-14.284c0.919-2.146,2.503-3.94,4.521-5.116
	C48.857,21.242,45.475,19.346,41.8,19.2"/>
<path fill="#FFFFFF" d="M39.3,15.1c1.854-2.199,2.787-5.03,2.601-7.9C39.07,7.489,36.46,8.849,34.6,11
	c-1.879,2.105-2.819,4.886-2.6,7.7C34.7,18.9,37.6,17.2,39.3,15.1"/>
</svg>
