<?xml version="1.0" encoding="utf-8"?>
<!-- Generator: Adobe Illustrator 15.0.0, SVG Export Plug-In . SVG Version: 6.00 Build 0)  -->
<!DOCTYPE svg PUBLIC "-//W3C//DTD SVG 1.1//EN" "http://www.w3.org/Graphics/SVG/1.1/DTD/svg11.dtd">
<svg version="1.1" id="Layer_1" xmlns="http://www.w3.org/2000/svg" xmlns:xlink="http://www.w3.org/1999/xlink" x="0px" y="0px"
	 width="64px" height="64px" viewBox="0 0 64 64" enable-background="new 0 0 64 64" xml:space="preserve">
<title>folder</title>
<path id="folder" fill="#FFFFFF" d="M59,20h-3v-2c0-2.209-1.791-4-4-4H28c-1.292,0.163-2.555-0.469-3.2-1.6
	c-1.021-1.64-2.875-2.567-4.8-2.4H8c-2.209,0-4,1.791-4,4v38c0,2.209,1.791,4,4,4h48c2.209,0,4-1.791,4-4V21
	C60,20.448,59.553,20,59,20z M8,21v33c-1.104,0-2-0.896-2-2V14c0-1.104,0.896-2,2-2h12c1.292-0.163,2.555,0.469,3.2,1.6
	c1.021,1.64,2.875,2.567,4.8,2.4h24c1.104,0,2,0.896,2,2v2H9C8.448,20,8,20.448,8,21z M58,52c0,1.104-0.896,2-2,2H10V22h48V52z"/>
</svg>
