<?xml version="1.0" encoding="utf-8"?>
<!-- Generator: Adobe Illustrator 15.0.0, SVG Export Plug-In . SVG Version: 6.00 Build 0)  -->
<!DOCTYPE svg PUBLIC "-//W3C//DTD SVG 1.1//EN" "http://www.w3.org/Graphics/SVG/1.1/DTD/svg11.dtd">
<svg version="1.1" id="Layer_1" xmlns="http://www.w3.org/2000/svg" xmlns:xlink="http://www.w3.org/1999/xlink" x="0px" y="0px"
	 width="64px" height="64px" viewBox="0 0 64 64" enable-background="new 0 0 64 64" xml:space="preserve">
<title>signpost</title>
<path id="signpost" fill="#FFFFFF" d="M57.71,19.29l-9-9C48.521,10.103,48.266,9.999,48,10H34V5c0-0.552-0.447-1-1-1h-4
	c-0.552,0-1,0.448-1,1v5H7c-0.552,0-1,0.448-1,1v18c0,0.552,0.448,1,1,1h21v29c0,0.553,0.448,1,1,1h4c0.553,0,1-0.447,1-1V30h14
	c0.266,0.001,0.521-0.103,0.71-0.29l9-9c0.392-0.389,0.395-1.022,0.006-1.414C57.714,19.294,57.712,19.292,57.71,19.29z M30,6h2v4
	h-2V6z M32,58h-2V30h2V58z M47.59,28H8V12h39.59l8,8L47.59,28z"/>
</svg>
