<?xml version="1.0" encoding="utf-8"?>
<!-- Generator: Adobe Illustrator 15.0.0, SVG Export Plug-In . SVG Version: 6.00 Build 0)  -->
<!DOCTYPE svg PUBLIC "-//W3C//DTD SVG 1.1//EN" "http://www.w3.org/Graphics/SVG/1.1/DTD/svg11.dtd">
<svg version="1.1" id="Layer_1" xmlns="http://www.w3.org/2000/svg" xmlns:xlink="http://www.w3.org/1999/xlink" x="0px" y="0px"
	 width="64px" height="64px" viewBox="0 0 64 64" enable-background="new 0 0 64 64" xml:space="preserve">
<title>file_download</title>
<path id="file_download" fill="#FFFFFF" d="M39.71,50.29c-0.39-0.388-1.021-0.388-1.41,0l-6.3,6.3V29c0-0.552-0.448-1-1-1
	s-1,0.448-1,1v27.59l-6.29-6.29c-0.419-0.358-1.051-0.31-1.41,0.109c-0.32,0.374-0.32,0.927,0,1.301l8,8
	c0.389,0.392,1.022,0.396,1.415,0.006c0.002-0.002,0.004-0.004,0.006-0.006l8-8c0.389-0.392,0.387-1.024-0.005-1.414
	C39.714,50.294,39.712,50.292,39.71,50.29z M49.71,17.29l-11-11C38.521,6.103,38.266,5.999,38,6H16c-2.209,0-4,1.791-4,4v40
	c0,2.209,1.791,4,4,4h3c0.552,0,1-0.447,1-1s-0.448-1-1-1h-3c-1.104,0-2-0.896-2-2V10c0-1.104,0.896-2,2-2h20v8c0,2.209,1.791,4,4,4
	h8v30c0,1.104-0.896,2-2,2h-3c-0.553,0-1,0.447-1,1s0.447,1,1,1h3c2.209,0,4-1.791,4-4V18C50.002,17.734,49.896,17.479,49.71,17.29z
	 M38,16V8.41L47.59,18H40C38.896,18,38,17.104,38,16z"/>
</svg>
