<?xml version="1.0" encoding="utf-8"?>
<!-- Generator: Adobe Illustrator 15.0.0, SVG Export Plug-In . SVG Version: 6.00 Build 0)  -->
<!DOCTYPE svg PUBLIC "-//W3C//DTD SVG 1.1//EN" "http://www.w3.org/Graphics/SVG/1.1/DTD/svg11.dtd">
<svg version="1.1" id="Layer_1" xmlns="http://www.w3.org/2000/svg" xmlns:xlink="http://www.w3.org/1999/xlink" x="0px" y="0px"
	 width="24px" height="24px" viewBox="0 0 24 24" enable-background="new 0 0 24 24" xml:space="preserve">
<title>3434</title>
<path fill="#A9A9A9" d="M22.51,10.31h-0.77v3.82h0.77c0.376-0.005,0.676-0.313,0.672-0.688c0-0.011-0.001-0.021-0.002-0.031V11
	C23.186,10.625,22.886,10.315,22.51,10.31L22.51,10.31z"/>
<path fill="#A9A9A9" d="M2.89,17.48h16.69c0.934,0,1.689-0.757,1.689-1.69l0,0V8.66C21.254,7.738,20.502,7,19.58,7H2.89
	C1.972,7.005,1.226,7.742,1.21,8.66v7.14C1.215,16.726,1.964,17.475,2.89,17.48z M2.16,8.66c0-0.403,0.327-0.73,0.73-0.73h16.69
	c0.403,0,0.73,0.327,0.73,0.73v7.14c0,0.403-0.327,0.73-0.73,0.73H2.89c-0.403,0-0.73-0.327-0.73-0.73V8.66z"/>
</svg>
