<?xml version="1.0" encoding="utf-8"?>
<!-- Generator: Adobe Illustrator 15.0.0, SVG Export Plug-In . SVG Version: 6.00 Build 0)  -->
<!DOCTYPE svg PUBLIC "-//W3C//DTD SVG 1.1//EN" "http://www.w3.org/Graphics/SVG/1.1/DTD/svg11.dtd">
<svg version="1.1" id="Layer_1" xmlns="http://www.w3.org/2000/svg" xmlns:xlink="http://www.w3.org/1999/xlink" x="0px" y="0px"
	 width="64px" height="64px" viewBox="0 0 64 64" enable-background="new 0 0 64 64" xml:space="preserve">
<title>notebook</title>
<path id="notebook" d="M45,22H23c-0.552,0-1-0.448-1-1s0.448-1,1-1h22c0.553,0,1,0.448,1,1S45.553,22,45,22z M41,28H27
	c-0.552,0-1-0.448-1-1s0.448-1,1-1h14c0.553,0,1,0.448,1,1S41.553,28,41,28z M50,6H16c-2.209,0-4,1.791-4,4v4h-1
	c-0.552,0-1,0.448-1,1s0.448,1,1,1h1v4h-1c-0.552,0-1,0.448-1,1s0.448,1,1,1h1v4h-1c-0.552,0-1,0.448-1,1s0.448,1,1,1h1v4h-1
	c-0.552,0-1,0.448-1,1c0,0.553,0.448,1,1,1h1v4h-1c-0.552,0-1,0.447-1,1s0.448,1,1,1h1v4h-1c-0.552,0-1,0.447-1,1s0.448,1,1,1h1v4
	h-1c-0.552,0-1,0.447-1,1s0.448,1,1,1h1v4c0,2.209,1.791,4,4,4h34c2.209,0,4-1.791,4-4V10C54,7.791,52.209,6,50,6z M52,56
	c0,1.104-0.896,2-2,2H16c-1.104,0-2-0.896-2-2v-4h3c0.552,0,1-0.447,1-1s-0.448-1-1-1h-3v-4h3c0.552,0,1-0.447,1-1s-0.448-1-1-1h-3
	v-4h3c0.552,0,1-0.447,1-1s-0.448-1-1-1h-3v-4h3c0.552,0,1-0.447,1-1c0-0.552-0.448-1-1-1h-3v-4h3c0.552,0,1-0.448,1-1s-0.448-1-1-1
	h-3v-4h3c0.552,0,1-0.448,1-1s-0.448-1-1-1h-3v-4h3c0.552,0,1-0.448,1-1s-0.448-1-1-1h-3v-4c0-1.104,0.896-2,2-2h34
	c1.104,0,2,0.896,2,2V56z"/>
</svg>
