<?xml version="1.0" encoding="utf-8"?>
<!-- Generator: Adobe Illustrator 15.0.0, SVG Export Plug-In . SVG Version: 6.00 Build 0)  -->
<!DOCTYPE svg PUBLIC "-//W3C//DTD SVG 1.1//EN" "http://www.w3.org/Graphics/SVG/1.1/DTD/svg11.dtd">
<svg version="1.1" id="Layer_1" xmlns="http://www.w3.org/2000/svg" xmlns:xlink="http://www.w3.org/1999/xlink" x="0px" y="0px"
	 width="64px" height="64px" viewBox="0 0 64 64" enable-background="new 0 0 64 64" xml:space="preserve">
<title>db_tick</title>
<path id="db_tick" fill="#FFFFFF" d="M23,6C13.54,6,4,7.85,4,12v36c0,4.15,9.54,6,19,6c0.552,0,1-0.447,1-1s-0.448-1-1-1
	c-10.95,0-17-2.37-17-4v-9.09C9.28,41,16.15,42,23,42s13.721-1,17-3.09V48c0,0.53-0.87,1.439-3.32,2.27
	c-0.523,0.174-0.811,0.738-0.638,1.264c0.136,0.412,0.522,0.691,0.958,0.688c0.109,0.002,0.217-0.016,0.32-0.05
	C40.43,51.109,42,49.71,42,48V12C42,7.85,32.46,6,23,6z M40,24c0,1.64-6.061,4-17,4c-10.94,0-17-2.37-17-4v-9.09
	C9.28,17,16.15,18,23,18s13.721-1,17-3.09V24z M23,8c10.95,0,17,2.36,17,4s-6.061,4-17,4c-10.94,0-17-2.37-17-4S12.05,8,23,8z
	 M23,40c-10.95,0-17-2.37-17-4v-9.09C9.28,29,16.15,30,23,30s13.721-1,17-3.09V36C40,37.63,33.939,40,23,40z M57.71,38.29
	c-0.39-0.388-1.021-0.388-1.41,0L37,57.59l-9.29-9.29c-0.419-0.358-1.051-0.31-1.41,0.109c-0.32,0.374-0.32,0.927,0,1.301l10,10
	c0.39,0.388,1.021,0.388,1.41,0l0,0l0,0l20-20c0.392-0.39,0.396-1.022,0.006-1.414C57.714,38.294,57.712,38.292,57.71,38.29z"/>
</svg>
