<?xml version="1.0" encoding="utf-8"?>
<!-- Generator: Adobe Illustrator 15.0.0, SVG Export Plug-In . SVG Version: 6.00 Build 0)  -->
<!DOCTYPE svg PUBLIC "-//W3C//DTD SVG 1.1//EN" "http://www.w3.org/Graphics/SVG/1.1/DTD/svg11.dtd">
<svg version="1.1" id="图层_1" xmlns="http://www.w3.org/2000/svg" xmlns:xlink="http://www.w3.org/1999/xlink" x="0px" y="0px"
	 width="24px" height="24px" viewBox="0 0 24 24" enable-background="new 0 0 24 24" xml:space="preserve">
<path d="M11.499,0C5.17,0,0.012,5.148,0,11.478c-0.006,3.072,1.184,5.961,3.352,8.139C5.52,21.792,8.405,22.994,11.478,23H11.5
	c6.328,0,11.486-5.148,11.5-11.479C23.012,5.181,17.863,0.012,11.499,0z M17.5,12.012L5.499,12c-0.276-0.001-0.5-0.225-0.499-0.501
	C5,11.224,5.224,11,5.5,11l12,0.012c0.275,0,0.5,0.224,0.5,0.5C17.999,11.788,17.775,12.012,17.5,12.012z"/>
</svg>
