<?xml version="1.0" encoding="utf-8"?>
<!-- Generator: Adobe Illustrator 15.0.0, SVG Export Plug-In . SVG Version: 6.00 Build 0)  -->
<!DOCTYPE svg PUBLIC "-//W3C//DTD SVG 1.1//EN" "http://www.w3.org/Graphics/SVG/1.1/DTD/svg11.dtd">
<svg version="1.1" id="Layer_1" xmlns="http://www.w3.org/2000/svg" xmlns:xlink="http://www.w3.org/1999/xlink" x="0px" y="0px"
	 width="64px" height="64px" viewBox="0 0 64 64" enable-background="new 0 0 64 64" xml:space="preserve">
<title>ui_@</title>
<path id="ui__" fill="#A9A9A9" d="M56,10H8c-2.209,0-4,1.791-4,4v38c0,2.209,1.791,4,4,4h48c2.209,0,4-1.791,4-4V14
	C60,11.791,58.209,10,56,10z M8,12h48c1.104,0,2,0.896,2,2v6H6v-6C6,12.896,6.896,12,8,12z M56,54H8c-1.104,0-2-0.896-2-2V22h52v30
	C58,53.104,57.104,54,56,54z M52,14c1.104,0,2,0.896,2,2s-0.896,2-2,2s-2-0.896-2-2S50.896,14,52,14z M46,14c1.104,0,2,0.896,2,2
	s-0.896,2-2,2s-2-0.896-2-2S44.896,14,46,14z M40,14c1.104,0,2,0.896,2,2s-0.896,2-2,2s-2-0.896-2-2S38.896,14,40,14z M32.19,50
	c-6.627,0-12-5.373-12-12c0-6.627,5.373-12,12-12c7.23,0,11.91,3.85,11.91,9.8c-0.056,2.436-1.107,4.741-2.91,6.38
	c-1.21,1.271-2.865,2.023-4.619,2.101c-0.805,0.014-1.561-0.387-2-1.061c-0.487-1.081-0.487-2.319,0-3.399l2.76-7.67
	c0.202-0.514,0.783-0.766,1.297-0.564c0.494,0.195,0.749,0.74,0.583,1.244l-2.771,7.699c-0.232,0.508-0.289,1.078-0.16,1.621
	c0.108,0.093,0.248,0.14,0.391,0.129c1.199-0.117,2.314-0.672,3.13-1.56c1.408-1.256,2.239-3.034,2.3-4.92c0-4.81-3.8-7.8-9.91-7.8
	c-5.523,0-10,4.477-10,10c0,5.523,4.477,10,10,10c3.505,0.096,6.872-1.369,9.19-4c0.331-0.447,0.963-0.541,1.41-0.21
	s0.542,0.962,0.21,1.41C40.3,48.342,36.331,50.104,32.19,50z M30,45.1c-2.557,0.166-4.765-1.772-4.931-4.33
	c-0.013-0.203-0.013-0.406,0-0.609c-0.226-4.551,3.279-8.423,7.831-8.65c0.133-0.007,0.266-0.01,0.399-0.01
	c1.507-0.092,2.962,0.571,3.88,1.77c0.797,1.219,0.953,2.746,0.42,4.101c-0.202,0.514-0.783,0.767-1.297,0.563
	c-0.493-0.194-0.749-0.74-0.582-1.244c0.308-0.741,0.24-1.586-0.181-2.27c-0.548-0.658-1.388-1.003-2.24-0.92
	c-3.484,0.051-6.269,2.916-6.218,6.4c0.001,0.083,0.004,0.166,0.008,0.25c-0.167,1.459,0.88,2.778,2.339,2.945
	C29.619,43.117,29.81,43.119,30,43.1c2.032-0.093,3.82-1.369,4.57-3.26c0.224-0.505,0.814-0.732,1.319-0.509
	c0.474,0.21,0.709,0.748,0.54,1.239C35.363,43.213,32.848,44.984,30,45.1z"/>
</svg>
