<?xml version="1.0" encoding="utf-8"?>
<!-- Generator: Adobe Illustrator 15.0.0, SVG Export Plug-In . SVG Version: 6.00 Build 0)  -->
<!DOCTYPE svg PUBLIC "-//W3C//DTD SVG 1.1//EN" "http://www.w3.org/Graphics/SVG/1.1/DTD/svg11.dtd">
<svg version="1.1" id="Layer_1" xmlns="http://www.w3.org/2000/svg" xmlns:xlink="http://www.w3.org/1999/xlink" x="0px" y="0px"
	 width="64px" height="64px" viewBox="0 0 64 64" enable-background="new 0 0 64 64" xml:space="preserve">
<title>file_attach</title>
<path id="file_attach" fill="#FFFFFF" d="M23,54H12c-2.209,0-4-1.791-4-4V10c0-2.209,1.791-4,4-4c0.552,0,1,0.448,1,1s-0.448,1-1,1
	c-1.104,0-2,0.896-2,2v40c0,1.104,0.896,2,2,2h11c0.552,0,1,0.447,1,1S23.552,54,23,54z M43,32c-0.553,0-1-0.448-1-1V18.41L31.59,8
	H12c-0.552,0-1-0.448-1-1s0.448-1,1-1h20c0.266-0.001,0.521,0.103,0.71,0.29l11,11c0.187,0.188,0.292,0.444,0.29,0.71v13
	C44,31.552,43.553,32,43,32z M43,20h-9c-2.209,0-4-1.791-4-4V7c0-0.552,0.448-1,1-1s1,0.448,1,1v9c0,1.104,0.896,2,2,2h9
	c0.553,0,1,0.448,1,1S43.553,20,43,20z M32,60c-1.574,0.007-3.089-0.596-4.23-1.68c-2.272-2.146-2.375-5.729-0.229-8.002
	c0.074-0.078,0.15-0.154,0.229-0.229L45.49,33.4c1.971-1.84,5.029-1.84,7,0c1.896,1.795,1.979,4.789,0.184,6.687
	c-0.061,0.063-0.121,0.124-0.184,0.183L38.8,53.13c-1.577,1.491-4.043,1.491-5.62,0c-1.348-1.276-1.576-3.34-0.539-4.88l-3.5,3.3
	c-1.475,1.383-1.549,3.698-0.167,5.173c0.054,0.059,0.109,0.113,0.167,0.168c1.596,1.51,4.094,1.51,5.69,0l12.49-11.58
	c0.406-0.376,1.039-0.352,1.414,0.055c0.376,0.406,0.352,1.039-0.055,1.415l0,0L36.221,58.33C35.082,59.412,33.57,60.011,32,60z
	 M42,39.76c0.553,0.002,0.998,0.451,0.996,1.004c0,0.275-0.115,0.538-0.316,0.727l-8.119,7.56c-0.725,0.683-0.758,1.821-0.076,2.545
	c0.024,0.025,0.05,0.051,0.076,0.075c0.802,0.76,2.057,0.76,2.859,0l13.721-12.85c1.104-1.026,1.168-2.754,0.141-3.858
	c-0.045-0.049-0.092-0.097-0.141-0.142c-1.199-1.132-3.072-1.132-4.271,0l-5.351,5C41.673,39.761,41.838,39.74,42,39.76z"/>
</svg>
