<?xml version="1.0" encoding="utf-8"?>
<!-- Generator: Adobe Illustrator 15.0.0, SVG Export Plug-In . SVG Version: 6.00 Build 0)  -->
<!DOCTYPE svg PUBLIC "-//W3C//DTD SVG 1.1//EN" "http://www.w3.org/Graphics/SVG/1.1/DTD/svg11.dtd">
<svg version="1.1" id="图层_1" xmlns="http://www.w3.org/2000/svg" xmlns:xlink="http://www.w3.org/1999/xlink" x="0px" y="0px"
	 width="24px" height="24px" viewBox="0 0 24 24" enable-background="new 0 0 24 24" xml:space="preserve">
<path fill="#FFFFFF" d="M18.92,6.01C18.721,5.42,18.16,5,17.5,5H15V3H9v2H6.5C5.84,5,5.29,5.42,5.08,6.01L3,12v8c0,0.55,0.45,1,1,1
	h1c0.55,0,1-0.45,1-1v-1h12v1c0,0.55,0.45,1,1,1h1c0.55,0,1-0.45,1-1v-8L18.92,6.01z M6.5,16C5.67,16,5,15.33,5,14.5S5.67,13,6.5,13
	S8,13.67,8,14.5S7.33,16,6.5,16z M17.5,16c-0.83,0-1.5-0.67-1.5-1.5s0.67-1.5,1.5-1.5s1.5,0.67,1.5,1.5S18.33,16,17.5,16z M5,11
	l1.5-4.5h11L19,11H5z"/>
</svg>
