<?xml version="1.0" encoding="utf-8"?>
<!-- Generator: Adobe Illustrator 15.0.0, SVG Export Plug-In . SVG Version: 6.00 Build 0)  -->
<!DOCTYPE svg PUBLIC "-//W3C//DTD SVG 1.1//EN" "http://www.w3.org/Graphics/SVG/1.1/DTD/svg11.dtd">
<svg version="1.1" id="Layer_1" xmlns="http://www.w3.org/2000/svg" xmlns:xlink="http://www.w3.org/1999/xlink" x="0px" y="0px"
	 width="64px" height="64px" viewBox="0 0 64 64" enable-background="new 0 0 64 64" xml:space="preserve">
<title>reset</title>
<path fill="#A9A9A9" d="M36,8c-12.738-0.021-23.273,9.913-24,22.63L5.71,24.3c-0.359-0.419-0.99-0.468-1.41-0.109
	c-0.419,0.359-0.468,0.991-0.109,1.41c0.034,0.039,0.07,0.076,0.109,0.109l8,8c0.187,0.185,0.438,0.289,0.7,0.29
	c0.266,0.002,0.521-0.103,0.71-0.29l8-8c0.359-0.419,0.311-1.051-0.109-1.41c-0.375-0.32-0.927-0.32-1.301,0l-6.24,6.24
	c0.801-12.124,11.279-21.303,23.403-20.501c12.124,0.801,21.303,11.279,20.502,23.403c-0.803,12.124-11.279,21.302-23.404,20.501
	c-9.013-0.596-16.746-6.641-19.5-15.243c-0.168-0.528-0.732-0.819-1.26-0.65c-0.527,0.169-0.818,0.733-0.65,1.261
	c4.037,12.625,17.545,19.586,30.17,15.549c12.625-4.037,19.586-17.545,15.549-30.169C55.689,14.744,46.442,7.996,36,8z"/>
</svg>
