<?xml version="1.0" encoding="utf-8"?>
<!-- Generator: Adobe Illustrator 15.0.0, SVG Export Plug-In . SVG Version: 6.00 Build 0)  -->
<!DOCTYPE svg PUBLIC "-//W3C//DTD SVG 1.1//EN" "http://www.w3.org/Graphics/SVG/1.1/DTD/svg11.dtd">
<svg version="1.1" id="图层_1" xmlns="http://www.w3.org/2000/svg" xmlns:xlink="http://www.w3.org/1999/xlink" x="0px" y="0px"
	 width="24px" height="24px" viewBox="0 0 24 24" enable-background="new 0 0 24 24" xml:space="preserve">
<g>
	<path fill="#A9A9A9" d="M23.908,11.689C23.691,11.416,18.534,5,12.016,5S0.34,11.416,0.124,11.689
		c-0.144,0.182-0.144,0.439,0,0.621C0.34,12.584,5.497,19,12.016,19s11.675-6.416,11.892-6.689
		C24.052,12.129,24.052,11.871,23.908,11.689z M12.016,18c-5.247,0-9.734-4.729-10.845-6c1.111-1.271,5.598-6,10.845-6
		c5.248,0,9.734,4.729,10.845,6C21.75,13.271,17.264,18,12.016,18z M12.016,7.5c-2.481,0-4.5,2.019-4.5,4.5
		c0,2.48,2.019,4.5,4.5,4.5s4.5-2.02,4.5-4.5C16.516,9.519,14.497,7.5,12.016,7.5z M12.016,15.5c-1.93,0-3.5-1.57-3.5-3.5
		c0-1.93,1.57-3.5,3.5-3.5c1.929,0,3.5,1.57,3.5,3.5C15.516,13.93,13.945,15.5,12.016,15.5z"/>
</g>
</svg>
