<?xml version="1.0" encoding="utf-8"?>
<!-- Generator: Adobe Illustrator 15.0.0, SVG Export Plug-In . SVG Version: 6.00 Build 0)  -->
<!DOCTYPE svg PUBLIC "-//W3C//DTD SVG 1.1//EN" "http://www.w3.org/Graphics/SVG/1.1/DTD/svg11.dtd">
<svg version="1.1" id="图层_1" xmlns="http://www.w3.org/2000/svg" xmlns:xlink="http://www.w3.org/1999/xlink" x="0px" y="0px"
	 width="24px" height="24px" viewBox="0 0 24 24" enable-background="new 0 0 24 24" xml:space="preserve">
<path fill="#FFFFFF" d="M12.016,0c-3.477,0-6,2.733-6,6.5V19c0,2.896,1.893,5,4.5,5s4.5-2.104,4.5-5V9.5c0-2.093-1.205-3.5-3-3.5
	c-1.794,0-3,1.407-3,3.5V17c0,0.275,0.224,0.5,0.5,0.5s0.5-0.225,0.5-0.5V9.5c0-1.208,0.525-2.5,2-2.5s2,1.292,2,2.5V19
	c0,2.355-1.438,4-3.5,4s-3.5-1.645-3.5-4V6.5c0-3.187,2.103-5.5,5-5.5s5,2.313,5,5.5v9c0,0.275,0.226,0.5,0.5,0.5
	c0.276,0,0.5-0.225,0.5-0.5v-9C18.016,2.733,15.492,0,12.016,0z"/>
</svg>
