<?xml version="1.0" encoding="utf-8"?>
<!-- Generator: Adobe Illustrator 15.0.0, SVG Export Plug-In . SVG Version: 6.00 Build 0)  -->
<!DOCTYPE svg PUBLIC "-//W3C//DTD SVG 1.1//EN" "http://www.w3.org/Graphics/SVG/1.1/DTD/svg11.dtd">
<svg version="1.1" id="Layer_1" xmlns="http://www.w3.org/2000/svg" xmlns:xlink="http://www.w3.org/1999/xlink" x="0px" y="0px"
	 width="64px" height="64px" viewBox="0 0 64 64" enable-background="new 0 0 64 64" xml:space="preserve">
<title>map_pins</title>
<path id="map_pins" fill="#A9A9A9" d="M31,60L31,60c-0.393-0.001-0.749-0.231-0.91-0.59L17.52,31.58
	C16.512,29.533,15.992,27.281,16,25c0-8.284,6.716-15,15-15s15,6.716,15,15c0.008,2.295-0.516,4.561-1.529,6.62L31.91,59.41
	C31.749,59.769,31.393,59.999,31,60z M31,12c-7.18,0-13,5.82-13,13c-0.006,1.987,0.45,3.949,1.33,5.73L31,56.57L42.66,30.76
	c0.888-1.79,1.346-3.762,1.34-5.76C44,17.82,38.18,12,31,12z M31,32c-3.866,0-7-3.134-7-7s3.134-7,7-7s7,3.134,7,7S34.866,32,31,32z
	 M31,20c-2.761,0-5,2.239-5,5s2.239,5,5,5c2.762,0,5-2.239,5-5S33.762,20,31,20z M48.84,23.55c-0.553,0.002-1.002-0.443-1.004-0.996
	c-0.002-0.377,0.209-0.722,0.544-0.894c1.473-0.759,2.052-2.568,1.292-4.042c-0.636-1.233-2.034-1.87-3.382-1.539
	c-0.541,0.112-1.069-0.236-1.182-0.777c-0.106-0.512,0.2-1.018,0.702-1.163c2.68-0.666,5.392,0.967,6.057,3.647
	c0.56,2.251-0.504,4.592-2.567,5.652C49.158,23.513,49,23.551,48.84,23.55z M47,50L47,50c-0.398,0.002-0.76-0.234-0.92-0.6L42.41,41
	c-0.194-0.518,0.067-1.094,0.584-1.288c0.479-0.18,1.017,0.03,1.246,0.488L47,46.49L57.4,22.6c0.4-1.158,0.604-2.375,0.6-3.6
	c0.004-6.075-4.917-11.003-10.992-11.008c-2.354-0.002-4.645,0.751-6.537,2.148c-0.445,0.329-1.072,0.234-1.4-0.21
	c-0.329-0.445-0.234-1.072,0.209-1.4C41.514,6.876,44.221,5.988,47,6c7.18-0.001,13.001,5.818,13.002,12.998
	c0,1.476-0.25,2.941-0.742,4.333L47.92,49.4C47.76,49.766,47.398,50.002,47,50z M13.16,23.55c-0.16,0.001-0.318-0.037-0.46-0.11
	c-2.457-1.262-3.425-4.276-2.163-6.732c1.06-2.064,3.401-3.127,5.652-2.568c0.541,0.112,0.889,0.641,0.777,1.182
	c-0.112,0.541-0.641,0.889-1.182,0.777c-0.025-0.005-0.05-0.012-0.075-0.019c-1.609-0.395-3.234,0.589-3.629,2.198
	c-0.331,1.347,0.306,2.746,1.539,3.382c0.491,0.251,0.686,0.854,0.434,1.346C13.882,23.341,13.537,23.552,13.16,23.55z M15,50
	c-0.399,0.002-0.76-0.234-0.92-0.6l-11.31-26C0.339,16.645,3.845,9.197,10.601,6.766C14.679,5.299,19.22,5.96,22.71,8.53
	c0.445,0.328,0.539,0.955,0.21,1.4c-0.329,0.444-0.956,0.539-1.4,0.21C16.627,6.539,9.742,7.585,6.141,12.479
	C3.979,15.415,3.413,19.232,4.63,22.67L15,46.49l2.76-6.33c0.194-0.518,0.771-0.779,1.288-0.584
	c0.517,0.193,0.779,0.771,0.584,1.287c-0.013,0.033-0.026,0.065-0.042,0.097l-3.67,8.44C15.76,49.766,15.399,50.002,15,50z"/>
</svg>
