<?xml version="1.0" encoding="utf-8"?>
<!-- Generator: Adobe Illustrator 15.0.0, SVG Export Plug-In . SVG Version: 6.00 Build 0)  -->
<!DOCTYPE svg PUBLIC "-//W3C//DTD SVG 1.1//EN" "http://www.w3.org/Graphics/SVG/1.1/DTD/svg11.dtd">
<svg version="1.1" id="Layer_1" xmlns="http://www.w3.org/2000/svg" xmlns:xlink="http://www.w3.org/1999/xlink" x="0px" y="0px"
	 width="64px" height="64px" viewBox="0 0 64 64" enable-background="new 0 0 64 64" xml:space="preserve">
<title>user_plus_2</title>
<path id="user_plus_2" fill="#A9A9A9" d="M57,46H46V35c0-0.553-0.447-1-1-1s-1,0.447-1,1v11H33c-0.552,0-1,0.447-1,1s0.448,1,1,1h11
	v11c0,0.553,0.447,1,1,1s1-0.447,1-1V48h11c0.553,0,1-0.447,1-1S57.553,46,57,46z M39.54,29.72c-2.214-1.438-4.66-2.484-7.23-3.09
	c5.321-2.933,7.256-9.623,4.323-14.943c-2.932-5.32-9.623-7.256-14.943-4.323s-7.256,9.623-4.323,14.943
	c1.003,1.821,2.502,3.32,4.323,4.323C11.324,29.09,4.004,38.346,4,49c0,0.553,0.448,1,1,1s1-0.447,1-1
	c-0.003-11.598,9.396-21.003,20.994-21.006c4.067-0.001,8.047,1.178,11.456,3.396c0.483,0.266,1.092,0.089,1.358-0.395
	C40.046,30.562,39.932,30.021,39.54,29.72z M18,17c0-4.971,4.029-9,9-9s9,4.029,9,9s-4.029,9-9,9S18,21.971,18,17z"/>
</svg>
