<?xml version="1.0" encoding="utf-8"?>
<!-- Generator: Adobe Illustrator 15.0.0, SVG Export Plug-In . SVG Version: 6.00 Build 0)  -->
<!DOCTYPE svg PUBLIC "-//W3C//DTD SVG 1.1//EN" "http://www.w3.org/Graphics/SVG/1.1/DTD/svg11.dtd">
<svg version="1.1" id="Layer_1" xmlns="http://www.w3.org/2000/svg" xmlns:xlink="http://www.w3.org/1999/xlink" x="0px" y="0px"
	 width="64px" height="64px" viewBox="0 0 64 64" enable-background="new 0 0 64 64" xml:space="preserve">
<title>document</title>
<path id="document" fill="#A9A9A9" d="M51.71,17.29l-11-11C40.521,6.103,40.266,5.999,40,6H14c-2.209,0-4,1.791-4,4v46
	c0,2.209,1.791,4,4,4h34c2.209,0,4-1.791,4-4V18C52.002,17.734,51.896,17.479,51.71,17.29z M49.59,18H42c-1.104,0-2-0.896-2-2V8.41
	L49.59,18z M48,58H14c-1.104,0-2-0.896-2-2V10c0-1.104,0.896-2,2-2h24v8c0,2.209,1.791,4,4,4h8v36C50,57.104,49.104,58,48,58z"/>
</svg>
