<?xml version="1.0" encoding="utf-8"?>
<!-- Generator: Adobe Illustrator 15.0.0, SVG Export Plug-In . SVG Version: 6.00 Build 0)  -->
<!DOCTYPE svg PUBLIC "-//W3C//DTD SVG 1.1//EN" "http://www.w3.org/Graphics/SVG/1.1/DTD/svg11.dtd">
<svg version="1.1" id="Layer_1" xmlns="http://www.w3.org/2000/svg" xmlns:xlink="http://www.w3.org/1999/xlink" x="0px" y="0px"
	 width="64px" height="64px" viewBox="0 0 64 64" enable-background="new 0 0 64 64" xml:space="preserve">
<title>wrist_watch</title>
<path d="M31,34h6c0.553,0,1-0.447,1-1c0-0.552-0.447-1-1-1h-5v-7c0-0.552-0.448-1-1-1s-1,0.448-1,1v8C30,33.553,30.448,34,31,34z"/>
<path d="M25,62h12c2.08,0,3-0.93,3-3v-7.91L42,40c0.783-1.229,1.351-2.581,1.68-4H47c0.553,0,1-0.447,1-1v-4c0-0.552-0.447-1-1-1
	h-3.359c-0.32-1.416-0.875-2.768-1.641-4l-2-11.09V7c0-2.07-0.92-3-3-3H25c-2,0-3,0.95-3,3v7.91L20,26
	c-2.745,4.263-2.745,9.736,0,14l2,11.12V59C22,61,23,62,25,62z M23.84,16h14.32l1.25,7.1c-4.852-4.116-11.969-4.116-16.82,0
	L23.84,16z M38.16,50H23.84l-1.25-7.1c4.852,4.115,11.969,4.115,16.82,0L38.16,50z M37,60H25c-0.94,0-1-0.061-1-1v-7h14v7
	C38,60,38,60,37,60z M46,32v2h-2c0-0.33,0-0.66,0-1s0-0.67,0-1H46z M25,6h12c1,0,1,0,1,1v7H24V7C24,6.06,24.06,6,25,6z M31,22
	c6.075,0,11,4.925,11,11s-4.925,11-11,11s-11-4.925-11-11S24.925,22,31,22z"/>
</svg>
