<?xml version="1.0" encoding="utf-8"?>
<!-- Generator: Adobe Illustrator 15.0.0, SVG Export Plug-In . SVG Version: 6.00 Build 0)  -->
<!DOCTYPE svg PUBLIC "-//W3C//DTD SVG 1.1//EN" "http://www.w3.org/Graphics/SVG/1.1/DTD/svg11.dtd">
<svg version="1.1" id="Layer_1" xmlns="http://www.w3.org/2000/svg" xmlns:xlink="http://www.w3.org/1999/xlink" x="0px" y="0px"
	 width="64px" height="64px" viewBox="0 0 64 64" enable-background="new 0 0 64 64" xml:space="preserve">
<title>mortar_board</title>
<path d="M63.48,25.12l-31-17c-0.31-0.179-0.69-0.179-1,0l-31,17c-0.486,0.262-0.667,0.869-0.405,1.355
	c0.092,0.171,0.233,0.312,0.405,0.405l11,6C10.474,35.468,9.971,38.224,10,41v4c0,0.553,0.448,1,1,1c1.68,0,3.356,0.174,5,0.52V57
	c0,0.553,0.448,1,1,1s1-0.447,1-1V47c5.588,1.559,10.307,5.314,13.08,10.41c0.143,0.324,0.447,0.549,0.8,0.59H32
	c0.375,0.001,0.718-0.207,0.891-0.54C36.471,50.5,44.37,46,53,46c0.553,0,1-0.447,1-1v-4c0.004-2.767-0.518-5.509-1.54-8.08l11-6
	c0.5-0.235,0.714-0.831,0.479-1.331C63.844,25.386,63.682,25.22,63.48,25.12z M12,44v-3c0.001-2.429,0.452-4.836,1.33-7.1L16,35.37
	v9.12C14.682,44.221,13.344,44.057,12,44z M52,41v3c-8.33,0.311-15.92,4.5-20,11c-3.265-4.954-8.254-8.519-14-10v-8.54l13.52,7.41
	c0.145,0.087,0.311,0.132,0.48,0.13c0.167,0.001,0.333-0.041,0.48-0.12l18.19-10C51.551,36.15,52.002,38.564,52,41z M32,41.859
	l-12.79-7l13.31-8c0.512-0.21,0.754-0.795,0.544-1.306c-0.21-0.51-0.795-0.754-1.306-0.543c-0.085,0.035-0.166,0.082-0.238,0.139
	L17.18,33.73L3.08,26L32,10.14L60.92,26L32,41.859z"/>
</svg>
