<?xml version="1.0" encoding="utf-8"?>
<!-- Generator: Adobe Illustrator 15.0.0, SVG Export Plug-In . SVG Version: 6.00 Build 0)  -->
<!DOCTYPE svg PUBLIC "-//W3C//DTD SVG 1.1//EN" "http://www.w3.org/Graphics/SVG/1.1/DTD/svg11.dtd">
<svg version="1.1" id="Layer_1" xmlns="http://www.w3.org/2000/svg" xmlns:xlink="http://www.w3.org/1999/xlink" x="0px" y="0px"
	 width="64px" height="64px" viewBox="0 0 64 64" enable-background="new 0 0 64 64" xml:space="preserve">
<title>map_pin_2</title>
<path id="map_pin_2" fill="#FFFFFF" d="M48,36.82c-0.141-4.312-4.34-8.7-10-10.521V11.65c3.721-1.8,6-5.78,6-8.65
	c0-0.552-0.447-1-1-1H19c-0.552,0-1,0.448-1,1c0,2.86,2.28,6.85,6,8.65V26.3c-5.74,1.86-10,6.36-10,10.7c0,0.553,0.448,1,1,1h15v23
	c0,0.553,0.448,1,1,1s1-0.447,1-1V38h15c0.553,0.009,1.008-0.432,1.016-0.982C48.018,36.951,48.012,36.885,48,36.82z M26,12h10v14
	H26V12z M20.11,4h21.781c-0.697,2.666-2.565,4.873-5.08,6H25.2C22.683,8.874,20.811,6.667,20.11,4z M16.11,36c0.62-3,3.89-6.58,9-8
	h11.74c5.142,1.46,8.42,5,9,8H16.11z"/>
</svg>
