<?xml version="1.0" encoding="utf-8"?>
<!-- Generator: Adobe Illustrator 15.0.0, SVG Export Plug-In . SVG Version: 6.00 Build 0)  -->
<!DOCTYPE svg PUBLIC "-//W3C//DTD SVG 1.1//EN" "http://www.w3.org/Graphics/SVG/1.1/DTD/svg11.dtd">
<svg version="1.1" id="Layer_1" xmlns="http://www.w3.org/2000/svg" xmlns:xlink="http://www.w3.org/1999/xlink" x="0px" y="0px"
	 width="64px" height="64px" viewBox="0 0 64 64" enable-background="new 0 0 64 64" xml:space="preserve">
<title>twitter</title>
<path fill="#FFFFFF" d="M56.3,17.9c-1.769,0.814-3.661,1.321-5.6,1.5c2.024-1.238,3.547-3.15,4.3-5.4
	c-1.927,1.123-4.02,1.933-6.2,2.4c-3.636-3.927-9.767-4.163-13.693-0.526C33.121,17.711,31.996,20.295,32,23
	c-0.005,0.744,0.096,1.485,0.3,2.2c-7.792-0.4-15.053-4.067-20-10.1c-0.837,1.499-1.285,3.183-1.3,4.9
	c-0.001,3.247,1.61,6.282,4.3,8.1c-1.543-0.03-3.055-0.442-4.4-1.2V27c-0.01,4.626,3.261,8.609,7.8,9.5
	c-0.852,0.204-1.725,0.305-2.6,0.3c-0.604-0.017-1.207-0.084-1.8-0.2c1.226,3.995,4.922,6.717,9.1,6.7
	c-3.416,2.706-7.642,4.186-12,4.2c-0.768,0.019-1.536-0.015-2.3-0.1c4.432,2.887,9.611,4.416,14.9,4.399c17.8,0,27.6-14.8,27.6-27.6
	v-1.3C53.461,21.537,55.055,19.841,56.3,17.9z"/>
</svg>
