<?xml version="1.0" encoding="utf-8"?>
<!-- Generator: Adobe Illustrator 15.0.0, SVG Export Plug-In . SVG Version: 6.00 Build 0)  -->
<!DOCTYPE svg PUBLIC "-//W3C//DTD SVG 1.1//EN" "http://www.w3.org/Graphics/SVG/1.1/DTD/svg11.dtd">
<svg version="1.1" id="Layer_1" xmlns="http://www.w3.org/2000/svg" xmlns:xlink="http://www.w3.org/1999/xlink" x="0px" y="0px"
	 width="64px" height="64px" viewBox="0 0 64 64" enable-background="new 0 0 64 64" xml:space="preserve">
<title>top_charts</title>
<path id="top_charts" fill="#FFFFFF" d="M13.82,20.16L10,17.36l-3.82,2.8l1.52-4.54l-3.75-2.75h4.58L10,8.46l1.47,4.41h4.58
	l-3.75,2.75L13.82,20.16z M13.82,38.16L10,35.359L6.18,38.16l1.52-4.54l-3.75-2.75h4.58L10,26.46l1.47,4.41h4.58l-3.75,2.75
	L13.82,38.16z M13.82,56.16L10,53.359L6.18,56.16l1.52-4.54l-3.75-2.75h4.58L10,44.46l1.47,4.41h4.58l-3.75,2.75L13.82,56.16z
	 M20,50h38v2H20V50z M20,32h38v2H20V32z M20,14h38v2H20V14z"/>
</svg>
