<?xml version="1.0" encoding="utf-8"?>
<!-- Generator: Adobe Illustrator 15.0.0, SVG Export Plug-In . SVG Version: 6.00 Build 0)  -->
<!DOCTYPE svg PUBLIC "-//W3C//DTD SVG 1.1//EN" "http://www.w3.org/Graphics/SVG/1.1/DTD/svg11.dtd">
<svg version="1.1" id="Layer_1" xmlns="http://www.w3.org/2000/svg" xmlns:xlink="http://www.w3.org/1999/xlink" x="0px" y="0px"
	 width="64px" height="64px" viewBox="0 0 64 64" enable-background="new 0 0 64 64" xml:space="preserve">
<title>reverse_arrow</title>
<path fill="#A9A9A9" d="M19.71,42.29c-0.39-0.388-1.02-0.388-1.41,0l-8,8c-0.094,0.095-0.169,0.206-0.22,0.33
	c-0.154,0.374-0.067,0.805,0.22,1.09l8,8c0.187,0.185,0.438,0.289,0.7,0.29c0.266,0.002,0.521-0.103,0.71-0.29
	c0.388-0.39,0.388-1.021,0-1.41l-6.3-6.3H30c13.255,0,24-10.745,24-24S43.255,4,30,4H11c-0.552,0-1,0.448-1,1s0.448,1,1,1h19
	c12.15,0,22,9.85,22,22s-9.85,22-22,22H13.41l6.29-6.29c0.395-0.386,0.402-1.019,0.016-1.414
	C19.714,42.294,19.712,42.292,19.71,42.29z"/>
</svg>
