<?xml version="1.0" encoding="utf-8"?>
<!-- Generator: Adobe Illustrator 15.0.0, SVG Export Plug-In . SVG Version: 6.00 Build 0)  -->
<!DOCTYPE svg PUBLIC "-//W3C//DTD SVG 1.1//EN" "http://www.w3.org/Graphics/SVG/1.1/DTD/svg11.dtd">
<svg version="1.1" id="Layer_1" xmlns="http://www.w3.org/2000/svg" xmlns:xlink="http://www.w3.org/1999/xlink" x="0px" y="0px"
	 width="64px" height="64px" viewBox="0 0 64 64" enable-background="new 0 0 64 64" xml:space="preserve">
<title>sand_timer_end</title>
<path fill="#FFFFFF" d="M25.55,30.54C22.39,32.11,20,36.4,20,40.5V58h-3c-0.552,0-1,0.447-1,1s0.448,1,1,1h28c0.553,0,1-0.447,1-1
	s-0.447-1-1-1h-3V40.5c0-4.1-2.391-8.39-5.5-9.93c-0.234-0.117-0.414-0.322-0.5-0.57c0.057-0.271,0.215-0.51,0.439-0.67
	C40.08,27.53,42,24.65,42,21V4h3c0.553,0,1-0.448,1-1s-0.447-1-1-1H17c-0.552,0-1,0.448-1,1s0.448,1,1,1h3v17
	c0,3.65,1.92,6.53,5.5,8.3c0.254,0.157,0.434,0.409,0.5,0.7C25.926,30.232,25.765,30.426,25.55,30.54z M26.44,27.54
	C23.5,26.08,22,23.88,22,21V4h18v17c0,2.88-1.5,5.08-4.5,6.57c-0.871,0.512-1.434,1.422-1.5,2.43c0.07,0.996,0.658,1.881,1.55,2.33
	C38,33.57,40,37.16,40,40.5V58H22V40.5c0-3.34,2-6.93,4.5-8.2c0.866-0.453,1.434-1.324,1.5-2.3
	C27.927,28.97,27.341,28.045,26.44,27.54z"/>
<path fill="#FFFFFF" d="M24,39v16c0,0.553,0.448,1,1,1h12c0.553,0,1-0.447,1-1V39c-0.002-0.334-0.17-0.646-0.45-0.83l-6-4
	c-0.336-0.225-0.774-0.225-1.11,0l-6,4C24.165,38.355,24,38.668,24,39z M26,39.54l5-3.33l5,3.33V54H26V39.54z"/>
</svg>
