<?xml version="1.0" encoding="utf-8"?>
<!-- Generator: Adobe Illustrator 15.0.0, SVG Export Plug-In . SVG Version: 6.00 Build 0)  -->
<!DOCTYPE svg PUBLIC "-//W3C//DTD SVG 1.1//EN" "http://www.w3.org/Graphics/SVG/1.1/DTD/svg11.dtd">
<svg version="1.1" id="Layer_1" xmlns="http://www.w3.org/2000/svg" xmlns:xlink="http://www.w3.org/1999/xlink" x="0px" y="0px"
	 width="64px" height="64px" viewBox="0 0 64 64" enable-background="new 0 0 64 64" xml:space="preserve">
<title>arrows_out_2</title>
<path d="M7,20c0.552,0,1-0.448,1-1V9.41L24.29,25.7c0.187,0.19,0.443,0.299,0.71,0.3c0.266,0.001,0.521-0.103,0.71-0.29
	c0.388-0.39,0.388-1.02,0-1.41L9.41,8H19c0.552,0,1-0.448,1-1s-0.448-1-1-1H7C6.448,6,6,6.448,6,7v12C6,19.552,6.448,20,7,20z"/>
<path d="M45,6c-0.553,0-1,0.448-1,1s0.447,1,1,1h9.59l-16.3,16.29c-0.392,0.389-0.396,1.022-0.006,1.414
	C38.473,25.895,38.731,26.001,39,26c0.266,0.001,0.521-0.103,0.71-0.29L56,9.41V19c0,0.552,0.447,1,1,1s1-0.448,1-1V7
	c-0.002-0.131-0.029-0.26-0.08-0.38c-0.102-0.245-0.295-0.438-0.54-0.54C57.26,6.029,57.131,6.001,57,6H45z"/>
<path d="M6.62,57.92C6.74,57.971,6.869,57.998,7,58h12c0.552,0,1-0.447,1-1s-0.448-1-1-1H9.41L25.7,39.71
	c0.359-0.419,0.31-1.051-0.109-1.41c-0.375-0.32-0.926-0.32-1.301,0L8,54.59V45c0-0.553-0.448-1-1-1s-1,0.447-1,1v12
	c0.001,0.131,0.029,0.26,0.08,0.38C6.182,57.625,6.375,57.818,6.62,57.92z"/>
<path d="M44,57c0,0.553,0.447,1,1,1h12c0.553,0,1-0.447,1-1V45c0-0.553-0.447-1-1-1s-1,0.447-1,1v9.59l-16.29-16.3
	c-0.359-0.419-0.99-0.468-1.41-0.109c-0.419,0.359-0.468,0.991-0.108,1.41c0.033,0.039,0.069,0.075,0.108,0.109L54.59,56H45
	C44.447,56,44,56.447,44,57z"/>
</svg>
