<?xml version="1.0" encoding="utf-8"?>
<!-- Generator: Adobe Illustrator 15.0.0, SVG Export Plug-In . SVG Version: 6.00 Build 0)  -->
<!DOCTYPE svg PUBLIC "-//W3C//DTD SVG 1.1//EN" "http://www.w3.org/Graphics/SVG/1.1/DTD/svg11.dtd">
<svg version="1.1" id="Layer_1" xmlns="http://www.w3.org/2000/svg" xmlns:xlink="http://www.w3.org/1999/xlink" x="0px" y="0px"
	 width="64px" height="64px" viewBox="0 0 64 64" enable-background="new 0 0 64 64" xml:space="preserve">
<title>3</title>
<path fill="#A9A9A9" d="M38.05,17.39H10.92c-1.729,0-3.13,1.401-3.13,3.13l0,0v23c0.005,1.727,1.404,3.125,3.13,3.131h27.13
	c1.727-0.006,3.124-1.404,3.13-3.131v-23C41.18,18.792,39.779,17.39,38.05,17.39L38.05,17.39z M57.391,19.63
	c-0.311-0.179-0.691-0.179-1,0L43.85,25.85c-0.364,0.168-0.593,0.539-0.58,0.94v10.43c-0.008,0.397,0.219,0.763,0.58,0.931
	l12.521,6.26c0.146,0.072,0.307,0.11,0.47,0.109c0.553,0,1-0.447,1-1v-23C57.859,20.165,57.688,19.825,57.391,19.63z"/>
</svg>
