<?xml version="1.0" encoding="utf-8"?>
<!-- Generator: Adobe Illustrator 15.0.0, SVG Export Plug-In . SVG Version: 6.00 Build 0)  -->
<!DOCTYPE svg PUBLIC "-//W3C//DTD SVG 1.1//EN" "http://www.w3.org/Graphics/SVG/1.1/DTD/svg11.dtd">
<svg version="1.1" id="Layer_1" xmlns="http://www.w3.org/2000/svg" xmlns:xlink="http://www.w3.org/1999/xlink" x="0px" y="0px"
	 width="64px" height="64px" viewBox="0 0 64 64" enable-background="new 0 0 64 64" xml:space="preserve">
<title>light</title>
<path d="M38,52.8c-0.098-0.544-0.617-0.905-1.16-0.808c-0.014,0.002-0.027,0.005-0.04,0.008l-10,2c-0.552,0.055-0.955,0.548-0.9,1.1
	c0.055,0.553,0.548,0.955,1.1,0.9h0.2l10-2c0.544-0.098,0.905-0.617,0.808-1.16C38.006,52.826,38.003,52.813,38,52.8z"/>
<path d="M36.8,48l-10,2c-0.552,0.055-0.955,0.548-0.9,1.1c0.055,0.553,0.548,0.955,1.1,0.9h0.2l10-2c0.552-0.11,0.91-0.647,0.8-1.2
	C37.89,48.248,37.352,47.89,36.8,48z"/>
<path d="M27.8,57.82c-0.543,0.1-0.902,0.621-0.803,1.164C26.998,58.989,26.999,58.994,27,59c0.097,0.473,0.517,0.81,1,0.8h0.2l8-1.6
	c0.552-0.11,0.91-0.647,0.8-1.2s-0.648-0.91-1.2-0.8L27.8,57.82z"/>
<path d="M18.29,33.71c2.912,3.124,4.847,7.03,5.57,11.24c0.074,1.688,1.451,3.024,3.14,3.05h10c1.68,0.002,3.061-1.322,3.13-3
	c0.851-6.47,5.53-11.23,5.63-11.34c6.412-7.598,5.45-18.954-2.146-25.365c-7.598-6.412-18.954-5.45-25.366,2.147
	C12.573,17.166,12.591,27.007,18.29,33.71z M32,6c8.836-0.021,16.018,7.125,16.037,15.962c0.01,3.777-1.318,7.436-3.747,10.328
	c-3.251,3.464-5.393,7.82-6.149,12.51c0.016,0.646-0.494,1.184-1.14,1.2C37,46,37,46,37,46H27c-0.661-0.048-1.168-0.607-1.15-1.27
	c-0.752-4.639-2.873-8.945-6.09-12.371c-5.722-6.734-4.901-16.831,1.833-22.553C24.498,7.339,28.188,5.989,32,6z"/>
</svg>
