<?xml version="1.0" encoding="utf-8"?>
<!-- Generator: Adobe Illustrator 15.0.0, SVG Export Plug-In . SVG Version: 6.00 Build 0)  -->
<!DOCTYPE svg PUBLIC "-//W3C//DTD SVG 1.1//EN" "http://www.w3.org/Graphics/SVG/1.1/DTD/svg11.dtd">
<svg version="1.1" id="Layer_1" xmlns="http://www.w3.org/2000/svg" xmlns:xlink="http://www.w3.org/1999/xlink" x="0px" y="0px"
	 width="64px" height="64px" viewBox="0 0 64 64" enable-background="new 0 0 64 64" xml:space="preserve">
<title>coffee_cup</title>
<path fill="#FFFFFF" d="M16,20c-0.552,0-1-0.448-1-1s0.448-1,1-1c1.104,0,2-0.896,2-2c0-0.79-0.65-1.42-1.72-2.37
	c-0.33-0.29-0.66-0.6-1-0.92c-0.34-0.32-0.51-0.48-0.79-0.73C13.39,11,12,9.74,12,8c0-2.209,1.791-4,4-4c0.552,0,1,0.448,1,1
	s-0.448,1-1,1c-1.104,0-2,0.896-2,2c0,0.85,0.93,1.68,1.84,2.49c0.31,0.27,0.6,0.54,0.87,0.81c0.27,0.27,0.6,0.57,0.91,0.84
	C18.79,13.19,20,14.27,20,16C20,18.209,18.209,20,16,20z M26,20c-0.552,0-1-0.448-1-1s0.448-1,1-1c1.104,0,2-0.896,2-2
	c0-0.79-0.65-1.42-1.72-2.37c-0.33-0.29-0.67-0.6-1-0.92c-0.33-0.32-0.51-0.48-0.79-0.73C23.39,11,22,9.74,22,8c0-2.209,1.791-4,4-4
	c0.552,0,1,0.448,1,1s-0.448,1-1,1c-1.104,0-2,0.896-2,2c0,0.85,0.93,1.68,1.84,2.49c0.31,0.27,0.6,0.54,0.87,0.81
	c0.27,0.27,0.6,0.57,0.91,0.84C28.79,13.19,30,14.27,30,16C30,18.209,28.209,20,26,20z M36,20c-0.553,0-1-0.448-1-1s0.447-1,1-1
	c1.104,0,2-0.896,2-2c0-0.79-0.65-1.42-1.721-2.37c-0.329-0.29-0.659-0.6-1-0.92c-0.34-0.32-0.51-0.48-0.789-0.73
	C33.391,11,32,9.74,32,8c0-2.209,1.791-4,4-4c0.553,0,1,0.448,1,1s-0.447,1-1,1c-1.104,0-2,0.896-2,2c0,0.85,0.93,1.68,1.84,2.49
	c0.311,0.27,0.6,0.54,0.87,0.81c0.271,0.27,0.601,0.57,0.91,0.84C38.79,13.19,40,14.27,40,16C40,18.209,38.209,20,36,20z M52,24H5
	c-0.552,0-1,0.448-1,1v15c0.025,8.521,4.903,16.282,12.57,20c0.13,0.061,18.73,0.061,18.86,0C43.099,56.284,47.978,48.521,48,40h4
	c3.313,0,6-2.687,6-6v-4C58,26.687,55.313,24,52,24z M46,40c-0.023,7.645-4.373,14.617-11.23,18H17.23
	C10.375,54.616,6.026,47.645,6,40V26h40V40z M56,34c0,2.209-1.791,4-4,4h-4V26h4c2.209,0,4,1.791,4,4V34z"/>
</svg>
