<?xml version="1.0" encoding="utf-8"?>
<!-- Generator: Adobe Illustrator 15.0.0, SVG Export Plug-In . SVG Version: 6.00 Build 0)  -->
<!DOCTYPE svg PUBLIC "-//W3C//DTD SVG 1.1//EN" "http://www.w3.org/Graphics/SVG/1.1/DTD/svg11.dtd">
<svg version="1.1" id="Layer_1" xmlns="http://www.w3.org/2000/svg" xmlns:xlink="http://www.w3.org/1999/xlink" x="0px" y="0px"
	 width="64px" height="64px" viewBox="0 0 64 64" enable-background="new 0 0 64 64" xml:space="preserve">
<title>movies</title>
<path id="movies" fill="#A9A9A9" d="M49,58H15c-0.552,0-1-0.447-1-1V35c0-0.553,0.448-1,1-1h34c0.553,0,1,0.447,1,1v22
	C50,57.553,49.553,58,49,58z M16,56h32V36H16V56z M49,30H15c-0.552,0-1-0.448-1-1V7c0-0.552,0.448-1,1-1h34c0.553,0,1,0.448,1,1v22
	C50,29.552,49.553,30,49,30z M16,28h32V8H16V28z M9,18H7c-0.552,0-1-0.448-1-1v-2c0-0.552,0.448-1,1-1h2c0.552,0,1,0.448,1,1v2
	C10,17.552,9.552,18,9,18z M9,26H7c-0.552,0-1-0.448-1-1v-2c0-0.552,0.448-1,1-1h2c0.552,0,1,0.448,1,1v2C10,25.552,9.552,26,9,26z
	 M9,34H7c-0.552,0-1-0.447-1-1v-2c0-0.552,0.448-1,1-1h2c0.552,0,1,0.448,1,1v2C10,33.553,9.552,34,9,34z M9,42H7
	c-0.552,0-1-0.447-1-1v-2c0-0.553,0.448-1,1-1h2c0.552,0,1,0.447,1,1v2C10,41.553,9.552,42,9,42z M9,58H7c-0.552,0-1-0.447-1-1v-2
	c0-0.553,0.448-1,1-1h2c0.552,0,1,0.447,1,1v2C10,57.553,9.552,58,9,58z M9,50H7c-0.552,0-1-0.447-1-1v-2c0-0.553,0.448-1,1-1h2
	c0.552,0,1,0.447,1,1v2C10,49.553,9.552,50,9,50z M57,18h-2c-0.553,0-1-0.448-1-1v-2c0-0.552,0.447-1,1-1h2c0.553,0,1,0.448,1,1v2
	C58,17.552,57.553,18,57,18z M57,10h-2c-0.553,0-1-0.448-1-1V7c0-0.552,0.447-1,1-1h2c0.553,0,1,0.448,1,1v2
	C58,9.552,57.553,10,57,10z M9,10H7c-0.552,0-1-0.448-1-1V7c0-0.552,0.448-1,1-1h2c0.552,0,1,0.448,1,1v2C10,9.552,9.552,10,9,10z
	 M57,26h-2c-0.553,0-1-0.448-1-1v-2c0-0.552,0.447-1,1-1h2c0.553,0,1,0.448,1,1v2C58,25.552,57.553,26,57,26z M57,34h-2
	c-0.553,0-1-0.447-1-1v-2c0-0.552,0.447-1,1-1h2c0.553,0,1,0.448,1,1v2C58,33.553,57.553,34,57,34z M57,42h-2c-0.553,0-1-0.447-1-1
	v-2c0-0.553,0.447-1,1-1h2c0.553,0,1,0.447,1,1v2C58,41.553,57.553,42,57,42z M57,58h-2c-0.553,0-1-0.447-1-1v-2
	c0-0.553,0.447-1,1-1h2c0.553,0,1,0.447,1,1v2C58,57.553,57.553,58,57,58z M57,50h-2c-0.553,0-1-0.447-1-1v-2c0-0.553,0.447-1,1-1h2
	c0.553,0,1,0.447,1,1v2C58,49.553,57.553,50,57,50z"/>
</svg>
