<?xml version="1.0" encoding="utf-8"?>
<!-- Generator: Adobe Illustrator 15.0.0, SVG Export Plug-In . SVG Version: 6.00 Build 0)  -->
<!DOCTYPE svg PUBLIC "-//W3C//DTD SVG 1.1//EN" "http://www.w3.org/Graphics/SVG/1.1/DTD/svg11.dtd">
<svg version="1.1" id="Layer_1" xmlns="http://www.w3.org/2000/svg" xmlns:xlink="http://www.w3.org/1999/xlink" x="0px" y="0px"
	 width="64px" height="64px" viewBox="0 0 64 64" enable-background="new 0 0 64 64" xml:space="preserve">
<title>megaphone</title>
<path d="M59.57,8.18c-0.271-0.185-0.614-0.227-0.92-0.11l-47.4,17.77L5.71,20.3c-0.389-0.392-1.022-0.395-1.414-0.006
	C4.107,20.481,4.001,20.735,4,21v20c0.002,0.404,0.247,0.767,0.62,0.92c0.374,0.154,0.805,0.067,1.09-0.22l5.53-5.53L24,41.46
	l-1.63,3.899c-0.85,2.039,0.113,4.379,2.15,5.23l7.38,3.08c0.488,0.204,1.011,0.31,1.54,0.311c0.521,0,1.038-0.103,1.521-0.301
	c0.981-0.403,1.762-1.181,2.17-2.16l1.63-3.91L58.62,55.9c0.115,0.066,0.247,0.101,0.38,0.1c0.553,0,1-0.447,1-1V9
	C60,8.673,59.839,8.367,59.57,8.18z M12,34.33v-6.64l40-15V51L12,34.33z M6,23.41l4,4v7.17l-4,4V23.41z M35.23,50.77
	c-0.203,0.489-0.592,0.877-1.08,1.08c-0.49,0.203-1.041,0.203-1.53,0l-7.38-3.08c-1.019-0.427-1.499-1.599-1.071-2.617
	c0-0.001,0.001-0.002,0.001-0.002l1.63-3.9l11.08,4.609L35.23,50.77z M58,53.5l-4-1.67V12c0,0,0,0,0-0.05l4-1.5V53.5z"/>
</svg>
