<?xml version="1.0" encoding="utf-8"?>
<!-- Generator: Adobe Illustrator 15.0.0, SVG Export Plug-In . SVG Version: 6.00 Build 0)  -->
<!DOCTYPE svg PUBLIC "-//W3C//DTD SVG 1.1//EN" "http://www.w3.org/Graphics/SVG/1.1/DTD/svg11.dtd">
<svg version="1.1" id="Layer_1" xmlns="http://www.w3.org/2000/svg" xmlns:xlink="http://www.w3.org/1999/xlink" x="0px" y="0px"
	 width="64px" height="64px" viewBox="0 0 64 64" enable-background="new 0 0 64 64" xml:space="preserve">
<title>telephone-01 4</title>
<path fill="#A9A9A9" d="M6,42.54h11.28c1.936-0.027,3.49-1.604,3.49-3.54v-6c0.065-0.451,0.297-0.861,0.65-1.15
	c1.53-1.53,5.5-3.17,10.64-3.13c2.829-0.027,5.634,0.528,8.24,1.63c2.101,1,3,2.05,3,2.7v6.05c-0.005,1.922,1.548,3.484,3.47,3.49
	c0.004,0,0.008,0,0.01,0H58.1c1.916-0.027,3.463-1.574,3.49-3.49v-6.52c0-7.51-13-13.48-29.56-13.48c-11.56,0-22.13,3-26.88,7.77
	c-1.629,1.453-2.593,3.508-2.67,5.69v6.52C2.513,41,4.079,42.54,6,42.54z M4.26,39v-2.55l0,0v-4c0.097-1.687,0.859-3.266,2.12-4.39
	c4.45-4.36,14.51-7.21,25.62-7.21c15,0,27.79,5.36,27.79,11.72v3.92v2.54c0,0.95-0.771,1.72-1.72,1.72l0,0H46.88
	c-0.944,0.006-1.714-0.755-1.72-1.699c0-0.018,0-0.034,0-0.051l0,0v-2.561l0,0v-3.43c0-1.56-1.49-3.13-4.07-4.31
	c-2.821-1.22-5.865-1.84-8.94-1.82c-4.9,0-9.65,1.51-11.86,3.72c-0.713,0.604-1.156,1.468-1.23,2.4v3.46l0,0v2.59
	c-0.026,0.938-0.781,1.694-1.72,1.72H6C5.041,40.738,4.275,39.959,4.26,39z"/>
</svg>
