<?xml version="1.0" encoding="utf-8"?>
<!-- Generator: Adobe Illustrator 15.0.0, SVG Export Plug-In . SVG Version: 6.00 Build 0)  -->
<!DOCTYPE svg PUBLIC "-//W3C//DTD SVG 1.1//EN" "http://www.w3.org/Graphics/SVG/1.1/DTD/svg11.dtd">
<svg version="1.1" id="Layer_1" xmlns="http://www.w3.org/2000/svg" xmlns:xlink="http://www.w3.org/1999/xlink" x="0px" y="0px"
	 width="64px" height="64px" viewBox="0 0 64 64" enable-background="new 0 0 64 64" xml:space="preserve">
<title>ui_www</title>
<path id="ui_www" fill="#FFFFFF" d="M54,10H8c-2.209,0-4,1.791-4,4v38c0,2.209,1.791,4,4,4h46c2.209,0,4-1.791,4-4V14
	C58,11.791,56.209,10,54,10z M8,12h46c1.104,0,2,0.896,2,2v6H6v-6C6,12.896,6.896,12,8,12z M54,54H8c-1.104,0-2-0.896-2-2V22h50v30
	C56,53.104,55.104,54,54,54z M50,14c1.104,0,2,0.896,2,2s-0.896,2-2,2s-2-0.896-2-2S48.896,14,50,14z M44,14c1.104,0,2,0.896,2,2
	s-0.896,2-2,2s-2-0.896-2-2S42.896,14,44,14z M38,14c1.104,0,2,0.896,2,2s-0.896,2-2,2s-2-0.896-2-2S36.896,14,38,14z M17.08,42.08
	c-0.424-0.002-0.8-0.27-0.94-0.67l-2.08-6c-0.182-0.521,0.093-1.094,0.615-1.275s1.093,0.094,1.275,0.615L17,37.9l1-3.2
	c0.136-0.435,0.546-0.722,1-0.7c0.451-0.021,0.861,0.261,1,0.689l1,3.211l1-3.131c0.174-0.524,0.74-0.81,1.265-0.636
	c0.524,0.175,0.809,0.74,0.635,1.267l0,0l-2,6c-0.134,0.41-0.517,0.688-0.95,0.688l0,0c-0.433,0-0.816-0.278-0.95-0.688l-1-3.131
	l-1,3.121c-0.129,0.41-0.508,0.692-0.94,0.698l0,0L17.08,42.08z M29.08,42.08c-0.424-0.002-0.8-0.27-0.94-0.67l-2.08-6
	c-0.182-0.521,0.093-1.094,0.615-1.275s1.093,0.094,1.275,0.615L29,37.9l1-3.2c0.136-0.435,0.546-0.722,1-0.7l0,0
	c0.451-0.021,0.861,0.261,1,0.689l1,3.211l1-3.131c0.174-0.524,0.74-0.81,1.266-0.636c0.523,0.175,0.81,0.74,0.635,1.267l0,0l-2,6
	c-0.135,0.41-0.518,0.688-0.949,0.688l0,0c-0.434,0-0.816-0.278-0.95-0.688l-1-3.131l-1,3.121c-0.129,0.41-0.508,0.692-0.94,0.698
	l0,0L29.08,42.08z M41.08,42.08c-0.424-0.002-0.801-0.27-0.939-0.67l-2.08-6c-0.183-0.521,0.094-1.094,0.614-1.275
	c0.522-0.182,1.093,0.094,1.275,0.615L41,37.9l1-3.2c0.137-0.435,0.547-0.722,1-0.7l0,0c0.451-0.021,0.861,0.261,1,0.689l1,3.211
	l1-3.131c0.174-0.524,0.74-0.81,1.266-0.636c0.523,0.175,0.81,0.74,0.635,1.267l0,0l-2,6c-0.135,0.41-0.518,0.688-0.949,0.688l0,0
	c-0.434,0-0.814-0.278-0.95-0.688l-1-3.131l-1,3.121c-0.129,0.41-0.508,0.692-0.938,0.698l0,0L41.08,42.08z"/>
</svg>
