<?xml version="1.0" encoding="utf-8"?>
<!-- Generator: Adobe Illustrator 15.0.0, SVG Export Plug-In . SVG Version: 6.00 Build 0)  -->
<!DOCTYPE svg PUBLIC "-//W3C//DTD SVG 1.1//EN" "http://www.w3.org/Graphics/SVG/1.1/DTD/svg11.dtd">
<svg version="1.1" id="Layer_1" xmlns="http://www.w3.org/2000/svg" xmlns:xlink="http://www.w3.org/1999/xlink" x="0px" y="0px"
	 width="64px" height="64px" viewBox="0 0 64 64" enable-background="new 0 0 64 64" xml:space="preserve">
<title>arrows_in_2</title>
<path fill="#FFFFFF" d="M57,58c0.266,0.002,0.521-0.103,0.71-0.29c0.388-0.39,0.388-1.021,0-1.41L41.41,40H51c0.553,0,1-0.447,1-1
	s-0.447-1-1-1H39c-0.553,0-1,0.447-1,1v12c0,0.553,0.447,1,1,1s1-0.447,1-1v-9.59L56.29,57.7C56.477,57.891,56.732,57.999,57,58z"/>
<path fill="#FFFFFF" d="M40,13c0-0.552-0.447-1-1-1s-1,0.448-1,1v12c0.002,0.131,0.029,0.26,0.08,0.38
	c0.102,0.245,0.295,0.438,0.54,0.54c0.12,0.051,0.249,0.079,0.38,0.08h12c0.553,0,1-0.448,1-1s-0.447-1-1-1h-9.59l16.3-16.29
	c0.359-0.419,0.311-1.051-0.108-1.41c-0.375-0.32-0.928-0.32-1.302,0L40,22.59V13z"/>
<path fill="#FFFFFF" d="M7,58c0.266,0.002,0.521-0.103,0.71-0.29L24,41.41V51c0,0.553,0.448,1,1,1s1-0.447,1-1V39
	c-0.001-0.131-0.029-0.26-0.08-0.38c-0.102-0.245-0.295-0.438-0.54-0.54C25.26,38.029,25.131,38.002,25,38H13c-0.552,0-1,0.447-1,1
	s0.448,1,1,1h9.59L6.29,56.29c-0.392,0.389-0.395,1.022-0.006,1.414C6.473,57.895,6.731,58.002,7,58z"/>
<path fill="#FFFFFF" d="M22.59,24H13c-0.552,0-1,0.448-1,1s0.448,1,1,1h12c0.552,0,1-0.448,1-1V13c0-0.552-0.448-1-1-1s-1,0.448-1,1
	v9.59L7.71,6.29C7.351,5.871,6.72,5.822,6.3,6.181C5.88,6.54,5.832,7.171,6.191,7.591C6.225,7.63,6.261,7.667,6.3,7.7L22.59,24z"/>
</svg>
