<?xml version="1.0" encoding="utf-8"?>
<!-- Generator: Adobe Illustrator 15.0.0, SVG Export Plug-In . SVG Version: 6.00 Build 0)  -->
<!DOCTYPE svg PUBLIC "-//W3C//DTD SVG 1.1//EN" "http://www.w3.org/Graphics/SVG/1.1/DTD/svg11.dtd">
<svg version="1.1" id="Layer_1" xmlns="http://www.w3.org/2000/svg" xmlns:xlink="http://www.w3.org/1999/xlink" x="0px" y="0px"
	 width="64px" height="64px" viewBox="0 0 64 64" enable-background="new 0 0 64 64" xml:space="preserve">
<title>wine_glass</title>
<path id="wine_glass" d="M48,16.12c-0.041-4.127-1.206-8.166-3.37-11.68C44.443,4.165,44.133,4,43.8,4H18.2
	c-0.333,0-0.644,0.165-0.83,0.44c-2.164,3.515-3.329,7.553-3.37,11.68C14,28,26.78,33.29,30,34.439V58h-9c-0.552,0-1,0.447-1,1
	s0.448,1,1,1h20c0.553,0,1-0.447,1-1s-0.447-1-1-1h-9V34.439C35.221,33.29,48,28,48,16.12z M18.76,6h24.48
	c1.732,3.054,2.682,6.49,2.76,10H16C16.079,12.49,17.027,9.054,18.76,6z M31,32.67C29,32,17.5,27.58,16.14,18h29.719
	C44.5,27.58,33,32,31,32.67z"/>
</svg>
