<?xml version="1.0" encoding="utf-8"?>
<!-- Generator: Adobe Illustrator 15.0.0, SVG Export Plug-In . SVG Version: 6.00 Build 0)  -->
<!DOCTYPE svg PUBLIC "-//W3C//DTD SVG 1.1//EN" "http://www.w3.org/Graphics/SVG/1.1/DTD/svg11.dtd">
<svg version="1.1" id="Layer_1" xmlns="http://www.w3.org/2000/svg" xmlns:xlink="http://www.w3.org/1999/xlink" x="0px" y="0px"
	 width="64px" height="64px" viewBox="0 0 64 64" enable-background="new 0 0 64 64" xml:space="preserve">
<title>users_three_2</title>
<path id="users_three_2" fill="#FFFFFF" d="M37,34.65c4.783-2.762,6.422-8.878,3.66-13.661c-2.762-4.783-8.877-6.421-13.66-3.659
	c-4.783,2.761-6.422,8.877-3.66,13.66c0.877,1.52,2.14,2.783,3.66,3.66c-8.459,2.17-14.532,9.58-15,18.301
	c-0.028,0.552,0.397,1.021,0.949,1.049c0.017,0,0.034,0,0.051,0c0.533,0,0.973-0.418,1-0.95c0-9.94,8.059-18,18-18
	c9.941,0,18,8.06,18,18c0.027,0.532,0.467,0.95,1,0.95l0,0c0.553,0,1-0.445,1.002-0.999c0-0.017-0.001-0.034-0.002-0.051
	C51.531,44.229,45.459,36.82,37,34.65z M24,26c0-4.418,3.582-8,8-8s8,3.582,8,8s-3.582,8-8,8S24,30.418,24,26z M26.46,14
	c-2.766-4.13-8.355-5.236-12.486-2.471c-4.13,2.765-5.236,8.355-2.471,12.485c0.729,1.089,1.687,2.005,2.807,2.686
	C7.036,28.788,2.018,35.434,2,43c0,0.553,0.448,1,1,1s1-0.447,1-1c0-8.284,6.716-15,15-15c0.552,0,1-0.448,1-1s-0.448-1-1-1
	c-3.866-0.002-6.999-3.138-6.996-7.004c0.002-3.866,3.138-6.998,7.004-6.996c2.327,0.001,4.502,1.159,5.802,3.09
	c0.232,0.501,0.827,0.719,1.328,0.487c0.501-0.232,0.719-0.827,0.487-1.328C26.583,14.159,26.527,14.074,26.46,14z M49.68,26.7
	c4.239-2.596,5.571-8.137,2.977-12.375c-2.596-4.238-8.137-5.571-12.377-2.975c-1.129,0.691-2.092,1.624-2.818,2.73
	c-0.296,0.466-0.158,1.084,0.309,1.38c0.455,0.289,1.059,0.165,1.361-0.28c2.11-3.24,6.446-4.156,9.688-2.046
	c3.238,2.11,4.154,6.446,2.045,9.686C49.57,24.802,47.365,25.999,45,26c-0.553,0-1,0.448-1,1s0.447,1,1,1c8.284,0,15,6.716,15,15
	c0,0.553,0.447,1,1,1s1-0.447,1-1c-0.006-7.582-5.031-14.243-12.32-16.33V26.7z"/>
</svg>
