<?xml version="1.0" encoding="utf-8"?>
<!-- Generator: Adobe Illustrator 15.0.0, SVG Export Plug-In . SVG Version: 6.00 Build 0)  -->
<!DOCTYPE svg PUBLIC "-//W3C//DTD SVG 1.1//EN" "http://www.w3.org/Graphics/SVG/1.1/DTD/svg11.dtd">
<svg version="1.1" id="Layer_1" xmlns="http://www.w3.org/2000/svg" xmlns:xlink="http://www.w3.org/1999/xlink" x="0px" y="0px"
	 width="64px" height="64px" viewBox="0 0 64 64" enable-background="new 0 0 64 64" xml:space="preserve">
<title>ui_ui_2</title>
<path id="ui_ui_2" d="M26,8H6c-2.209,0-4,1.791-4,4v40c0,2.209,1.791,4,4,4h20c2.209,0,4-1.791,4-4V12C30,9.791,28.209,8,26,8z
	 M6,10h20c1.104,0,2,0.896,2,2v6H4v-6C4,10.896,4.896,10,6,10z M26,54H6c-1.104,0-2-0.896-2-2V20h24v32C28,53.104,27.104,54,26,54z
	 M22,12c1.104,0,2,0.896,2,2s-0.896,2-2,2s-2-0.896-2-2S20.896,12,22,12z M16,12c1.104,0,2,0.896,2,2s-0.896,2-2,2s-2-0.896-2-2
	S14.896,12,16,12z M10,12c1.104,0,2,0.896,2,2s-0.896,2-2,2s-2-0.896-2-2S8.896,12,10,12z M56,8H36c-2.209,0-4,1.791-4,4v40
	c0,2.209,1.791,4,4,4h20c2.209,0,4-1.791,4-4V12C60,9.791,58.209,8,56,8z M36,10h20c1.104,0,2,0.896,2,2v6H34v-6
	C34,10.896,34.896,10,36,10z M56,54H36c-1.104,0-2-0.896-2-2V20h24v32C58,53.104,57.104,54,56,54z M52,12c1.104,0,2,0.896,2,2
	s-0.896,2-2,2s-2-0.896-2-2S50.896,12,52,12z M46,12c1.104,0,2,0.896,2,2s-0.896,2-2,2s-2-0.896-2-2S44.896,12,46,12z M40,12
	c1.104,0,2,0.896,2,2s-0.896,2-2,2s-2-0.896-2-2S38.896,12,40,12z"/>
</svg>
