<?xml version="1.0" encoding="utf-8"?>
<!-- Generator: Adobe Illustrator 15.0.0, SVG Export Plug-In . SVG Version: 6.00 Build 0)  -->
<!DOCTYPE svg PUBLIC "-//W3C//DTD SVG 1.1//EN" "http://www.w3.org/Graphics/SVG/1.1/DTD/svg11.dtd">
<svg version="1.1" id="Layer_1" xmlns="http://www.w3.org/2000/svg" xmlns:xlink="http://www.w3.org/1999/xlink" x="0px" y="0px"
	 width="64px" height="64px" viewBox="0 0 64 64" enable-background="new 0 0 64 64" xml:space="preserve">
<title>file_locked</title>
<path id="file_locked" d="M43.71,17.29l-11-11C32.521,6.103,32.266,5.999,32,6H12c-2.209,0-4,1.791-4,4v40c0,2.209,1.791,4,4,4h13
	c0.552,0,1-0.447,1-1s-0.448-1-1-1H12c-1.104,0-2-0.896-2-2V10c0-1.104,0.896-2,2-2h18v8c0,2.209,1.791,4,4,4h8v7
	c0,0.552,0.447,1,1,1s1-0.448,1-1v-9C44.002,17.734,43.896,17.479,43.71,17.29z M34,18c-1.104,0-2-0.896-2-2V8.41L41.59,18H34z
	 M51,40h-2v-2c0-4.418-3.582-8-8-8s-8,3.582-8,8v2h-2c-0.552,0-1,0.447-1,1v18c0,0.553,0.448,1,1,1h20c0.553,0,1-0.447,1-1V41
	C52,40.447,51.553,40,51,40z M35,38c0-3.313,2.687-6,6-6s6,2.687,6,6v2H35V38z M50,58H32V42h18V58z M43,48
	c0.007-1.104-0.883-2.006-1.988-2.012c-1.104-0.007-2.005,0.883-2.012,1.988c-0.004,0.719,0.377,1.384,1,1.743V53
	c0,0.553,0.447,1,1,1s1-0.447,1-1v-3.28C42.615,49.365,42.996,48.71,43,48z"/>
</svg>
