<svg id="Layer_1" data-name="Layer 1" xmlns="http://www.w3.org/2000/svg" width="64" height="64" viewBox="0 0 64 64"><defs><style>.cls-1{fill:#666;}</style></defs><title>mobile_signal</title><path id="wireless_signal" class="cls-1" d="M31,30a3,3,0,1,1,3-3A3,3,0,0,1,31,30Zm0-4a1,1,0,1,0,1,1A1,1,0,0,0,31,26Zm0,32a1,1,0,0,1-1-1V35a1,1,0,0,1,2,0V57A1,1,0,0,1,31,58Zm7.07-22.93a1,1,0,0,1-.71-1.71,9,9,0,0,0,0-12.73,1,1,0,0,1,1.41-1.41,11,11,0,0,1,0,15.55A1,1,0,0,1,38.07,35.07Zm-14,.09a1,1,0,0,1-.7-0.28,11,11,0,0,1-.1-15.65,1,1,0,0,1,1.41,1.41,9,9,0,0,0,.08,12.81,1,1,0,0,1,0,1.41A1,1,0,0,1,24,35.16Zm19.71,5.57A1,1,0,0,1,43,39a17,17,0,0,0,0-24,1,1,0,1,1,1.41-1.41,19,19,0,0,1,0,26.87A1,1,0,0,1,43.73,40.73Zm-25.36.09a1,1,0,0,1-.7-0.29,19,19,0,0,1-.1-27A1,1,0,0,1,19,15a17,17,0,0,0,.09,24.12A1,1,0,0,1,18.36,40.82ZM12.71,46a1,1,0,0,1-.7-0.29,26,26,0,0,1-.09-37.42,1,1,0,1,1,1.41,1.41,24,24,0,0,0,.09,34.58A1,1,0,0,1,12.71,46Zm36.68,0a1,1,0,0,1-.71-1.71,24.08,24.08,0,0,0,0-34.59,1,1,0,0,1,1.41-1.41,26.08,26.08,0,0,1,0,37.41A1,1,0,0,1,49.38,46Z"/></svg>