<?xml version="1.0" encoding="utf-8"?>
<!-- Generator: Adobe Illustrator 15.0.0, SVG Export Plug-In . SVG Version: 6.00 Build 0)  -->
<!DOCTYPE svg PUBLIC "-//W3C//DTD SVG 1.1//EN" "http://www.w3.org/Graphics/SVG/1.1/DTD/svg11.dtd">
<svg version="1.1" id="Layer_1" xmlns="http://www.w3.org/2000/svg" xmlns:xlink="http://www.w3.org/1999/xlink" x="0px" y="0px"
	 width="64px" height="64px" viewBox="0 0 64 64" enable-background="new 0 0 64 64" xml:space="preserve">
<title>laptop</title>
<path fill="#FFFFFF" d="M61,44h-3V16c0-2.209-1.791-4-4-4H10c-2.209,0-4,1.791-4,4v28H3c-0.552,0-1,0.447-1,1v3c0,2.209,1.791,4,4,4
	h52c2.209,0,4-1.791,4-4v-3C62,44.447,61.553,44,61,44z M8,16c0-1.104,0.896-2,2-2h44c1.104,0,2,0.896,2,2v28H8V16z M60,48
	c0,1.104-0.896,2-2,2H6c-1.104,0-2-0.896-2-2v-2h56V48z"/>
<path fill="#FFFFFF" d="M53,16H11c-0.552,0-1,0.448-1,1v24c0,0.553,0.448,1,1,1h42c0.553,0,1-0.447,1-1V17
	C54,16.448,53.553,16,53,16z M52,40H12V18h40V40z"/>
</svg>
