<?xml version="1.0" encoding="utf-8"?>
<!-- Generator: Adobe Illustrator 15.0.0, SVG Export Plug-In . SVG Version: 6.00 Build 0)  -->
<!DOCTYPE svg PUBLIC "-//W3C//DTD SVG 1.1//EN" "http://www.w3.org/Graphics/SVG/1.1/DTD/svg11.dtd">
<svg version="1.1" id="Layer_1" xmlns="http://www.w3.org/2000/svg" xmlns:xlink="http://www.w3.org/1999/xlink" x="0px" y="0px"
	 width="64px" height="64px" viewBox="0 0 64 64" enable-background="new 0 0 64 64" xml:space="preserve">
<title>file_send</title>
<path id="file_send" fill="#A9A9A9" d="M55.92,33.38c0.1-0.243,0.1-0.517,0-0.76c-0.051-0.124-0.125-0.236-0.22-0.33l-8-8
	c-0.42-0.359-1.051-0.311-1.41,0.109c-0.321,0.375-0.321,0.927,0,1.301l6.3,6.3H25c-0.552,0-1,0.448-1,1c0,0.553,0.448,1,1,1h27.59
	l-6.29,6.29c-0.419,0.359-0.468,0.99-0.108,1.41c0.359,0.419,0.99,0.468,1.41,0.108c0.039-0.033,0.074-0.069,0.108-0.108l8-8
	C55.8,33.607,55.871,33.499,55.92,33.38z M43.71,17.29l-11-11C32.521,6.103,32.266,5.999,32,6H12c-2.209,0-4,1.791-4,4v40
	c0,2.209,1.791,4,4,4h28c2.209,0,4-1.791,4-4V39c0-0.553-0.447-1-1-1s-1,0.447-1,1v11c0,1.104-0.896,2-2,2H12c-1.104,0-2-0.896-2-2
	V10c0-1.104,0.896-2,2-2h18v8c0,2.209,1.791,4,4,4h8v7c0,0.552,0.447,1,1,1s1-0.448,1-1v-9C44.002,17.734,43.896,17.479,43.71,17.29
	z M32,16V8.41L41.59,18H34C32.896,18,32,17.104,32,16z"/>
</svg>
