<?xml version="1.0" encoding="utf-8"?>
<!-- Generator: Adobe Illustrator 15.0.0, SVG Export Plug-In . SVG Version: 6.00 Build 0)  -->
<!DOCTYPE svg PUBLIC "-//W3C//DTD SVG 1.1//EN" "http://www.w3.org/Graphics/SVG/1.1/DTD/svg11.dtd">
<svg version="1.1" id="Layer_1" xmlns="http://www.w3.org/2000/svg" xmlns:xlink="http://www.w3.org/1999/xlink" x="0px" y="0px"
	 width="64px" height="64px" viewBox="0 0 64 64" enable-background="new 0 0 64 64" xml:space="preserve">
<title>documents</title>
<path id="documents" fill="#A9A9A9" d="M41.71,25.29l-9-9C32.521,16.103,32.266,15.999,32,16H12c-2.209,0-4,1.791-4,4v36
	c0,2.209,1.791,4,4,4h26c2.209,0,4-1.791,4-4V26C42.002,25.734,41.896,25.479,41.71,25.29z M39.59,26H34c-1.104,0-2-0.896-2-2v-5.59
	L39.59,26z M38,58H12c-1.104,0-2-0.896-2-2V20c0-1.104,0.896-2,2-2h18v6c0,2.209,1.791,4,4,4h6v28C40,57.104,39.104,58,38,58z
	 M23,14c-0.552,0-1-0.448-1-1v-3c0-2.209,1.791-4,4-4c0.552,0,1,0.448,1,1s-0.448,1-1,1c-1.104,0-2,0.896-2,2v3
	C24,13.552,23.552,14,23,14z M55.71,15.29l-9-9C46.521,6.103,46.266,5.999,46,6H26c-0.552,0-1,0.448-1,1s0.448,1,1,1h18v6
	c0,2.209,1.791,4,4,4h6v28c0,1.104-0.896,2-2,2h-7c-0.553,0-1,0.447-1,1s0.447,1,1,1h7c2.209,0,4-1.791,4-4V16
	C56.002,15.734,55.896,15.479,55.71,15.29z M46,14V8.41L53.59,16H48C46.896,16,46,15.104,46,14z"/>
</svg>
