<?xml version="1.0" encoding="utf-8"?>
<!-- Generator: Adobe Illustrator 15.0.0, SVG Export Plug-In . SVG Version: 6.00 Build 0)  -->
<!DOCTYPE svg PUBLIC "-//W3C//DTD SVG 1.1//EN" "http://www.w3.org/Graphics/SVG/1.1/DTD/svg11.dtd">
<svg version="1.1" id="Layer_1" xmlns="http://www.w3.org/2000/svg" xmlns:xlink="http://www.w3.org/1999/xlink" x="0px" y="0px"
	 width="64px" height="64px" viewBox="0 0 64 64" enable-background="new 0 0 64 64" xml:space="preserve">
<title>horiz_align_centre-01gtr2-01 211111111</title>
<circle fill="#FFFFFF" cx="31.95" cy="31.99" r="5.3"/>
<path fill="#FFFFFF" d="M48.55,48.689c-0.819-0.021-1.479-0.681-1.5-1.5c0.026-0.396,0.165-0.778,0.4-1.101
	c7.813-7.807,7.821-20.469,0.016-28.284c-0.005-0.005-0.011-0.01-0.016-0.016c-0.554-0.579-0.534-1.497,0.045-2.05
	c0.019-0.017,0.036-0.034,0.055-0.05c0.573-0.5,1.427-0.5,2,0c8.976,8.943,9.001,23.467,0.058,32.442
	c-0.019,0.02-0.037,0.039-0.058,0.059C49.301,48.489,48.938,48.671,48.55,48.689z"/>
<path fill="#FFFFFF" d="M44,44.49c-0.818-0.021-1.479-0.682-1.5-1.5c0.025-0.397,0.165-0.779,0.4-1.1
	c5.467-5.422,5.506-14.248,0.086-19.716c-0.029-0.028-0.059-0.057-0.086-0.086l0,0c-0.476-0.666-0.318-1.59,0.347-2.064
	c0.019-0.012,0.035-0.024,0.053-0.036c0.528-0.297,1.175-0.293,1.7,0.01c6.611,6.634,6.611,17.365,0,24
	C44.723,44.259,44.375,44.43,44,44.49z"/>
<path fill="#FFFFFF" d="M39.15,40.59c-0.82-0.021-1.479-0.68-1.5-1.5c0.024-0.396,0.164-0.777,0.398-1.1
	c3.301-3.319,3.301-8.681,0-12c-0.554-0.579-0.533-1.497,0.047-2.05c0.018-0.017,0.034-0.034,0.055-0.05c0.572-0.5,1.427-0.5,2,0
	c4.473,4.438,4.502,11.663,0.063,16.135c-0.021,0.021-0.042,0.043-0.063,0.063l0,0C39.916,40.407,39.545,40.594,39.15,40.59z"/>
<path fill="#FFFFFF" d="M15.35,48.689c0.819-0.021,1.479-0.681,1.5-1.5c-0.026-0.396-0.165-0.778-0.4-1.101
	c-7.815-7.807-7.822-20.469-0.016-28.284c0.005-0.005,0.011-0.01,0.016-0.016c0.554-0.579,0.533-1.497-0.045-2.05
	c-0.018-0.017-0.036-0.034-0.055-0.05c-0.573-0.5-1.427-0.5-2,0c-8.975,8.943-9,23.467-0.058,32.442
	c0.02,0.02,0.039,0.039,0.058,0.059C14.599,48.489,14.961,48.671,15.35,48.689z"/>
<path fill="#FFFFFF" d="M20,44.49c0.819-0.021,1.479-0.682,1.5-1.5c-0.026-0.397-0.165-0.779-0.4-1.1
	c-5.468-5.422-5.506-14.248-0.086-19.716c0.028-0.028,0.057-0.057,0.086-0.086l0,0c0.474-0.666,0.318-1.59-0.347-2.064
	c-0.018-0.012-0.035-0.024-0.053-0.036c-0.529-0.297-1.175-0.293-1.7,0.01c-6.611,6.634-6.611,17.365,0,24
	C19.277,44.259,19.625,44.43,20,44.49z"/>
<path fill="#FFFFFF" d="M24.75,40.59c0.819-0.021,1.479-0.68,1.5-1.5c-0.026-0.396-0.165-0.777-0.4-1.1c-3.3-3.319-3.3-8.681,0-12
	c0.554-0.579,0.533-1.497-0.045-2.05c-0.018-0.017-0.036-0.034-0.055-0.05c-0.573-0.5-1.427-0.5-2,0
	c-4.474,4.438-4.502,11.663-0.064,16.135c0.021,0.021,0.042,0.043,0.064,0.063l0,0C23.984,40.407,24.356,40.594,24.75,40.59z"/>
</svg>
