<?xml version="1.0" encoding="utf-8"?>
<!-- Generator: Adobe Illustrator 15.0.0, SVG Export Plug-In . SVG Version: 6.00 Build 0)  -->
<!DOCTYPE svg PUBLIC "-//W3C//DTD SVG 1.1//EN" "http://www.w3.org/Graphics/SVG/1.1/DTD/svg11.dtd">
<svg version="1.1" id="Layer_1" xmlns="http://www.w3.org/2000/svg" xmlns:xlink="http://www.w3.org/1999/xlink" x="0px" y="0px"
	 width="64px" height="64px" viewBox="0 0 64 64" enable-background="new 0 0 64 64" xml:space="preserve">
<title>user_tick_2</title>
<path id="user_tick_2" fill="#FFFFFF" d="M57.71,36.29c-0.39-0.388-1.021-0.388-1.41,0L37,55.58l-9.29-9.29
	c-0.359-0.419-0.99-0.468-1.41-0.108c-0.419,0.358-0.468,0.99-0.109,1.409c0.034,0.039,0.07,0.075,0.109,0.109l10,10
	c0.39,0.388,1.021,0.388,1.41,0l0,0l0,0l20-20C58.098,37.311,58.098,36.68,57.71,36.29z M47.49,38.54
	c-3.059-6.013-8.613-10.37-15.18-11.91c5.321-2.933,7.256-9.623,4.323-14.943c-2.932-5.32-9.623-7.256-14.943-4.323
	c-5.32,2.933-7.256,9.623-4.323,14.943c1.003,1.821,2.502,3.32,4.323,4.323C11.324,29.09,4.004,38.346,4,49c0,0.553,0.448,1,1,1
	s1-0.447,1-1c-0.008-11.598,9.388-21.006,20.986-21.014c7.901-0.005,15.136,4.425,18.724,11.464
	c0.237,0.499,0.833,0.712,1.332,0.475s0.712-0.833,0.476-1.332C47.508,38.574,47.5,38.557,47.49,38.54z M18,17c0-4.971,4.029-9,9-9
	s9,4.029,9,9s-4.029,9-9,9S18,21.971,18,17z"/>
</svg>
