<?xml version="1.0" encoding="utf-8"?>
<!-- Generator: Adobe Illustrator 15.0.0, SVG Export Plug-In . SVG Version: 6.00 Build 0)  -->
<!DOCTYPE svg PUBLIC "-//W3C//DTD SVG 1.1//EN" "http://www.w3.org/Graphics/SVG/1.1/DTD/svg11.dtd">
<svg version="1.1" id="Layer_1" xmlns="http://www.w3.org/2000/svg" xmlns:xlink="http://www.w3.org/1999/xlink" x="0px" y="0px"
	 width="64px" height="64px" viewBox="0 0 64 64" enable-background="new 0 0 64 64" xml:space="preserve">
<title>jigsaw</title>
<path fill="#A9A9A9" d="M49.71,22.29c-0.389-0.392-1.022-0.395-1.414-0.006C48.105,22.474,47.998,22.731,48,23c0,3.866-3.134,7-7,7
	s-7-3.134-7-7s3.134-7,7-7c0.553-0.002,0.998-0.452,0.996-1.004c-0.002-0.265-0.107-0.519-0.296-0.706l-10-10
	c-0.39-0.388-1.02-0.388-1.41,0l-26,26c-0.388,0.39-0.388,1.02,0,1.41l28,28c0.39,0.388,1.021,0.388,1.41,0l6.55-6.55
	c1.189,4.826,6.066,7.773,10.893,6.585c4.826-1.189,7.773-6.065,6.584-10.892c-0.799-3.246-3.332-5.781-6.576-6.584l8.55-8.55
	c0.388-0.39,0.388-1.021,0-1.41L49.71,22.29z M48.29,42.29c-0.392,0.389-0.396,1.022-0.006,1.414C48.473,43.895,48.731,44.002,49,44
	c3.866,0,7,3.134,7,7s-3.134,7-7,7s-7-3.134-7-7c-0.002-0.404-0.246-0.767-0.62-0.92C41.262,50.023,41.131,49.996,41,50
	c-0.266-0.002-0.521,0.103-0.71,0.29L33,57.59L6.41,31L31,6.41l7.85,7.85c-4.826,1.188-7.776,6.063-6.588,10.89
	c1.188,4.827,6.063,7.776,10.89,6.588c3.251-0.8,5.788-3.338,6.589-6.588L57.59,33L48.29,42.29z"/>
</svg>
