<?xml version="1.0" encoding="utf-8"?>
<!-- Generator: Adobe Illustrator 15.0.0, SVG Export Plug-In . SVG Version: 6.00 Build 0)  -->
<!DOCTYPE svg PUBLIC "-//W3C//DTD SVG 1.1//EN" "http://www.w3.org/Graphics/SVG/1.1/DTD/svg11.dtd">
<svg version="1.1" id="Layer_1" xmlns="http://www.w3.org/2000/svg" xmlns:xlink="http://www.w3.org/1999/xlink" x="0px" y="0px"
	 width="64px" height="64px" viewBox="0 0 64 64" enable-background="new 0 0 64 64" xml:space="preserve">
<title>folder_locked</title>
<path id="folder_locked" fill="#A9A9A9" d="M53,16h-3v-2c0-2.209-1.791-4-4-4H26c-1.292,0.163-2.555-0.469-3.2-1.6
	C21.779,6.76,19.924,5.833,18,6H8c-2.209,0-4,1.791-4,4v36c0,2.209,1.791,4,4,4h25c0.553,0,1-0.447,1-1s-0.447-1-1-1H10V18h42v7
	c0,0.552,0.447,1,1,1s1-0.448,1-1v-8C54,16.448,53.553,16,53,16z M9,16c-0.552,0-1,0.448-1,1v31c-1.104,0-2-0.896-2-2V10
	c0-1.104,0.896-2,2-2h10c1.292-0.163,2.555,0.469,3.2,1.6c1.021,1.64,2.875,2.567,4.8,2.4h20c1.104,0,2,0.896,2,2v2H9z M59,38h-2v-2
	c0-4.418-3.582-8-8-8s-8,3.582-8,8v2h-2c-0.553,0-1,0.447-1,1v18c0,0.553,0.447,1,1,1h20c0.553,0,1-0.447,1-1V39
	C60,38.447,59.553,38,59,38z M43,36c0-3.313,2.687-6,6-6s6,2.687,6,6v2H43V36z M58,56H40V40h18V56z M51,46
	c0.007-1.104-0.883-2.006-1.988-2.012c-1.104-0.007-2.005,0.883-2.012,1.988c-0.004,0.719,0.377,1.384,1,1.743V51
	c0,0.553,0.447,1,1,1s1-0.447,1-1v-3.28C50.615,47.365,50.996,46.71,51,46z"/>
</svg>
