<?xml version="1.0" encoding="utf-8"?>
<!-- Generator: Adobe Illustrator 15.0.0, SVG Export Plug-In . SVG Version: 6.00 Build 0)  -->
<!DOCTYPE svg PUBLIC "-//W3C//DTD SVG 1.1//EN" "http://www.w3.org/Graphics/SVG/1.1/DTD/svg11.dtd">
<svg version="1.1" id="Layer_1" xmlns="http://www.w3.org/2000/svg" xmlns:xlink="http://www.w3.org/1999/xlink" x="0px" y="0px"
	 width="64px" height="64px" viewBox="0 0 64 64" enable-background="new 0 0 64 64" xml:space="preserve">
<title>email_plane</title>
<path fill="#FFFFFF" d="M59.9,4.57c0.002-0.023,0.002-0.046,0-0.07c-0.051-0.078-0.108-0.151-0.17-0.22V4.23l0,0l0,0
	C59.613,4.112,59.463,4.032,59.3,4l0,0c-0.099-0.019-0.2-0.019-0.3,0h-0.1c-0.086,0.014-0.17,0.038-0.25,0.07h-0.09l0,0l-52,32
	c-0.343,0.209-0.528,0.602-0.47,1c0.048,0.387,0.318,0.711,0.69,0.83L26,44.09V59c-0.018,0.459,0.279,0.871,0.72,1
	c0.093,0.016,0.187,0.016,0.28,0c0.346,0,0.667-0.177,0.85-0.47l7.791-12.37l15.061,4.79c0.099,0.015,0.199,0.015,0.3,0
	c0.185-0.001,0.362-0.054,0.521-0.15c0.24-0.135,0.414-0.362,0.479-0.63l8-46c0.004-0.057,0.004-0.113,0-0.17V4.9
	C59.988,4.785,59.954,4.672,59.9,4.57z M54.311,9.06L26.66,42.21l-17.28-5.5L54.311,9.06z M28,55.54v-10.8l5.67,1.8L28,55.54z
	 M50.21,49.7l-21.49-6.841L57.38,8.51L50.21,49.7z"/>
</svg>
