<?xml version="1.0" encoding="utf-8"?>
<!-- Generator: Adobe Illustrator 15.0.0, SVG Export Plug-In . SVG Version: 6.00 Build 0)  -->
<!DOCTYPE svg PUBLIC "-//W3C//DTD SVG 1.1//EN" "http://www.w3.org/Graphics/SVG/1.1/DTD/svg11.dtd">
<svg version="1.1" id="Layer_1" xmlns="http://www.w3.org/2000/svg" xmlns:xlink="http://www.w3.org/1999/xlink" x="0px" y="0px"
	 width="64px" height="64px" viewBox="0 0 64 64" enable-background="new 0 0 64 64" xml:space="preserve">
<title>microphone</title>
<path id="microphone" d="M33,42c-4.971,0-9-4.029-9-9V13c0-4.971,4.029-9,9-9s9,4.029,9,9v20C42,37.971,37.971,42,33,42z M33,6
	c-3.866,0-7,3.134-7,7v20c0,3.866,3.134,7,7,7s7-3.134,7-7V13C40,9.134,36.866,6,33,6z M45,22c-0.553,0-1,0.448-1,1v10
	c0,6.075-4.925,11-11,11s-11-4.925-11-11V23c0-0.552-0.448-1-1-1s-1,0.448-1,1v10c0.006,6.787,5.233,12.428,12,12.95V58h-5
	c-0.552,0-1,0.447-1,1s0.448,1,1,1h12c0.553,0,1-0.447,1-1s-0.447-1-1-1h-5V45.95c6.768-0.522,11.994-6.163,12-12.95V23
	C46,22.448,45.553,22,45,22z"/>
</svg>
