<?xml version="1.0" encoding="utf-8"?>
<!-- Generator: Adobe Illustrator 15.0.0, SVG Export Plug-In . SVG Version: 6.00 Build 0)  -->
<!DOCTYPE svg PUBLIC "-//W3C//DTD SVG 1.1//EN" "http://www.w3.org/Graphics/SVG/1.1/DTD/svg11.dtd">
<svg version="1.1" id="Layer_1" xmlns="http://www.w3.org/2000/svg" xmlns:xlink="http://www.w3.org/1999/xlink" x="0px" y="0px"
	 width="64px" height="64px" viewBox="0 0 64 64" enable-background="new 0 0 64 64" xml:space="preserve">
<title>ledger</title>
<path id="ledger" fill="#A9A9A9" d="M55,6H12c-2.209,0-4,1.791-4,4v46c0,2.209,1.791,4,4,4h39c0.553,0,1-0.447,1-1V11
	c0-0.552-0.447-1-1-1H10c0-1.104,0.896-2,2-2h42v47c0,0.553,0.447,1,1,1s1-0.447,1-1V7C56,6.448,55.553,6,55,6z M38,12h6v22.59
	l-2.29-2.29c-0.39-0.388-1.021-0.388-1.41,0L38,34.59V12z M36,12v25c-0.004,0.553,0.441,1.002,0.994,1.006
	c0.269,0.002,0.527-0.105,0.716-0.296l3.29-3.3l3.29,3.29c0.187,0.19,0.442,0.299,0.71,0.3c0.131-0.002,0.26-0.029,0.38-0.08
	c0.374-0.153,0.618-0.516,0.62-0.92V12h4v46H12c-1.104,0-2-0.896-2-2V12H36z"/>
</svg>
