<?xml version="1.0" encoding="utf-8"?>
<!-- Generator: Adobe Illustrator 15.0.0, SVG Export Plug-In . SVG Version: 6.00 Build 0)  -->
<!DOCTYPE svg PUBLIC "-//W3C//DTD SVG 1.1//EN" "http://www.w3.org/Graphics/SVG/1.1/DTD/svg11.dtd">
<svg version="1.1" id="Layer_1" xmlns="http://www.w3.org/2000/svg" xmlns:xlink="http://www.w3.org/1999/xlink" x="0px" y="0px"
	 width="64px" height="64px" viewBox="0 0 64 64" enable-background="new 0 0 64 64" xml:space="preserve">
<path id="bookmarks" fill="#FFFFFF" d="M52,10H36c-2.086,0-3.925,1.071-5,2.691C29.925,11.071,28.086,10,26,10H10
	c-2.206,0-4,1.795-4,4.001v32C6,48.207,7.794,50,10,50h16c2.206,0,4,1.796,4,4h2v-0.001C32,51.795,33.794,50,36,50h16
	c2.206,0,4-1.793,4-3.999v-32C56,11.795,54.206,10,52,10z M26,48H10c-1.103,0-2-0.896-2-1.999v-32C8,12.898,8.897,12,10,12h16
	c2.206,0,4,1.795,4,4.001v33.531C28.938,48.58,27.535,48,26,48z M54,46.001C54,47.104,53.104,48,52,48H36
	c-1.535,0-2.938,0.58-4,1.532V16.001C32,13.795,33.794,12,36,12h16c1.104,0,2,0.898,2,2.001V46.001z"/>
</svg>
