<?xml version="1.0" encoding="utf-8"?>
<!-- Generator: Adobe Illustrator 15.0.0, SVG Export Plug-In . SVG Version: 6.00 Build 0)  -->
<!DOCTYPE svg PUBLIC "-//W3C//DTD SVG 1.1//EN" "http://www.w3.org/Graphics/SVG/1.1/DTD/svg11.dtd">
<svg version="1.1" id="Layer_1" xmlns="http://www.w3.org/2000/svg" xmlns:xlink="http://www.w3.org/1999/xlink" x="0px" y="0px"
	 width="64px" height="64px" viewBox="0 0 64 64" enable-background="new 0 0 64 64" xml:space="preserve">
<title>snow</title>
<path d="M31,6c-0.552,0-1,0.448-1,1v10.28l-5.5-3.15c-0.466-0.296-1.084-0.159-1.38,0.308c-0.296,0.466-0.159,1.084,0.308,1.38
	c0.023,0.015,0.048,0.029,0.073,0.042l6.5,3.71v11.69l-10-5.77V17c0-0.552-0.448-1-1-1s-1,0.448-1,1v7.34l-8.5-4.9
	c-0.48-0.276-1.094-0.11-1.37,0.37c-0.276,0.48-0.11,1.094,0.37,1.37L16.94,26l-5.43,3.1c-0.498,0.239-0.708,0.836-0.469,1.334
	C11.216,30.8,11.595,31.023,12,31c0.175,0.001,0.348-0.043,0.5-0.13l6.44-3.68L29,33l-10.07,5.811l-6.44-3.681
	c-0.466-0.296-1.084-0.159-1.381,0.308c-0.296,0.466-0.158,1.084,0.308,1.381c0.024,0.015,0.048,0.029,0.073,0.041L16.93,40
	L8.5,44.84c-0.48,0.276-0.646,0.89-0.37,1.37c0.276,0.48,0.89,0.646,1.37,0.37l8.5-4.91V49c0,0.553,0.448,1,1,1s1-0.447,1-1v-8.49
	l10-5.77V46.43l-6.5,3.711c-0.476,0.273-0.642,0.881-0.37,1.359c0.273,0.48,0.884,0.646,1.364,0.373
	c0.002-0.001,0.004-0.002,0.006-0.003l5.5-3.15V59c0,0.553,0.448,1,1,1s1-0.447,1-1V48.72l5.5,3.15
	c0.479,0.276,1.09,0.114,1.367-0.364c0-0.002,0.002-0.004,0.003-0.006c0.271-0.479,0.106-1.086-0.37-1.359L32,46.42V34.73l10,5.77
	V48c0,0.553,0.447,1,1,1s1-0.447,1-1v-6.34l8.5,4.91c0.48,0.275,1.094,0.11,1.37-0.37s0.11-1.095-0.37-1.37L45.07,40l5.43-3.1
	c0.467-0.297,0.604-0.914,0.308-1.381c-0.278-0.438-0.847-0.59-1.308-0.35l-6.439,3.68L33,33l10.061-5.81l6.439,3.68
	c0.479,0.277,1.09,0.114,1.367-0.364c0-0.002,0.002-0.004,0.003-0.006c0.271-0.478,0.106-1.085-0.37-1.36L45.07,26l8.43-4.87
	c0.48-0.276,0.646-0.89,0.37-1.37s-0.89-0.646-1.37-0.37L44,24.34V17c0-0.552-0.447-1-1-1s-1,0.448-1,1v8.49l-10,5.77V19.58
	l6.5-3.71c0.467-0.296,0.604-0.915,0.308-1.38c-0.278-0.438-0.847-0.591-1.308-0.35L32,17.28V7C32,6.448,31.552,6,31,6z"/>
</svg>
