<?xml version="1.0" encoding="utf-8"?>
<!-- Generator: Adobe Illustrator 15.0.0, SVG Export Plug-In . SVG Version: 6.00 Build 0)  -->
<!DOCTYPE svg PUBLIC "-//W3C//DTD SVG 1.1//EN" "http://www.w3.org/Graphics/SVG/1.1/DTD/svg11.dtd">
<svg version="1.1" id="Layer_1" xmlns="http://www.w3.org/2000/svg" xmlns:xlink="http://www.w3.org/1999/xlink" x="0px" y="0px"
	 width="64px" height="64px" viewBox="0 0 64 64" enable-background="new 0 0 64 64" xml:space="preserve">
<title>forward_arrow</title>
<path d="M34,60h19c0.553,0,1-0.447,1-1s-0.447-1-1-1H34c-12.15,0-22-9.85-22-22s9.85-22,22-22h16.59l-6.29,6.29
	c-0.388,0.39-0.388,1.02,0,1.41c0.185,0.188,0.437,0.296,0.7,0.3c0.266,0.001,0.521-0.103,0.71-0.29l8-8
	c0.095-0.094,0.169-0.207,0.22-0.33c0.154-0.374,0.067-0.805-0.22-1.09l-8-8c-0.359-0.419-0.99-0.468-1.41-0.109
	c-0.419,0.359-0.468,0.991-0.108,1.41C44.225,5.63,44.261,5.667,44.3,5.7l6.29,6.3H34c-13.255,0-24,10.745-24,24S20.745,60,34,60z"
	/>
</svg>
