<?xml version="1.0" encoding="utf-8"?>
<!-- Generator: Adobe Illustrator 15.0.0, SVG Export Plug-In . SVG Version: 6.00 Build 0)  -->
<!DOCTYPE svg PUBLIC "-//W3C//DTD SVG 1.1//EN" "http://www.w3.org/Graphics/SVG/1.1/DTD/svg11.dtd">
<svg version="1.1" id="Layer_1" xmlns="http://www.w3.org/2000/svg" xmlns:xlink="http://www.w3.org/1999/xlink" x="0px" y="0px"
	 width="64px" height="64px" viewBox="0 0 64 64" enable-background="new 0 0 64 64" xml:space="preserve">
<title>globe</title>
<path id="globe" fill="#FFFFFF" d="M29,48c-10.494,0-19-8.507-19-19s8.506-19,19-19c10.494,0,19,8.507,19,19S39.494,48,29,48z
	 M29,12c-9.389,0-17,7.611-17,17s7.611,17,17,17s17-7.611,17-17S38.389,12,29,12z M54,29c-0.024-9.744-5.69-18.591-14.529-22.69
	L38.92,6.07c-0.508-0.218-1.097,0.017-1.314,0.525c-0.219,0.508,0.017,1.097,0.524,1.315l0.5,0.22
	c11.526,5.338,16.542,19.01,11.204,30.536C46.084,46.762,37.992,51.959,29.07,52H29h-0.07c-3.193-0.012-6.347-0.693-9.26-2
	c-0.505-0.224-1.096,0.005-1.32,0.51c-0.224,0.506,0.004,1.097,0.51,1.32c2.88,1.3,5.983,2.036,9.14,2.17v4h-5c-0.552,0-1,0.447-1,1
	s0.448,1,1,1h12c0.553,0,1-0.447,1-1s-0.447-1-1-1h-5v-4C43.415,53.463,54.011,42.426,54,29z"/>
</svg>
