<?xml version="1.0" encoding="utf-8"?>
<!-- Generator: Adobe Illustrator 15.0.0, SVG Export Plug-In . SVG Version: 6.00 Build 0)  -->
<!DOCTYPE svg PUBLIC "-//W3C//DTD SVG 1.1//EN" "http://www.w3.org/Graphics/SVG/1.1/DTD/svg11.dtd">
<svg version="1.1" id="Layer_1" xmlns="http://www.w3.org/2000/svg" xmlns:xlink="http://www.w3.org/1999/xlink" x="0px" y="0px"
	 width="64px" height="64px" viewBox="0 0 64 64" enable-background="new 0 0 64 64" xml:space="preserve">
<path id="reading" fill="#A9A9A9" d="M64,32h-2.051C61.436,25.299,55.83,20,49,20c-6.104,0-11.227,4.235-12.615,9.918
	C35.289,28.741,33.73,28,32,28c-1.731,0-3.289,0.741-4.385,1.918C26.226,24.235,21.104,20,15,20C8.17,20,2.564,25.299,2.051,32H0v2
	h2.051C2.564,40.701,8.17,46,15,46s12.436-5.299,12.949-12H28c0-2.206,1.794-4,4-4s4,1.794,4,4h0.051C36.564,40.701,42.17,46,49,46
	s12.436-5.299,12.949-12H64V32z M15,44C8.935,44,4,39.064,4,33c0-6.065,4.935-11,11-11s11,4.935,11,11C26,39.064,21.065,44,15,44z
	 M49,44c-6.064,0-11-4.936-11-11c0-6.065,4.936-11,11-11s11,4.935,11,11C60,39.064,55.064,44,49,44z"/>
</svg>
