<?xml version="1.0" encoding="utf-8"?>
<!-- Generator: Adobe Illustrator 15.0.0, SVG Export Plug-In . SVG Version: 6.00 Build 0)  -->
<!DOCTYPE svg PUBLIC "-//W3C//DTD SVG 1.1//EN" "http://www.w3.org/Graphics/SVG/1.1/DTD/svg11.dtd">
<svg version="1.1" id="图层_1" xmlns="http://www.w3.org/2000/svg" xmlns:xlink="http://www.w3.org/1999/xlink" x="0px" y="0px"
	 width="24px" height="24px" viewBox="0 0 24 24" enable-background="new 0 0 24 24" xml:space="preserve">
<path fill="#A9A9A9" d="M23.003,10.998H3.574l10.104-9.263c0.407-0.373,0.436-1.006,0.063-1.413
	c-0.373-0.406-1.006-0.435-1.413-0.063l-12,11l-0.015,0.017l-0.079,0.09l-0.051,0.061l-0.067,0.119l-0.029,0.055L0.034,11.76
	l-0.01,0.033l-0.021,0.205l0.021,0.205l0.01,0.032l0.052,0.16l0.029,0.054l0.067,0.119l0.05,0.061l0.08,0.09l0.015,0.018l12,11
	c0.19,0.176,0.435,0.263,0.676,0.263c0.271,0,0.54-0.108,0.737-0.324c0.373-0.407,0.346-1.039-0.063-1.413L3.574,12.998h19.429
	c0.552,0,1-0.447,1-1C24.003,11.446,23.555,10.998,23.003,10.998z"/>
</svg>
