<?xml version="1.0" encoding="utf-8"?>
<!-- Generator: Adobe Illustrator 15.0.0, SVG Export Plug-In . SVG Version: 6.00 Build 0)  -->
<!DOCTYPE svg PUBLIC "-//W3C//DTD SVG 1.1//EN" "http://www.w3.org/Graphics/SVG/1.1/DTD/svg11.dtd">
<svg version="1.1" id="Layer_1" xmlns="http://www.w3.org/2000/svg" xmlns:xlink="http://www.w3.org/1999/xlink" x="0px" y="0px"
	 width="64px" height="64px" viewBox="0 0 64 64" enable-background="new 0 0 64 64" xml:space="preserve">
<title>folder_user</title>
<path id="folder_user" fill="#FFFFFF" d="M48,52c-4.24,0-6-5.859-6-9c0-4.51,2.13-7,6-7s6,2.49,6,7C54,46.141,52.24,52,48,52z
	 M48,38c-1.721,0-4,0.52-4,5c0,2.51,1.34,7,4,7s4-4.49,4-7C52,38.52,49.721,38,48,38z M48,60c-5.23,0-14-0.391-14-3
	c-0.003-0.04-0.003-0.08,0-0.12c0.4-3.19,1.67-6.87,8-6.899c0.553,0,1,0.447,1,1s-0.447,1-1,1c-4.279,0-5.51,1.83-6,4.75
	C37.189,57.29,41.891,58,48,58s10.811-0.71,12-1.28C59.51,53.8,58.279,52,54,52c-0.553,0-1-0.447-1-1s0.447-1,1-1
	c6.311,0,7.58,3.71,8,6.9c0.002,0.033,0.002,0.065,0,0.1C62,59.609,53.23,60,48,60z M53,16h-3v-2c0-2.209-1.791-4-4-4H26
	c-1.292,0.163-2.555-0.469-3.2-1.6C21.779,6.76,19.924,5.833,18,6H8c-2.209,0-4,1.791-4,4v36c0,2.209,1.791,4,4,4h27
	c0.553,0,1-0.447,1-1s-0.447-1-1-1H10V18h42v15c0,0.553,0.447,1,1,1s1-0.447,1-1V17C54,16.448,53.553,16,53,16z M9,16
	c-0.552,0-1,0.448-1,1v31c-1.104,0-2-0.896-2-2V10c0-1.104,0.896-2,2-2h10c1.292-0.163,2.555,0.469,3.2,1.6
	c1.021,1.64,2.875,2.567,4.8,2.4h20c1.104,0,2,0.896,2,2v2H9z"/>
</svg>
