<?xml version="1.0" encoding="utf-8"?>
<!-- Generator: Adobe Illustrator 15.0.0, SVG Export Plug-In . SVG Version: 6.00 Build 0)  -->
<!DOCTYPE svg PUBLIC "-//W3C//DTD SVG 1.1//EN" "http://www.w3.org/Graphics/SVG/1.1/DTD/svg11.dtd">
<svg version="1.1" id="Layer_1" xmlns="http://www.w3.org/2000/svg" xmlns:xlink="http://www.w3.org/1999/xlink" x="0px" y="0px"
	 width="64px" height="64px" viewBox="0 0 64 64" enable-background="new 0 0 64 64" xml:space="preserve">
<title>male_symbol</title>
<path fill="#FFFFFF" d="M27,16C15.358,15.957,5.885,25.36,5.842,37.002c-0.043,11.643,9.36,21.115,21.002,21.158
	s21.115-9.36,21.158-21.002c0.02-5.271-1.938-10.358-5.482-14.258L54,11.41V21c0,0.552,0.447,1,1,1s1-0.448,1-1V9
	c-0.002-0.131-0.029-0.26-0.08-0.38c-0.102-0.245-0.295-0.438-0.54-0.54C55.26,8.029,55.131,8.001,55,8H43c-0.553,0-1,0.448-1,1
	s0.447,1,1,1h9.59L41.1,21.48C37.248,17.958,32.219,16.003,27,16z M27,56C16.506,56,8,47.493,8,37s8.506-19,19-19s19,8.507,19,19
	S37.494,56,27,56z"/>
</svg>
