<?xml version="1.0" encoding="utf-8"?>
<!-- Generator: Adobe Illustrator 15.0.0, SVG Export Plug-In . SVG Version: 6.00 Build 0)  -->
<!DOCTYPE svg PUBLIC "-//W3C//DTD SVG 1.1//EN" "http://www.w3.org/Graphics/SVG/1.1/DTD/svg11.dtd">
<svg version="1.1" id="图层_1" xmlns="http://www.w3.org/2000/svg" xmlns:xlink="http://www.w3.org/1999/xlink" x="0px" y="0px"
	 width="24px" height="24px" viewBox="0 0 24 24" enable-background="new 0 0 24 24" xml:space="preserve">
<g>
	<path fill="#FFFFFF" d="M1,0C0.447,0,0,0.448,0,1v22c0,0.553,0.447,1,1,1s1-0.447,1-1V1C2,0.448,1.553,0,1,0z M20.803,2.796
		C20.68,2.702,20.52,2.671,20.369,2.71c-0.031,0.008-3.088,0.83-5.45,0.83h-0.001c-0.811,0-1.436-0.095-1.854-0.283
		C12.564,3.033,12.5,2.735,12.5,2.5c0-0.685-0.352-1.833-2.703-1.833c-2.576,0-6.307,1.306-6.463,1.361C3.133,2.099,3,2.288,3,2.5
		v12c0,0.162,0.078,0.314,0.211,0.408c0.133,0.094,0.303,0.117,0.455,0.063c0.037-0.012,3.725-1.304,6.131-1.304
		c1.703,0,1.703,0.627,1.703,0.833c0,0.938,0.602,2.055,3.473,2.055c2.488,0,5.527-0.803,5.656-0.836
		C20.848,15.66,21,15.462,21,15.234V3.194C21,3.037,20.928,2.891,20.803,2.796z"/>
</g>
</svg>
