<?xml version="1.0" encoding="utf-8"?>
<!-- Generator: Adobe Illustrator 15.0.0, SVG Export Plug-In . SVG Version: 6.00 Build 0)  -->
<!DOCTYPE svg PUBLIC "-//W3C//DTD SVG 1.1//EN" "http://www.w3.org/Graphics/SVG/1.1/DTD/svg11.dtd">
<svg version="1.1" id="Layer_1" xmlns="http://www.w3.org/2000/svg" xmlns:xlink="http://www.w3.org/1999/xlink" x="0px" y="0px"
	 width="64px" height="64px" viewBox="0 0 64 64" enable-background="new 0 0 64 64" xml:space="preserve">
<title>iphone_send</title>
<path fill="#A9A9A9" d="M12,60h24c2.209,0,4-1.791,4-4V37c0-0.553-0.447-1-1-1s-1,0.447-1,1v13H10V14h28v11c0,0.552,0.447,1,1,1
	s1-0.448,1-1V8c0-2.209-1.791-4-4-4H12C9.791,4,8,5.791,8,8v48C8,58.209,9.791,60,12,60z M38,52v4c0,1.104-0.896,2-2,2H12
	c-1.104,0-2-0.896-2-2v-4H38z M12,6h24c1.104,0,2,0.896,2,2v4H10V8C10,6.896,10.896,6,12,6z"/>
<path fill="#A9A9A9" d="M23,10h6c0.552,0,1-0.448,1-1s-0.448-1-1-1h-6c-0.552,0-1,0.448-1,1S22.448,10,23,10z"/>
<path fill="#A9A9A9" d="M19,10c0.552,0.003,1.002-0.442,1.006-0.994c0.001-0.269-0.105-0.527-0.296-0.716
	c-0.392-0.392-1.028-0.392-1.42,0s-0.392,1.028,0,1.42C18.481,9.893,18.735,9.996,19,10z"/>
<path fill="#A9A9A9" d="M23,56h2c0.552,0,1-0.447,1-1s-0.448-1-1-1h-2c-0.552,0-1,0.447-1,1S22.448,56,23,56z"/>
<path fill="#A9A9A9" d="M46.29,39.71c0.389,0.392,1.022,0.395,1.414,0.006c0.002-0.002,0.004-0.004,0.006-0.006l8-8
	c0.095-0.094,0.169-0.207,0.22-0.33c0.154-0.374,0.067-0.805-0.22-1.09l-8-8c-0.359-0.419-0.991-0.468-1.41-0.109
	c-0.419,0.359-0.468,0.991-0.108,1.41c0.033,0.039,0.069,0.076,0.108,0.109l6.29,6.3H25c-0.552,0-1,0.448-1,1s0.448,1,1,1h27.59
	l-6.29,6.29c-0.395,0.386-0.401,1.019-0.016,1.414C46.286,39.706,46.288,39.708,46.29,39.71z"/>
</svg>
