<?xml version="1.0" encoding="utf-8"?>
<!-- Generator: Adobe Illustrator 15.0.0, SVG Export Plug-In . SVG Version: 6.00 Build 0)  -->
<!DOCTYPE svg PUBLIC "-//W3C//DTD SVG 1.1//EN" "http://www.w3.org/Graphics/SVG/1.1/DTD/svg11.dtd">
<svg version="1.1" id="Layer_1" xmlns="http://www.w3.org/2000/svg" xmlns:xlink="http://www.w3.org/1999/xlink" x="0px" y="0px"
	 width="64px" height="64px" viewBox="0 0 64 64" enable-background="new 0 0 64 64" xml:space="preserve">
<title>euro</title>
<path d="M31,60c14.912,0,27-12.088,27-27C58,18.088,45.912,6,31,6C16.088,6,4,18.088,4,33C4,47.912,16.088,60,31,60z M31,8
	c13.807,0,25,11.193,25,25c0,13.807-11.193,25-25,25C17.193,58,6,46.807,6,33C6,19.193,17.193,8,31,8z"/>
<path d="M14,35c0,0.553,0.448,1,1,1h1.49C18.16,42.891,24,48,31,48c3.842-0.012,7.521-1.556,10.221-4.29
	c0.358-0.419,0.31-1.051-0.109-1.41c-0.375-0.32-0.927-0.32-1.301,0c-2.33,2.354-5.5,3.685-8.811,3.7
	c-5.928-0.15-11.024-4.244-12.45-10H31c0.552,0,1-0.447,1-1s-0.448-1-1-1H18.15c-0.2-1.326-0.2-2.674,0-4H31c0.552,0,1-0.448,1-1
	s-0.448-1-1-1H18.55c1.429-5.754,6.523-9.846,12.45-10c3.316,0.017,6.489,1.352,8.82,3.71c0.419,0.359,1.051,0.311,1.41-0.109
	c0.32-0.375,0.32-0.927,0-1.301C38.529,17.561,34.847,16.013,31,16c-7,0-12.83,5.11-14.51,12H15c-0.552,0-1,0.448-1,1s0.448,1,1,1
	h1.13c-0.173,1.328-0.173,2.672,0,4H15C14.448,34,14,34.447,14,35z"/>
</svg>
