<?xml version="1.0" encoding="utf-8"?>
<!-- Generator: Adobe Illustrator 15.0.0, SVG Export Plug-In . SVG Version: 6.00 Build 0)  -->
<!DOCTYPE svg PUBLIC "-//W3C//DTD SVG 1.1//EN" "http://www.w3.org/Graphics/SVG/1.1/DTD/svg11.dtd">
<svg version="1.1" id="Layer_1" xmlns="http://www.w3.org/2000/svg" xmlns:xlink="http://www.w3.org/1999/xlink" x="0px" y="0px"
	 width="64px" height="64px" viewBox="0 0 64 64" enable-background="new 0 0 64 64" xml:space="preserve">
<title>folder_download</title>
<path id="folder_download" d="M43.71,52.29c-0.39-0.388-1.021-0.388-1.41,0l-6.3,6.3V31c0-0.552-0.447-1-1-1s-1,0.448-1,1v27.59
	l-6.29-6.29c-0.419-0.358-1.051-0.31-1.41,0.109c-0.32,0.374-0.32,0.927,0,1.301l8,8c0.39,0.392,1.022,0.395,1.415,0.006
	c0.002-0.002,0.004-0.004,0.006-0.006l8-8c0.389-0.392,0.387-1.024-0.005-1.414C43.714,52.294,43.712,52.292,43.71,52.29z M59,14h-3
	v-2c0-2.209-1.791-4-4-4H28c-1.292,0.163-2.555-0.469-3.2-1.6C23.779,4.76,21.924,3.833,20,4H8C5.791,4,4,5.791,4,8v38
	c0,2.209,1.791,4,4,4h21c0.552,0,1-0.447,1-1s-0.448-1-1-1H10V16h48v30c0,1.104-0.896,2-2,2H41c-0.553,0-1,0.447-1,1s0.447,1,1,1h15
	c2.209,0,4-1.791,4-4V15C60,14.448,59.553,14,59,14z M9,14c-0.552,0-1,0.448-1,1v33c-1.104,0-2-0.896-2-2V8c0-1.104,0.896-2,2-2h12
	c1.292-0.163,2.555,0.469,3.2,1.6c1.021,1.64,2.875,2.567,4.8,2.4h24c1.104,0,2,0.896,2,2v2H9z"/>
</svg>
