<?xml version="1.0" encoding="utf-8"?>
<!-- Generator: Adobe Illustrator 15.0.0, SVG Export Plug-In . SVG Version: 6.00 Build 0)  -->
<!DOCTYPE svg PUBLIC "-//W3C//DTD SVG 1.1//EN" "http://www.w3.org/Graphics/SVG/1.1/DTD/svg11.dtd">
<svg version="1.1" id="Layer_1" xmlns="http://www.w3.org/2000/svg" xmlns:xlink="http://www.w3.org/1999/xlink" x="0px" y="0px"
	 width="64px" height="64px" viewBox="0 0 64 64" enable-background="new 0 0 64 64" xml:space="preserve">
<title>headset</title>
<path fill="#FFFFFF" d="M57.24,30L54,29.22V27c-0.005-0.177-0.057-0.35-0.15-0.5c0.094-0.15,0.146-0.323,0.15-0.5
	c0-12.15-9.85-22-22-22s-22,9.85-22,22c0.005,0.177,0.057,0.35,0.15,0.5c-0.093,0.15-0.145,0.323-0.15,0.5v2.22L6.76,30
	C6.303,30.113,5.986,30.529,6,31v7c-0.014,0.471,0.303,0.887,0.76,1L10,39.78V40c0,2.209,1.791,4,4,4s4-1.791,4-4V30
	c0-2.209-1.791-4-4-4h-2c0-11.046,8.954-20,20-20s20,8.954,20,20h-2c-2.209,0-4,1.791-4,4v10c0,2.209,1.791,4,4,4
	c0.662-0.003,1.313-0.176,1.891-0.5c-0.771,6-6.091,10.9-13.311,12.17C37.738,54.553,36.396,53.928,35,54c-2.24,0-4,1.32-4,3
	s1.76,3,4,3c2,0,3.52-1,3.91-2.35C47.7,56.109,54,49.641,54,42v-2.22L57.24,39c0.457-0.113,0.773-0.529,0.76-1v-7
	C58.014,30.529,57.697,30.113,57.24,30z M8,37.22V31.78l2-0.5v6.439L8,37.22z M14,28c1.104,0,2,0.896,2,2v10c0,1.104-0.896,2-2,2
	s-2-0.896-2-2V28H14z M35,58c-1.221,0-2-0.59-2-1s0.779-1,2-1c0.791-0.121,1.577,0.241,2,0.92l0,0l0,0l0,0C37,57.41,36.221,58,35,58
	z M50,42c-1.104,0-2-0.896-2-2V30c0-1.104,0.896-2,2-2h2v12C52,41.104,51.104,42,50,42z M56,37.22l-2,0.5V31.28l2,0.5V37.22z"/>
</svg>
