<?xml version="1.0" encoding="utf-8"?>
<!-- Generator: Adobe Illustrator 15.0.0, SVG Export Plug-In . SVG Version: 6.00 Build 0)  -->
<!DOCTYPE svg PUBLIC "-//W3C//DTD SVG 1.1//EN" "http://www.w3.org/Graphics/SVG/1.1/DTD/svg11.dtd">
<svg version="1.1" id="Layer_1" xmlns="http://www.w3.org/2000/svg" xmlns:xlink="http://www.w3.org/1999/xlink" x="0px" y="0px"
	 width="64px" height="64px" viewBox="0 0 64 64" enable-background="new 0 0 64 64" xml:space="preserve">
<title>chats</title>
<path d="M46,27c0-9.37-9.42-17-21-17S4,17.63,4,27c0.074,4.256,1.922,8.287,5.1,11.12L8,44.84c-0.088,0.545,0.282,1.059,0.827,1.147
	C8.884,45.996,8.942,46.001,9,46c0.175,0.001,0.348-0.043,0.5-0.13l6.28-3.59c2.939,1.145,6.066,1.728,9.22,1.72
	C36.58,44,46,36.37,46,27z M15.21,40.3l-4.89,2.79l0.84-5.189c0.05-0.337-0.074-0.676-0.33-0.9C7.845,34.525,6.083,30.876,6,27
	c0-8.27,8.52-15,19-15c10.48,0,19,6.73,19,15c0,8.27-8.52,15-19,15c-3.056,0.006-6.083-0.588-8.91-1.75
	C15.805,40.129,15.48,40.148,15.21,40.3z"/>
<path d="M48.109,19.7c-0.516-0.202-1.098,0.053-1.299,0.57c-0.202,0.516,0.053,1.098,0.569,1.3C53.93,24.12,58,29.27,58,35
	c-0.078,3.875-1.837,7.525-4.82,10c-0.273,0.227-0.406,0.58-0.35,0.93l0.84,5.19l-4.891-2.82c-0.277-0.136-0.602-0.136-0.879,0
	c-2.826,1.146-5.852,1.724-8.9,1.7c-4.506,0.048-8.918-1.289-12.64-3.83c-0.473-0.285-1.087-0.133-1.373,0.34
	c-0.257,0.426-0.162,0.976,0.223,1.29c4.058,2.78,8.872,4.246,13.79,4.2c3.154,0.008,6.281-0.575,9.221-1.72l6.279,3.59
	c0.152,0.087,0.324,0.131,0.5,0.13c0.553,0.008,1.006-0.435,1.013-0.986c0.001-0.059-0.003-0.117-0.013-0.174l-1.1-6.72
	c3.178-2.833,5.025-6.864,5.1-11.12C60,28.42,55.439,22.56,48.109,19.7z"/>
</svg>
