<?xml version="1.0" encoding="utf-8"?>
<!-- Generator: Adobe Illustrator 15.0.0, SVG Export Plug-In . SVG Version: 6.00 Build 0)  -->
<!DOCTYPE svg PUBLIC "-//W3C//DTD SVG 1.1//EN" "http://www.w3.org/Graphics/SVG/1.1/DTD/svg11.dtd">
<svg version="1.1" id="Layer_1" xmlns="http://www.w3.org/2000/svg" xmlns:xlink="http://www.w3.org/1999/xlink" x="0px" y="0px"
	 width="64px" height="64px" viewBox="0 0 64 64" enable-background="new 0 0 64 64" xml:space="preserve">
<title>cogs</title>
<path fill="#FFFFFF" d="M35.21,15.28l1.24,0.51c-0.091,0.814-0.091,1.636,0,2.45l-1,0.42c-0.949,0.452-1.386,1.562-1,2.54l0.72,1.74
	c0.452,0.949,1.563,1.386,2.54,1l1-0.42c0.507,0.642,1.088,1.223,1.729,1.73l-0.51,1.24c-0.391,0.999,0.077,2.129,1.061,2.56
	l1.779,0.74c0.238,0.1,0.493,0.15,0.75,0.15c0.789-0.011,1.498-0.485,1.811-1.21l0.51-1.24c0.814,0.09,1.636,0.09,2.45,0l0.42,1
	c0.452,0.949,1.562,1.386,2.54,1l1.75-0.6c0.973-0.429,1.42-1.563,1-2.54l-0.42-1c0.64-0.51,1.221-1.09,1.73-1.73l1.229,0.51
	c1.019,0.382,2.156-0.12,2.56-1.13l0.74-1.78c0.391-0.999-0.077-2.129-1.061-2.56l-1.239-0.51c0.09-0.814,0.09-1.636,0-2.45l1-0.42
	c0.949-0.453,1.386-1.563,1-2.54L58.891,11c-0.453-0.949-1.563-1.386-2.541-1l-1,0.42c-0.512-0.65-1.1-1.237-1.75-1.75l0.51-1.23
	C54.501,6.424,54.008,5.282,53,4.87l-1.779-0.73C50.232,3.774,49.13,4.238,48.7,5.2l-0.511,1.23c-0.813-0.09-1.635-0.09-2.449,0
	l-0.42-1C44.887,4.461,43.771,4,42.779,4.38L41,5.1c-0.949,0.452-1.387,1.562-1,2.54l0.42,1c-0.641,0.512-1.225,1.092-1.74,1.73
	L37.45,9.86c-0.999-0.391-2.13,0.077-2.56,1.06l-0.74,1.78C33.746,13.705,34.217,14.849,35.21,15.28z M36.68,11.73l2,0.81
	c0.44,0.18,0.946,0.025,1.211-0.37c0.622-0.923,1.416-1.717,2.34-2.34c0.395-0.264,0.549-0.77,0.369-1.21l-0.789-1.67l1.67-0.75
	l0.72,1.75c0.182,0.442,0.651,0.693,1.12,0.6c1.093-0.215,2.217-0.215,3.31,0c0.469,0.094,0.938-0.158,1.12-0.6L50.52,6l1.76,0.69
	l-0.809,2C51.29,9.13,51.445,9.636,51.84,9.9c0.928,0.621,1.723,1.42,2.34,2.35c0.265,0.396,0.771,0.55,1.211,0.37l1.68-0.76
	l0.75,1.67l-1.75,0.72c-0.442,0.182-0.693,0.651-0.6,1.12c0.209,1.093,0.209,2.217,0,3.31c-0.089,0.465,0.162,0.929,0.6,1.11
	L58,20.52l-0.689,1.76l-2-0.811c-0.44-0.18-0.946-0.025-1.211,0.37c-0.623,0.923-1.417,1.717-2.34,2.34
	c-0.395,0.264-0.55,0.77-0.369,1.21l0.75,1.67l-1.67,0.75l-0.721-1.75c-0.182-0.442-0.651-0.693-1.12-0.6
	c-1.093,0.215-2.217,0.215-3.31,0c-0.466-0.088-0.93,0.163-1.11,0.6L43.45,28l-1.72-0.67l0.81-2c0.18-0.44,0.025-0.946-0.37-1.21
	c-0.923-0.623-1.717-1.417-2.34-2.34c-0.191-0.268-0.501-0.425-0.83-0.42c-0.131-0.003-0.262,0.024-0.38,0.08l-1.681,0.76
	l-0.75-1.67l1.75-0.72c0.442-0.182,0.693-0.651,0.601-1.12c-0.21-1.093-0.21-2.217,0-3.31c0.088-0.465-0.163-0.929-0.601-1.11
	L36,13.48L36.68,11.73z"/>
<path fill="#FFFFFF" d="M24,48c4.418,0,8-3.582,8-8s-3.582-8-8-8s-8,3.582-8,8S19.582,48,24,48z M24,34c3.313,0,6,2.687,6,6
	s-2.687,6-6,6s-6-2.687-6-6S20.687,34,24,34z"/>
<path fill="#FFFFFF" d="M6.46,44h2.43c0.36,1.408,0.926,2.756,1.68,4L9.1,49.43c-0.95,0.948-0.952,2.486-0.003,3.438
	c0.001,0,0.002,0.002,0.003,0.003l2,2c0.962,0.919,2.478,0.919,3.44,0L16,53.43c1.246,0.75,2.593,1.316,4,1.68v2.431
	c0.038,1.374,1.166,2.466,2.54,2.46h2.92c1.375,0.006,2.502-1.086,2.54-2.46v-2.431c1.407-0.361,2.754-0.924,4-1.67l1.471,1.471
	c0.962,0.919,2.477,0.919,3.439,0l2-2c0.945-0.951,0.945-2.488,0-3.439L37.439,48c0.747-1.247,1.313-2.594,1.681-4h2.43
	c1.37-0.043,2.456-1.17,2.45-2.54v-2.92c0.006-1.37-1.08-2.497-2.45-2.54h-2.43c-0.365-1.407-0.931-2.754-1.681-4l1.471-1.47
	c0.949-0.948,0.951-2.487,0.004-3.437c-0.002-0.001-0.003-0.002-0.004-0.003l-2-2c-0.963-0.919-2.478-0.919-3.439,0L32,26.56
	c-1.245-0.751-2.592-1.317-4-1.68v-2.42c-0.038-1.374-1.166-2.466-2.54-2.46h-2.92c-1.375-0.006-2.502,1.086-2.54,2.46v2.42
	c-1.406,0.367-2.753,0.933-4,1.68l-1.47-1.47c-0.962-0.919-2.478-0.919-3.44,0l-2,2c-0.946,0.952-0.946,2.488,0,3.44L10.57,32
	c-0.755,1.242-1.321,2.591-1.68,4H6.46C5.086,36.038,3.994,37.166,4,38.54v2.92C3.994,42.834,5.086,43.962,6.46,44z M6,38.54
	c-0.003-0.27,0.193-0.5,0.46-0.54h3.22c0.482,0.01,0.903-0.327,1-0.8c0.343-1.701,1.023-3.316,2-4.75
	c0.265-0.396,0.214-0.922-0.12-1.26l-2-2c-0.171-0.165-0.177-0.437-0.012-0.608c0.004-0.004,0.008-0.008,0.012-0.012l2-2
	c0.165-0.171,0.437-0.176,0.608-0.012c0.004,0.004,0.008,0.008,0.012,0.012l2,2c0.338,0.334,0.865,0.385,1.26,0.12
	c1.436-0.975,3.05-1.654,4.75-2c0.473-0.096,0.81-0.517,0.8-1v-3.23c0.041-0.274,0.283-0.473,0.56-0.46h2.92
	c0.27-0.003,0.5,0.193,0.54,0.46v3.21c-0.009,0.483,0.327,0.904,0.8,1c1.699,0.35,3.313,1.029,4.75,2
	c0.397,0.262,0.924,0.208,1.26-0.13l2-2c0.105-0.168,0.328-0.219,0.496-0.114c0.046,0.029,0.085,0.068,0.113,0.114l2,2
	c0.169,0.167,0.17,0.439,0.002,0.608c0,0.001-0.001,0.001-0.002,0.002l-2,2c-0.338,0.335-0.392,0.863-0.13,1.26
	c0.967,1.439,1.646,3.053,2,4.75c0.097,0.473,0.518,0.81,1,0.8h3.22c0.268,0.04,0.463,0.271,0.461,0.54v2.92
	c0.002,0.27-0.193,0.5-0.461,0.54H38.32c-0.482-0.01-0.904,0.327-1,0.8c-0.344,1.701-1.023,3.316-2,4.75
	c-0.266,0.396-0.215,0.922,0.119,1.26l2,2c0.172,0.165,0.178,0.438,0.013,0.608c-0.004,0.004-0.009,0.009-0.013,0.013l-2,2
	c-0.111,0.17-0.34,0.219-0.512,0.107c-0.043-0.028-0.08-0.064-0.107-0.107l-2-2c-0.338-0.335-0.865-0.385-1.26-0.121
	c-1.437,0.973-3.051,1.651-4.75,2c-0.473,0.097-0.81,0.518-0.8,1v3.221c-0.04,0.267-0.27,0.463-0.54,0.46h-2.94
	c-0.253,0.011-0.477-0.163-0.53-0.41v-3.22c0.01-0.482-0.327-0.904-0.8-1c-1.701-0.344-3.316-1.023-4.75-2
	c-0.397-0.271-0.931-0.221-1.27,0.119l-2,2c-0.106,0.169-0.328,0.22-0.497,0.114c-0.046-0.028-0.085-0.067-0.114-0.114l-2-2
	c-0.17-0.171-0.17-0.447,0-0.619l2-2c0.334-0.338,0.385-0.865,0.12-1.26c-0.97-1.438-1.649-3.052-2-4.75
	c-0.096-0.474-0.517-0.811-1-0.801H6.46C6.187,41.975,5.987,41.734,6,41.46V38.54z"/>
<path fill="#FFFFFF" d="M47,22c2.762,0,5-2.239,5-5s-2.238-5-5-5s-5,2.239-5,5S44.238,22,47,22z M47,14c1.656,0,3,1.343,3,3
	s-1.344,3-3,3s-3-1.343-3-3S45.344,14,47,14z"/>
</svg>
