<?xml version="1.0" encoding="utf-8"?>
<!-- Generator: Adobe Illustrator 15.0.0, SVG Export Plug-In . SVG Version: 6.00 Build 0)  -->
<!DOCTYPE svg PUBLIC "-//W3C//DTD SVG 1.1//EN" "http://www.w3.org/Graphics/SVG/1.1/DTD/svg11.dtd">
<svg version="1.1" id="Layer_1" xmlns="http://www.w3.org/2000/svg" xmlns:xlink="http://www.w3.org/1999/xlink" x="0px" y="0px"
	 width="64px" height="64px" viewBox="0 0 64 64" enable-background="new 0 0 64 64" xml:space="preserve">
<title>iphone_calibrate</title>
<path fill="#FFFFFF" d="M17,18c0.552,0,1-0.448,1-1v-3h28v3c0,0.552,0.447,1,1,1s1-0.448,1-1V8c0-2.209-1.791-4-4-4H20
	c-2.209,0-4,1.791-4,4v9C16,17.552,16.448,18,17,18z M20,6h24c1.104,0,2,0.896,2,2v4H18V8C18,6.896,18.896,6,20,6z"/>
<path fill="#FFFFFF" d="M48,39V25c0-0.552-0.447-1-1-1s-1,0.448-1,1v14c0,0.553,0.447,1,1,1S48,39.553,48,39z"/>
<path fill="#FFFFFF" d="M17,46c-0.552,0-1,0.447-1,1v9c0,2.209,1.791,4,4,4h24c2.209,0,4-1.791,4-4v-9c0-0.553-0.447-1-1-1
	s-1,0.447-1,1v3H18v-3C18,46.447,17.552,46,17,46z M46,52v4c0,1.104-0.896,2-2,2H20c-1.104,0-2-0.896-2-2v-4H46z"/>
<path fill="#FFFFFF" d="M16,25v14c0,0.553,0.448,1,1,1s1-0.447,1-1V25c0-0.552-0.448-1-1-1S16,24.448,16,25z"/>
<path fill="#FFFFFF" d="M31,10h6c0.553,0,1-0.448,1-1s-0.447-1-1-1h-6c-0.552,0-1,0.448-1,1S30.448,10,31,10z"/>
<path fill="#FFFFFF" d="M27,10c0.552,0.003,1.002-0.442,1.006-0.994c0.001-0.269-0.105-0.527-0.296-0.716
	c-0.392-0.392-1.028-0.392-1.42,0s-0.392,1.028,0,1.42C26.481,9.893,26.735,9.996,27,10z"/>
<path fill="#FFFFFF" d="M31,56h2c0.553,0,1-0.447,1-1s-0.447-1-1-1h-2c-0.552,0-1,0.447-1,1S30.448,56,31,56z"/>
<path fill="#FFFFFF" d="M48,20c-3.275-0.01-6.411,1.328-8.67,3.7l0,0L22.86,39.27l0,0c-4.018,3.79-10.347,3.605-14.136-0.412
	C4.935,34.84,5.119,28.51,9.137,24.721c4.012-3.784,10.331-3.605,14.123,0.399l0,0l0,0L26.42,28H23c-0.552,0-1,0.448-1,1
	s0.448,1,1,1h6c0.134,0,0.267-0.027,0.39-0.08h0.06c0.104-0.045,0.196-0.114,0.27-0.2l0,0c0.027-0.038,0.05-0.078,0.07-0.12
	c0.046-0.058,0.083-0.122,0.11-0.19c0.01-0.073,0.01-0.147,0-0.22c0.051-0.052,0.086-0.118,0.1-0.19v-6c0-0.552-0.448-1-1-1
	s-1,0.448-1,1v3.74l-3.34-3l0,0C22.413,21.352,19.279,19.998,16,20C9.373,20.004,4.003,25.379,4.007,32.007
	C4.01,38.635,9.386,44.004,16.013,44c3.059-0.002,6.001-1.172,8.227-3.27l0,0L40.7,25.16l0,0l0,0
	c3.797-4.011,10.126-4.184,14.137-0.386S59.02,34.9,55.223,38.91c-3.791,4.006-10.11,4.184-14.123,0.4l0,0l-5.449-5
	c-0.383-0.399-1.016-0.414-1.414-0.031c-0.399,0.381-0.413,1.015-0.031,1.414c0.029,0.03,0.062,0.06,0.095,0.087l5.44,5l0,0
	c4.85,4.517,12.442,4.249,16.959-0.601c4.518-4.85,4.25-12.443-0.6-16.96C53.898,21.169,51.008,20.02,48,20z"/>
</svg>
