<?xml version="1.0" encoding="utf-8"?>
<!-- Generator: Adobe Illustrator 15.0.0, SVG Export Plug-In . SVG Version: 6.00 Build 0)  -->
<!DOCTYPE svg PUBLIC "-//W3C//DTD SVG 1.1//EN" "http://www.w3.org/Graphics/SVG/1.1/DTD/svg11.dtd">
<svg version="1.1" id="图层_1" xmlns="http://www.w3.org/2000/svg" xmlns:xlink="http://www.w3.org/1999/xlink" x="0px" y="0px"
	 width="24px" height="24px" viewBox="0 0 24 24" enable-background="new 0 0 24 24" xml:space="preserve">
<path d="M23.661,9.748c-0.415-0.366-1.048-0.324-1.411,0.09l-9.249,10.51V0.998c0-0.552-0.448-1-1-1c-0.553,0-1,0.448-1,1v19.35
	l-9.25-10.51C1.388,9.424,0.755,9.382,0.34,9.748c-0.414,0.364-0.455,0.996-0.09,1.411l11,12.5l0.021,0.019l0.092,0.086l0.062,0.051
	l0.112,0.064l0.063,0.034l0.145,0.048l0.049,0.016l0.208,0.021l0.207-0.021l0.05-0.016l0.145-0.048l0.062-0.034l0.113-0.064
	l0.062-0.051l0.092-0.086l0.021-0.019l11-12.5C24.116,10.744,24.076,10.112,23.661,9.748z"/>
</svg>
