<?xml version="1.0" encoding="utf-8"?>
<!-- Generator: Adobe Illustrator 15.0.0, SVG Export Plug-In . SVG Version: 6.00 Build 0)  -->
<!DOCTYPE svg PUBLIC "-//W3C//DTD SVG 1.1//EN" "http://www.w3.org/Graphics/SVG/1.1/DTD/svg11.dtd">
<svg version="1.1" id="Layer_1" xmlns="http://www.w3.org/2000/svg" xmlns:xlink="http://www.w3.org/1999/xlink" x="0px" y="0px"
	 width="64px" height="64px" viewBox="0 0 64 64" enable-background="new 0 0 64 64" xml:space="preserve">
<title>clock</title>
<path fill="#A9A9A9" d="M31,60c14.912,0,27-12.088,27-27C58,18.088,45.912,6,31,6C16.088,6,4,18.088,4,33C4,47.912,16.088,60,31,60z
	 M31,8c13.807,0,25,11.193,25,25c0,13.807-11.193,25-25,25C17.193,58,6,46.807,6,33C6,19.193,17.193,8,31,8z"/>
<path fill="#A9A9A9" d="M30.07,33.34c0.023,0.065,0.057,0.126,0.1,0.18c0.02,0.043,0.043,0.082,0.07,0.121l10,12
	C40.428,45.865,40.706,45.998,41,46c0.234,0,0.46-0.081,0.641-0.23c0.424-0.352,0.483-0.982,0.131-1.408c0,0-0.001,0-0.002-0.002
	L32,32.641V17c0-0.552-0.448-1-1-1s-1,0.448-1,1v16c-0.006,0.043-0.006,0.087,0,0.13C30.013,33.203,30.037,33.273,30.07,33.34z"/>
<path fill="#A9A9A9" d="M31,14c0.552,0,1-0.448,1-1v-2c0-0.552-0.448-1-1-1s-1,0.448-1,1v2C30,13.552,30.448,14,31,14z"/>
<path fill="#A9A9A9" d="M31,56c0.552,0,1-0.447,1-1v-2c0-0.553-0.448-1-1-1s-1,0.447-1,1v2C30,55.553,30.448,56,31,56z"/>
<path fill="#A9A9A9" d="M20.13,16.18c0.276,0.48,0.89,0.646,1.37,0.37c0.48-0.276,0.646-0.889,0.37-1.37l0,0l-1-1.73
	c-0.276-0.48-0.89-0.646-1.37-0.37c-0.48,0.276-0.646,0.89-0.37,1.37L20.13,16.18z"/>
<path fill="#A9A9A9" d="M41.87,49.82c-0.276-0.48-0.89-0.646-1.37-0.37s-0.646,0.89-0.37,1.37l1,1.729
	c0.276,0.48,0.89,0.646,1.37,0.37c0.48-0.275,0.646-0.89,0.37-1.37L41.87,49.82z"/>
<path fill="#A9A9A9" d="M11.45,22.87l1.73,1c0.48,0.276,1.094,0.11,1.37-0.37c0.276-0.48,0.111-1.094-0.37-1.37l-1.73-1
	c-0.48-0.276-1.094-0.11-1.37,0.37C10.804,21.98,10.97,22.594,11.45,22.87z"/>
<path fill="#A9A9A9" d="M47.82,43.87l1.729,1c0.48,0.276,1.095,0.11,1.37-0.37c0.276-0.48,0.11-1.094-0.37-1.37l-1.729-1
	c-0.48-0.276-1.094-0.11-1.37,0.37S47.34,43.594,47.82,43.87z"/>
<path fill="#A9A9A9" d="M12,33c0-0.552-0.448-1-1-1H9c-0.552,0-1,0.448-1,1c0,0.553,0.448,1,1,1h2C11.552,34,12,33.553,12,33z"/>
<path fill="#A9A9A9" d="M50,33c0,0.553,0.447,1,1,1h2c0.553,0,1-0.447,1-1c0-0.552-0.447-1-1-1h-2C50.447,32,50,32.448,50,33z"/>
<path fill="#A9A9A9" d="M14.55,42.5c-0.273-0.48-0.884-0.646-1.364-0.373c-0.002,0.001-0.004,0.002-0.006,0.003l-1.73,1
	c-0.48,0.276-0.646,0.89-0.37,1.37c0.276,0.48,0.89,0.646,1.37,0.37l1.73-1c0.479-0.273,0.647-0.884,0.373-1.364
	C14.552,42.504,14.551,42.502,14.55,42.5z"/>
<path fill="#A9A9A9" d="M48.32,24c0.175,0.001,0.348-0.043,0.5-0.13l1.729-1c0.48-0.276,0.646-0.89,0.37-1.37
	c-0.275-0.48-0.89-0.646-1.37-0.37l-1.729,1c-0.48,0.272-0.649,0.883-0.377,1.363C47.621,23.809,47.957,24.002,48.32,24z"/>
<path fill="#A9A9A9" d="M19.5,52.92c0.478,0.277,1.09,0.113,1.367-0.363c0.001-0.002,0.002-0.005,0.003-0.007l1-1.729
	c0.276-0.48,0.11-1.094-0.37-1.37s-1.094-0.11-1.37,0.37l-1,1.729c-0.277,0.478-0.114,1.09,0.364,1.366
	C19.496,52.918,19.498,52.919,19.5,52.92z"/>
<path fill="#A9A9A9" d="M40.5,16.55c0.479,0.277,1.09,0.114,1.367-0.364c0-0.002,0.002-0.004,0.003-0.006l1-1.73
	c0.276-0.48,0.11-1.094-0.37-1.37c-0.48-0.276-1.094-0.11-1.37,0.37l-1,1.73c-0.276,0.478-0.114,1.089,0.364,1.366
	C40.496,16.548,40.498,16.549,40.5,16.55z"/>
</svg>
