<?xml version="1.0" encoding="utf-8"?>
<!-- Generator: Adobe Illustrator 15.0.0, SVG Export Plug-In . SVG Version: 6.00 Build 0)  -->
<!DOCTYPE svg PUBLIC "-//W3C//DTD SVG 1.1//EN" "http://www.w3.org/Graphics/SVG/1.1/DTD/svg11.dtd">
<svg version="1.1" id="Layer_1" xmlns="http://www.w3.org/2000/svg" xmlns:xlink="http://www.w3.org/1999/xlink" x="0px" y="0px"
	 width="64px" height="64px" viewBox="0 0 64 64" enable-background="new 0 0 64 64" xml:space="preserve">
<title>bluetooth</title>
<path id="bluetooth" fill="#A9A9A9" d="M31,60c-10.83,0-19-8.6-19-20V24c0-11.4,8.17-20,19-20s19,8.6,19,20v16
	C50,51.4,41.83,60,31,60z M31,6c-9.69,0-17,7.74-17,18v16c0,10.26,7.31,18,17,18c9.689,0,17-7.74,17-18V24C48,13.74,40.689,6,31,6z
	 M31,54c-0.137,0.001-0.273-0.026-0.4-0.08c-0.366-0.16-0.602-0.521-0.6-0.92V34.7l-10.34,9c-0.417,0.364-1.051,0.321-1.415-0.095
	c-0.365-0.418-0.322-1.051,0.095-1.416L30,32l0,0L18.34,21.75c-0.417-0.364-0.459-0.998-0.095-1.415
	c0.364-0.417,0.998-0.459,1.415-0.095l0,0L30,29.3V11c-0.004-0.552,0.441-1.003,0.993-1.007c0.254-0.002,0.5,0.094,0.687,0.267
	l12,11c0.412,0.369,0.447,1.001,0.078,1.412c-0.024,0.027-0.051,0.054-0.078,0.078L33.09,32l10.57,9.25
	c0.411,0.368,0.446,1,0.078,1.412c-0.025,0.027-0.051,0.053-0.078,0.078l-12,11C31.479,53.904,31.244,53.997,31,54z M32,33.7v17
	l9.5-8.7L32,33.7z M32,13.27v17L41.5,22L32,13.27z"/>
</svg>
