<?xml version="1.0" encoding="utf-8"?>
<!-- Generator: Adobe Illustrator 15.0.0, SVG Export Plug-In . SVG Version: 6.00 Build 0)  -->
<!DOCTYPE svg PUBLIC "-//W3C//DTD SVG 1.1//EN" "http://www.w3.org/Graphics/SVG/1.1/DTD/svg11.dtd">
<svg version="1.1" id="Layer_1" xmlns="http://www.w3.org/2000/svg" xmlns:xlink="http://www.w3.org/1999/xlink" x="0px" y="0px"
	 width="64px" height="64px" viewBox="0 0 64 64" enable-background="new 0 0 64 64" xml:space="preserve">
<title>halt</title>
<path d="M32,4C16.536,4,4,16.536,4,32s12.536,28,28,28s28-12.536,28-28S47.464,4,32,4z M6,32c-0.006-6.548,2.47-12.855,6.93-17.65
	l36.72,36.72c-10.545,9.748-26.994,9.102-36.742-1.441C8.472,44.83,6.005,38.535,6,32z M51.07,49.65L14.35,12.93
	c10.667-9.613,27.107-8.759,36.72,1.908C59.984,24.73,59.984,39.758,51.07,49.65z"/>
</svg>
