<?xml version="1.0" encoding="utf-8"?>
<!-- Generator: Adobe Illustrator 15.0.0, SVG Export Plug-In . SVG Version: 6.00 Build 0)  -->
<!DOCTYPE svg PUBLIC "-//W3C//DTD SVG 1.1//EN" "http://www.w3.org/Graphics/SVG/1.1/DTD/svg11.dtd">
<svg version="1.1" id="Layer_1" xmlns="http://www.w3.org/2000/svg" xmlns:xlink="http://www.w3.org/1999/xlink" x="0px" y="0px"
	 width="64px" height="64px" viewBox="0 0 64 64" enable-background="new 0 0 64 64" xml:space="preserve">
<title>iphone_warning</title>
<path d="M8,8v44c0,2.209,1.791,4,4,4h11c0.552,0,1-0.447,1-1s-0.448-1-1-1H12c-1.104,0-2-0.896-2-2v-4h17c0.552,0,1-0.447,1-1
	s-0.448-1-1-1H10V14h24v21c0,0.553,0.447,1,1,1s1-0.447,1-1V8c0-2.209-1.791-4-4-4H12C9.791,4,8,5.791,8,8z M34,8v4H10V8
	c0-1.104,0.896-2,2-2h20C33.104,6,34,6.896,34,8z"/>
<path d="M21,10h6c0.552,0,1-0.448,1-1s-0.448-1-1-1h-6c-0.552,0-1,0.448-1,1S20.448,10,21,10z"/>
<path d="M17,10c0.552,0.003,1.002-0.442,1.006-0.994c0.001-0.269-0.105-0.527-0.296-0.716c-0.392-0.392-1.028-0.392-1.42,0
	s-0.392,1.028,0,1.42C16.481,9.893,16.735,9.996,17,10z"/>
<path d="M21,50c-0.552,0-1,0.447-1,1s0.448,1,1,1h2c0.552,0,1-0.447,1-1s-0.448-1-1-1H21z"/>
<path d="M41,34c-1.314,0.001-2.544,0.648-3.29,1.73L26.47,54.13l-0.06,0.12C26.162,54.801,26.022,55.396,26,56c0,2.209,1.791,4,4,4
	h22c2.209,0,4-1.791,4-4c-0.022-0.604-0.162-1.199-0.41-1.75l-0.061-0.12L44.25,35.67C43.499,34.622,42.289,34,41,34z M54,56
	c0,1.104-0.896,2-2,2H30c-1.104,0-2-0.896-2-2c0.021-0.307,0.092-0.606,0.21-0.891l11.16-18.27C39.746,36.313,40.353,36,41,36
	c0.623-0.002,1.211,0.287,1.59,0.78l11.2,18.329C53.908,55.394,53.979,55.693,54,56z"/>
<path d="M41,40c-0.553,0-1,0.447-1,1v8c0,0.553,0.447,1,1,1s1-0.447,1-1v-8C42,40.447,41.553,40,41,40z"/>
<path d="M40.29,52.29C40.107,52.481,40.004,52.735,40,53c-0.002,0.266,0.104,0.521,0.29,0.71c0.392,0.39,1.025,0.386,1.414-0.006
	c0.39-0.392,0.386-1.025-0.006-1.414C41.309,51.903,40.68,51.903,40.29,52.29z"/>
</svg>
