<?xml version="1.0" encoding="utf-8"?>
<!-- Generator: Adobe Illustrator 15.0.0, SVG Export Plug-In . SVG Version: 6.00 Build 0)  -->
<!DOCTYPE svg PUBLIC "-//W3C//DTD SVG 1.1//EN" "http://www.w3.org/Graphics/SVG/1.1/DTD/svg11.dtd">
<svg version="1.1" id="Layer_1" xmlns="http://www.w3.org/2000/svg" xmlns:xlink="http://www.w3.org/1999/xlink" x="0px" y="0px"
	 width="64px" height="64px" viewBox="0 0 64 64" enable-background="new 0 0 64 64" xml:space="preserve">
<title>sad_face</title>
<path fill="#A9A9A9" d="M31,60c14.912,0,27-12.088,27-27C58,18.088,45.912,6,31,6C16.088,6,4,18.088,4,33C4,47.912,16.088,60,31,60z
	 M31,8c13.807,0,25,11.193,25,25c0,13.807-11.193,25-25,25C17.193,58,6,46.807,6,33C6,19.193,17.193,8,31,8z"/>
<path fill="#A9A9A9" d="M22,30c2.209,0,4-1.791,4-4s-1.791-4-4-4s-4,1.791-4,4S19.791,30,22,30z M22,24c1.104,0,2,0.896,2,2
	s-0.896,2-2,2s-2-0.896-2-2S20.896,24,22,24z"/>
<path fill="#A9A9A9" d="M40,30c2.209,0,4-1.791,4-4s-1.791-4-4-4s-4,1.791-4,4S37.791,30,40,30z M40,24c1.104,0,2,0.896,2,2
	s-0.896,2-2,2s-2-0.896-2-2S38.896,24,40,24z"/>
<path fill="#A9A9A9" d="M18.74,48.67c-0.186,0.52,0.085,1.092,0.605,1.278c0.001,0.001,0.003,0.001,0.005,0.002
	c0.106,0.038,0.217,0.059,0.33,0.06c0.423-0.002,0.8-0.27,0.94-0.67c2.019-5.73,8.3-8.738,14.03-6.72
	c3.142,1.106,5.613,3.578,6.72,6.72c0.185,0.521,0.758,0.795,1.28,0.61c0.521-0.185,0.795-0.759,0.609-1.28
	c-2.388-6.771-9.813-10.324-16.583-7.937C22.966,42.042,20.048,44.96,18.74,48.67z"/>
</svg>
