<?xml version="1.0" encoding="utf-8"?>
<!-- Generator: Adobe Illustrator 15.0.0, SVG Export Plug-In . SVG Version: 6.00 Build 0)  -->
<!DOCTYPE svg PUBLIC "-//W3C//DTD SVG 1.1//EN" "http://www.w3.org/Graphics/SVG/1.1/DTD/svg11.dtd">
<svg version="1.1" id="Layer_1" xmlns="http://www.w3.org/2000/svg" xmlns:xlink="http://www.w3.org/1999/xlink" x="0px" y="0px"
	 width="64px" height="64px" viewBox="0 0 64 64" enable-background="new 0 0 64 64" xml:space="preserve">
<title>chat</title>
<path fill="#A9A9A9" d="M56,8H8c-2.209,0-4,1.791-4,4v30c0,2.209,1.791,4,4,4h10v9c0.002,0.396,0.238,0.752,0.6,0.91
	C18.725,55.969,18.862,56,19,56c0.248,0,0.487-0.094,0.67-0.26L30.39,46H56c2.209,0,4-1.791,4-4V12C60,9.791,58.209,8,56,8z M58,42
	c0,1.104-0.896,2-2,2H30c-0.248,0-0.487,0.094-0.67,0.26L20,52.74V45c0-0.553-0.448-1-1-1H8c-1.104,0-2-0.896-2-2V12
	c0-1.104,0.896-2,2-2h48c1.104,0,2,0.896,2,2V42z"/>
</svg>
