<?xml version="1.0" encoding="utf-8"?>
<!-- Generator: Adobe Illustrator 15.0.0, SVG Export Plug-In . SVG Version: 6.00 Build 0)  -->
<!DOCTYPE svg PUBLIC "-//W3C//DTD SVG 1.1//EN" "http://www.w3.org/Graphics/SVG/1.1/DTD/svg11.dtd">
<svg version="1.1" id="Layer_1" xmlns="http://www.w3.org/2000/svg" xmlns:xlink="http://www.w3.org/1999/xlink" x="0px" y="0px"
	 width="64px" height="64px" viewBox="0 0 64 64" enable-background="new 0 0 64 64" xml:space="preserve">
<title>mouse</title>
<path fill="#A9A9A9" d="M53.59,23.88l1.189-1.1c4.297-4.297,4.297-11.264,0-15.561c-4.296-4.296-11.263-4.296-15.559,0L19.36,27.36
	c-3.517,3.513-9.215,3.509-12.728-0.008C4.949,25.667,4.002,23.382,4,21c0-0.552-0.448-1-1-1s-1,0.448-1,1
	c-0.002,6.075,4.921,11.001,10.997,11.004c2.919,0.001,5.719-1.159,7.783-3.224L40.641,8.64c3.506-3.524,9.205-3.537,12.729-0.03
	c3.523,3.507,3.537,9.207,0.03,12.73l0,0l-1.211,1.12L48,18.3c-3.065-3.064-8.035-3.064-11.1,0l-6.15,6.18h-0.07v0.07L18.29,37
	c-5.558,5.88-5.296,15.152,0.584,20.71c5.647,5.337,14.479,5.337,20.126,0l12.279-12.271c0.071-0.031,0.136-0.075,0.191-0.129
	c0.046-0.062,0.09-0.125,0.129-0.19l1.2-1.2c3.65-3.65,4.55-4.52,4.771-4.73l0.13-0.109c3.06-3.068,3.06-8.032,0-11.1L53.59,23.88z
	 M38.33,19.71c2.29-2.278,5.99-2.278,8.279,0l4.141,4.14l-9.66,9.66l-8.24-8.24l0.66-0.66L38.33,19.71z M37.6,56.29
	c-4.939,4.94-12.949,4.94-17.89,0c-4.94-4.94-4.94-12.95,0-17.89l11.72-11.72l17.89,17.89L37.6,56.29z M56.29,37.67L56.29,37.67
	L56.29,37.67L56.29,37.67l-0.06,0.07c-0.641,0.55-1.9,1.82-4.791,4.71L50.79,43.1l-8.24-8.24l9.66-9.659l4.14,4.14
	c2.284,2.309,2.264,6.031-0.045,8.315C56.3,37.66,56.295,37.665,56.29,37.67z"/>
</svg>
