<?xml version="1.0" encoding="utf-8"?>
<!-- Generator: Adobe Illustrator 15.0.0, SVG Export Plug-In . SVG Version: 6.00 Build 0)  -->
<!DOCTYPE svg PUBLIC "-//W3C//DTD SVG 1.1//EN" "http://www.w3.org/Graphics/SVG/1.1/DTD/svg11.dtd">
<svg version="1.1" id="Layer_1" xmlns="http://www.w3.org/2000/svg" xmlns:xlink="http://www.w3.org/1999/xlink" x="0px" y="0px"
	 width="64px" height="64px" viewBox="0 0 64 64" enable-background="new 0 0 64 64" xml:space="preserve">
<title>paint_roller</title>
<path d="M36,28h18c2.209,0,4-1.791,4-4v-8c0-2.209-1.791-4-4-4V8c0-2.209-1.791-4-4-4H12C9.791,4,8,5.791,8,8v2H7
	c-0.552,0-1,0.448-1,1v4c0,0.552,0.448,1,1,1h1v2c0,2.209,1.791,4,4,4h38c2.209,0,4-1.791,4-4v-4c1.104,0,2,0.896,2,2v8
	c0,1.104-0.896,2-2,2H36c-2.209,0-4,1.791-4,4v10h-1c-0.552,0-1,0.447-1,1v16c0,1.656,1.343,3,3,3c1.656,0,3-1.344,3-3V41
	c0-0.553-0.447-1-1-1h-1V30C34,28.896,34.896,28,36,28z M52,18c0,1.104-0.896,2-2,2H12c-1.104,0-2-0.896-2-2V8c0-1.104,0.896-2,2-2
	h38c1.104,0,2,0.896,2,2V18z M34,57c0,0.553-0.447,1-1,1c-0.552,0-1-0.447-1-1V42h2V57z"/>
</svg>
