<?xml version="1.0" encoding="utf-8"?>
<!-- Generator: Adobe Illustrator 15.0.0, SVG Export Plug-In . SVG Version: 6.00 Build 0)  -->
<!DOCTYPE svg PUBLIC "-//W3C//DTD SVG 1.1//EN" "http://www.w3.org/Graphics/SVG/1.1/DTD/svg11.dtd">
<svg version="1.1" id="Layer_1" xmlns="http://www.w3.org/2000/svg" xmlns:xlink="http://www.w3.org/1999/xlink" x="0px" y="0px"
	 width="64px" height="64px" viewBox="0 0 64 64" enable-background="new 0 0 64 64" xml:space="preserve">
<title>games_ios</title>
<path fill="#A9A9A9" d="M53.6,30.39c4.621-7.532,2.261-17.384-5.271-22.005C43.993,5.726,38.652,5.286,33.939,7.2
	C22.969,3.439,11.026,9.284,7.265,20.255C4.321,28.842,7.228,38.348,14.47,43.82c-1.74,5.82,1.567,11.949,7.388,13.689
	c4.624,1.383,9.608-0.41,12.292-4.42c6.723,4.84,16.097,3.314,20.938-3.41C59.359,43.747,58.73,35.599,53.6,30.39z M34,47
	c0,0.977-0.162,1.946-0.48,2.87c-0.689-0.739-1.293-1.555-1.799-2.431c0.773-0.175,1.535-0.398,2.28-0.67
	C34.004,46.847,34.004,46.924,34,47z M30.86,45.6c-0.567-1.467-0.858-3.026-0.86-4.6c0.001-0.475,0.028-0.948,0.08-1.42
	c1.793,1.232,3.079,3.072,3.62,5.18C32.777,45.113,31.827,45.395,30.86,45.6z M28.86,45.91C28.23,46,27.62,46,27,46
	c-3.573,0.001-7.073-1.016-10.09-2.93c2.04-4.192,6.944-6.132,11.3-4.471c-0.136,0.793-0.207,1.596-0.21,2.4
	c0.005,1.672,0.29,3.331,0.84,4.91H28.86z M30.52,37.49c0.202-0.719,0.466-1.418,0.79-2.09c2.583,1.693,5.602,2.597,8.69,2.6
	c0.885-0.004,1.769-0.084,2.641-0.24c-1.813,2.615-4.245,4.738-7.08,6.18c-0.793-2.721-2.605-5.031-5.061-6.449H30.52z M40,36
	c-2.747,0.002-5.434-0.809-7.72-2.33C34.699,30.127,38.71,28.005,43,28c0.986,0.004,1.971,0.121,2.93,0.35
	c-0.177,2.457-0.832,4.855-1.93,7.06C42.703,35.8,41.355,35.999,40,36z M26,22c0.003-5.404,3.117-10.324,8-12.64
	c7.004,2.77,11.711,9.414,12,16.94c-0.986-0.204-1.992-0.305-3-0.3c-4.906,0.006-9.5,2.411-12.3,6.44
	C27.717,29.789,26.007,25.991,26,22z M47.9,29c1.074,0.449,2.084,1.041,3,1.76c-1.172,1.467-2.623,2.688-4.271,3.59
	C47.287,32.631,47.715,30.832,47.9,29z M40,8c7.732,0,14,6.268,14,14c0.002,2.488-0.668,4.931-1.939,7.07
	c-1.23-0.941-2.601-1.683-4.061-2.2c-0.054-7.77-4.393-14.874-11.279-18.47C37.794,8.14,38.895,8.005,40,8z M8,27
	C8,16.507,16.506,8,27,8c1.479,0.007,2.952,0.186,4.39,0.53c-7.439,4.769-9.604,14.666-4.835,22.104
	c0.852,1.328,1.894,2.522,3.095,3.545c-0.405,0.786-0.739,1.605-1,2.45c-5.155-1.81-10.857,0.438-13.39,5.28
	C10.684,38.314,8.009,32.819,8,27z M25,56c-4.971,0-9-4.029-9-9c0-0.674,0.077-1.344,0.23-2c4.014,2.459,8.756,3.452,13.42,2.811
	c0.754,1.487,1.751,2.84,2.95,4C30.952,54.416,28.084,55.998,25,56z M43,54c-2.852-0.002-5.623-0.947-7.88-2.689
	C35.701,49.947,36,48.481,36,47c0-0.35,0-0.689,0-1c4.041-1.918,7.367-5.068,9.5-9c2.746-0.996,5.167-2.726,7-5
	c4.971,5.181,4.801,13.41-0.38,18.381C49.67,52.732,46.396,54.031,43,54z"/>
</svg>
