<?xml version="1.0" encoding="utf-8"?>
<!-- Generator: Adobe Illustrator 15.0.0, SVG Export Plug-In . SVG Version: 6.00 Build 0)  -->
<!DOCTYPE svg PUBLIC "-//W3C//DTD SVG 1.1//EN" "http://www.w3.org/Graphics/SVG/1.1/DTD/svg11.dtd">
<svg version="1.1" id="Layer_1" xmlns="http://www.w3.org/2000/svg" xmlns:xlink="http://www.w3.org/1999/xlink" x="0px" y="0px"
	 width="64px" height="64px" viewBox="0 0 64 64" enable-background="new 0 0 64 64" xml:space="preserve">
<title>pill</title>
<path fill="#A9A9A9" d="M53.9,10.1c-5.467-5.468-14.332-5.468-19.799-0.001c-0.001,0-0.002,0-0.002,0.001l-24,24
	c-5.468,5.468-5.468,14.333,0,19.801c5.467,5.467,14.333,5.467,19.8,0l24-24C59.367,24.433,59.368,15.568,53.9,10.1
	C53.9,10.101,53.9,10.101,53.9,10.1z M28.49,52.49c-4.695,4.694-12.306,4.694-17,0c-4.695-4.695-4.695-12.306,0-17L22.8,24.23l17,17
	L28.49,52.49z M41.189,39.78l-17-17l11.32-11.26c4.695-4.694,12.306-4.694,17,0c4.695,4.694,4.695,12.306,0,17L41.189,39.78z"/>
<path fill="#A9A9A9" d="M36.93,12.93c-0.359,0.419-0.311,1.051,0.109,1.41c0.375,0.321,0.927,0.321,1.301,0
	c3.124-3.122,8.187-3.122,11.311,0c0.188,0.188,0.443,0.292,0.709,0.29c0.267,0.001,0.521-0.103,0.711-0.29
	c0.387-0.39,0.387-1.02,0-1.41C47.165,9.026,40.835,9.026,36.93,12.93z"/>
</svg>
