<?xml version="1.0" encoding="utf-8"?>
<!-- Generator: Adobe Illustrator 15.0.0, SVG Export Plug-In . SVG Version: 6.00 Build 0)  -->
<!DOCTYPE svg PUBLIC "-//W3C//DTD SVG 1.1//EN" "http://www.w3.org/Graphics/SVG/1.1/DTD/svg11.dtd">
<svg version="1.1" id="Layer_1" xmlns="http://www.w3.org/2000/svg" xmlns:xlink="http://www.w3.org/1999/xlink" x="0px" y="0px"
	 width="64px" height="64px" viewBox="0 0 64 64" enable-background="new 0 0 64 64" xml:space="preserve">
<title>mobile_signal</title>
<path id="wireless_signal" fill="#FFFFFF" d="M31,30c-1.657,0-3-1.343-3-3s1.343-3,3-3c1.656,0,3,1.343,3,3S32.656,30,31,30z M31,26
	c-0.552,0-1,0.448-1,1s0.448,1,1,1s1-0.448,1-1S31.552,26,31,26z M31,58c-0.552,0-1-0.447-1-1V35c0-0.553,0.448-1,1-1s1,0.447,1,1
	v22C32,57.553,31.552,58,31,58z M38.07,35.07c-0.553,0.003-1.004-0.442-1.006-0.994c-0.002-0.27,0.104-0.527,0.295-0.717
	c3.516-3.515,3.518-9.212,0.002-12.729c0,0,0-0.001-0.002-0.002c-0.358-0.419-0.311-1.051,0.108-1.41c0.375-0.32,0.927-0.32,1.302,0
	c4.291,4.295,4.291,11.255,0,15.551C38.586,34.959,38.334,35.066,38.07,35.07z M24.07,35.16c-0.261,0.002-0.512-0.1-0.7-0.28
	c-4.349-4.242-4.436-11.206-0.194-15.555c0.031-0.032,0.063-0.063,0.094-0.095c0.419-0.359,1.051-0.311,1.41,0.109
	c0.32,0.375,0.32,0.927,0,1.301c-3.516,3.514-3.517,9.212-0.003,12.728c0.028,0.026,0.055,0.055,0.083,0.082
	c0.388,0.39,0.388,1.02,0,1.409c-0.199,0.203-0.475,0.313-0.76,0.301H24.07z M43.779,40.73c-0.549,0.057-1.041-0.345-1.096-0.894
	C42.65,39.523,42.768,39.214,43,39c6.611-6.634,6.611-17.366,0-24c-0.42-0.359-0.469-0.991-0.109-1.41
	c0.36-0.419,0.99-0.468,1.41-0.109c0.039,0.034,0.076,0.07,0.109,0.109c7.42,7.42,7.42,19.45,0,26.87
	c-0.186,0.173-0.428,0.269-0.68,0.271H43.779L43.779,40.73z M18.42,40.82c-0.262-0.002-0.514-0.105-0.7-0.29
	c-7.483-7.356-7.586-19.386-0.23-26.869c0.043-0.044,0.086-0.088,0.13-0.131c0.406-0.381,1.044-0.361,1.425,0.045
	C19.426,13.981,19.406,14.619,19,15c-6.636,6.642-6.631,17.406,0.011,24.041c0.026,0.027,0.052,0.053,0.079,0.079
	c0.387,0.394,0.38,1.026-0.014,1.414c-0.191,0.187-0.449,0.29-0.716,0.286H18.42z M12.71,46c-0.262-0.001-0.514-0.105-0.7-0.29
	C1.653,35.764,1.319,19.305,11.265,8.948c0.214-0.224,0.433-0.443,0.655-0.658c0.359-0.419,0.991-0.468,1.41-0.109
	s0.468,0.991,0.109,1.41C13.406,9.63,13.369,9.667,13.33,9.7c-9.525,9.217-9.774,24.411-0.557,33.937
	c0.211,0.219,0.427,0.434,0.646,0.645c0.398,0.383,0.41,1.017,0.026,1.412C13.254,45.895,12.987,46.004,12.71,46z M49.391,46
	c-0.553,0.004-1.004-0.441-1.006-0.994c-0.002-0.27,0.104-0.527,0.295-0.716c9.553-9.253,9.795-24.498,0.541-34.05
	c-0.178-0.183-0.357-0.363-0.541-0.54c-0.359-0.42-0.311-1.051,0.109-1.41c0.375-0.321,0.927-0.321,1.301,0
	c10.33,10.037,10.568,26.548,0.531,36.879c-0.174,0.181-0.352,0.356-0.531,0.531c-0.188,0.19-0.441,0.299-0.71,0.3H49.391z"/>
</svg>
