<?xml version="1.0" encoding="utf-8"?>
<!-- Generator: Adobe Illustrator 15.0.0, SVG Export Plug-In . SVG Version: 6.00 Build 0)  -->
<!DOCTYPE svg PUBLIC "-//W3C//DTD SVG 1.1//EN" "http://www.w3.org/Graphics/SVG/1.1/DTD/svg11.dtd">
<svg version="1.1" id="Layer_1" xmlns="http://www.w3.org/2000/svg" xmlns:xlink="http://www.w3.org/1999/xlink" x="0px" y="0px"
	 width="64px" height="64px" viewBox="0 0 64 64" enable-background="new 0 0 64 64" xml:space="preserve">
<title>jewel</title>
<path d="M4,21.1c0.007,0.078,0.024,0.155,0.05,0.23l0.07,0.15c0.016,0.042,0.036,0.082,0.06,0.12l27,36l0,0
	c0.084,0.107,0.19,0.195,0.31,0.26h0.09c0.125,0.062,0.261,0.096,0.4,0.101c0.138-0.005,0.273-0.035,0.4-0.09h0.09
	c0.12-0.065,0.225-0.153,0.309-0.261l0,0l27-36c0.025-0.038,0.045-0.078,0.061-0.12c0.027-0.048,0.051-0.099,0.07-0.15
	c0.009-0.076,0.009-0.153,0-0.23L60,21l0,0c0.01-0.09,0.01-0.18,0-0.27c0,0,0-0.07,0-0.1c-0.048-0.108-0.115-0.207-0.2-0.29l0,0
	l-14-14c-0.091-0.093-0.2-0.168-0.319-0.22C45.332,6.044,45.167,6.003,45,6H19c-0.131,0.001-0.26,0.029-0.38,0.08
	c-0.122,0.048-0.231,0.124-0.32,0.22l-14,14l0,0c-0.087,0.08-0.158,0.175-0.21,0.28c0,0,0,0.06,0,0.1C4.04,20.78,4.009,20.889,4,21
	l0,0C4,21,4,21.07,4,21.1z M43.58,22L32,54.061L20.42,22H43.58z M21.29,20L32,8.47L42.71,20H21.29z M45.7,22H57L35.21,51L45.7,22z
	 M46,20V9.41L56.59,20H46z M44,18.45L34.29,8H44V18.45z M20,18.45V8h9.71L20,18.45z M18,20H7.41L18,9.41V20z M18.3,22l10.49,29L7,22
	H18.3z"/>
</svg>
