<?xml version="1.0" encoding="utf-8"?>
<!-- Generator: Adobe Illustrator 15.0.0, SVG Export Plug-In . SVG Version: 6.00 Build 0)  -->
<!DOCTYPE svg PUBLIC "-//W3C//DTD SVG 1.1//EN" "http://www.w3.org/Graphics/SVG/1.1/DTD/svg11.dtd">
<svg version="1.1" id="Layer_1" xmlns="http://www.w3.org/2000/svg" xmlns:xlink="http://www.w3.org/1999/xlink" x="0px" y="0px"
	 width="64px" height="64px" viewBox="0 0 64 64" enable-background="new 0 0 64 64" xml:space="preserve">
<title>music_note</title>
<path id="music_note" d="M57.641,6.23C57.417,6.038,57.121,5.954,56.83,6l-34,6c-0.485,0.083-0.837,0.508-0.83,1v31
	c0,1.104-0.896,2-2,2h-5c-5.38,0-9,2.811-9,7s3.62,7,9,7s9-2.811,9-7V25.84l32-5.65V38c0,1.104-0.896,2-2,2h-5c-5.38,0-9,2.811-9,7
	s3.62,7,9,7s9-2.811,9-7V7C58,6.703,57.869,6.42,57.641,6.23z M22,53c0,3.689-3.77,5-7,5s-7-1.311-7-5s3.77-5,7-5h5
	c0.703-0.001,1.392-0.188,2-0.54V53z M56,47c0,3.689-3.77,5-7,5s-7-1.311-7-5s3.77-5,7-5h5c0.703-0.001,1.393-0.188,2-0.54V47z
	 M24,23.81v-10l32-5.62v10L24,23.81z"/>
</svg>
