<?xml version="1.0" encoding="utf-8"?>
<!-- Generator: Adobe Illustrator 15.0.0, SVG Export Plug-In . SVG Version: 6.00 Build 0)  -->
<!DOCTYPE svg PUBLIC "-//W3C//DTD SVG 1.1//EN" "http://www.w3.org/Graphics/SVG/1.1/DTD/svg11.dtd">
<svg version="1.1" id="图层_1" xmlns="http://www.w3.org/2000/svg" xmlns:xlink="http://www.w3.org/1999/xlink" x="0px" y="0px"
	 width="24px" height="24px" viewBox="0 0 24 24" enable-background="new 0 0 24 24" xml:space="preserve">
<path d="M12,0C7.589,0,4,3.588,4,8c0,4.244,7.272,15.307,7.583,15.775C11.675,23.915,11.832,24,12,24s0.324-0.085,0.417-0.225
	C12.727,23.307,20,12.244,20,8C20,3.588,16.411,0,12,0z M12,11.5c-1.93,0-3.5-1.57-3.5-3.5s1.57-3.5,3.5-3.5
	c1.93,0,3.5,1.57,3.5,3.5S13.93,11.5,12,11.5z"/>
</svg>
