<?xml version="1.0" encoding="utf-8"?>
<!-- Generator: Adobe Illustrator 15.0.0, SVG Export Plug-In . SVG Version: 6.00 Build 0)  -->
<!DOCTYPE svg PUBLIC "-//W3C//DTD SVG 1.1//EN" "http://www.w3.org/Graphics/SVG/1.1/DTD/svg11.dtd">
<svg version="1.1" id="Layer_1" xmlns="http://www.w3.org/2000/svg" xmlns:xlink="http://www.w3.org/1999/xlink" x="0px" y="0px"
	 width="64px" height="64px" viewBox="0 0 64 64" enable-background="new 0 0 64 64" xml:space="preserve">
<title>user_locked_2</title>
<path id="user_locked_2" fill="#A9A9A9" d="M59,44h-2v-2c0-4.418-3.582-8-8-8s-8,3.582-8,8v2h-2c-0.553,0-1,0.447-1,1v14
	c0,0.553,0.447,1,1,1h20c0.553,0,1-0.447,1-1V45C60,44.447,59.553,44,59,44z M43,42c0-3.313,2.687-6,6-6s6,2.687,6,6v2H43V42z
	 M58,58H40V46h18V58z M51,50c0.007-1.104-0.883-2.006-1.988-2.012c-1.104-0.007-2.005,0.883-2.012,1.988
	c-0.004,0.719,0.377,1.384,1,1.743V55c0,0.553,0.447,1,1,1s1-0.447,1-1v-3.28C50.615,51.365,50.996,50.71,51,50z M42.79,32.27
	c-2.938-2.772-6.558-4.718-10.49-5.64c5.323-2.927,7.267-9.615,4.339-14.939C33.712,6.368,27.023,4.425,21.7,7.352
	c-5.324,2.927-7.266,9.616-4.339,14.939c1.006,1.829,2.511,3.333,4.339,4.339C11.33,29.086,4.005,38.344,4,49c0,0.553,0.448,1,1,1
	s1-0.447,1-1c0.003-11.598,9.408-20.998,21.006-20.994c5.355,0.001,10.508,2.049,14.404,5.725c0.402,0.381,1.039,0.363,1.42-0.041
	C43.211,33.287,43.193,32.65,42.79,32.27z M18,17c0-4.971,4.029-9,9-9s9,4.029,9,9s-4.029,9-9,9S18,21.971,18,17z"/>
</svg>
