<?xml version="1.0" encoding="utf-8"?>
<!-- Generator: Adobe Illustrator 15.0.0, SVG Export Plug-In . SVG Version: 6.00 Build 0)  -->
<!DOCTYPE svg PUBLIC "-//W3C//DTD SVG 1.1//EN" "http://www.w3.org/Graphics/SVG/1.1/DTD/svg11.dtd">
<svg version="1.1" id="图层_1" xmlns="http://www.w3.org/2000/svg" xmlns:xlink="http://www.w3.org/1999/xlink" x="0px" y="0px"
	 width="24px" height="24px" viewBox="0 0 24 24" enable-background="new 0 0 24 24" xml:space="preserve">
<g>
	<path d="M1.5,0C1.224,0,1,0.224,1,0.5v23C1,23.775,1.224,24,1.5,24S2,23.775,2,23.5v-23C2,0.224,1.776,0,1.5,0z M20.805,2.796
		c-0.123-0.094-0.285-0.125-0.436-0.085c-0.03,0.008-3.087,0.829-5.45,0.83c-0.812,0-1.437-0.095-1.854-0.283
		C12.564,3.033,12.5,2.735,12.5,2.5c0-0.685-0.352-1.833-2.704-1.833c-2.574,0-6.305,1.306-6.462,1.362C3.134,2.099,3,2.288,3,2.5
		v12c0,0.162,0.079,0.314,0.211,0.408c0.133,0.094,0.303,0.117,0.455,0.063c0.037-0.014,3.726-1.305,6.13-1.305
		c1.704,0,1.704,0.627,1.704,0.833c0,0.938,0.603,2.056,3.473,2.056c2.488,0,5.528-0.803,5.656-0.837
		C20.848,15.66,21,15.462,21,15.234V3.193C21,3.038,20.928,2.891,20.805,2.796z M20,14.845c-0.881,0.212-3.16,0.71-5.027,0.71
		c-1.127,0-2.473-0.183-2.473-1.055c0-0.686-0.352-1.833-2.704-1.833c-1.956,0-4.579,0.754-5.796,1.142V2.859
		c0.965-0.316,3.815-1.193,5.796-1.193C11.5,1.667,11.5,2.294,11.5,2.5c0,0.526,0.2,1.242,1.154,1.67
		c0.558,0.25,1.298,0.371,2.265,0.371c1.853,0,4.028-0.457,5.081-0.707V14.845z"/>
</g>
</svg>
