<?xml version="1.0" encoding="utf-8"?>
<!-- Generator: Adobe Illustrator 15.0.0, SVG Export Plug-In . SVG Version: 6.00 Build 0)  -->
<!DOCTYPE svg PUBLIC "-//W3C//DTD SVG 1.1//EN" "http://www.w3.org/Graphics/SVG/1.1/DTD/svg11.dtd">
<svg version="1.1" id="Layer_1" xmlns="http://www.w3.org/2000/svg" xmlns:xlink="http://www.w3.org/1999/xlink" x="0px" y="0px"
	 width="64px" height="64px" viewBox="0 0 64 64" enable-background="new 0 0 64 64" xml:space="preserve">
<title>paint_tin</title>
<path d="M51,32c0.553,0,1-0.448,1-1v-9c0-11.046-8.954-20-20-20s-20,8.954-20,20v9c0,0.552,0.448,1,1,1s1-0.448,1-1v-1h2v29
	c0,0.553,0.448,1,1,1h30c0.553,0,1-0.447,1-1V30h2v1C50,31.552,50.447,32,51,32z M46,58H18V30h28V58z M46,28H18v-2h28V28z M48,28v-3
	c0-0.552-0.447-1-1-1H17c-0.552,0-1,0.448-1,1v3h-2v-6c0-9.941,8.059-18,18-18c9.941,0,18,8.059,18,18v6H48z"/>
</svg>
