<?xml version="1.0" encoding="utf-8"?>
<!-- Generator: Adobe Illustrator 15.0.0, SVG Export Plug-In . SVG Version: 6.00 Build 0)  -->
<!DOCTYPE svg PUBLIC "-//W3C//DTD SVG 1.1//EN" "http://www.w3.org/Graphics/SVG/1.1/DTD/svg11.dtd">
<svg version="1.1" id="Layer_1" xmlns="http://www.w3.org/2000/svg" xmlns:xlink="http://www.w3.org/1999/xlink" x="0px" y="0px"
	 width="64px" height="64px" viewBox="0 0 64 64" enable-background="new 0 0 64 64" xml:space="preserve">
<title>user_multiply_2</title>
<path id="user_multiply_2" d="M49.41,48l8.29-8.29c0.358-0.419,0.31-1.051-0.109-1.41c-0.374-0.32-0.927-0.32-1.301,0L48,46.59
	l-8.29-8.29c-0.419-0.358-1.051-0.31-1.41,0.109c-0.32,0.374-0.32,0.927,0,1.301L46.59,48l-8.26,8.26
	c-0.42,0.359-0.469,0.99-0.109,1.41s0.99,0.469,1.41,0.109c0.039-0.033,0.076-0.07,0.109-0.109L48,49.41l8.29,8.29
	c0.359,0.419,0.99,0.468,1.41,0.108c0.419-0.359,0.468-0.99,0.108-1.41c-0.033-0.039-0.069-0.075-0.108-0.108L49.41,48z
	 M47.49,38.55c-3.059-6.015-8.611-10.376-15.18-11.92c5.321-2.933,7.256-9.623,4.323-14.943c-2.932-5.32-9.623-7.256-14.943-4.323
	s-7.256,9.623-4.323,14.943c1.003,1.821,2.502,3.32,4.323,4.323C11.324,29.09,4.004,38.346,4,49c0,0.553,0.448,1,1,1s1-0.447,1-1
	c-0.002-11.598,9.398-21.002,20.996-21.004c7.897-0.001,15.128,4.428,18.714,11.464c0.237,0.499,0.833,0.712,1.332,0.475
	c0.499-0.236,0.712-0.833,0.476-1.332C47.508,38.585,47.5,38.567,47.49,38.55z M18,17c0-4.971,4.029-9,9-9s9,4.029,9,9s-4.029,9-9,9
	S18,21.971,18,17z"/>
</svg>
