<?xml version="1.0" encoding="utf-8"?>
<!-- Generator: Adobe Illustrator 15.0.0, SVG Export Plug-In . SVG Version: 6.00 Build 0)  -->
<!DOCTYPE svg PUBLIC "-//W3C//DTD SVG 1.1//EN" "http://www.w3.org/Graphics/SVG/1.1/DTD/svg11.dtd">
<svg version="1.1" id="图层_1" xmlns="http://www.w3.org/2000/svg" xmlns:xlink="http://www.w3.org/1999/xlink" x="0px" y="0px"
	 width="24px" height="24px" viewBox="0 0 24 24" enable-background="new 0 0 24 24" xml:space="preserve">
<path fill="#A9A9A9" d="M4,16c0,0.88,0.39,1.67,1,2.22V20c0,0.55,0.45,1,1,1h1c0.55,0,1-0.45,1-1v-1h8v1c0,0.55,0.45,1,1,1h1
	c0.55,0,1-0.45,1-1v-1.78c0.609-0.55,1-1.34,1-2.22V6c0-3.5-3.58-4-8-4S4,2.5,4,6V16z M7.5,17C6.67,17,6,16.33,6,15.5
	S6.67,14,7.5,14S9,14.67,9,15.5S8.33,17,7.5,17z M16.5,17c-0.83,0-1.5-0.67-1.5-1.5s0.67-1.5,1.5-1.5s1.5,0.67,1.5,1.5
	S17.33,17,16.5,17z M18,11H6V6h12V11z"/>
</svg>
