<?xml version="1.0" encoding="utf-8"?>
<!-- Generator: Adobe Illustrator 15.0.0, SVG Export Plug-In . SVG Version: 6.00 Build 0)  -->
<!DOCTYPE svg PUBLIC "-//W3C//DTD SVG 1.1//EN" "http://www.w3.org/Graphics/SVG/1.1/DTD/svg11.dtd">
<svg version="1.1" id="Layer_1" xmlns="http://www.w3.org/2000/svg" xmlns:xlink="http://www.w3.org/1999/xlink" x="0px" y="0px"
	 width="64px" height="64px" viewBox="0 0 64 64" enable-background="new 0 0 64 64" xml:space="preserve">
<title>sliders_side_2</title>
<path id="sliders_side_2" d="M54,60H8c-2.209,0-4-1.791-4-4V10c0-2.209,1.791-4,4-4h46c2.209,0,4,1.791,4,4v46
	C58,58.209,56.209,60,54,60z M8,8c-1.104,0-2,0.896-2,2v46c0,1.104,0.896,2,2,2h46c1.104,0,2-0.896,2-2V10c0-1.104-0.896-2-2-2H8z
	 M51,18h-5v-3c0-0.552-0.447-1-1-1H35c-0.553,0-1,0.448-1,1v3H11c-0.552,0-1,0.448-1,1s0.448,1,1,1h23v3c0,0.552,0.447,1,1,1h10
	c0.553,0,1-0.448,1-1v-3h5c0.553,0,1-0.448,1-1S51.553,18,51,18z M44,22h-8v-6h8V22z M51,32H28v-3c0-0.552-0.448-1-1-1H17
	c-0.552,0-1,0.448-1,1v3h-5c-0.552,0-1,0.448-1,1c0,0.553,0.448,1,1,1h5v3c0,0.553,0.448,1,1,1h10c0.552,0,1-0.447,1-1v-3h23
	c0.553,0,1-0.447,1-1C52,32.448,51.553,32,51,32z M26,36h-8v-6h8V36z M51,46H38v-3c0-0.553-0.447-1-1-1H27c-0.552,0-1,0.447-1,1v3
	H11c-0.552,0-1,0.447-1,1s0.448,1,1,1h15v3c0,0.553,0.448,1,1,1h10c0.553,0,1-0.447,1-1v-3h13c0.553,0,1-0.447,1-1S51.553,46,51,46z
	 M36,50h-8v-6h8V50z"/>
</svg>
