<?xml version="1.0" encoding="utf-8"?>
<!-- Generator: Adobe Illustrator 15.0.0, SVG Export Plug-In . SVG Version: 6.00 Build 0)  -->
<!DOCTYPE svg PUBLIC "-//W3C//DTD SVG 1.1//EN" "http://www.w3.org/Graphics/SVG/1.1/DTD/svg11.dtd">
<svg version="1.1" id="Layer_1" xmlns="http://www.w3.org/2000/svg" xmlns:xlink="http://www.w3.org/1999/xlink" x="0px" y="0px"
	 width="64px" height="64px" viewBox="0 0 64 64" enable-background="new 0 0 64 64" xml:space="preserve">
<title>notepad</title>
<path id="notepad" fill="#A9A9A9" d="M39,48H17c-0.552,0-1-0.447-1-1s0.448-1,1-1h22c0.553,0,1,0.447,1,1S39.553,48,39,48z M45,24
	H17c-0.552,0-1-0.448-1-1s0.448-1,1-1h28c0.553,0,1,0.448,1,1S45.553,24,45,24z M45,30H17c-0.552,0-1-0.448-1-1s0.448-1,1-1h28
	c0.553,0,1,0.448,1,1S45.553,30,45,30z M45,36H17c-0.552,0-1-0.447-1-1s0.448-1,1-1h28c0.553,0,1,0.447,1,1S45.553,36,45,36z M45,42
	H17c-0.552,0-1-0.447-1-1s0.448-1,1-1h28c0.553,0,1,0.447,1,1S45.553,42,45,42z M48,8h-4V5c0-0.552-0.447-1-1-1s-1,0.448-1,1v3h-4V5
	c0-0.552-0.447-1-1-1s-1,0.448-1,1v3h-4V5c0-0.552-0.448-1-1-1s-1,0.448-1,1v3h-4V5c0-0.552-0.448-1-1-1s-1,0.448-1,1v3h-4V5
	c0-0.552-0.448-1-1-1s-1,0.448-1,1v3h-4c-2.209,0-4,1.791-4,4v44c0,2.209,1.791,4,4,4h34c2.209,0,4-1.791,4-4V12
	C52,9.791,50.209,8,48,8z M50,56c0,1.104-0.896,2-2,2H14c-1.104,0-2-0.896-2-2V12c0-1.104,0.896-2,2-2h4v3c0,0.552,0.448,1,1,1
	s1-0.448,1-1v-3h4v3c0,0.552,0.448,1,1,1s1-0.448,1-1v-3h4v3c0,0.552,0.448,1,1,1s1-0.448,1-1v-3h4v3c0,0.552,0.447,1,1,1
	s1-0.448,1-1v-3h4v3c0,0.552,0.447,1,1,1s1-0.448,1-1v-3h4c1.104,0,2,0.896,2,2V56z"/>
</svg>
