<?xml version="1.0" encoding="utf-8"?>
<!-- Generator: Adobe Illustrator 15.0.0, SVG Export Plug-In . SVG Version: 6.00 Build 0)  -->
<!DOCTYPE svg PUBLIC "-//W3C//DTD SVG 1.1//EN" "http://www.w3.org/Graphics/SVG/1.1/DTD/svg11.dtd">
<svg version="1.1" id="Layer_1" xmlns="http://www.w3.org/2000/svg" xmlns:xlink="http://www.w3.org/1999/xlink" x="0px" y="0px"
	 width="64px" height="64px" viewBox="0 0 64 64" enable-background="new 0 0 64 64" xml:space="preserve">
<title>mobile_monitor</title>
<path fill="#A9A9A9" d="M31,42c-0.552,0-1,0.447-1,1v6c0,0.553,0.448,1,1,1h16c0.553,0,1-0.447,1-1s-0.447-1-1-1h-3v-5
	c0-0.553-0.447-1-1-1s-1,0.447-1,1v5H32v-5C32,42.447,31.552,42,31,42z"/>
<path fill="#A9A9A9" d="M31,34c-0.552,0-1,0.447-1,1s0.448,1,1,1h24c0.553,0,1-0.447,1-1V11c0-0.552-0.447-1-1-1H19
	c-0.552,0-1,0.448-1,1v2c0,0.552,0.448,1,1,1s1-0.448,1-1v-1h34v22H31z"/>
<path fill="#A9A9A9" d="M56,6H18c-2.209,0-4,1.791-4,4v3c0,0.552,0.448,1,1,1s1-0.448,1-1v-3c0-1.104,0.896-2,2-2h38
	c1.104,0,2,0.896,2,2v26c0,1.104-0.896,2-2,2H31c-0.552,0-1,0.447-1,1s0.448,1,1,1h25c2.209,0,4-1.791,4-4V10
	C60,7.791,58.209,6,56,6z"/>
<path fill="#A9A9A9" d="M13,22h6c0.552,0,1-0.448,1-1s-0.448-1-1-1h-6c-0.552,0-1,0.448-1,1S12.448,22,13,22z"/>
<path fill="#A9A9A9" d="M17,52h-2c-0.552,0-1,0.447-1,1s0.448,1,1,1h2c0.552,0,1-0.447,1-1S17.552,52,17,52z"/>
<path fill="#A9A9A9" d="M16,58c8.3,0,12-1.85,12-6V22c0-4.15-3.7-6-12-6S4,17.85,4,22v30C4,56.15,7.7,58,16,58z M26,48H6V26h20V48z
	 M16,56C6,56,6,53.2,6,52v-2h20v2C26,53.2,26,56,16,56z M16,18c10,0,10,2.8,10,4v2H6v-2C6,20.8,6,18,16,18z"/>
</svg>
