<?xml version="1.0" encoding="utf-8"?>
<!-- Generator: Adobe Illustrator 15.0.0, SVG Export Plug-In . SVG Version: 6.00 Build 0)  -->
<!DOCTYPE svg PUBLIC "-//W3C//DTD SVG 1.1//EN" "http://www.w3.org/Graphics/SVG/1.1/DTD/svg11.dtd">
<svg version="1.1" id="Layer_1" xmlns="http://www.w3.org/2000/svg" xmlns:xlink="http://www.w3.org/1999/xlink" x="0px" y="0px"
	 width="64px" height="64px" viewBox="0 0 64 64" enable-background="new 0 0 64 64" xml:space="preserve">
<title>box_open</title>
<path fill="#FFFFFF" d="M61.471,25.12L53.82,21l7.65-4.12c0.488-0.257,0.676-0.862,0.419-1.351
	c-0.095-0.179-0.241-0.325-0.419-0.419l-21-11c-0.295-0.156-0.646-0.156-0.941,0L31,8.71l-8.53-4.59
	c-0.294-0.157-0.646-0.157-0.94,0l-21,11c-0.489,0.257-0.676,0.862-0.419,1.351c0.094,0.179,0.241,0.325,0.419,0.419L8.18,21
	l-7.65,4.12c-0.489,0.257-0.676,0.862-0.419,1.351c0.094,0.179,0.241,0.325,0.419,0.419l9.46,5V46
	c-0.001,0.366,0.198,0.704,0.52,0.88l20,11h0.06h0.08c0.217,0.094,0.463,0.094,0.68,0h0.08h0.06l20-11
	C51.795,46.707,51.999,46.369,52,46V31.84l9.46-5c0.317-0.164,0.522-0.483,0.54-0.84C61.999,25.631,61.795,25.293,61.471,25.12z
	 M40,6.13L58.87,16l-7.149,3.85l-18.611-10L40,6.13z M31,31L31,31L12.39,21L31,11l18.609,10L31,31z M3.13,16L22,6.13l6.9,3.71
	l-18.6,10L3.13,16z M10.29,22.13l18.6,10L22,35.87L3.13,26L10.29,22.13z M12,32.891l9.54,5C21.682,37.963,21.84,38,22,38
	c0.164-0.001,0.326-0.042,0.47-0.12l7.53-4v21.431l-18-9.9V32.891z M50,45.41l-18,9.9V33.83l7.529,4
	C39.67,37.926,39.832,37.984,40,38c0.16,0,0.318-0.037,0.46-0.109l9.54-5V45.41z M40,35.87l-6.9-3.71l18.601-10L58.859,26L40,35.87z
	"/>
</svg>
