<?xml version="1.0" encoding="utf-8"?>
<!-- Generator: Adobe Illustrator 15.0.0, SVG Export Plug-In . SVG Version: 6.00 Build 0)  -->
<!DOCTYPE svg PUBLIC "-//W3C//DTD SVG 1.1//EN" "http://www.w3.org/Graphics/SVG/1.1/DTD/svg11.dtd">
<svg version="1.1" id="Layer_1" xmlns="http://www.w3.org/2000/svg" xmlns:xlink="http://www.w3.org/1999/xlink" x="0px" y="0px"
	 width="64px" height="64px" viewBox="0 0 64 64" enable-background="new 0 0 64 64" xml:space="preserve">
<title>filing_double</title>
<path id="filing_double" fill="#FFFFFF" d="M57.93,18.63c-0.018-0.038-0.037-0.074-0.06-0.11c-0.025-0.056-0.056-0.109-0.091-0.16
	l-10-12C47.588,6.129,47.301,5.997,47,6H15c-0.297,0-0.58,0.131-0.77,0.36l-10,12c-0.035,0.051-0.065,0.104-0.09,0.16
	c-0.026,0.035-0.049,0.072-0.07,0.11C4.023,18.748,4,18.874,4,19v36c0,0.553,0.448,1,1,1h52c0.553,0,1-0.447,1-1V19
	C58,18.874,57.977,18.748,57.93,18.63z M15.47,8h31.059l8.33,10H39c-0.553,0-1,0.448-1,1c0,3.866-3.134,7-7,7s-7-3.134-7-7
	c0-0.552-0.448-1-1-1H7.14L15.47,8z M56,54H6V38h16.06c0.549,4.94,4.998,8.5,9.938,7.951c4.184-0.465,7.487-3.768,7.952-7.951H56V54
	z M24.08,38h13.84c-0.582,3.822-4.153,6.447-7.975,5.865C26.917,43.403,24.542,41.027,24.08,38z M56,36H6V20h16.06
	c0.549,4.94,4.998,8.5,9.938,7.952c4.184-0.465,7.487-3.768,7.952-7.952H56V36z"/>
</svg>
