<?xml version="1.0" encoding="utf-8"?>
<!-- Generator: Adobe Illustrator 15.0.0, SVG Export Plug-In . SVG Version: 6.00 Build 0)  -->
<!DOCTYPE svg PUBLIC "-//W3C//DTD SVG 1.1//EN" "http://www.w3.org/Graphics/SVG/1.1/DTD/svg11.dtd">
<svg version="1.1" id="Layer_1" xmlns="http://www.w3.org/2000/svg" xmlns:xlink="http://www.w3.org/1999/xlink" x="0px" y="0px"
	 width="64px" height="64px" viewBox="0 0 64 64" enable-background="new 0 0 64 64" xml:space="preserve">
<title>vertical_arrows</title>
<path d="M9.71,15.71L18,7.41V59c0,0.553,0.448,1,1,1s1-0.447,1-1V7.41l8.29,8.29c0.187,0.19,0.443,0.299,0.71,0.3
	c0.266,0.001,0.521-0.103,0.71-0.29c0.388-0.39,0.388-1.02,0-1.41l-10-10c-0.094-0.094-0.207-0.169-0.33-0.22
	c-0.374-0.154-0.805-0.067-1.09,0.22l-10,10c-0.388,0.39-0.388,1.02,0,1.41c0.389,0.392,1.022,0.395,1.414,0.006
	C9.706,15.714,9.708,15.712,9.71,15.71z"/>
<path d="M44.29,59.71c0.095,0.095,0.206,0.169,0.33,0.22c0.122,0.044,0.251,0.067,0.38,0.07c0.268-0.001,0.523-0.109,0.71-0.3l10-10
	c0.359-0.42,0.311-1.051-0.108-1.41c-0.375-0.321-0.928-0.321-1.302,0l-8.3,8.3V5c0-0.552-0.447-1-1-1s-1,0.448-1,1v51.59
	l-8.29-8.29c-0.419-0.358-1.051-0.31-1.41,0.109c-0.32,0.374-0.32,0.927,0,1.301L44.29,59.71z"/>
</svg>
