<?xml version="1.0" encoding="utf-8"?>
<!-- Generator: Adobe Illustrator 15.0.0, SVG Export Plug-In . SVG Version: 6.00 Build 0)  -->
<!DOCTYPE svg PUBLIC "-//W3C//DTD SVG 1.1//EN" "http://www.w3.org/Graphics/SVG/1.1/DTD/svg11.dtd">
<svg version="1.1" id="Layer_1" xmlns="http://www.w3.org/2000/svg" xmlns:xlink="http://www.w3.org/1999/xlink" x="0px" y="0px"
	 width="64px" height="64px" viewBox="0 0 64 64" enable-background="new 0 0 64 64" xml:space="preserve">
<title>sliders_side</title>
<path id="sliders_side" fill="#FFFFFF" d="M57,14h-7v-3c0-0.552-0.447-1-1-1H35c-0.553,0-1,0.448-1,1v3H7c-0.552,0-1,0.448-1,1
	s0.448,1,1,1h27v3c0,0.552,0.447,1,1,1h14c0.553,0,1-0.448,1-1v-3h7c0.553,0,1-0.448,1-1S57.553,14,57,14z M48,18H36v-6h12V18z
	 M57,32H30v-3c0-0.552-0.448-1-1-1H15c-0.552,0-1,0.448-1,1v3H7c-0.552,0-1,0.448-1,1c0,0.553,0.448,1,1,1h7v3c0,0.553,0.448,1,1,1
	h14c0.552,0,1-0.447,1-1v-3h27c0.553,0,1-0.447,1-1C58,32.448,57.553,32,57,32z M28,36H16v-6h12V36z M57,50H40v-3
	c0-0.553-0.447-1-1-1H25c-0.552,0-1,0.447-1,1v3H7c-0.552,0-1,0.447-1,1s0.448,1,1,1h17v3c0,0.553,0.448,1,1,1h14
	c0.553,0,1-0.447,1-1v-3h17c0.553,0,1-0.447,1-1S57.553,50,57,50z M38,54H26v-6h12V54z"/>
</svg>
