<?xml version="1.0" encoding="utf-8"?>
<!-- Generator: Adobe Illustrator 15.0.0, SVG Export Plug-In . SVG Version: 6.00 Build 0)  -->
<!DOCTYPE svg PUBLIC "-//W3C//DTD SVG 1.1//EN" "http://www.w3.org/Graphics/SVG/1.1/DTD/svg11.dtd">
<svg version="1.1" id="图层_1" xmlns="http://www.w3.org/2000/svg" xmlns:xlink="http://www.w3.org/1999/xlink" x="0px" y="0px"
	 width="24px" height="24px" viewBox="0 0 24 24" enable-background="new 0 0 24 24" xml:space="preserve">
<path d="M22.791,6.093l-7-5H15.65L15.5,1.031l-0.15,0.062h-0.141L8.5,5.886L1.791,1.093c-0.153-0.11-0.354-0.124-0.52-0.038
	C1.104,1.141,1,1.312,1,1.5v16c0,0.162,0.078,0.313,0.209,0.407l7,5h0.065C8.346,22.947,8.412,23,8.5,23l0.225-0.093H8.79
	l6.709-4.792l6.709,4.792C22.296,22.969,22.396,23,22.5,23c0.078,0,0.157-0.02,0.229-0.057C22.896,22.859,23,22.688,23,22.5v-16
	C23,6.338,22.922,6.187,22.791,6.093z M9,6.757l6-4.286v14.771l-6,4.285V6.757z M2,2.472l6,4.285v14.771l-6-4.285V2.472z M22,21.527
	l-6-4.284V2.471l6,4.286V21.527z"/>
</svg>
