<?xml version="1.0" encoding="utf-8"?>
<!-- Generator: Adobe Illustrator 15.0.0, SVG Export Plug-In . SVG Version: 6.00 Build 0)  -->
<!DOCTYPE svg PUBLIC "-//W3C//DTD SVG 1.1//EN" "http://www.w3.org/Graphics/SVG/1.1/DTD/svg11.dtd">
<svg version="1.1" id="Layer_1" xmlns="http://www.w3.org/2000/svg" xmlns:xlink="http://www.w3.org/1999/xlink" x="0px" y="0px"
	 width="612px" height="792px" viewBox="0 0 612 792" enable-background="new 0 0 612 792" xml:space="preserve">
<g>
	<path d="M266.889,648.259V543.167c-0.191-17.882-14.726-32.321-32.608-32.608h-56.706c-4.208-0.573-8.033-2.773-10.71-6.024
		c-14.248-14.248-29.644-51.351-29.166-99.259c-0.191-26.392,4.876-52.594,15.204-76.882c8.893-19.603,19.125-28.4,25.245-28.4
		h56.706c17.978,0,32.513-14.535,32.608-32.417v-0.096V162.388c-0.191-17.882-14.726-32.321-32.608-32.608l-60.817-0.095
		c-70.093,0-125.747,121.061-125.747,275.687c-0.478,107.865,28.018,206.454,72.388,250.824
		c13.579,15.205,32.704,24.193,53.072,24.958l60.818-0.095c8.606-0.096,16.83-3.634,22.854-9.754S266.889,656.865,266.889,648.259z
		 M234.09,664.515l-23.715-0.382v0.191l-37.103-0.096c-15.683-0.861-30.409-8.033-40.832-19.699
		c-41.214-41.214-67.798-135.118-67.798-239.158c0-140.09,50.012-259.144,109.299-259.239h36.433l23.619-0.287
		c8.894,0,16.065,7.172,16.065,16.065v105.092c0,8.893-7.077,15.969-15.97,16.065c0,0,0,0-0.096,0h-24.193l-0.096,0.382
		l-32.034,0.191c-14.535-0.096-29.166,13.866-40.258,37.963c-11.379,26.297-17.212,54.793-17.021,83.384
		c0,45.613,14.057,89.983,34.711,110.543c5.738,6.503,13.866,10.423,22.568,10.901l32.321,0.096v0.191h24.193
		c8.797,0.19,15.778,7.268,16.065,16.064v105.092C250.346,656.961,243.079,664.419,234.09,664.515z"/>
</g>
<title>telephone_send</title>
<path id="telephone_send" d="M572.985,409.196c1.434-3.538,0.669-7.65-2.104-10.423l-76.5-76.5
	c-4.016-3.442-10.04-2.964-13.482,1.052c-3.061,3.538-3.061,8.893,0,12.431L541.142,396H258.188c-5.259,0-9.563,4.303-9.563,9.563
	s4.303,9.563,9.563,9.563h282.954l-60.147,60.148c-4.017,3.442-4.495,9.467-1.053,13.482c3.443,4.017,9.468,4.495,13.483,1.053
	c0.383-0.287,0.766-0.67,1.052-1.053l76.5-76.5C571.838,411.396,572.507,410.344,572.985,409.196z"/>
</svg>
