<?xml version="1.0" encoding="utf-8"?>
<!-- Generator: Adobe Illustrator 15.0.0, SVG Export Plug-In . SVG Version: 6.00 Build 0)  -->
<!DOCTYPE svg PUBLIC "-//W3C//DTD SVG 1.1//EN" "http://www.w3.org/Graphics/SVG/1.1/DTD/svg11.dtd">
<svg version="1.1" id="Layer_1" xmlns="http://www.w3.org/2000/svg" xmlns:xlink="http://www.w3.org/1999/xlink" x="0px" y="0px"
	 width="64px" height="64px" viewBox="0 0 64 64" enable-background="new 0 0 64 64" xml:space="preserve">
<title>safety_cone</title>
<path fill="#FFFFFF" d="M11,60h44c0.553,0,1-0.447,1-1v-4c0-1.656-1.344-3-3-3h-5.189L38,4.8c-0.097-0.473-0.518-0.81-1-0.8h-8
	c-0.483-0.01-0.903,0.327-1,0.8L18.19,52H13c-1.657,0-3,1.344-3,3v4C10,59.553,10.448,60,11,60z M24.81,30h16.37l2.08,10H22.73
	L24.81,30z M27.31,18h11.37l2.08,10H25.23L27.31,18z M29.81,6h6.37l2.08,10H27.73L29.81,6z M22.31,42h21.379l2.08,10H20.23L22.31,42
	z M12,55c0-0.553,0.448-1,1-1h40c0.553,0,1,0.447,1,1v3H12V55z"/>
</svg>
