<?xml version="1.0" encoding="utf-8"?>
<!-- Generator: Adobe Illustrator 15.0.0, SVG Export Plug-In . SVG Version: 6.00 Build 0)  -->
<!DOCTYPE svg PUBLIC "-//W3C//DTD SVG 1.1//EN" "http://www.w3.org/Graphics/SVG/1.1/DTD/svg11.dtd">
<svg version="1.1" id="Layer_1" xmlns="http://www.w3.org/2000/svg" xmlns:xlink="http://www.w3.org/1999/xlink" x="0px" y="0px"
	 width="64px" height="64px" viewBox="0 0 64 64" enable-background="new 0 0 64 64" xml:space="preserve">
<title>folder_alarm</title>
<path id="folder_alarm" d="M53,16h-3v-2c0-2.209-1.791-4-4-4H26c-1.292,0.163-2.555-0.469-3.2-1.6C21.779,6.76,19.924,5.833,18,6H8
	c-2.209,0-4,1.791-4,4v36c0,2.209,1.791,4,4,4h29c0.553,0,1-0.447,1-1s-0.447-1-1-1H10V18h42v13c0,0.552,0.447,1,1,1s1-0.448,1-1V17
	C54,16.448,53.553,16,53,16z M9,16c-0.552,0-1,0.448-1,1v31c-1.104,0-2-0.896-2-2V10c0-1.104,0.896-2,2-2h10
	c1.292-0.163,2.555,0.469,3.2,1.6c1.021,1.64,2.875,2.567,4.8,2.4h20c1.104,0,2,0.896,2,2v2H9z M59,54L59,54
	c-0.784-0.011-1.411-0.655-1.4-1.439c0-0.007,0-0.014,0-0.021L57.2,45.93c-0.38-5.3-3-9-6.8-9.779V35c0-0.553-0.448-1-1-1H48.6
	c-0.552,0-1,0.447-1,1v1.15c-3.75,0.75-6.42,4.49-6.8,9.8L40.4,52.6c0,0.773-0.627,1.4-1.4,1.4l0,0c-0.553,0-1,0.447-1,1
	s0.447,1,1,1h20c0.553,0,1-0.447,1-1S59.553,54,59,54z M42.109,54c0.192-0.421,0.291-0.878,0.291-1.34l0.399-6.59
	C43.15,41.24,45.641,38,49,38s5.85,3.24,6.2,8.061L55.6,52.6C55.598,53.083,55.7,53.561,55.9,54H42.109z M49,60
	c-0.996,0.001-1.951-0.391-2.66-1.09c-0.395-0.387-0.401-1.021-0.015-1.415c0.386-0.396,1.021-0.401,1.415-0.015
	c0.708,0.665,1.812,0.665,2.52,0c0.424-0.354,1.055-0.297,1.408,0.127c0.316,0.379,0.309,0.933-0.018,1.303
	C50.943,59.607,49.992,59.998,49,60z"/>
</svg>
