<?xml version="1.0" encoding="utf-8"?>
<!-- Generator: Adobe Illustrator 15.0.0, SVG Export Plug-In . SVG Version: 6.00 Build 0)  -->
<!DOCTYPE svg PUBLIC "-//W3C//DTD SVG 1.1//EN" "http://www.w3.org/Graphics/SVG/1.1/DTD/svg11.dtd">
<svg version="1.1" id="Layer_1" xmlns="http://www.w3.org/2000/svg" xmlns:xlink="http://www.w3.org/1999/xlink" x="0px" y="0px"
	 width="64px" height="64px" viewBox="0 0 64 64" enable-background="new 0 0 64 64" xml:space="preserve">
<title>past</title>
<path d="M35,8C21.193,8,10,19.193,10,33v1.59L3.71,28.3c-0.359-0.419-0.99-0.468-1.41-0.109c-0.419,0.359-0.468,0.991-0.109,1.41
	c0.034,0.039,0.07,0.076,0.109,0.109l8,8c0.094,0.095,0.207,0.169,0.33,0.22c0.119,0.045,0.244,0.068,0.37,0.07
	c0.267-0.001,0.523-0.109,0.71-0.3l8-8c0.359-0.42,0.311-1.051-0.109-1.41c-0.375-0.321-0.927-0.321-1.301,0l-6.3,6.3V33
	c0-12.703,10.297-23,23-23c12.703,0,23,10.297,23,23c0,12.703-10.297,23-23,23c-0.553,0-1,0.447-1,1s0.447,1,1,1
	c13.807,0,25-11.193,25-25C60,19.193,48.807,8,35,8z"/>
<path d="M35,16c-0.553,0-1,0.448-1,1v16c0,0.553,0.447,1,1,1h12c0.553,0,1-0.447,1-1c0-0.552-0.447-1-1-1H36V17
	C36,16.448,35.553,16,35,16z"/>
</svg>
