<?xml version="1.0" encoding="utf-8"?>
<!-- Generator: Adobe Illustrator 15.0.0, SVG Export Plug-In . SVG Version: 6.00 Build 0)  -->
<!DOCTYPE svg PUBLIC "-//W3C//DTD SVG 1.1//EN" "http://www.w3.org/Graphics/SVG/1.1/DTD/svg11.dtd">
<svg version="1.1" id="Layer_1" xmlns="http://www.w3.org/2000/svg" xmlns:xlink="http://www.w3.org/1999/xlink" x="0px" y="0px"
	 width="612px" height="792px" viewBox="0 0 612 792" enable-background="new 0 0 612 792" xml:space="preserve">
<path id="keypad" d="M124.313,300.375c-37.294,0-66.938-29.644-66.938-66.938S87.019,166.5,124.313,166.5
	s66.938,29.644,66.938,66.938S161.606,300.375,124.313,300.375z M296.438,300.375c-37.294,0-66.938-29.644-66.938-66.938
	s29.644-66.938,66.938-66.938s66.938,29.644,66.938,66.938S333.731,300.375,296.438,300.375z M468.563,300.375
	c-37.294,0-66.938-29.644-66.938-66.938s29.644-66.938,66.938-66.938s66.938,29.644,66.938,66.938S505.856,300.375,468.563,300.375z
	 M124.313,472.5c-37.294,0-66.938-29.644-66.938-66.938s29.644-66.938,66.938-66.938s66.938,29.644,66.938,66.938
	S161.606,472.5,124.313,472.5z M296.438,472.5c-37.294,0-66.938-29.644-66.938-66.938s29.644-66.938,66.938-66.938
	s66.938,29.644,66.938,66.938S333.731,472.5,296.438,472.5z M468.563,472.5c-37.294,0-66.938-29.644-66.938-66.938
	s29.644-66.938,66.938-66.938s66.938,29.644,66.938,66.938S505.856,472.5,468.563,472.5z M124.313,644.625
	c-37.294,0-66.938-29.644-66.938-66.938s29.644-66.938,66.938-66.938s66.938,29.644,66.938,66.938S161.606,644.625,124.313,644.625z
	 M296.438,644.625c-37.294,0-66.938-29.644-66.938-66.938s29.644-66.938,66.938-66.938s66.938,29.644,66.938,66.938
	S333.731,644.625,296.438,644.625z M468.563,644.625c-37.294,0-66.938-29.644-66.938-66.938s29.644-66.938,66.938-66.938
	s66.938,29.644,66.938,66.938S505.856,644.625,468.563,644.625z"/>
</svg>
