<?xml version="1.0" encoding="utf-8"?>
<!-- Generator: Adobe Illustrator 15.0.0, SVG Export Plug-In . SVG Version: 6.00 Build 0)  -->
<!DOCTYPE svg PUBLIC "-//W3C//DTD SVG 1.1//EN" "http://www.w3.org/Graphics/SVG/1.1/DTD/svg11.dtd">
<svg version="1.1" id="Layer_1" xmlns="http://www.w3.org/2000/svg" xmlns:xlink="http://www.w3.org/1999/xlink" x="0px" y="0px"
	 width="64px" height="64px" viewBox="0 0 64 64" enable-background="new 0 0 64 64" xml:space="preserve">
<title>resume</title>
<path id="resume" fill="#A9A9A9" d="M51.71,17.29l-11-11C40.521,6.103,40.266,5.999,40,6H14c-2.209,0-4,1.791-4,4v46
	c0,2.209,1.791,4,4,4h34c2.209,0,4-1.791,4-4V18C52.002,17.734,51.896,17.479,51.71,17.29z M49.59,18H42c-1.104,0-2-0.896-2-2V8.41
	L49.59,18z M48,58H14c-1.104,0-2-0.896-2-2V10c0-1.104,0.896-2,2-2h24v8c0,2.209,1.791,4,4,4h8v36C50,57.104,49.104,58,48,58z
	 M45,38H17c-0.552,0-1-0.447-1-1s0.448-1,1-1h28c0.553,0,1,0.447,1,1S45.553,38,45,38z M45,44H17c-0.552,0-1-0.447-1-1s0.448-1,1-1
	h28c0.553,0,1,0.447,1,1S45.553,44,45,44z M39,50H17c-0.552,0-1-0.447-1-1s0.448-1,1-1h22c0.553,0,1,0.447,1,1S39.553,50,39,50z
	 M26.22,24.79c2.112-1.778,2.383-4.933,0.605-7.045c-1.778-2.113-4.933-2.384-7.045-0.605c-2.112,1.778-2.383,4.933-0.605,7.045
	c0.184,0.218,0.387,0.421,0.605,0.605c-2.32,1.202-3.778,3.597-3.78,6.21c0,0.552,0.448,1,1,1s1-0.448,1-1c0-2.761,2.239-5,5-5
	s5,2.239,5,5c0,0.552,0.448,1,1,1s1-0.448,1-1C29.998,28.387,28.541,25.992,26.22,24.79z M23,18c1.657,0,3,1.343,3,3s-1.343,3-3,3
	s-3-1.343-3-3S21.343,18,23,18z"/>
</svg>
