<?xml version="1.0" encoding="utf-8"?>
<!-- Generator: Adobe Illustrator 15.0.0, SVG Export Plug-In . SVG Version: 6.00 Build 0)  -->
<!DOCTYPE svg PUBLIC "-//W3C//DTD SVG 1.1//EN" "http://www.w3.org/Graphics/SVG/1.1/DTD/svg11.dtd">
<svg version="1.1" id="Layer_1" xmlns="http://www.w3.org/2000/svg" xmlns:xlink="http://www.w3.org/1999/xlink" x="0px" y="0px"
	 width="64px" height="64px" viewBox="0 0 64 64" enable-background="new 0 0 64 64" xml:space="preserve">
<title>certificate</title>
<path id="certificate" d="M44,43c0.005-3.866-3.125-7.004-6.991-7.009S30.005,39.116,30,42.982c-0.002,1.834,0.716,3.597,2,4.908V61
	c-0.003,0.553,0.442,1.002,0.994,1.006c0.269,0.002,0.527-0.105,0.716-0.296l3.29-3.3l3.29,3.29c0.187,0.19,0.442,0.299,0.71,0.3
	c0.131-0.002,0.26-0.029,0.38-0.08c0.374-0.153,0.618-0.516,0.62-0.92V47.891C43.279,46.584,43.998,44.828,44,43z M37,38
	c2.762,0,5,2.238,5,5s-2.238,5-5,5s-5-2.238-5-5S34.238,38,37,38z M37.71,56.29c-0.39-0.388-1.021-0.388-1.41,0l-2.3,2.3v-9.279
	c1.896,0.913,4.104,0.913,6,0v9.27L37.71,56.29z M29,52H16c-2.209,0-4-1.791-4-4V6c0-2.209,1.791-4,4-4c0.552,0,1,0.448,1,1
	s-0.448,1-1,1c-1.104,0-2,0.896-2,2v42c0,1.104,0.896,2,2,2h13c0.552,0,1,0.447,1,1S29.552,52,29,52z M49.71,13.29l-11-11
	C38.521,2.103,38.266,1.999,38,2H16c-0.552,0-1,0.448-1,1s0.448,1,1,1h20v8c0,2.209,1.791,4,4,4h8v32c0,1.104-0.896,2-2,2h-1
	c-0.553,0-1,0.447-1,1s0.447,1,1,1h1c2.209,0,4-1.791,4-4V14C50.002,13.734,49.896,13.479,49.71,13.29z M38,12V4.41L47.59,14H40
	C38.896,14,38,13.104,38,12z M29,20H19c-0.552,0-1-0.448-1-1s0.448-1,1-1h10c0.552,0,1,0.448,1,1S29.552,20,29,20z M43,26H19
	c-0.552,0-1-0.448-1-1s0.448-1,1-1h24c0.553,0,1,0.448,1,1S43.553,26,43,26z M43,32H19c-0.552,0-1-0.448-1-1s0.448-1,1-1h24
	c0.553,0,1,0.448,1,1S43.553,32,43,32z"/>
</svg>
