<?xml version="1.0" encoding="utf-8"?>
<!-- Generator: Adobe Illustrator 15.0.0, SVG Export Plug-In . SVG Version: 6.00 Build 0)  -->
<!DOCTYPE svg PUBLIC "-//W3C//DTD SVG 1.1//EN" "http://www.w3.org/Graphics/SVG/1.1/DTD/svg11.dtd">
<svg version="1.1" id="图层_1" xmlns="http://www.w3.org/2000/svg" xmlns:xlink="http://www.w3.org/1999/xlink" x="0px" y="0px"
	 width="24px" height="24px" viewBox="0 0 24 24" enable-background="new 0 0 24 24" xml:space="preserve">
<path fill="#A9A9A9" d="M23.98,11.793l-0.01-0.033l-0.052-0.158l-0.028-0.055l-0.067-0.119l-0.052-0.061l-0.078-0.09l-0.016-0.017
	l-12-11c-0.407-0.373-1.04-0.345-1.413,0.063c-0.373,0.407-0.346,1.04,0.062,1.413l10.104,9.263H1.003c-0.553,0-1,0.448-1,1
	c0,0.553,0.447,1,1,1h19.429l-10.104,9.263c-0.407,0.374-0.435,1.007-0.062,1.413c0.197,0.217,0.467,0.324,0.737,0.324
	c0.242,0,0.483-0.087,0.676-0.264l12-11l0.014-0.017l0.08-0.09l0.051-0.062l0.066-0.118l0.029-0.054l0.053-0.16l0.01-0.032
	l0.021-0.205L23.98,11.793L23.98,11.793z"/>
</svg>
