<?xml version="1.0" encoding="utf-8"?>
<!-- Generator: Adobe Illustrator 15.0.0, SVG Export Plug-In . SVG Version: 6.00 Build 0)  -->
<!DOCTYPE svg PUBLIC "-//W3C//DTD SVG 1.1//EN" "http://www.w3.org/Graphics/SVG/1.1/DTD/svg11.dtd">
<svg version="1.1" id="Layer_1" xmlns="http://www.w3.org/2000/svg" xmlns:xlink="http://www.w3.org/1999/xlink" x="0px" y="0px"
	 width="64px" height="64px" viewBox="0 0 64 64" enable-background="new 0 0 64 64" xml:space="preserve">
<title>mac</title>
<path fill="#A9A9A9" d="M26.24,48c-0.536-0.132-1.077,0.194-1.21,0.73l-1,4c0,0,0,0.08,0,0.119C24.03,52.891,24,53,24,53
	s0,0.08,0,0.13l0,0c0.07,1.606,1.393,2.872,3,2.87h10c1.593,0.002,2.91-1.24,3-2.83l0,0V53c0,0,0-0.08,0-0.12
	c0.005-0.04,0.005-0.08,0-0.12l-1-4c-0.111-0.541-0.641-0.889-1.182-0.777c-0.541,0.112-0.889,0.642-0.777,1.183
	c0.006,0.024,0.012,0.05,0.02,0.075l1,3.83C38.022,53.619,37.549,54.034,37,54H27c-0.526,0.002-0.963-0.405-1-0.93l1-3.83
	c0.145-0.533-0.171-1.082-0.704-1.227C26.277,48.008,26.259,48.004,26.24,48z"/>
<path fill="#A9A9A9" d="M8,46h48c2.209,0,4-1.791,4-4V12c0-2.209-1.791-4-4-4H8c-2.209,0-4,1.791-4,4v30C4,44.209,5.791,46,8,46z
	 M56,44H8c-1.104,0-2-0.896-2-2v-6h52v6C58,43.104,57.104,44,56,44z M8,10h48c1.104,0,2,0.896,2,2v22H6V12C6,10.896,6.896,10,8,10z"
	/>
<circle fill="#A9A9A9" cx="32" cy="40" r="2"/>
</svg>
