<?xml version="1.0" encoding="utf-8"?>
<!-- Generator: Adobe Illustrator 15.0.0, SVG Export Plug-In . SVG Version: 6.00 Build 0)  -->
<!DOCTYPE svg PUBLIC "-//W3C//DTD SVG 1.1//EN" "http://www.w3.org/Graphics/SVG/1.1/DTD/svg11.dtd">
<svg version="1.1" id="Layer_1" xmlns="http://www.w3.org/2000/svg" xmlns:xlink="http://www.w3.org/1999/xlink" x="0px" y="0px"
	 width="64px" height="64px" viewBox="0 0 64 64" enable-background="new 0 0 64 64" xml:space="preserve">
<title>tv</title>
<path fill="#A9A9A9" d="M56,10H8c-2.209,0-4,1.791-4,4v30c0,2.209,1.791,4,4,4h24v2.13L18.86,52
	c-0.552,0.077-0.937,0.588-0.86,1.141c0.077,0.552,0.588,0.937,1.14,0.859L33,52l13.859,2H47c0.553,0.039,1.031-0.378,1.07-0.93
	c0.039-0.553-0.378-1.031-0.93-1.07L34,50.13V48h22c2.209,0,4-1.791,4-4V14C60,11.791,58.209,10,56,10z M58,44c0,1.104-0.896,2-2,2
	H8c-1.104,0-2-0.896-2-2V14c0-1.104,0.896-2,2-2h48c1.104,0,2,0.896,2,2V44z"/>
</svg>
