<?xml version="1.0" encoding="utf-8"?>
<!-- Generator: Adobe Illustrator 15.0.0, SVG Export Plug-In . SVG Version: 6.00 Build 0)  -->
<!DOCTYPE svg PUBLIC "-//W3C//DTD SVG 1.1//EN" "http://www.w3.org/Graphics/SVG/1.1/DTD/svg11.dtd">
<svg version="1.1" id="Layer_1" xmlns="http://www.w3.org/2000/svg" xmlns:xlink="http://www.w3.org/1999/xlink" x="0px" y="0px"
	 width="64px" height="64px" viewBox="0 0 64 64" enable-background="new 0 0 64 64" xml:space="preserve">
<title>games_ios</title>
<path fill="#FFFFFF" d="M53.6,30.39c4.621-7.532,2.262-17.384-5.271-22.005c-4.336-2.659-9.677-3.099-14.39-1.185
	C22.969,3.439,11.026,9.284,7.265,20.255C4.321,28.842,7.228,38.348,14.47,43.82c-1.74,5.82,1.567,11.949,7.388,13.688
	c4.624,1.384,9.608-0.409,12.292-4.42c6.723,4.841,16.097,3.313,20.938-3.409C59.359,43.747,58.73,35.6,53.6,30.39z M34,47
	c0,0.977-0.162,1.945-0.48,2.87c-0.688-0.739-1.292-1.556-1.798-2.431c0.773-0.176,1.535-0.398,2.28-0.67
	C34.004,46.848,34.004,46.924,34,47z M30.86,45.6c-0.567-1.467-0.858-3.025-0.86-4.6c0.001-0.475,0.028-0.948,0.08-1.42
	c1.793,1.232,3.079,3.072,3.62,5.18C32.777,45.113,31.827,45.395,30.86,45.6z M28.86,45.91C28.23,46,27.62,46,27,46
	c-3.573,0.001-7.073-1.016-10.09-2.93c2.04-4.192,6.944-6.133,11.3-4.471c-0.136,0.793-0.207,1.596-0.21,2.399
	c0.005,1.672,0.29,3.331,0.84,4.91L28.86,45.91L28.86,45.91z M30.52,37.49c0.202-0.719,0.466-1.418,0.79-2.09
	c2.583,1.692,5.602,2.597,8.69,2.6c0.885-0.004,1.77-0.084,2.641-0.24c-1.813,2.615-4.244,4.738-7.08,6.18
	c-0.793-2.721-2.604-5.03-5.061-6.448L30.52,37.49L30.52,37.49z M40,36c-2.747,0.002-5.434-0.809-7.72-2.33
	C34.699,30.127,38.71,28.005,43,28c0.986,0.004,1.971,0.121,2.93,0.35c-0.177,2.457-0.832,4.855-1.93,7.06
	C42.703,35.8,41.355,35.999,40,36z M26,22c0.003-5.404,3.117-10.324,8-12.64c7.004,2.77,11.711,9.414,12,16.94
	c-0.986-0.204-1.992-0.305-3-0.3c-4.906,0.006-9.5,2.411-12.3,6.44C27.717,29.789,26.007,25.991,26,22z M47.9,29
	c1.074,0.449,2.084,1.041,3,1.76c-1.172,1.467-2.623,2.688-4.271,3.59C47.287,32.631,47.715,30.832,47.9,29z M40,8
	c7.732,0,14,6.268,14,14c0.002,2.488-0.668,4.931-1.939,7.07c-1.229-0.941-2.601-1.683-4.061-2.2
	C47.945,19.1,43.607,11.996,36.721,8.4C37.794,8.14,38.895,8.005,40,8z M8,27C8,16.507,16.506,8,27,8
	c1.479,0.007,2.952,0.186,4.39,0.53c-7.439,4.769-9.604,14.666-4.835,22.104c0.852,1.328,1.894,2.522,3.095,3.546
	c-0.405,0.785-0.739,1.604-1,2.449c-5.155-1.811-10.857,0.438-13.39,5.28C10.684,38.314,8.009,32.818,8,27z M25,56
	c-4.971,0-9-4.029-9-9c0-0.674,0.077-1.344,0.23-2c4.014,2.459,8.756,3.452,13.42,2.811c0.754,1.487,1.751,2.84,2.95,4
	C30.952,54.416,28.084,55.998,25,56z M43,54c-2.852-0.002-5.623-0.947-7.88-2.689C35.701,49.947,36,48.48,36,47c0-0.35,0-0.689,0-1
	c4.041-1.918,7.367-5.068,9.5-9c2.746-0.996,5.167-2.727,7-5c4.971,5.182,4.801,13.41-0.38,18.381C49.67,52.732,46.396,54.031,43,54
	z"/>
</svg>
