<?xml version="1.0" encoding="utf-8"?>
<!-- Generator: Adobe Illustrator 15.0.0, SVG Export Plug-In . SVG Version: 6.00 Build 0)  -->
<!DOCTYPE svg PUBLIC "-//W3C//DTD SVG 1.1//EN" "http://www.w3.org/Graphics/SVG/1.1/DTD/svg11.dtd">
<svg version="1.1" id="Layer_1" xmlns="http://www.w3.org/2000/svg" xmlns:xlink="http://www.w3.org/1999/xlink" x="0px" y="0px"
	 width="64px" height="64px" viewBox="0 0 64 64" enable-background="new 0 0 64 64" xml:space="preserve">
<title>ui_ui</title>
<path id="ui_ui" fill="#A9A9A9" d="M44,6H8c-2.209,0-4,1.791-4,4v28c0,2.209,1.791,4,4,4h5c0.552,0,1-0.447,1-1s-0.448-1-1-1H8
	c-1.104,0-2-0.896-2-2V18h40v1c0,0.552,0.447,1,1,1s1-0.448,1-1v-9C48,7.791,46.209,6,44,6z M6,16v-6c0-1.104,0.896-2,2-2h36
	c1.104,0,2,0.896,2,2v6H6z M40,10c1.104,0,2,0.896,2,2s-0.896,2-2,2s-2-0.896-2-2S38.896,10,40,10z M34,10c1.104,0,2,0.896,2,2
	s-0.896,2-2,2s-2-0.896-2-2S32.896,10,34,10z M28,10c1.104,0,2,0.896,2,2s-0.896,2-2,2s-2-0.896-2-2S26.896,10,28,10z M56,22H20
	c-2.209,0-4,1.791-4,4v28c0,2.209,1.791,4,4,4h36c2.209,0,4-1.791,4-4V26C60,23.791,58.209,22,56,22z M20,24h36c1.104,0,2,0.896,2,2
	v6H18v-6C18,24.896,18.896,24,20,24z M56,56H20c-1.104,0-2-0.896-2-2V34h40v20C58,55.104,57.104,56,56,56z M52,26
	c1.104,0,2,0.896,2,2s-0.896,2-2,2s-2-0.896-2-2S50.896,26,52,26z M46,26c1.104,0,2,0.896,2,2s-0.896,2-2,2s-2-0.896-2-2
	S44.896,26,46,26z M40,26c1.104,0,2,0.896,2,2s-0.896,2-2,2s-2-0.896-2-2S38.896,26,40,26z"/>
</svg>
