<?xml version="1.0" encoding="utf-8"?>
<!-- Generator: Adobe Illustrator 15.0.0, SVG Export Plug-In . SVG Version: 6.00 Build 0)  -->
<!DOCTYPE svg PUBLIC "-//W3C//DTD SVG 1.1//EN" "http://www.w3.org/Graphics/SVG/1.1/DTD/svg11.dtd">
<svg version="1.1" id="Layer_1" xmlns="http://www.w3.org/2000/svg" xmlns:xlink="http://www.w3.org/1999/xlink" x="0px" y="0px"
	 width="64px" height="64px" viewBox="0 0 64 64" enable-background="new 0 0 64 64" xml:space="preserve">
<title>horiz_align_centre-01 22312</title>
<polygon fill="#FFFFFF" points="29.95,47.45 29.95,17.36 20.54,26.05 10.22,26.05 10.22,38.74 20.54,38.74 "/>
<path fill="#FFFFFF" d="M35.51,42.28c4.336-5.878,4.336-13.895,0-19.771l-2,1.521c3.674,4.968,3.674,11.752,0,16.72L35.51,42.28z"/>
<path fill="#FFFFFF" d="M42.109,46.84c6.347-8.584,6.347-20.305,0-28.89l-2,1.52c5.687,7.679,5.687,18.171,0,25.851L42.109,46.84z"
	/>
<path fill="#FFFFFF" d="M46.37,14.89c7.646,10.414,7.646,24.586,0,35l2,1.528c8.302-11.332,8.302-26.738,0-38.07L46.37,14.89z"/>
</svg>
