<?xml version="1.0" encoding="utf-8"?>
<!-- Generator: Adobe Illustrator 15.0.0, SVG Export Plug-In . SVG Version: 6.00 Build 0)  -->
<!DOCTYPE svg PUBLIC "-//W3C//DTD SVG 1.1//EN" "http://www.w3.org/Graphics/SVG/1.1/DTD/svg11.dtd">
<svg version="1.1" id="Layer_1" xmlns="http://www.w3.org/2000/svg" xmlns:xlink="http://www.w3.org/1999/xlink" x="0px" y="0px"
	 width="64px" height="64px" viewBox="0 0 64 64" enable-background="new 0 0 64 64" xml:space="preserve">
<title>calendar_search</title>
<path d="M36,51c0-0.553-0.447-1-1-1H8c-1.104,0-2-0.896-2-2V22h40v7c0,0.552,0.447,1,1,1s1-0.448,1-1V12c0-2.209-1.791-4-4-4h-6V5
	c0-0.552-0.447-1-1-1s-1,0.448-1,1v3H16V5c0-0.552-0.448-1-1-1s-1,0.448-1,1v3H8c-2.209,0-4,1.791-4,4v36c0,2.209,1.791,4,4,4h27
	C35.553,52,36,51.553,36,51z M8,10h6v3c0,0.552,0.448,1,1,1s1-0.448,1-1v-3h20v3c0,0.552,0.447,1,1,1s1-0.448,1-1v-3h6
	c1.104,0,2,0.896,2,2v8H6v-8C6,10.896,6.896,10,8,10z"/>
<path d="M27,44c0.552,0,1-0.447,1-1V29c-0.002-0.404-0.247-0.767-0.62-0.92c-0.374-0.154-0.805-0.067-1.09,0.22l-2,2
	c-0.419,0.359-0.468,0.991-0.109,1.41c0.359,0.419,0.99,0.468,1.41,0.109c0.039-0.034,0.076-0.07,0.109-0.109l0.3-0.3V43
	C26,43.553,26.448,44,27,44L27,44z"/>
<path d="M50,34c-5.523,0.006-9.996,4.486-9.99,10.01c0.002,2.299,0.797,4.528,2.25,6.311l-8,8c-0.375,0.404-0.352,1.037,0.053,1.413
	C34.5,59.906,34.746,60.002,35,60c0.266,0.002,0.521-0.103,0.71-0.29l8-8c4.259,3.517,10.562,2.916,14.078-1.343
	c3.517-4.258,2.916-10.561-1.343-14.078C54.633,34.792,52.352,33.981,50,34z M50,52c-4.418,0-8-3.582-8-8s3.582-8,8-8s8,3.582,8,8
	S54.418,52,50,52z"/>
</svg>
