<?xml version="1.0" encoding="utf-8"?>
<!-- Generator: Adobe Illustrator 15.0.0, SVG Export Plug-In . SVG Version: 6.00 Build 0)  -->
<!DOCTYPE svg PUBLIC "-//W3C//DTD SVG 1.1//EN" "http://www.w3.org/Graphics/SVG/1.1/DTD/svg11.dtd">
<svg version="1.1" id="Layer_1" xmlns="http://www.w3.org/2000/svg" xmlns:xlink="http://www.w3.org/1999/xlink" x="0px" y="0px"
	 width="64px" height="64px" viewBox="0 0 64 64" enable-background="new 0 0 64 64" xml:space="preserve">
<title>map_pin_angle_2</title>
<path id="map_pin_angle_2" d="M59.71,24.18L39.811,4.28c-0.391-0.388-1.021-0.388-1.41,0C36.279,6.4,35.85,10.23,37.24,14
	L25.4,25.82c-2.518-1.435-5.344-2.241-8.24-2.35c-2.129-0.095-4.206,0.673-5.76,2.13c-0.392,0.389-0.395,1.022-0.006,1.414
	c0.002,0.002,0.004,0.004,0.006,0.006L23.48,39.1L4.29,58.29c-0.419,0.359-0.468,0.99-0.109,1.41c0.359,0.419,0.99,0.468,1.41,0.108
	C5.63,59.775,5.667,59.739,5.7,59.7L24.9,40.52L37,52.6c0.391,0.389,1.02,0.389,1.41,0c2.939-2.939,2.83-8.25-0.221-14L50,26.76
	c1.36,0.522,2.803,0.8,4.26,0.82l0,0c2.004,0.079,3.957-0.641,5.43-2C60.076,25.197,60.086,24.574,59.71,24.18z M36.95,37L27,27
	l11.4-11.4l10,10L36.95,37z M37.6,50.4l-12-12l0,0l-12-12c2.46-1.6,6.92-1,11.37,1.47L36.141,39
	C38.689,43.57,39.221,47.88,37.6,50.4z M50.33,24.75L39.24,13.66c-1.09-2.65-1.08-5.41,0-7.16l18.3,18.3
	C55.77,25.82,52.939,25.83,50.33,24.75z"/>
</svg>
