<?xml version="1.0" encoding="utf-8"?>
<!-- Generator: Adobe Illustrator 15.0.0, SVG Export Plug-In . SVG Version: 6.00 Build 0)  -->
<!DOCTYPE svg PUBLIC "-//W3C//DTD SVG 1.1//EN" "http://www.w3.org/Graphics/SVG/1.1/DTD/svg11.dtd">
<svg version="1.1" id="Layer_1" xmlns="http://www.w3.org/2000/svg" xmlns:xlink="http://www.w3.org/1999/xlink" x="0px" y="0px"
	 width="64px" height="64px" viewBox="0 0 64 64" enable-background="new 0 0 64 64" xml:space="preserve">
<title>1</title>
<path fill="none" stroke="#000000" stroke-miterlimit="10" d="M38,17.32H10.9c-1.708,0.011-3.089,1.393-3.1,3.1l0,0v23
	c0.011,1.707,1.393,3.09,3.1,3.1H38c1.707-0.01,3.089-1.393,3.1-3.1v-23c0.058-1.656-1.24-3.044-2.896-3.1
	C38.137,17.318,38.068,17.318,38,17.32L38,17.32z M57.4,19.52c-0.305-0.2-0.697-0.2-1,0l-11.5,6.2
	c-0.359,0.157-0.594,0.509-0.602,0.9V37c-0.033,0.402,0.217,0.775,0.602,0.9l11.5,6.3c0.148,0.091,0.326,0.126,0.5,0.1
	c0.518,0.034,0.965-0.356,1-0.876c0.002-0.041,0.002-0.082,0-0.124v-23C57.844,19.983,57.664,19.703,57.4,19.52z"/>
</svg>
