<?xml version="1.0" encoding="utf-8"?>
<!-- Generator: Adobe Illustrator 15.0.0, SVG Export Plug-In . SVG Version: 6.00 Build 0)  -->
<!DOCTYPE svg PUBLIC "-//W3C//DTD SVG 1.1//EN" "http://www.w3.org/Graphics/SVG/1.1/DTD/svg11.dtd">
<svg version="1.1" id="Layer_1" xmlns="http://www.w3.org/2000/svg" xmlns:xlink="http://www.w3.org/1999/xlink" x="0px" y="0px"
	 width="64px" height="64px" viewBox="0 0 64 64" enable-background="new 0 0 64 64" xml:space="preserve">
<title>bluetooth-01 2</title>
<path id="bluetooth" d="M31,60.6c-0.712,0.006-1.294-0.567-1.3-1.279c0-0.007,0-0.014,0-0.021V35.51l-13.44,11.7
	c-0.552,0.476-1.385,0.412-1.86-0.14c-0.475-0.553-0.412-1.385,0.14-1.86L29.7,32l0,0L14.54,18.68
	c-0.552-0.475-0.615-1.308-0.14-1.86s1.308-0.615,1.86-0.14l0,0L29.7,28.49V4.7c-0.024-0.718,0.538-1.319,1.255-1.343
	c0.341-0.012,0.673,0.112,0.924,0.343L47.48,18c0.535,0.478,0.582,1.3,0.104,1.835c-0.002,0.001-0.002,0.003-0.004,0.004l-0.1,0.1
	L33.721,32L47.46,44c0.536,0.479,0.582,1.3,0.104,1.836c-0.002,0.001-0.003,0.002-0.004,0.004l-0.101,0.1L31.86,60.24
	C31.628,60.463,31.321,60.59,31,60.6z M32.3,34.21v22.101L44.65,45L32.3,34.21z M32.3,7.65v22.1L44.65,19L32.3,7.65z"/>
</svg>
