<?xml version="1.0" encoding="utf-8"?>
<!-- Generator: Adobe Illustrator 15.0.0, SVG Export Plug-In . SVG Version: 6.00 Build 0)  -->
<!DOCTYPE svg PUBLIC "-//W3C//DTD SVG 1.1//EN" "http://www.w3.org/Graphics/SVG/1.1/DTD/svg11.dtd">
<svg version="1.1" id="Layer_1" xmlns="http://www.w3.org/2000/svg" xmlns:xlink="http://www.w3.org/1999/xlink" x="0px" y="0px"
	 width="64px" height="64px" viewBox="0 0 64 64" enable-background="new 0 0 64 64" xml:space="preserve">
<title>map_route</title>
<path id="map_route" fill="#FFFFFF" d="M52.43,26.75l2.37-3.15c0.332-0.442,0.243-1.068-0.198-1.4
	c-0.441-0.332-1.068-0.243-1.4,0.199c0,0-0.001,0.001-0.001,0.001l-2.431,3.24l-2.209-1.48c-0.441-0.332-1.068-0.244-1.4,0.198
	s-0.244,1.068,0.197,1.4c0.029,0.022,0.061,0.043,0.093,0.062l2.12,1.41L47.2,30.4c-0.331,0.442-0.241,1.069,0.201,1.4
	c0.441,0.331,1.067,0.241,1.398-0.2l2.431-3.24l2.209,1.48c0.477,0.281,1.09,0.124,1.37-0.352c0.259-0.438,0.147-1.002-0.26-1.308
	L52.43,26.75z M59.58,6.19c-0.26-0.188-0.596-0.241-0.9-0.14L41,11.95l-17.68-5.9C23.215,6.025,23.108,6.008,23,6
	c-0.108,0.008-0.215,0.025-0.32,0.05l-18,6C4.272,12.188,3.999,12.57,4,13v44c-0.001,0.553,0.445,1.001,0.998,1.002
	c0.109,0.001,0.219-0.017,0.322-0.052L23,52.05l17.68,5.9c0.105,0.024,0.213,0.041,0.32,0.05c0.107-0.008,0.215-0.025,0.32-0.05
	l18-6C59.728,51.813,60.001,51.43,60,51V7C59.998,6.678,59.842,6.376,59.58,6.19z M24,25.9c0.297-0.151,0.5-0.439,0.54-0.77
	c0.045-0.413-0.17-0.811-0.54-1V8.39l16,5.33v41.89L24,50.28V25.9z M6,13.72l16-5.33v15.72c-0.226,0.027-0.449,0.067-0.67,0.12
	c-0.552,0.072-0.942,0.578-0.87,1.13s0.578,0.942,1.13,0.87c0.086,0.011,0.174,0.011,0.26,0H22v24.05L6,55.609V13.72z M58,50.28
	l-16,5.329V43c0.439,0,0.88-0.061,1.29-0.13c0.552-0.083,0.933-0.598,0.851-1.15c-0.084-0.552-0.598-0.933-1.15-0.85
	c-0.32,0-0.65,0.08-1,0.1V13.72L58,8.39V50.28z M14,36c-0.096,0.014-0.194,0.014-0.29,0c-0.537-0.131-0.865-0.673-0.733-1.209
	c0.007-0.027,0.015-0.055,0.023-0.081c0,0,0.11-0.38,0.34-1c0.191-0.519,0.766-0.786,1.285-0.595
	c0.519,0.19,0.786,0.766,0.595,1.285l0,0c-0.2,0.529-0.3,0.869-0.3,0.88C14.8,35.693,14.43,35.982,14,36z M28.46,26.75
	c-0.432-0.345-1.061-0.274-1.405,0.158c-0.27,0.338-0.292,0.811-0.055,1.172c0.41,0.462,0.791,0.95,1.14,1.46
	c0.291,0.469,0.908,0.613,1.377,0.322s0.613-0.908,0.322-1.377c-0.019-0.029-0.038-0.058-0.06-0.085
	C29.375,27.823,28.934,27.272,28.46,26.75z M32.34,32.75c-0.276-0.483-0.892-0.651-1.375-0.375
	c-0.483,0.276-0.651,0.892-0.375,1.375c0.32,0.58,0.65,1.16,1,1.74c0.18,0.311,0.511,0.501,0.87,0.5
	c0.175,0.001,0.348-0.044,0.5-0.131c0.479-0.273,0.647-0.884,0.374-1.363c-0.002-0.002-0.003-0.004-0.004-0.006
	c-0.33-0.62-0.67-1.19-0.99-1.76V32.75z M37.26,39.63c-0.457-0.384-0.879-0.81-1.26-1.271c-0.375-0.405-1.008-0.431-1.413-0.056
	c-0.388,0.358-0.431,0.956-0.097,1.366c0.457,0.544,0.963,1.046,1.51,1.5c0.431,0.348,1.063,0.281,1.41-0.15
	c0.348-0.43,0.281-1.062-0.15-1.41V39.63z M16.86,27.38c-0.445,0.544-0.855,1.115-1.23,1.71c-0.295,0.467-0.157,1.084,0.31,1.38
	c0.467,0.296,1.084,0.157,1.38-0.31l0,0c0.329-0.522,0.689-1.023,1.08-1.5c0.354-0.425,0.295-1.057-0.13-1.41
	S17.213,26.955,16.86,27.38L16.86,27.38z M47.66,41c0.226-0.002,0.443-0.079,0.619-0.22c0.58-0.462,1.1-0.993,1.551-1.58
	c0.292-0.469,0.148-1.086-0.32-1.378c-0.41-0.256-0.945-0.181-1.27,0.178c-0.362,0.453-0.779,0.859-1.24,1.21
	c-0.438,0.338-0.518,0.966-0.18,1.403C47.02,40.871,47.334,41.016,47.66,41z M50.92,35h-0.15c-0.547-0.077-0.927-0.583-0.85-1.13
	c0.045-0.288,0.072-0.579,0.08-0.87c0-0.552,0.447-1,1-1l0,0c0.553,0,1,0.448,1,1c-0.008,0.379-0.042,0.756-0.1,1.13
	c-0.065,0.497-0.488,0.869-0.99,0.87H50.92z"/>
</svg>
