<?xml version="1.0" encoding="utf-8"?>
<!-- Generator: Adobe Illustrator 15.0.0, SVG Export Plug-In . SVG Version: 6.00 Build 0)  -->
<!DOCTYPE svg PUBLIC "-//W3C//DTD SVG 1.1//EN" "http://www.w3.org/Graphics/SVG/1.1/DTD/svg11.dtd">
<svg version="1.1" id="Layer_1" xmlns="http://www.w3.org/2000/svg" xmlns:xlink="http://www.w3.org/1999/xlink" x="0px" y="0px"
	 width="64px" height="64px" viewBox="0 0 64 64" enable-background="new 0 0 64 64" xml:space="preserve">
<title>monitor</title>
<path fill="#FFFFFF" d="M25,48c-0.552,0-1,0.447-1,1v5h-3c-0.552,0-1,0.447-1,1s0.448,1,1,1h22c0.553,0,1-0.447,1-1s-0.447-1-1-1h-3
	v-5c0-0.553-0.447-1-1-1s-1,0.447-1,1v5H26v-5C26,48.447,25.552,48,25,48z"/>
<path fill="#FFFFFF" d="M55,12H9c-0.552,0-1,0.448-1,1v28c0,0.553,0.448,1,1,1h46c0.553,0,1-0.447,1-1V13C56,12.448,55.553,12,55,12
	z M54,40H10V14h44V40z"/>
<path fill="#FFFFFF" d="M56,8H8c-2.209,0-4,1.791-4,4v30c0,2.209,1.791,4,4,4h48c2.209,0,4-1.791,4-4V12C60,9.791,58.209,8,56,8z
	 M58,42c0,1.104-0.896,2-2,2H8c-1.104,0-2-0.896-2-2V12c0-1.104,0.896-2,2-2h48c1.104,0,2,0.896,2,2V42z"/>
</svg>
