<?xml version="1.0" encoding="utf-8"?>
<!-- Generator: Adobe Illustrator 15.0.0, SVG Export Plug-In . SVG Version: 6.00 Build 0)  -->
<!DOCTYPE svg PUBLIC "-//W3C//DTD SVG 1.1//EN" "http://www.w3.org/Graphics/SVG/1.1/DTD/svg11.dtd">
<svg version="1.1" id="Layer_1" xmlns="http://www.w3.org/2000/svg" xmlns:xlink="http://www.w3.org/1999/xlink" x="0px" y="0px"
	 width="64px" height="64px" viewBox="0 0 64 64" enable-background="new 0 0 64 64" xml:space="preserve">
<title>signposts</title>
<path id="signposts" d="M57.71,15.29l-5-5C52.521,10.103,52.266,9.999,52,10H36V5c0-0.552-0.447-1-1-1h-4c-0.552,0-1,0.448-1,1v5H13
	c-0.552,0-1,0.448-1,1v10c0,0.552,0.448,1,1,1h17v6H12c-0.266-0.001-0.521,0.103-0.71,0.29l-5,5c-0.388,0.39-0.388,1.021,0,1.41l5,5
	c0.187,0.19,0.443,0.299,0.71,0.3h18v19c0,0.553,0.448,1,1,1h4c0.553,0,1-0.447,1-1V40h15c0.553,0,1-0.447,1-1V29
	c0-0.552-0.447-1-1-1H36v-6h16c0.266,0.001,0.521-0.103,0.71-0.29l5-5c0.392-0.389,0.395-1.022,0.006-1.414
	C57.714,15.294,57.712,15.292,57.71,15.29z M32,6h2v4h-2V6z M34,58h-2V40h2V58z M50,38H12.41l-4-4l4-4H50V38z M34,28h-2v-6h2V28z
	 M51.59,20H14v-8h37.59l4,4L51.59,20z"/>
</svg>
