<?xml version="1.0" encoding="utf-8"?>
<!-- Generator: Adobe Illustrator 15.0.0, SVG Export Plug-In . SVG Version: 6.00 Build 0)  -->
<!DOCTYPE svg PUBLIC "-//W3C//DTD SVG 1.1//EN" "http://www.w3.org/Graphics/SVG/1.1/DTD/svg11.dtd">
<svg version="1.1" id="Layer_1" xmlns="http://www.w3.org/2000/svg" xmlns:xlink="http://www.w3.org/1999/xlink" x="0px" y="0px"
	 width="612px" height="792px" viewBox="0 0 612 792" enable-background="new 0 0 612 792" xml:space="preserve">
<g>
	<path fill="#A9A9A9" d="M543.246,556.65l-86.063-86.063c-14.822-14.439-38.537-14.439-53.359,0l-46.474,46.474
		c-3.921,2.964-8.894,4.303-13.77,3.825c-23.333,0-66.269-17.787-105.188-57.375c-21.802-21.421-39.015-47.048-50.49-75.353
		c-8.702-23.333-7.65-38.919-2.582-43.892l46.474-46.474c14.727-14.726,14.727-38.537,0.096-53.263l-0.096-0.095l-86.063-86.063
		c-14.822-14.439-38.537-14.439-53.358,0l-49.821,49.725c-57.375,57.375-3.825,202.151,122.782,328.759
		c87.975,88.645,192.015,146.02,264.69,146.02c23.524,1.339,46.569-6.98,63.878-23.046l49.725-49.82
		c6.98-7.076,10.806-16.734,10.71-26.68C554.338,573.289,550.322,563.727,543.246,556.65z M529.763,596.813l-19.795,19.125
		l0.191,0.191l-30.408,30.313c-13.579,12.145-31.461,18.36-49.63,17.309c-67.511,0-166.196-55.08-251.398-140.282
		C63.973,408.718,7.459,270.253,55.94,221.676l29.931-29.931l19.125-19.603c7.268-7.268,19.03-7.268,26.297,0l86.063,86.063
		c7.268,7.267,7.268,18.934,0.096,26.201c0,0,0,0-0.096,0.096l-19.794,19.794l0.287,0.382l-26.01,26.393
		c-11.953,11.857-12.527,35.286-1.817,64.069c12.24,30.887,30.791,58.904,54.411,82.237c37.389,37.39,85.202,62.156,118.958,62.156
		c10.04,0.573,19.89-2.869,27.349-9.563l26.488-26.393l0.191,0.191l19.794-19.795c7.363-6.98,18.934-6.98,26.297,0l86.063,86.063
		C536.935,577.305,537.03,589.354,529.763,596.813z"/>
</g>
<title>telephone_signal</title>
<path id="telephone_signal" fill="#A9A9A9" d="M411.57,396L411.57,396c-5.26,0-9.563-4.303-9.563-9.563
	c0-47.525-38.537-86.063-86.063-86.063c-5.26,0-9.563-4.303-9.563-9.563s4.303-9.563,9.563-9.563
	c58.14,0,105.188,47.047,105.188,105.188l0,0C421.133,391.697,416.829,396,411.57,396z M488.07,396c-5.26,0-9.563-4.303-9.563-9.563
	c0-89.792-72.771-162.563-162.563-162.563c-5.26,0-9.563-4.303-9.563-9.563s4.303-9.563,9.563-9.563
	c100.311,0,181.688,81.377,181.688,181.688C497.633,391.697,493.329,396,488.07,396z M564.57,396c-5.26,0-9.563-4.303-9.563-9.563
	c0-132.058-107.005-239.063-239.063-239.063c-5.26,0-9.563-4.303-9.563-9.563s4.303-9.563,9.563-9.563
	c142.576,0,258.188,115.611,258.188,258.188C574.133,391.697,569.829,396,564.57,396z"/>
</svg>
