<?xml version="1.0" encoding="utf-8"?>
<!-- Generator: Adobe Illustrator 15.0.0, SVG Export Plug-In . SVG Version: 6.00 Build 0)  -->
<!DOCTYPE svg PUBLIC "-//W3C//DTD SVG 1.1//EN" "http://www.w3.org/Graphics/SVG/1.1/DTD/svg11.dtd">
<svg version="1.1" id="Layer_1" xmlns="http://www.w3.org/2000/svg" xmlns:xlink="http://www.w3.org/1999/xlink" x="0px" y="0px"
	 width="64px" height="64px" viewBox="0 0 64 64" enable-background="new 0 0 64 64" xml:space="preserve">
<title>sliders_up_2</title>
<path id="sliders_up_2" fill="#FFFFFF" d="M54,60H8c-2.209,0-4-1.791-4-4V10c0-2.209,1.791-4,4-4h46c2.209,0,4,1.791,4,4v46
	C58,58.209,56.209,60,54,60z M8,8c-1.104,0-2,0.896-2,2v46c0,1.104,0.896,2,2,2h46c1.104,0,2-0.896,2-2V10c0-1.104-0.896-2-2-2H8z
	 M36,43c0-2.377-1.672-4.425-4-4.9V13c0-0.552-0.448-1-1-1s-1,0.448-1,1v25.1c-2.706,0.551-4.455,3.189-3.905,5.896
	c0.4,1.967,1.937,3.504,3.905,3.904V53c0,0.553,0.448,1,1,1s1-0.447,1-1v-5.1C34.328,47.425,36,45.377,36,43z M31,46
	c-1.657,0-3-1.344-3-3s1.343-3,3-3c1.656,0,3,1.344,3,3S32.656,46,31,46z M50,33c0-2.376-1.672-4.425-4-4.9V13c0-0.552-0.447-1-1-1
	s-1,0.448-1,1v15.1c-2.706,0.549-4.455,3.189-3.904,5.895C40.494,35.963,42.032,37.5,44,37.9V53c0,0.553,0.447,1,1,1s1-0.447,1-1
	V37.9C48.328,37.425,50,35.377,50,33z M45,36c-1.656,0-3-1.344-3-3c0-1.657,1.344-3,3-3s3,1.343,3,3C48,34.656,46.656,36,45,36z
	 M22,23c0-2.376-1.672-4.425-4-4.9V13c0-0.552-0.448-1-1-1s-1,0.448-1,1v5.1c-2.706,0.549-4.455,3.189-3.905,5.895
	c0.4,1.968,1.937,3.505,3.905,3.905V53c0,0.553,0.448,1,1,1s1-0.447,1-1V27.9C20.328,27.425,22,25.376,22,23z M17,26
	c-1.657,0-3-1.343-3-3s1.343-3,3-3s3,1.343,3,3S18.657,26,17,26z"/>
</svg>
