<?xml version="1.0" encoding="utf-8"?>
<!-- Generator: Adobe Illustrator 15.0.0, SVG Export Plug-In . SVG Version: 6.00 Build 0)  -->
<!DOCTYPE svg PUBLIC "-//W3C//DTD SVG 1.1//EN" "http://www.w3.org/Graphics/SVG/1.1/DTD/svg11.dtd">
<svg version="1.1" id="Layer_1" xmlns="http://www.w3.org/2000/svg" xmlns:xlink="http://www.w3.org/1999/xlink" x="0px" y="0px"
	 width="64px" height="64px" viewBox="0 0 64 64" enable-background="new 0 0 64 64" xml:space="preserve">
<title>bullet_list</title>
<path d="M9,20c2.761,0,5-2.239,5-5s-2.239-5-5-5s-5,2.239-5,5S6.239,20,9,20z M9,12c1.657,0,3,1.343,3,3s-1.343,3-3,3s-3-1.343-3-3
	S7.343,12,9,12z"/>
<path d="M9,38c2.761,0,5-2.238,5-5c0-2.761-2.239-5-5-5s-5,2.239-5,5C4,35.762,6.239,38,9,38z M9,30c1.657,0,3,1.343,3,3
	c0,1.656-1.343,3-3,3s-3-1.344-3-3C6,31.343,7.343,30,9,30z"/>
<path d="M9,56c2.761,0,5-2.238,5-5s-2.239-5-5-5s-5,2.238-5,5S6.239,56,9,56z M9,48c1.657,0,3,1.344,3,3s-1.343,3-3,3s-3-1.344-3-3
	S7.343,48,9,48z"/>
<path d="M59,14H21c-0.552,0-1,0.448-1,1s0.448,1,1,1h38c0.553,0,1-0.448,1-1S59.553,14,59,14z"/>
<path d="M59,32H21c-0.552,0-1,0.448-1,1c0,0.553,0.448,1,1,1h38c0.553,0,1-0.447,1-1C60,32.448,59.553,32,59,32z"/>
<path d="M59,50H21c-0.552,0-1,0.447-1,1s0.448,1,1,1h38c0.553,0,1-0.447,1-1S59.553,50,59,50z"/>
</svg>
