<?xml version="1.0" encoding="utf-8"?>
<!-- Generator: Adobe Illustrator 15.0.0, SVG Export Plug-In . SVG Version: 6.00 Build 0)  -->
<!DOCTYPE svg PUBLIC "-//W3C//DTD SVG 1.1//EN" "http://www.w3.org/Graphics/SVG/1.1/DTD/svg11.dtd">
<svg version="1.1" id="Layer_1" xmlns="http://www.w3.org/2000/svg" xmlns:xlink="http://www.w3.org/1999/xlink" x="0px" y="0px"
	 width="64px" height="64px" viewBox="0 0 64 64" enable-background="new 0 0 64 64" xml:space="preserve">
<title>linkedin</title>
<rect x="12.5" y="24.9" width="9" height="27"/>
<path d="M16.9,20.3c3.3,0,5.3-2.2,5.3-4.9c0.028-2.684-2.124-4.883-4.808-4.912C17.261,10.487,17.13,10.491,17,10.5
	c-3.2,0-5.3,2.1-5.3,4.9C11.7,18.2,13.7,20.3,16.9,20.3L16.9,20.3z"/>
<path d="M44.5,24.9c-5,0-6.8,2.7-8,4.6V25h-9v27h9.1c0,0-0.1-16.2-0.1-16.5c0-2.485,2.015-4.5,4.5-4.5s4.5,2.015,4.5,4.5V52h9V37.3
	C54.5,28.7,50.7,24.9,44.5,24.9z"/>
</svg>
