<?xml version="1.0" encoding="utf-8"?>
<!-- Generator: Adobe Illustrator 15.0.0, SVG Export Plug-In . SVG Version: 6.00 Build 0)  -->
<!DOCTYPE svg PUBLIC "-//W3C//DTD SVG 1.1//EN" "http://www.w3.org/Graphics/SVG/1.1/DTD/svg11.dtd">
<svg version="1.1" id="Layer_1" xmlns="http://www.w3.org/2000/svg" xmlns:xlink="http://www.w3.org/1999/xlink" x="0px" y="0px"
	 width="64px" height="64px" viewBox="0 0 64 64" enable-background="new 0 0 64 64" xml:space="preserve">
<title>box_closed</title>
<path fill="#FFFFFF" d="M58,16.85c-0.012-0.097-0.038-0.192-0.08-0.28l0,0l0,0c-0.057-0.1-0.131-0.188-0.22-0.26l-0.08-0.06
	l-0.101-0.07l-26-14c-0.31-0.179-0.69-0.179-1,0l-26,14l-0.1,0.07l-0.08,0.06c-0.086,0.075-0.161,0.162-0.22,0.26l0,0l0,0
	c-0.042,0.088-0.069,0.183-0.08,0.28c0,0,0,0.06,0,0.09C4.021,16.956,4.008,16.977,4,17v30c0.001,0.369,0.205,0.707,0.53,0.88l26,14
	h0.06h0.07c0.217,0.094,0.463,0.094,0.68,0h0.07l0,0l26-14c0.349-0.156,0.578-0.498,0.59-0.88V17c0,0,0,0,0-0.06S58,16.88,58,16.85z
	 M31,4.14L54.891,17L44.54,22.57L20.63,9.72L31,4.14z M31,29.86L7.11,17l11.41-6.14l23.919,12.85L31,29.86z M6,18.67L30,31.6v27.73
	L6,46.4V18.67z M32,59.33V31.6l24-12.92V46.4L32,59.33z"/>
</svg>
