<?xml version="1.0" encoding="utf-8"?>
<!-- Generator: Adobe Illustrator 15.0.0, SVG Export Plug-In . SVG Version: 6.00 Build 0)  -->
<!DOCTYPE svg PUBLIC "-//W3C//DTD SVG 1.1//EN" "http://www.w3.org/Graphics/SVG/1.1/DTD/svg11.dtd">
<svg version="1.1" id="Layer_1" xmlns="http://www.w3.org/2000/svg" xmlns:xlink="http://www.w3.org/1999/xlink" x="0px" y="0px"
	 width="64px" height="64px" viewBox="0 0 64 64" enable-background="new 0 0 64 64" xml:space="preserve">
<path id="keypad" fill="#FFFFFF" d="M13,22c-3.86,0-7-3.141-7-7s3.14-7,7-7s7,3.141,7,7S16.86,22,13,22z M13,10
	c-2.757,0-5,2.243-5,5s2.243,5,5,5s5-2.243,5-5S15.757,10,13,10z M31,22c-3.86,0-7-3.141-7-7s3.14-7,7-7c3.859,0,7,3.141,7,7
	S34.859,22,31,22z M31,10c-2.757,0-5,2.243-5,5s2.243,5,5,5s5-2.243,5-5S33.757,10,31,10z M49,22c-3.859,0-7-3.141-7-7s3.141-7,7-7
	s7,3.141,7,7S52.859,22,49,22z M49,10c-2.757,0-5,2.243-5,5s2.243,5,5,5s5-2.243,5-5S51.757,10,49,10z M13,40c-3.86,0-7-3.141-7-7
	c0-3.859,3.14-7,7-7s7,3.141,7,7C20,36.859,16.86,40,13,40z M13,28c-2.757,0-5,2.243-5,5s2.243,5,5,5s5-2.243,5-5S15.757,28,13,28z
	 M31,40c-3.86,0-7-3.141-7-7c0-3.859,3.14-7,7-7c3.859,0,7,3.141,7,7C38,36.859,34.859,40,31,40z M31,28c-2.757,0-5,2.243-5,5
	s2.243,5,5,5s5-2.243,5-5S33.757,28,31,28z M49,40c-3.859,0-7-3.141-7-7c0-3.859,3.141-7,7-7s7,3.141,7,7C56,36.859,52.859,40,49,40
	z M49,28c-2.757,0-5,2.243-5,5s2.243,5,5,5s5-2.243,5-5S51.757,28,49,28z M13,58c-3.86,0-7-3.141-7-7s3.14-7,7-7s7,3.141,7,7
	S16.86,58,13,58z M13,46c-2.757,0-5,2.243-5,5s2.243,5,5,5s5-2.243,5-5S15.757,46,13,46z M31,58c-3.86,0-7-3.141-7-7s3.14-7,7-7
	c3.859,0,7,3.141,7,7S34.859,58,31,58z M31,46c-2.757,0-5,2.243-5,5s2.243,5,5,5s5-2.243,5-5S33.757,46,31,46z M49,58
	c-3.859,0-7-3.141-7-7s3.141-7,7-7s7,3.141,7,7S52.859,58,49,58z M49,46c-2.757,0-5,2.243-5,5s2.243,5,5,5s5-2.243,5-5
	S51.757,46,49,46z"/>
</svg>
