<?xml version="1.0" encoding="utf-8"?>
<!-- Generator: Adobe Illustrator 15.0.0, SVG Export Plug-In . SVG Version: 6.00 Build 0)  -->
<!DOCTYPE svg PUBLIC "-//W3C//DTD SVG 1.1//EN" "http://www.w3.org/Graphics/SVG/1.1/DTD/svg11.dtd">
<svg version="1.1" id="Layer_1" xmlns="http://www.w3.org/2000/svg" xmlns:xlink="http://www.w3.org/1999/xlink" x="0px" y="0px"
	 width="64px" height="64px" viewBox="0 0 64 64" enable-background="new 0 0 64 64" xml:space="preserve">
<title>headphones</title>
<path fill="#A9A9A9" d="M59.24,40L56,39.22V36c0-13.255-10.745-24-24-24S8,22.745,8,36v3.22L4.76,40C4.303,40.113,3.986,40.529,4,41
	v7c-0.014,0.471,0.303,0.887,0.76,1L8,49.78V50c0,2.209,1.791,4,4,4s4-1.791,4-4V40c0-2.209-1.791-4-4-4h-2c0-12.15,9.85-22,22-22
	s22,9.85,22,22h-2c-2.209,0-4,1.791-4,4v10c0,2.209,1.791,4,4,4s4-1.791,4-4v-0.22L59.24,49c0.457-0.113,0.773-0.529,0.76-1v-7
	C60.014,40.529,59.697,40.113,59.24,40z M6,47.22V41.78l2-0.5v6.439L6,47.22z M12,38c1.104,0,2,0.896,2,2v10c0,1.104-0.896,2-2,2
	s-2-0.896-2-2V38H12z M54,50c0,1.104-0.896,2-2,2s-2-0.896-2-2V40c0-1.104,0.896-2,2-2h2V50z M58,47.22l-2,0.5V41.28l2,0.5V47.22z"
	/>
</svg>
