<?xml version="1.0" encoding="utf-8"?>
<!-- Generator: Adobe Illustrator 15.0.0, SVG Export Plug-In . SVG Version: 6.00 Build 0)  -->
<!DOCTYPE svg PUBLIC "-//W3C//DTD SVG 1.1//EN" "http://www.w3.org/Graphics/SVG/1.1/DTD/svg11.dtd">
<svg version="1.1" id="Layer_1" xmlns="http://www.w3.org/2000/svg" xmlns:xlink="http://www.w3.org/1999/xlink" x="0px" y="0px"
	 width="612px" height="792px" viewBox="0 0 612 792" enable-background="new 0 0 612 792" xml:space="preserve">
<title>telephone</title>
<g>
	<path fill="#FFFFFF" d="M562.657,537.525l-86.063-86.063c-14.821-14.439-38.536-14.439-53.358,0l-46.474,46.474
		c-3.921,2.964-8.894,4.303-13.771,3.825c-23.332,0-66.268-17.787-105.187-57.375c-21.803-21.421-39.015-47.048-50.49-75.353
		c-8.702-23.333-7.65-38.919-2.582-43.892l46.474-46.474c14.726-14.726,14.726-38.537,0.096-53.263l-0.096-0.095l-86.063-86.063
		c-14.822-14.439-38.537-14.439-53.359,0l-49.821,49.725C4.59,246.347,58.14,391.123,184.748,517.73
		c87.975,88.645,192.015,146.02,264.69,146.02c23.523,1.339,46.569-6.98,63.878-23.046l49.725-49.82
		c6.98-7.076,10.806-16.734,10.71-26.68C573.75,554.164,569.733,544.602,562.657,537.525z M549.175,577.688l-19.795,19.125
		l0.191,0.191l-30.409,30.313c-13.674,12.145-31.556,18.36-49.725,17.309c-67.512,0-166.196-55.08-251.398-140.282
		C83.29,389.593,26.775,251.128,75.257,202.551l29.931-29.931l19.125-19.603c7.268-7.268,19.029-7.268,26.297,0l86.063,86.063
		c7.268,7.267,7.268,18.934,0.096,26.201c0,0,0,0-0.096,0.096l-19.794,19.794l0.287,0.383L191.25,311.85
		c-11.953,11.857-12.527,35.286-1.817,64.069c12.24,30.887,30.792,58.905,54.411,82.237c37.389,37.39,85.202,62.156,118.957,62.156
		c10.041,0.574,19.891-2.869,27.35-9.563l26.487-26.393l0.191,0.191l19.795-19.795c7.363-6.98,18.934-6.98,26.297,0l86.063,86.063
		C556.347,558.18,556.441,570.229,549.175,577.688z"/>
</g>
</svg>
