<?xml version="1.0" encoding="utf-8"?>
<!-- Generator: Adobe Illustrator 15.0.0, SVG Export Plug-In . SVG Version: 6.00 Build 0)  -->
<!DOCTYPE svg PUBLIC "-//W3C//DTD SVG 1.1//EN" "http://www.w3.org/Graphics/SVG/1.1/DTD/svg11.dtd">
<svg version="1.1" id="Layer_1" xmlns="http://www.w3.org/2000/svg" xmlns:xlink="http://www.w3.org/1999/xlink" x="0px" y="0px"
	 width="64px" height="64px" viewBox="0 0 64 64" enable-background="new 0 0 64 64" xml:space="preserve">
<title>alarm_off</title>
<path d="M33,6h-2c-0.552,0-1,0.448-1,1v3.15c-8.31,1.14-14.12,9.43-15,21.77l-0.69,9c-0.046,0.551,0.363,1.033,0.914,1.08
	c0.002,0,0.004,0,0.006,0h0.08c0.522,0.002,0.958-0.399,1-0.92l0.69-9C17.87,19.88,23.76,12,32,12c3.31,0.006,6.477,1.343,8.79,3.71
	c0.422,0.356,1.053,0.303,1.409-0.119c0.318-0.376,0.314-0.929-0.01-1.301c-2.205-2.237-5.08-3.691-8.189-4.14V7
	C34,6.448,33.553,6,33,6z"/>
<path d="M36.2,54.29c-2.333,2.286-6.067,2.286-8.4,0c-0.362-0.417-0.994-0.461-1.411-0.099c-0.417,0.362-0.461,0.994-0.099,1.41
	c0.034,0.039,0.07,0.075,0.109,0.108c3.111,3.05,8.089,3.05,11.2,0c0.363-0.417,0.318-1.048-0.098-1.411
	C37.129,53.976,36.576,53.972,36.2,54.29z"/>
<path d="M6.29,55.71c0.389,0.392,1.022,0.395,1.414,0.006c0.002-0.002,0.004-0.004,0.006-0.006l44-44
	c0.359-0.419,0.311-1.051-0.108-1.41c-0.375-0.32-0.928-0.32-1.302,0l-44,44C5.91,54.688,5.905,55.317,6.29,55.71z"/>
<path d="M56,51c0-0.553-0.447-1-1-1c-2.762,0-5-2.238-5-5c0-0.026,0-0.053,0-0.08l-1-13c-0.203-3.519-0.932-6.987-2.16-10.29
	c-0.236-0.499-0.834-0.711-1.332-0.474c-0.447,0.212-0.672,0.72-0.527,1.194c1.145,3.119,1.819,6.392,2,9.71L48,45
	c0.002,1.883,0.763,3.686,2.109,5H16.88c-0.552,0-1,0.447-1,1s0.448,1,1,1H55C55.553,52,56,51.553,56,51z"/>
</svg>
