<?xml version="1.0" encoding="utf-8"?>
<!-- Generator: Adobe Illustrator 15.0.0, SVG Export Plug-In . SVG Version: 6.00 Build 0)  -->
<!DOCTYPE svg PUBLIC "-//W3C//DTD SVG 1.1//EN" "http://www.w3.org/Graphics/SVG/1.1/DTD/svg11.dtd">
<svg version="1.1" id="Layer_1" xmlns="http://www.w3.org/2000/svg" xmlns:xlink="http://www.w3.org/1999/xlink" x="0px" y="0px"
	 width="64px" height="64px" viewBox="0 0 64 64" enable-background="new 0 0 64 64" xml:space="preserve">
<title>iphone_iphone</title>
<path fill="#FFFFFF" d="M16,60h16c2.209,0,4-1.791,4-4V22c0-2.209-1.791-4-4-4H16c-2.209,0-4,1.791-4,4v34
	C12,58.209,13.791,60,16,60z M34,50H14V28h20V50z M32,58H16c-1.104,0-2-0.896-2-2v-4h20v4C34,57.104,33.104,58,32,58z M16,20h16
	c1.104,0,2,0.896,2,2v4H14v-4C14,20.896,14.896,20,16,20z"/>
<path fill="#FFFFFF" d="M23,24h6c0.552,0,1-0.448,1-1s-0.448-1-1-1h-6c-0.552,0-1,0.448-1,1S22.448,24,23,24z"/>
<path fill="#FFFFFF" d="M19,24c0.552,0,1-0.448,1-1s-0.448-1-1-1s-1,0.448-1,1c-0.001,0.266,0.103,0.521,0.29,0.71
	C18.481,23.893,18.735,23.996,19,24z"/>
<path fill="#FFFFFF" d="M25,54h-2c-0.552,0-1,0.447-1,1s0.448,1,1,1h2c0.552,0,1-0.447,1-1S25.552,54,25,54z"/>
<path fill="#FFFFFF" d="M29,16c0.552,0,1-0.448,1-1v-1h20v22H39c-0.553,0-1,0.447-1,1s0.447,1,1,1h11v4c0,1.104-0.896,2-2,2h-9
	c-0.553,0-1,0.447-1,1s0.447,1,1,1h9c2.209,0,4-1.791,4-4V8c0-2.209-1.791-4-4-4H32c-2.209,0-4,1.791-4,4v7
	C28,15.552,28.448,16,29,16z M32,6h16c1.104,0,2,0.896,2,2v4H30V8C30,6.896,30.896,6,32,6z"/>
<path fill="#FFFFFF" d="M39,10h6c0.553,0,1-0.448,1-1s-0.447-1-1-1h-6c-0.553,0-1,0.448-1,1S38.447,10,39,10z"/>
<path fill="#FFFFFF" d="M35,10c0.553,0.003,1.002-0.442,1.006-0.994C36.008,8.737,35.9,8.479,35.71,8.29
	c-0.392-0.392-1.028-0.392-1.42,0s-0.392,1.028,0,1.42C34.481,9.893,34.735,9.996,35,10z"/>
<path fill="#FFFFFF" d="M43,42c0.553,0,1-0.447,1-1s-0.447-1-1-1h-2c-0.553,0-1,0.447-1,1s0.447,1,1,1H43z"/>
</svg>
