<?xml version="1.0" encoding="utf-8"?>
<!-- Generator: Adobe Illustrator 15.0.0, SVG Export Plug-In . SVG Version: 6.00 Build 0)  -->
<!DOCTYPE svg PUBLIC "-//W3C//DTD SVG 1.1//EN" "http://www.w3.org/Graphics/SVG/1.1/DTD/svg11.dtd">
<svg version="1.1" id="Layer_1" xmlns="http://www.w3.org/2000/svg" xmlns:xlink="http://www.w3.org/1999/xlink" x="0px" y="0px"
	 width="64px" height="64px" viewBox="0 0 64 64" enable-background="new 0 0 64 64" xml:space="preserve">
<title>w</title>
<circle cx="34.23" cy="9.23" r="4.54"/>
<path d="M50.12,30.66c0.157,1.249-0.728,2.39-1.978,2.547c-0.008,0.001-0.016,0.002-0.022,0.003H47.77l-8.31-1.69
	c-0.61-0.222-1.109-0.674-1.39-1.26c-0.17-0.4-2-4-2-4l-1.51,7l6.649,7.07c0.797,0.779,1.149,1.905,0.94,3v13.529l0,0
	c-0.129,1.486-1.438,2.587-2.922,2.459c-1.309-0.113-2.346-1.15-2.459-2.459l0,0V44.66l-7-6.94c0,0-1.32,7.28-1.32,7.841
	c-0.144,0.704-0.492,1.351-1,1.859l-8.77,10.29c-0.852,1.211-2.523,1.503-3.734,0.651s-1.502-2.523-0.651-3.734
	c0.112-0.159,0.241-0.306,0.385-0.438l7.44-8.83L24.2,33.46c0,0,2.08-10.07,2.23-10.54l-2.26,1.26L20.64,31
	c-0.306,1.25-1.567,2.016-2.817,1.709c-1.25-0.305-2.016-1.566-1.71-2.816c0.08-0.325,0.229-0.63,0.437-0.893l3.87-7.24
	c0.229-0.487,0.572-0.913,1-1.24c0.55-0.25,8.8-5,8.8-5c1.037-0.483,2.209-0.597,3.32-0.32c1.267,0.46,2.392,1.238,3.271,2.26
	c0.449,0.47,5,9.77,5,9.92c0,0.15-0.271,0,0,0.15c0.27,0.15,5.31,1,6.569,1.189C49.309,28.939,50.003,29.713,50.12,30.66z"/>
</svg>
