<?xml version="1.0" encoding="utf-8"?>
<!-- Generator: Adobe Illustrator 15.0.0, SVG Export Plug-In . SVG Version: 6.00 Build 0)  -->
<!DOCTYPE svg PUBLIC "-//W3C//DTD SVG 1.1//EN" "http://www.w3.org/Graphics/SVG/1.1/DTD/svg11.dtd">
<svg version="1.1" id="Layer_1" xmlns="http://www.w3.org/2000/svg" xmlns:xlink="http://www.w3.org/1999/xlink" x="0px" y="0px"
	 width="64px" height="64px" viewBox="0 0 64 64" enable-background="new 0 0 64 64" xml:space="preserve">
<title>tag</title>
<path fill="#A9A9A9" d="M47,22c2.762,0,5-2.239,5-5s-2.238-5-5-5s-5,2.239-5,5S44.238,22,47,22z M47,14c1.656,0,3,1.343,3,3
	s-1.344,3-3,3s-3-1.343-3-3S45.344,14,47,14z"/>
<path fill="#A9A9A9" d="M6,38c-0.001,1.061,0.42,2.079,1.17,2.83l16,16c1.562,1.558,4.089,1.558,5.65,0l28-27
	c0.754-0.749,1.178-1.768,1.18-2.83V10c0-2.209-1.791-4-4-4H37c-1.066-0.001-2.088,0.424-2.84,1.18l-27,28
	C6.416,35.93,5.999,36.943,6,38z M8.6,36.57l27-28C35.975,8.204,36.477,8,37,8h17c1.104,0,2,0.896,2,2v17
	c0,0.523-0.204,1.026-0.57,1.4l-28,27c-0.794,0.75-2.036,0.75-2.83,0l-16-16c-0.782-0.781-0.782-2.047-0.001-2.828
	C8.599,36.571,8.6,36.57,8.6,36.57z"/>
</svg>
