<?xml version="1.0" encoding="utf-8"?>
<!-- Generator: Adobe Illustrator 15.0.0, SVG Export Plug-In . SVG Version: 6.00 Build 0)  -->
<!DOCTYPE svg PUBLIC "-//W3C//DTD SVG 1.1//EN" "http://www.w3.org/Graphics/SVG/1.1/DTD/svg11.dtd">
<svg version="1.1" id="Layer_1" xmlns="http://www.w3.org/2000/svg" xmlns:xlink="http://www.w3.org/1999/xlink" x="0px" y="0px"
	 width="64px" height="64px" viewBox="0 0 64 64" enable-background="new 0 0 64 64" xml:space="preserve">
<title>pic_mountains_albums</title>
<path id="pic_mountains_albums" fill="#FFFFFF" d="M61,60H3c-0.552,0-1-0.447-1-1V15c0-0.552,0.448-1,1-1h58c0.553,0,1,0.448,1,1v44
	C62,59.553,61.553,60,61,60z M4,58h56V16H4V58z M16,34c-3.313,0-6-2.687-6-6s2.687-6,6-6s6,2.687,6,6S19.313,34,16,34z M16,24
	c-2.209,0-4,1.791-4,4s1.791,4,4,4s4-1.791,4-4S18.209,24,16,24z M57.71,44.29l-14-14c-0.39-0.388-1.021-0.388-1.41,0L31,41.59
	l-5.29-5.29c-0.39-0.388-1.02-0.388-1.41,0l-18,18c-0.419,0.359-0.468,0.991-0.109,1.41s0.991,0.468,1.41,0.108
	c0.039-0.033,0.075-0.069,0.109-0.108L25,38.41l11.29,11.3c0.358,0.419,0.989,0.468,1.41,0.108c0.419-0.358,0.468-0.99,0.108-1.409
	c-0.033-0.039-0.07-0.075-0.108-0.109L32.41,43L43,32.41l13.29,13.3c0.392,0.392,1.028,0.392,1.42,0S58.102,44.682,57.71,44.29z
	 M57,12H7c-0.552,0-1-0.448-1-1s0.448-1,1-1h50c0.553,0,1,0.448,1,1S57.553,12,57,12z M53,8H11c-0.552,0-1-0.448-1-1s0.448-1,1-1h42
	c0.553,0,1,0.448,1,1S53.553,8,53,8z"/>
</svg>
