<?xml version="1.0" encoding="utf-8"?>
<!-- Generator: Adobe Illustrator 15.0.0, SVG Export Plug-In . SVG Version: 6.00 Build 0)  -->
<!DOCTYPE svg PUBLIC "-//W3C//DTD SVG 1.1//EN" "http://www.w3.org/Graphics/SVG/1.1/DTD/svg11.dtd">
<svg version="1.1" id="图层_1" xmlns="http://www.w3.org/2000/svg" xmlns:xlink="http://www.w3.org/1999/xlink" x="0px" y="0px"
	 width="24px" height="24px" viewBox="0 0 24 24" enable-background="new 0 0 24 24" xml:space="preserve">
<path fill="#A9A9A9" d="M22.038,3.039c-1.134-1.134-2.64-1.758-4.242-1.758s-3.11,0.625-4.243,1.758l-12,12
	c-1.753,1.754-1.753,4.609,0,6.363c0.877,0.878,2.03,1.315,3.182,1.315c1.152,0,2.305-0.438,3.183-1.315L19.4,9.883
	c0.974-0.976,0.974-2.561,0-3.535c-0.944-0.944-2.592-0.944-3.535,0l-8.501,8.5c-0.195,0.195-0.195,0.512,0,0.707
	c0.195,0.195,0.512,0.195,0.707,0l8.501-8.5c0.564-0.567,1.554-0.566,2.121,0c0.584,0.584,0.584,1.536,0,2.121L7.21,20.695
	c-1.364,1.365-3.584,1.365-4.95,0c-1.364-1.365-1.364-3.586,0-4.95l12-12C15.205,2.8,16.461,2.28,17.796,2.28
	s2.591,0.521,3.535,1.465c0.944,0.944,1.465,2.2,1.465,3.535c0,1.335-0.521,2.591-1.465,3.535l-8.5,8.5
	c-0.194,0.195-0.194,0.513,0,0.707c0.194,0.195,0.512,0.195,0.707,0l8.5-8.5c1.133-1.133,1.758-2.639,1.758-4.242
	S23.171,4.171,22.038,3.039z"/>
</svg>
