<?xml version="1.0" encoding="utf-8"?>
<!-- Generator: Adobe Illustrator 15.0.0, SVG Export Plug-In . SVG Version: 6.00 Build 0)  -->
<!DOCTYPE svg PUBLIC "-//W3C//DTD SVG 1.1//EN" "http://www.w3.org/Graphics/SVG/1.1/DTD/svg11.dtd">
<svg version="1.1" id="Layer_1" xmlns="http://www.w3.org/2000/svg" xmlns:xlink="http://www.w3.org/1999/xlink" x="0px" y="0px"
	 width="64px" height="64px" viewBox="0 0 64 64" enable-background="new 0 0 64 64" xml:space="preserve">
<path id="messages" fill="#A9A9A9" d="M14,46.002c-7.72,0-14-6.279-14-14c0-7.72,6.28-14,14-14s14,6.28,14,14
	C28,39.723,21.72,46.002,14,46.002z M14,20.002c-6.617,0-12,5.383-12,12s5.383,12,12,12s12-5.383,12-12S20.617,20.002,14,20.002z
	 M48,46.002c-7.721,0-14-6.279-14-14c0-7.72,6.279-14,14-14s14,6.28,14,14C62,39.723,55.721,46.002,48,46.002z M48,20.002
	c-6.617,0-12,5.383-12,12s5.383,12,12,12s12-5.383,12-12S54.617,20.002,48,20.002z M14,44.002h34v2H14V44.002z"/>
</svg>
