<?xml version="1.0" encoding="utf-8"?>
<!-- Generator: Adobe Illustrator 15.0.0, SVG Export Plug-In . SVG Version: 6.00 Build 0)  -->
<!DOCTYPE svg PUBLIC "-//W3C//DTD SVG 1.1//EN" "http://www.w3.org/Graphics/SVG/1.1/DTD/svg11.dtd">
<svg version="1.1" id="Layer_1" xmlns="http://www.w3.org/2000/svg" xmlns:xlink="http://www.w3.org/1999/xlink" x="0px" y="0px"
	 width="64px" height="64px" viewBox="0 0 64 64" enable-background="new 0 0 64 64" xml:space="preserve">
<title>sliders_up</title>
<path id="sliders_up" d="M18,21c-0.004-3.477-2.559-6.423-6-6.92V7c0-0.552-0.448-1-1-1s-1,0.448-1,1v7.08
	c-3.822,0.583-6.448,4.153-5.865,7.975C4.597,25.083,6.973,27.458,10,27.92V57c0,0.553,0.448,1,1,1s1-0.447,1-1V27.92
	C15.441,27.423,17.996,24.477,18,21z M11,26c-2.761,0-5-2.239-5-5s2.239-5,5-5s5,2.239,5,5S13.761,26,11,26z M38,43
	c-0.004-3.477-2.559-6.424-6-6.92V7c0-0.552-0.448-1-1-1s-1,0.448-1,1v29.08c-3.822,0.583-6.448,4.153-5.865,7.975
	c0.461,3.027,2.837,5.404,5.865,5.865V57c0,0.553,0.448,1,1,1s1-0.447,1-1v-7.08C35.441,49.424,37.996,46.477,38,43z M31,48
	c-2.761,0-5-2.238-5-5s2.239-5,5-5c2.762,0,5,2.238,5,5S33.762,48,31,48z M58,29c-0.004-3.477-2.559-6.423-6-6.92V7
	c0-0.552-0.447-1-1-1s-1,0.448-1,1v15.08c-3.822,0.583-6.447,4.153-5.865,7.975c0.463,3.027,2.838,5.404,5.865,5.865V57
	c0,0.553,0.447,1,1,1s1-0.447,1-1V35.92C55.441,35.424,57.996,32.477,58,29z M51,34c-2.762,0-5-2.239-5-5s2.238-5,5-5s5,2.239,5,5
	S53.762,34,51,34z"/>
</svg>
