<?xml version="1.0" encoding="utf-8"?>
<!-- Generator: Adobe Illustrator 15.0.0, SVG Export Plug-In . SVG Version: 6.00 Build 0)  -->
<!DOCTYPE svg PUBLIC "-//W3C//DTD SVG 1.1//EN" "http://www.w3.org/Graphics/SVG/1.1/DTD/svg11.dtd">
<svg version="1.1" id="Layer_1" xmlns="http://www.w3.org/2000/svg" xmlns:xlink="http://www.w3.org/1999/xlink" x="0px" y="0px"
	 width="64px" height="64px" viewBox="0 0 64 64" enable-background="new 0 0 64 64" xml:space="preserve">
<title>medical_kit</title>
<path fill="#FFFFFF" d="M59,14h-7v-1c0-0.552-0.447-1-1-1h-2c-0.553,0-1,0.448-1,1v1H16v-1c0-0.552-0.448-1-1-1h-2
	c-0.552,0-1,0.448-1,1v1H5c-0.552,0-1,0.448-1,1v42c0,0.553,0.448,1,1,1h54c0.553,0,1-0.447,1-1V15C60,14.448,59.553,14,59,14z
	 M58,56H6V16h52V56z"/>
<path fill="#FFFFFF" d="M26,12c0-1.104,0.896-2,2-2h8c1.104,0,2,0.896,2,2c0,0.552,0.447,1,1,1s1-0.448,1-1c0-2.209-1.791-4-4-4h-8
	c-2.209,0-4,1.791-4,4c0,0.552,0.448,1,1,1S26,12.552,26,12z"/>
<path fill="#FFFFFF" d="M45,32h-9v-9c0-0.552-0.447-1-1-1h-6c-0.552,0-1,0.448-1,1v9h-9c-0.552,0-1,0.448-1,1v6c0,0.553,0.448,1,1,1
	h9v9c0,0.553,0.448,1,1,1h6c0.553,0,1-0.447,1-1v-9h9c0.553,0,1-0.447,1-1v-6C46,32.448,45.553,32,45,32z M44,38h-9
	c-0.553,0-1,0.447-1,1v9h-4v-9c0-0.553-0.448-1-1-1h-9v-4h9c0.552,0,1-0.447,1-1v-9h4v9c0,0.553,0.447,1,1,1h9V38z"/>
</svg>
