<?xml version="1.0" encoding="utf-8"?>
<!-- Generator: Adobe Illustrator 15.0.0, SVG Export Plug-In . SVG Version: 6.00 Build 0)  -->
<!DOCTYPE svg PUBLIC "-//W3C//DTD SVG 1.1//EN" "http://www.w3.org/Graphics/SVG/1.1/DTD/svg11.dtd">
<svg version="1.1" id="Layer_1" xmlns="http://www.w3.org/2000/svg" xmlns:xlink="http://www.w3.org/1999/xlink" x="0px" y="0px"
	 width="64px" height="64px" viewBox="0 0 64 64" enable-background="new 0 0 64 64" xml:space="preserve">
<title>folder_edit</title>
<path id="folder_edit" fill="#A9A9A9" d="M53,16h-3v-2c0-2.209-1.791-4-4-4H26c-1.292,0.163-2.555-0.469-3.2-1.6
	C21.779,6.76,19.924,5.833,18,6H8c-2.209,0-4,1.791-4,4v36c0,2.209,1.791,4,4,4h25c0.553,0,1-0.447,1-1s-0.447-1-1-1H10V18h42v11
	c0,0.552,0.447,1,1,1s1-0.448,1-1V17C54,16.448,53.553,16,53,16z M9,16c-0.552,0-1,0.448-1,1v31c-1.104,0-2-0.896-2-2V10
	c0-1.104,0.896-2,2-2h10c1.292-0.163,2.555,0.469,3.2,1.6c1.021,1.64,2.875,2.567,4.8,2.4h20c1.104,0,2,0.896,2,2v2H9z
	 M59.279,34.811L57.2,32.73c-0.977-0.914-2.493-0.914-3.47,0l-1.791,1.68l0,0l0,0L36.7,49.7l0,0l-0.37,0.37
	c-0.078,0.074-0.143,0.162-0.189,0.26l-4,8.23c-0.19,0.384-0.113,0.847,0.19,1.149c0.179,0.178,0.418,0.281,0.67,0.29
	c0.152,0,0.303-0.033,0.439-0.1l8.19-4.061c0.097-0.049,0.185-0.113,0.261-0.189L57.471,40l1.809-1.7
	c0.999-0.945,1.102-2.458,0.156-3.457C59.404,34.811,59.373,34.778,59.279,34.811z M37.561,52L40,54.42l-4.811,2.38L37.561,52z
	 M41.561,53.17l-2.74-2.77l13.81-13.87l2.74,2.75L41.561,53.17z M57.891,36.87l-1.08,1l-2.74-2.75l1.06-1
	c0.177-0.183,0.468-0.187,0.65-0.01c0.003,0.003,0.007,0.007,0.01,0.01l2.069,2.08c0.193,0.173,0.21,0.47,0.036,0.663
	C57.895,36.865,57.893,36.868,57.891,36.87z"/>
</svg>
