<?xml version="1.0" encoding="utf-8"?>
<!-- Generator: Adobe Illustrator 15.0.0, SVG Export Plug-In . SVG Version: 6.00 Build 0)  -->
<!DOCTYPE svg PUBLIC "-//W3C//DTD SVG 1.1//EN" "http://www.w3.org/Graphics/SVG/1.1/DTD/svg11.dtd">
<svg version="1.1" id="Layer_1" xmlns="http://www.w3.org/2000/svg" xmlns:xlink="http://www.w3.org/1999/xlink" x="0px" y="0px"
	 width="64px" height="64px" viewBox="0 0 64 64" enable-background="new 0 0 64 64" xml:space="preserve">
<title>gift</title>
<path fill="#A9A9A9" d="M52,16h-3.54c2.183-2.494,1.93-6.284-0.563-8.466c-2.342-2.049-5.861-1.968-8.106,0.186L31,15.65l-8.76-7.9
	c-2.378-2.308-6.177-2.251-8.484,0.126c-2.174,2.24-2.268,5.772-0.216,8.124H10c-2.209,0-4,1.791-4,4v7c0,0.552,0.448,1,1,1h1v28
	c0,2.209,1.791,4,4,4h38c2.209,0,4-1.791,4-4V28h1c0.553,0,1-0.448,1-1v-7C56,17.791,54.209,16,52,16z M41.17,9.17
	c1.584-1.511,4.076-1.511,5.66,0c1.563,1.562,1.564,4.094,0.003,5.657C46.082,15.579,45.063,16.001,44,16H33.6L41.17,9.17z
	 M15.17,14.83c-1.552-1.574-1.534-4.108,0.04-5.66c1.574-1.552,4.108-1.534,5.66,0.04l0,0L28.4,16H18
	C16.939,16.001,15.921,15.58,15.17,14.83z M8,20c0-1.104,0.896-2,2-2h20v8H8V20z M10,56V28h20v30H12C10.896,58,10,57.104,10,56z
	 M52,56c0,1.104-0.896,2-2,2H32V28h20V56z M54,26H32v-8h20c1.104,0,2,0.896,2,2V26z"/>
</svg>
