<?xml version="1.0" encoding="utf-8"?>
<!-- Generator: Adobe Illustrator 15.0.0, SVG Export Plug-In . SVG Version: 6.00 Build 0)  -->
<!DOCTYPE svg PUBLIC "-//W3C//DTD SVG 1.1//EN" "http://www.w3.org/Graphics/SVG/1.1/DTD/svg11.dtd">
<svg version="1.1" id="Layer_1" xmlns="http://www.w3.org/2000/svg" xmlns:xlink="http://www.w3.org/1999/xlink" x="0px" y="0px"
	 width="64px" height="64px" viewBox="0 0 64 64" enable-background="new 0 0 64 64" xml:space="preserve">
<title>finger_print</title>
<path id="finger_print" fill="#A9A9A9" d="M7.69,21.24c-0.152,0-0.303-0.034-0.44-0.1c-0.497-0.242-0.703-0.84-0.461-1.337
	c0-0.001,0.001-0.002,0.001-0.003C11.389,10.217,21.041,4.087,31.67,4H32c0.553,0,1,0.448,1,1s-0.447,1-1,1h-0.29
	c-9.875,0.076-18.845,5.768-23.12,14.67C8.425,21.017,8.075,21.239,7.69,21.24z M6.43,41.689c-0.433,0-0.816-0.278-0.95-0.689
	c-1.864-5.521-1.969-11.486-0.3-17.07c0.157-0.53,0.715-0.833,1.245-0.675C6.955,23.413,7.257,23.97,7.1,24.5
	c-1.551,5.188-1.453,10.73,0.28,15.859c0.183,0.521-0.092,1.092-0.614,1.274C6.658,41.672,6.544,41.69,6.43,41.689z M59,32.34
	c-0.553,0-1-0.448-1-1C57.707,18.73,48.385,8.159,35.91,6.29c-0.553-0.083-0.934-0.598-0.85-1.15
	c0.082-0.552,0.598-0.933,1.149-0.85C49.662,6.308,59.707,17.72,60,31.32c0,0.552-0.447,1-1,1l0,0V32.34z M28.89,60
	c-0.152,0-0.303-0.033-0.44-0.1c-0.494-0.246-0.696-0.846-0.45-1.34c0.624-1.304,1.178-2.639,1.66-4
	c0.202-0.515,0.783-0.767,1.297-0.564c0.493,0.194,0.749,0.74,0.583,1.244c-0.508,1.437-1.092,2.846-1.75,4.22
	C29.616,59.796,29.268,60.004,28.89,60z M31.84,51.75H31.6c-0.536-0.133-0.862-0.674-0.73-1.21c0.756-3.124,1.136-6.326,1.13-9.54
	c0.007-3.028-0.329-6.047-1-9c-0.124-0.539,0.211-1.076,0.75-1.2c0.539-0.124,1.076,0.212,1.2,0.75C33.656,34.65,34.008,37.82,34,41
	c0.004,3.369-0.396,6.727-1.189,10c-0.115,0.445-0.52,0.756-0.98,0.75H31.84z M39,59.189c-0.115,0-0.23-0.02-0.34-0.06
	c-0.52-0.188-0.787-0.761-0.6-1.28C40.024,52.45,41.02,46.746,41,41c-0.002-3.613-0.401-7.215-1.189-10.74
	C38.994,26.602,35.748,23.999,32,24c-0.996,0-1.983,0.187-2.91,0.55c-0.522,0.18-1.091-0.099-1.271-0.621
	c-0.168-0.49,0.066-1.028,0.541-1.239C29.52,22.234,30.754,22,32,22c4.676,0.022,8.719,3.262,9.76,7.82
	C42.582,33.49,42.997,37.239,43,41c0.006,5.98-1.043,11.914-3.1,17.53C39.762,58.912,39.406,59.174,39,59.189z M49.939,53.37H49.75
	c-0.541-0.106-0.895-0.629-0.79-1.17c0.706-3.691,1.055-7.442,1.04-11.2c-0.002-4.269-0.472-8.524-1.4-12.69
	c-1.063-4.832-4.176-8.961-8.529-11.31c-0.486-0.276-0.656-0.894-0.381-1.38c0.277-0.486,0.895-0.656,1.381-0.38
	c4.861,2.617,8.343,7.22,9.539,12.61C51.555,32.169,52.02,36.579,52,41c0.002,3.88-0.37,7.751-1.109,11.561
	c-0.092,0.469-0.502,0.809-0.98,0.81H49.939z M20.14,57.25c-0.552,0.002-1.001-0.445-1.003-0.997c0-0.169,0.042-0.335,0.123-0.483
	C21.713,51.233,22.999,46.157,23,41c-0.001-2.239-0.242-4.473-0.72-6.66c-0.003-0.043-0.003-0.086,0-0.13
	c-0.723-3.18,0.151-6.513,2.34-8.93c0.346-0.431,0.975-0.5,1.406-0.154s0.5,0.975,0.153,1.406c-0.024,0.031-0.051,0.06-0.079,0.088
	c-1.346,1.469-2.094,3.388-2.1,5.38c0,0.555,0.057,1.107,0.17,1.65c0.003,0.043,0.003,0.086,0,0.13c0.54,2.368,0.818,4.79,0.83,7.22
	c-0.005,5.494-1.38,10.9-4,15.73C20.828,57.045,20.5,57.244,20.14,57.25z M12.73,52c-0.149-0.001-0.296-0.035-0.43-0.1
	c-0.496-0.238-0.706-0.833-0.47-1.33c1.442-2.984,2.184-6.257,2.17-9.57c-0.004-1.632-0.188-3.259-0.55-4.85
	c-2.291-10.241,4.154-20.399,14.394-22.69c2.993-0.669,6.103-0.604,9.066,0.189c0.537,0.125,0.872,0.663,0.747,1.201
	c-0.126,0.538-0.663,0.873-1.201,0.747c-0.022-0.005-0.044-0.011-0.065-0.018c-9.068-2.436-18.393,2.94-20.829,12.008
	c-0.713,2.654-0.772,5.44-0.172,8.122c0.398,1.735,0.603,3.51,0.61,5.29c0.009,3.605-0.801,7.164-2.37,10.41
	C13.47,51.766,13.119,51.995,12.73,52z"/>
</svg>
