<?xml version="1.0" encoding="utf-8"?>
<!-- Generator: Adobe Illustrator 15.0.0, SVG Export Plug-In . SVG Version: 6.00 Build 0)  -->
<!DOCTYPE svg PUBLIC "-//W3C//DTD SVG 1.1//EN" "http://www.w3.org/Graphics/SVG/1.1/DTD/svg11.dtd">
<svg version="1.1" id="Layer_1" xmlns="http://www.w3.org/2000/svg" xmlns:xlink="http://www.w3.org/1999/xlink" x="0px" y="0px"
	 width="64px" height="64px" viewBox="0 0 64 64" enable-background="new 0 0 64 64" xml:space="preserve">
<title>ui_code</title>
<path id="ui_code" d="M56,10H8c-2.209,0-4,1.791-4,4v38c0,2.209,1.791,4,4,4h48c2.209,0,4-1.791,4-4V14C60,11.791,58.209,10,56,10z
	 M8,12h48c1.104,0,2,0.896,2,2v6H6v-6C6,12.896,6.896,12,8,12z M56,54H8c-1.104,0-2-0.896-2-2V22h52v30C58,53.104,57.104,54,56,54z
	 M52,14c1.104,0,2,0.896,2,2s-0.896,2-2,2s-2-0.896-2-2S50.896,14,52,14z M46,14c1.104,0,2,0.896,2,2s-0.896,2-2,2s-2-0.896-2-2
	S44.896,14,46,14z M40,14c1.104,0,2,0.896,2,2s-0.896,2-2,2s-2-0.896-2-2S38.896,14,40,14z M25,44c-0.234,0-0.46-0.081-0.64-0.23
	l-6-5c-0.425-0.352-0.484-0.982-0.132-1.408c0.04-0.047,0.084-0.092,0.132-0.131l6-5c0.425-0.354,1.057-0.295,1.41,0.13
	s0.295,1.056-0.13,1.41L20.56,38l5.08,4.23c0.425,0.352,0.484,0.982,0.132,1.408C25.582,43.867,25.298,44,25,44z M39,44
	c-0.553,0.001-1.001-0.445-1.002-0.998c0-0.299,0.133-0.582,0.361-0.771l5.08-4.23l-5.08-4.23c-0.425-0.354-0.482-0.984-0.129-1.41
	s0.984-0.483,1.41-0.13l0,0l6,5c0.425,0.352,0.484,0.982,0.131,1.408c-0.039,0.047-0.084,0.092-0.131,0.131l-6,5
	C39.46,43.919,39.234,44,39,44z M29,48c-0.109,0.001-0.217-0.016-0.32-0.05c-0.521-0.176-0.802-0.738-0.63-1.261l6-18
	c0.175-0.524,0.741-0.809,1.265-0.635c0.525,0.174,0.81,0.74,0.636,1.265l-6,18C29.813,47.728,29.43,48.001,29,48z"/>
</svg>
