<?xml version="1.0" encoding="utf-8"?>
<!-- Generator: Adobe Illustrator 15.0.0, SVG Export Plug-In . SVG Version: 6.00 Build 0)  -->
<!DOCTYPE svg PUBLIC "-//W3C//DTD SVG 1.1//EN" "http://www.w3.org/Graphics/SVG/1.1/DTD/svg11.dtd">
<svg version="1.1" id="Layer_1" xmlns="http://www.w3.org/2000/svg" xmlns:xlink="http://www.w3.org/1999/xlink" x="0px" y="0px"
	 width="64px" height="64px" viewBox="0 0 64 64" enable-background="new 0 0 64 64" xml:space="preserve">
<title>cube</title>
<path fill="#A9A9A9" d="M58,16.92c-0.009-0.1-0.032-0.197-0.07-0.29l0,0l0,0c-0.049-0.091-0.109-0.175-0.18-0.25l0,0
	c-0.072-0.068-0.158-0.122-0.25-0.16l-26-12c-0.267-0.123-0.574-0.123-0.84,0l-26,12c-0.089,0.044-0.173,0.098-0.25,0.16l0,0
	c-0.078,0.069-0.139,0.155-0.18,0.25l0,0l0,0c-0.038,0.093-0.061,0.19-0.07,0.29L4,17v30c-0.001,0.391,0.226,0.746,0.58,0.91l26,12
	l0,0c0.133,0.057,0.275,0.086,0.42,0.09c0.139,0.001,0.275-0.029,0.4-0.09l0,0l26-12c0.361-0.158,0.598-0.515,0.6-0.91V17
	C58,17,58,16.94,58,16.92z M31,6.1L54.609,17L31,27.9L7.39,17L31,6.1z M6,18.56l24,11.08v27.799L6,46.359V18.56z M32,57.439V29.64
	l24-11.08v27.799L32,57.439z"/>
</svg>
