<?xml version="1.0" encoding="utf-8"?>
<!-- Generator: Adobe Illustrator 15.0.0, SVG Export Plug-In . SVG Version: 6.00 Build 0)  -->
<!DOCTYPE svg PUBLIC "-//W3C//DTD SVG 1.1//EN" "http://www.w3.org/Graphics/SVG/1.1/DTD/svg11.dtd">
<svg version="1.1" id="Layer_1" xmlns="http://www.w3.org/2000/svg" xmlns:xlink="http://www.w3.org/1999/xlink" x="0px" y="0px"
	 width="612px" height="792px" viewBox="0 0 612 792" enable-background="new 0 0 612 792" xml:space="preserve">
<title>444</title>
<path d="M415.969,217.181L279.225,258.3v223.763c-10.519-4.781-21.994-7.65-32.513-6.693c-12.431,0-23.906,1.912-35.381,6.693
	c-23.906,9.563-40.162,32.513-40.162,58.331c0,21.038,18.168,43.987,59.287,43.987c30.6-0.956,57.375-19.125,70.763-45.899
	c3.825-12.432,6.693-25.819,6.693-39.206V325.237l109.013-27.731v-80.325H415.969z"/>
<path d="M57.375,147.375v497.25h497.25v-497.25H57.375z M532.631,622.631H79.369V169.369h453.262V622.631z"/>
</svg>
