<?xml version="1.0" encoding="utf-8"?>
<!-- Generator: Adobe Illustrator 15.0.0, SVG Export Plug-In . SVG Version: 6.00 Build 0)  -->
<!DOCTYPE svg PUBLIC "-//W3C//DTD SVG 1.1//EN" "http://www.w3.org/Graphics/SVG/1.1/DTD/svg11.dtd">
<svg version="1.1" id="图层_1" xmlns="http://www.w3.org/2000/svg" xmlns:xlink="http://www.w3.org/1999/xlink" x="0px" y="0px"
	 width="24px" height="24px" viewBox="0 0 24 24" enable-background="new 0 0 24 24" xml:space="preserve">
<g>
	<path fill="#FFFFFF" d="M20.5,20c-0.827,0-1.5-0.673-1.5-1.5V14c0-2.728-1.566-5.18-4.02-6.333C14.814,6.169,13.542,5,12,5
		S9.185,6.169,9.019,7.667C6.567,8.819,5,11.271,5,14v4.5C5,19.327,4.327,20,3.5,20C3.224,20,3,20.225,3,20.5S3.224,21,3.5,21h6.101
		c0.239,1.131,1.198,2,2.399,2s2.16-0.869,2.398-2H20.5c0.275,0,0.5-0.225,0.5-0.5S20.775,20,20.5,20z M12,22
		c-0.65,0-1.191-0.421-1.399-1h2.797C13.191,21.579,12.65,22,12,22z M5.499,20C5.813,19.582,6,19.063,6,18.5V14
		c0-2.43,1.449-4.604,3.692-5.539C9.878,8.384,10,8.202,10,8c0-1.103,0.897-2,2-2c1.104,0,2,0.897,2,2
		c0,0.202,0.121,0.384,0.309,0.461C16.551,9.397,18,11.571,18,14v4.5c0,0.563,0.188,1.082,0.501,1.5H5.499z M4,8.5
		C4,8.224,3.776,8,3.5,8H1.707l2.146-2.146C3.997,5.71,4.04,5.496,3.962,5.309C3.885,5.122,3.702,5,3.5,5h-3C0.224,5,0,5.224,0,5.5
		S0.224,6,0.5,6h1.793L0.146,8.146C0.003,8.29-0.04,8.504,0.038,8.691C0.115,8.878,0.298,9,0.5,9h3C3.776,9,4,8.776,4,8.5z M9.5,1
		h0.793L9.146,2.146C9.003,2.29,8.96,2.504,9.038,2.691C9.115,2.878,9.298,3,9.5,3h2C11.776,3,12,2.776,12,2.5S11.776,2,11.5,2
		h-0.793l1.146-1.146c0.143-0.143,0.186-0.358,0.108-0.545C11.885,0.122,11.702,0,11.5,0h-2C9.224,0,9,0.224,9,0.5S9.224,1,9.5,1z
		 M23.5,6h-2.793l3.146-3.146c0.143-0.143,0.186-0.358,0.107-0.545C23.885,2.122,23.702,2,23.5,2h-4C19.225,2,19,2.224,19,2.5
		S19.225,3,19.5,3h2.793l-3.146,3.146c-0.143,0.143-0.186,0.358-0.107,0.545C19.115,6.878,19.298,7,19.5,7h4
		C23.775,7,24,6.776,24,6.5S23.775,6,23.5,6z"/>
</g>
</svg>
