<?xml version="1.0" encoding="utf-8"?>
<!-- Generator: Adobe Illustrator 15.0.0, SVG Export Plug-In . SVG Version: 6.00 Build 0)  -->
<!DOCTYPE svg PUBLIC "-//W3C//DTD SVG 1.1//EN" "http://www.w3.org/Graphics/SVG/1.1/DTD/svg11.dtd">
<svg version="1.1" id="Layer_1" xmlns="http://www.w3.org/2000/svg" xmlns:xlink="http://www.w3.org/1999/xlink" x="0px" y="0px"
	 width="64px" height="64px" viewBox="0 0 64 64" enable-background="new 0 0 64 64" xml:space="preserve">
<title>redo_arrow</title>
<path fill="#A9A9A9" d="M58.29,44.29L52,50.59V34c0-13.255-10.745-24-24-24S4,20.745,4,34v19c0,0.553,0.448,1,1,1s1-0.447,1-1V34
	c0-12.15,9.85-22,22-22s22,9.85,22,22v16.59l-6.29-6.29c-0.419-0.358-1.051-0.31-1.41,0.109c-0.32,0.374-0.32,0.927,0,1.301l8,8
	c0.095,0.095,0.206,0.169,0.33,0.22c0.118,0.045,0.243,0.068,0.37,0.07c0.268-0.001,0.523-0.109,0.71-0.3l8-8
	c0.388-0.39,0.388-1.021,0-1.41c-0.389-0.392-1.022-0.395-1.414-0.006C58.294,44.286,58.292,44.288,58.29,44.29z"/>
</svg>
