<?xml version="1.0" encoding="utf-8"?>
<!-- Generator: Adobe Illustrator 15.0.0, SVG Export Plug-In . SVG Version: 6.00 Build 0)  -->
<!DOCTYPE svg PUBLIC "-//W3C//DTD SVG 1.1//EN" "http://www.w3.org/Graphics/SVG/1.1/DTD/svg11.dtd">
<svg version="1.1" id="Layer_1" xmlns="http://www.w3.org/2000/svg" xmlns:xlink="http://www.w3.org/1999/xlink" x="0px" y="0px"
	 width="64px" height="64px" viewBox="0 0 64 64" enable-background="new 0 0 64 64" xml:space="preserve">
<title>users_two-2</title>
<path id="users_two_2" fill="#A9A9A9" d="M30.22,34.68c5.348-2.88,7.35-9.551,4.47-14.9c-2.88-5.349-9.551-7.351-14.9-4.47
	c-5.349,2.88-7.351,9.551-4.47,14.9c1.021,1.895,2.575,3.449,4.47,4.47C10.507,37.058,4.011,45.418,4,55c0,0.553,0.448,1,1,1
	s1-0.447,1-1c0-10.493,8.506-19,19-19c10.494,0,19,8.507,19,19c0,0.553,0.447,1,1,1s1-0.447,1-1
	C45.99,45.42,39.499,37.061,30.22,34.68z M16,25c0-4.971,4.029-9,9-9s9,4.029,9,9s-4.029,9-9,9S16,29.971,16,25z M46.92,26.69
	c4.787-2.754,6.436-8.868,3.681-13.655s-8.868-6.435-13.655-3.681c-1.748,1.006-3.151,2.518-4.025,4.335
	c-0.225,0.504,0,1.096,0.505,1.321c0.491,0.219,1.067,0.011,1.306-0.471c1.885-3.996,6.651-5.708,10.647-3.823
	c3.996,1.884,5.708,6.651,3.823,10.648c-1.764,3.74-6.086,5.519-9.971,4.105c-0.52-0.188-1.092,0.081-1.28,0.6
	c-0.065,0.202-0.065,0.418,0,0.62c-0.146,0.218-0.198,0.483-0.15,0.74c0.101,0.543,0.623,0.901,1.166,0.801
	c0.001,0,0.003,0,0.005-0.001c8.674-1.687,17.072,3.978,18.76,12.652c0.139,0.719,0.229,1.446,0.27,2.179
	c0.031,0.528,0.471,0.94,1,0.939h0.061c0.551-0.032,0.972-0.505,0.939-1.057c0-0.001,0-0.002,0-0.004
	C59.543,35.291,54.295,28.771,46.92,26.69z"/>
</svg>
