<?xml version="1.0" encoding="utf-8"?>
<!-- Generator: Adobe Illustrator 15.0.0, SVG Export Plug-In . SVG Version: 6.00 Build 0)  -->
<!DOCTYPE svg PUBLIC "-//W3C//DTD SVG 1.1//EN" "http://www.w3.org/Graphics/SVG/1.1/DTD/svg11.dtd">
<svg version="1.1" id="Layer_1" xmlns="http://www.w3.org/2000/svg" xmlns:xlink="http://www.w3.org/1999/xlink" x="0px" y="0px"
	 width="64px" height="64px" viewBox="0 0 64 64" enable-background="new 0 0 64 64" xml:space="preserve">
<title>heartc</title>
<path d="M30.29,55.7c0.389,0.392,1.022,0.395,1.414,0.006c0.002-0.002,0.004-0.004,0.006-0.006L53.609,33.6
	c5.765-5.95,5.613-15.446-0.337-21.21c-5.806-5.624-15.021-5.636-20.842-0.03L31,13.65l-1.39-1.26
	c-5.857-5.86-15.355-5.862-21.215-0.005C2.535,18.242,2.533,27.74,8.39,33.6L30.29,55.7z M9.81,13.81
	c5.067-5.086,13.298-5.103,18.385-0.035c0.012,0.012,0.023,0.023,0.035,0.035l2.1,1.9c0.38,0.344,0.959,0.344,1.34,0l2.141-1.93
	c5.076-5.074,13.303-5.074,18.379,0c5.078,5.075,5.081,13.306,0.006,18.385c-0.002,0.001-0.004,0.003-0.006,0.005L31,53.58
	L9.81,32.19C4.736,27.114,4.736,18.886,9.81,13.81z"/>
</svg>
