<?xml version="1.0" encoding="utf-8"?>
<!-- Generator: Adobe Illustrator 15.0.0, SVG Export Plug-In . SVG Version: 6.00 Build 0)  -->
<!DOCTYPE svg PUBLIC "-//W3C//DTD SVG 1.1//EN" "http://www.w3.org/Graphics/SVG/1.1/DTD/svg11.dtd">
<svg version="1.1" id="Layer_1" xmlns="http://www.w3.org/2000/svg" xmlns:xlink="http://www.w3.org/1999/xlink" x="0px" y="0px"
	 width="64px" height="64px" viewBox="0 0 64 64" enable-background="new 0 0 64 64" xml:space="preserve">
<title>calendar_heart</title>
<path fill="#FFFFFF" d="M32,50H8c-1.104,0-2-0.896-2-2V22h40v9c0,0.552,0.447,1,1,1s1-0.448,1-1V12c0-2.209-1.791-4-4-4h-6V5
	c0-0.552-0.447-1-1-1s-1,0.448-1,1v3H16V5c0-0.552-0.448-1-1-1s-1,0.448-1,1v3H8c-2.209,0-4,1.791-4,4v36c0,2.209,1.791,4,4,4h24
	c0.553,0,1-0.447,1-1S32.553,50,32,50z M8,10h6v3c0,0.552,0.448,1,1,1s1-0.448,1-1v-3h20v3c0,0.552,0.447,1,1,1s1-0.448,1-1v-3h6
	c1.104,0,2,0.896,2,2v8H6v-8C6,10.896,6.896,10,8,10z"/>
<path fill="#FFFFFF" d="M27,44c0.552,0,1-0.447,1-1V29c-0.002-0.404-0.247-0.767-0.62-0.92c-0.374-0.154-0.805-0.067-1.09,0.22l-2,2
	c-0.419,0.359-0.468,0.991-0.109,1.41c0.359,0.419,0.99,0.468,1.41,0.109c0.039-0.034,0.076-0.07,0.109-0.109l0.3-0.3V43
	C26,43.553,26.448,44,27,44L27,44z"/>
<path fill="#FFFFFF" d="M52,34c-2.107-0.012-4.131,0.82-5.62,2.311L46,36.65l-0.34-0.312c-3.115-3.134-8.182-3.149-11.314-0.034
	c-3.135,3.114-3.15,8.182-0.035,11.314l0,0l11,12c0.371,0.408,1.004,0.438,1.412,0.066c0.023-0.021,0.047-0.043,0.067-0.066
	l10.92-12c3.104-3.145,3.071-8.21-0.073-11.313C56.135,34.824,54.109,33.996,52,34z M56.21,46.28L46,57.51L35.76,46.24
	c-2.342-2.346-2.339-6.145,0.006-8.485C36.889,36.633,38.412,36.002,40,36c1.609-0.002,3.15,0.645,4.279,1.79l1,1
	c0.381,0.344,0.959,0.344,1.341,0l1.09-1c2.317-2.369,6.115-2.412,8.485-0.095C57.354,38.827,58.004,40.38,58,42
	C58.002,43.609,57.355,45.15,56.21,46.28z"/>
</svg>
