<?xml version="1.0" encoding="utf-8"?>
<!-- Generator: Adobe Illustrator 15.0.0, SVG Export Plug-In . SVG Version: 6.00 Build 0)  -->
<!DOCTYPE svg PUBLIC "-//W3C//DTD SVG 1.1//EN" "http://www.w3.org/Graphics/SVG/1.1/DTD/svg11.dtd">
<svg version="1.1" id="Layer_1" xmlns="http://www.w3.org/2000/svg" xmlns:xlink="http://www.w3.org/1999/xlink" x="0px" y="0px"
	 width="64px" height="64px" viewBox="0 0 64 64" enable-background="new 0 0 64 64" xml:space="preserve">
<path id="stop_x5F_watch" fill="#A9A9A9" d="M31,58C18.318,58,8,47.684,8,35c0-12.683,10.318-23,23-23c12.682,0,23,10.317,23,23
	C54,47.684,43.682,58,31,58z M31,14c-11.58,0-21,9.421-21,21s9.42,21,21,21s21-9.421,21-21S42.58,14,31,14z M31,38
	c-1.654,0-3-1.346-3-3s1.346-3,3-3c1.654,0,3,1.346,3,3S32.654,38,31,38z M31,34c-0.551,0-1,0.448-1,1s0.449,1,1,1s1-0.448,1-1
	S31.551,34,31,34z M30,18h2v23h-2V18z M29,7h4v7h-4V7z M49.168,11.587l4.242,4.243l-2.121,2.121l-4.242-4.243L49.168,11.587z
	 M49.171,14.414l1.415,1.414l-2.122,2.122l-1.414-1.414L49.171,14.414z"/>
</svg>
