<?xml version="1.0" encoding="utf-8"?>
<!-- Generator: Adobe Illustrator 15.0.0, SVG Export Plug-In . SVG Version: 6.00 Build 0)  -->
<!DOCTYPE svg PUBLIC "-//W3C//DTD SVG 1.1//EN" "http://www.w3.org/Graphics/SVG/1.1/DTD/svg11.dtd">
<svg version="1.1" id="Layer_1" xmlns="http://www.w3.org/2000/svg" xmlns:xlink="http://www.w3.org/1999/xlink" x="0px" y="0px"
	 width="64px" height="64px" viewBox="0 0 64 64" enable-background="new 0 0 64 64" xml:space="preserve">
<title>calendar_time</title>
<path fill="#A9A9A9" d="M4,48c0,2.209,1.791,4,4,4h23c0.552,0,1-0.447,1-1s-0.448-1-1-1H8c-1.104,0-2-0.896-2-2V22h40v9
	c0,0.552,0.447,1,1,1s1-0.448,1-1V12c0-2.209-1.791-4-4-4h-6V5c0-0.552-0.447-1-1-1s-1,0.448-1,1v3H16V5c0-0.552-0.448-1-1-1
	s-1,0.448-1,1v3H8c-2.209,0-4,1.791-4,4V48z M8,10h6v3c0,0.552,0.448,1,1,1s1-0.448,1-1v-3h20v3c0,0.552,0.447,1,1,1s1-0.448,1-1v-3
	h6c1.104,0,2,0.896,2,2v8H6v-8C6,10.896,6.896,10,8,10z"/>
<path fill="#A9A9A9" d="M27,44c0.552,0,1-0.447,1-1V29c-0.002-0.404-0.247-0.767-0.62-0.92c-0.374-0.154-0.805-0.067-1.09,0.22l-2,2
	c-0.419,0.359-0.468,0.991-0.109,1.41c0.359,0.419,0.99,0.468,1.41,0.109c0.039-0.034,0.076-0.07,0.109-0.109l0.3-0.3V43
	C26,43.553,26.448,44,27,44L27,44z"/>
<path fill="#A9A9A9" d="M47,34c-7.18,0-13,5.82-13,13s5.82,13,13,13s13-5.82,13-13S54.18,34,47,34z M47,58c-6.075,0-11-4.925-11-11
	s4.925-11,11-11s11,4.925,11,11S53.075,58,47,58z"/>
<path fill="#A9A9A9" d="M53,46h-5v-7c0-0.553-0.447-1-1-1s-1,0.447-1,1v8c0,0.553,0.447,1,1,1h6c0.553,0,1-0.447,1-1
	S53.553,46,53,46z"/>
</svg>
