<?xml version="1.0" encoding="utf-8"?>
<!-- Generator: Adobe Illustrator 15.0.0, SVG Export Plug-In . SVG Version: 6.00 Build 0)  -->
<!DOCTYPE svg PUBLIC "-//W3C//DTD SVG 1.1//EN" "http://www.w3.org/Graphics/SVG/1.1/DTD/svg11.dtd">
<svg version="1.1" id="Layer_1" xmlns="http://www.w3.org/2000/svg" xmlns:xlink="http://www.w3.org/1999/xlink" x="0px" y="0px"
	 width="64px" height="64px" viewBox="0 0 64 64" enable-background="new 0 0 64 64" xml:space="preserve">
<title>printer</title>
<path fill="#A9A9A9" d="M54,22h-8V12c0.002-0.266-0.104-0.521-0.29-0.71l-7-7C38.521,4.103,38.266,3.999,38,4H17
	c-0.552,0-1,0.448-1,1v17H8c-2.209,0-4,1.791-4,4v18c0,2.209,1.791,4,4,4h8v11c0,0.553,0.448,1,1,1h28c0.553,0,1-0.447,1-1V48h8
	c2.209,0,4-1.791,4-4V26C58,23.791,56.209,22,54,22z M43.59,12H38V6.41L43.59,12z M18,6h18v7c0,0.552,0.447,1,1,1h7v12H18V6z M44,58
	H18V38h26V58z M56,44c0,1.104-0.896,2-2,2h-8v-9c0-0.553-0.447-1-1-1H17c-0.552,0-1,0.447-1,1v9H8c-1.104,0-2-0.896-2-2V26
	c0-1.104,0.896-2,2-2h8v3c0,0.552,0.448,1,1,1h28c0.553,0,1-0.448,1-1v-3h8c1.104,0,2,0.896,2,2V44z"/>
</svg>
