<?xml version="1.0" encoding="utf-8"?>
<!-- Generator: Adobe Illustrator 15.0.0, SVG Export Plug-In . SVG Version: 6.00 Build 0)  -->
<!DOCTYPE svg PUBLIC "-//W3C//DTD SVG 1.1//EN" "http://www.w3.org/Graphics/SVG/1.1/DTD/svg11.dtd">
<svg version="1.1" id="图层_1" xmlns="http://www.w3.org/2000/svg" xmlns:xlink="http://www.w3.org/1999/xlink" x="0px" y="0px"
	 width="24px" height="24px" viewBox="0 0 24 24" enable-background="new 0 0 24 24" xml:space="preserve">
<path d="M23.973,8.836C23.902,8.635,23.713,8.5,23.5,8.5h-8.146l-2.882-8.166C12.4,0.134,12.211,0,12,0
	c-0.213,0-0.401,0.134-0.472,0.334L8.646,8.5H0.5c-0.213,0-0.403,0.135-0.473,0.336c-0.071,0.201-0.004,0.426,0.164,0.557
	l6.723,5.283l-2.889,8.666c-0.069,0.207,0.004,0.436,0.18,0.563c0.176,0.128,0.414,0.128,0.59-0.001L12,18.62l7.204,5.282
	C19.292,23.969,19.396,24,19.5,24s0.206-0.031,0.294-0.096c0.177-0.129,0.249-0.355,0.181-0.563l-2.89-8.666l6.724-5.283
	C23.977,9.262,24.042,9.037,23.973,8.836z"/>
</svg>
