<?xml version="1.0" encoding="utf-8"?>
<!-- Generator: Adobe Illustrator 15.0.0, SVG Export Plug-In . SVG Version: 6.00 Build 0)  -->
<!DOCTYPE svg PUBLIC "-//W3C//DTD SVG 1.1//EN" "http://www.w3.org/Graphics/SVG/1.1/DTD/svg11.dtd">
<svg version="1.1" id="Layer_1" xmlns="http://www.w3.org/2000/svg" xmlns:xlink="http://www.w3.org/1999/xlink" x="0px" y="0px"
	 width="64px" height="64px" viewBox="0 0 64 64" enable-background="new 0 0 64 64" xml:space="preserve">
<title>1f2ac781-c3c9-4284-ac7d-21b5067b2b1123232323213</title>
<path d="M52,40.4c-0.225-0.001-0.441-0.091-0.6-0.25L44.88,33.63l-6.521,6.521c-0.311,0.351-0.849,0.383-1.199,0.07
	c-0.352-0.313-0.383-0.85-0.07-1.2c0.021-0.024,0.045-0.048,0.07-0.07l6.52-6.52l-6.539-6.53c-0.352-0.312-0.383-0.849-0.071-1.2
	c0.312-0.351,0.849-0.383,1.2-0.071c0.025,0.022,0.049,0.045,0.07,0.071l6.52,6.52l6.521-6.52c0.351-0.312,0.888-0.28,1.2,0.07
	c0.286,0.322,0.286,0.808,0,1.129l-6.52,6.52l6.52,6.52c0.337,0.327,0.346,0.865,0.018,1.203C52.441,40.305,52.226,40.396,52,40.4z"
	/>
<polygon points="31,47.45 31,17.36 21.59,26.05 11.27,26.05 11.27,38.74 21.59,38.74 "/>
</svg>
