<?xml version="1.0" encoding="utf-8"?>
<!-- Generator: Adobe Illustrator 15.0.0, SVG Export Plug-In . SVG Version: 6.00 Build 0)  -->
<!DOCTYPE svg PUBLIC "-//W3C//DTD SVG 1.1//EN" "http://www.w3.org/Graphics/SVG/1.1/DTD/svg11.dtd">
<svg version="1.1" id="Layer_1" xmlns="http://www.w3.org/2000/svg" xmlns:xlink="http://www.w3.org/1999/xlink" x="0px" y="0px"
	 width="64px" height="64px" viewBox="0 0 64 64" enable-background="new 0 0 64 64" xml:space="preserve">
<title>infinity-01</title>
<path fill="#FFFFFF" d="M49,18c-4.37,0-7,2.07-9.1,4.31v0.06l-17.2,18l0,0C20.5,42.54,18.39,44,15,44C8.63,44,4,39,4,32
	s4.63-12,11-12c3.38,0,5.49,1.45,7.6,3.63l0,0l5.62,6c0.403,0.377,1.036,0.356,1.413-0.047c0.341-0.365,0.361-0.925,0.047-1.313
	l-5.57-5.94l-0.06-0.07C21.82,19.561,18.501,17.998,15,18C7.59,18,2,24,2,32s5.59,14,13,14c4.37,0,7-2.07,9.1-4.311l0,0l17.2-18l0,0
	C43.5,21.45,45.609,20,49,20c6.37,0,11,5,11,12s-4.63,12-11,12c-3.391,0-5.5-1.45-7.609-3.641l0,0l-5.621-6
	c-0.326-0.445-0.951-0.541-1.396-0.215s-0.542,0.953-0.215,1.397c0.02,0.026,0.04,0.053,0.063,0.077l0.09,0.1l5.569,5.94l0.06,0.069
	C42,43.93,44.63,46,49,46c7.41,0,13-6,13-14S56.41,18,49,18z"/>
</svg>
