<?xml version="1.0" encoding="utf-8"?>
<!-- Generator: Adobe Illustrator 15.0.0, SVG Export Plug-In . SVG Version: 6.00 Build 0)  -->
<!DOCTYPE svg PUBLIC "-//W3C//DTD SVG 1.1//EN" "http://www.w3.org/Graphics/SVG/1.1/DTD/svg11.dtd">
<svg version="1.1" id="Layer_1" xmlns="http://www.w3.org/2000/svg" xmlns:xlink="http://www.w3.org/1999/xlink" x="0px" y="0px"
	 width="64px" height="64px" viewBox="0 0 64 64" enable-background="new 0 0 64 64" xml:space="preserve">
<title>tablet</title>
<path fill="#FFFFFF" d="M18,60h30c2.209,0,4-1.791,4-4V8c0-2.209-1.791-4-4-4H18c-2.209,0-4,1.791-4,4v48C14,58.209,15.791,60,18,60
	z M16,8c0-1.104,0.896-2,2-2h30c1.104,0,2,0.896,2,2v48c0,1.104-0.896,2-2,2H18c-1.104,0-2-0.896-2-2V8z"/>
<path fill="#FFFFFF" d="M33,10c0.553,0.003,1.002-0.442,1.006-0.994C34.008,8.737,33.9,8.479,33.71,8.29
	c-0.392-0.392-1.028-0.392-1.42,0c-0.392,0.392-0.392,1.028,0,1.42C32.481,9.893,32.734,9.996,33,10z"/>
<path fill="#FFFFFF" d="M32.29,54.29c-0.392,0.392-0.392,1.028,0,1.42c0.392,0.392,1.028,0.392,1.42,0
	c0.187-0.188,0.292-0.444,0.29-0.71c0.004-0.553-0.441-1.002-0.994-1.006C32.736,53.992,32.479,54.1,32.29,54.29z"/>
<path fill="#FFFFFF" d="M19,52h28c0.553,0,1-0.447,1-1V13c0-0.552-0.447-1-1-1H19c-0.552,0-1,0.448-1,1v38
	C18,51.553,18.448,52,19,52z M20,14h26v36H20V14z"/>
</svg>
