<?xml version="1.0" encoding="utf-8"?>
<!-- Generator: Adobe Illustrator 15.0.0, SVG Export Plug-In . SVG Version: 6.00 Build 0)  -->
<!DOCTYPE svg PUBLIC "-//W3C//DTD SVG 1.1//EN" "http://www.w3.org/Graphics/SVG/1.1/DTD/svg11.dtd">
<svg version="1.1" id="图层_1" xmlns="http://www.w3.org/2000/svg" xmlns:xlink="http://www.w3.org/1999/xlink" x="0px" y="0px"
	 width="24px" height="24px" viewBox="0 0 24 24" enable-background="new 0 0 24 24" xml:space="preserve">
<path fill="#FFFFFF" d="M23.5,0h-23C0.307,0,0.13,0.112,0.048,0.287C-0.035,0.462-0.009,0.67,0.114,0.818L10,12.77V23.5
	c0,0.202,0.122,0.385,0.309,0.462L10.5,24c0.13,0,0.258-0.051,0.354-0.146l3-3C13.947,20.76,14,20.633,14,20.5v-7.73l9.887-11.951
	c0.122-0.148,0.148-0.356,0.065-0.531C23.87,0.112,23.693,0,23.5,0z M13.113,12.271C13.041,12.36,13,12.474,13,12.59v7.703l-2,2
	V12.59c0-0.116-0.041-0.229-0.114-0.318L1.562,1h20.875L13.113,12.271z"/>
</svg>
