<?xml version="1.0" encoding="utf-8"?>
<!-- Generator: Adobe Illustrator 15.0.0, SVG Export Plug-In . SVG Version: 6.00 Build 0)  -->
<!DOCTYPE svg PUBLIC "-//W3C//DTD SVG 1.1//EN" "http://www.w3.org/Graphics/SVG/1.1/DTD/svg11.dtd">
<svg version="1.1" id="Layer_1" xmlns="http://www.w3.org/2000/svg" xmlns:xlink="http://www.w3.org/1999/xlink" x="0px" y="0px"
	 width="64px" height="64px" viewBox="0 0 64 64" enable-background="new 0 0 64 64" xml:space="preserve">
<title>folder_upload</title>
<path id="folder_upload" d="M43.71,38.29l-8-8c-0.095-0.095-0.206-0.169-0.33-0.22c-0.243-0.1-0.517-0.1-0.76,0
	c-0.124,0.051-0.235,0.125-0.33,0.22l-8,8c-0.419,0.359-0.468,0.99-0.109,1.41c0.359,0.419,0.991,0.468,1.41,0.108
	c0.039-0.033,0.076-0.069,0.109-0.108l6.3-6.29V61c0,0.553,0.447,1,1,1s1-0.447,1-1V33.41l6.29,6.29
	c0.39,0.392,1.022,0.394,1.415,0.005C44.098,39.315,44.1,38.682,43.71,38.29L43.71,38.29z M59,14h-3v-2c0-2.209-1.791-4-4-4H28
	c-1.292,0.163-2.555-0.469-3.2-1.6C23.779,4.76,21.924,3.833,20,4H8C5.791,4,4,5.791,4,8v38c0,2.209,1.791,4,4,4h21
	c0.552,0,1-0.447,1-1s-0.448-1-1-1H10V16h48v30c0,1.104-0.896,2-2,2H41c-0.553,0-1,0.447-1,1s0.447,1,1,1h15c2.209,0,4-1.791,4-4V15
	C60,14.448,59.553,14,59,14z M9,14c-0.552,0-1,0.448-1,1v33c-1.104,0-2-0.896-2-2V8c0-1.104,0.896-2,2-2h12
	c1.292-0.163,2.555,0.469,3.2,1.6c1.021,1.64,2.875,2.567,4.8,2.4h24c1.104,0,2,0.896,2,2v2H9z"/>
</svg>
