<?xml version="1.0" encoding="utf-8"?>
<!-- Generator: Adobe Illustrator 15.0.0, SVG Export Plug-In . SVG Version: 6.00 Build 0)  -->
<!DOCTYPE svg PUBLIC "-//W3C//DTD SVG 1.1//EN" "http://www.w3.org/Graphics/SVG/1.1/DTD/svg11.dtd">
<svg version="1.1" id="Layer_1" xmlns="http://www.w3.org/2000/svg" xmlns:xlink="http://www.w3.org/1999/xlink" x="0px" y="0px"
	 width="64px" height="64px" viewBox="0 0 64 64" enable-background="new 0 0 64 64" xml:space="preserve">
<title>loop</title>
<path fill="#FFFFFF" d="M49,18c-4.37,0-7,2.07-9.1,4.31v0.06l-17.2,18l0,0C20.5,42.54,18.39,44,15,44C8.63,44,4,39,4,32
	s4.63-12,11-12c3.38,0,5.49,1.45,7.6,3.63l0,0l4,4.32H21c-0.552,0-1,0.447-1,1c0,0.552,0.448,1,1,1h8
	c0.043,0.005,0.087,0.005,0.13,0c0.08,0.009,0.161,0.009,0.24,0c0.069-0.037,0.135-0.077,0.2-0.12l0.12-0.07l0,0
	c0.056-0.065,0.106-0.136,0.15-0.21c0.027-0.034,0.05-0.071,0.07-0.11c0.005-0.046,0.005-0.093,0-0.14
	c0.045-0.095,0.076-0.196,0.09-0.3v-8c0-0.552-0.448-1-1-1s-1,0.448-1,1v5.47l-3.84-4.1L24.1,22.3C22,20.07,19.36,18,15,18
	C7.59,18,2,24,2,32s5.59,14,13,14c4.37,0,7-2.07,9.1-4.311l0,0l17.2-18l0,0C43.5,21.45,45.609,20,49,20c6.37,0,11,5,11,12
	s-4.63,12-11,12c-3.391,0-5.5-1.45-7.609-3.641l0,0l-5.621-6c-0.348-0.428-0.977-0.494-1.406-0.146
	c-0.428,0.348-0.493,0.979-0.146,1.406c0.028,0.036,0.06,0.068,0.095,0.101l5.568,5.94l0.061,0.07C42,43.93,44.63,46,49,46
	c7.41,0,13-6,13-14S56.41,18,49,18z"/>
</svg>
