<?xml version="1.0" encoding="utf-8"?>
<!-- Generator: Adobe Illustrator 15.0.0, SVG Export Plug-In . SVG Version: 6.00 Build 0)  -->
<!DOCTYPE svg PUBLIC "-//W3C//DTD SVG 1.1//EN" "http://www.w3.org/Graphics/SVG/1.1/DTD/svg11.dtd">
<svg version="1.1" id="Layer_1" xmlns="http://www.w3.org/2000/svg" xmlns:xlink="http://www.w3.org/1999/xlink" x="0px" y="0px"
	 width="64px" height="64px" viewBox="0 0 64 64" enable-background="new 0 0 64 64" xml:space="preserve">
<title>padlock_closed_2</title>
<path d="M14,58h34c2.209,0,4-1.791,4-4V23c0-0.552-0.447-1-1-1h-5v-5c0-8.284-6.716-15-15-15S16,8.716,16,17v5h-5
	c-0.552,0-1,0.448-1,1v31C10,56.209,11.791,58,14,58z M18,17c0-7.18,5.82-13,13-13s13,5.82,13,13v5H18V17z M12,24h38v30
	c0,1.104-0.896,2-2,2H14c-1.104,0-2-0.896-2-2V24z"/>
<path d="M30,39.82V47c0,0.553,0.448,1,1,1s1-0.447,1-1v-7.18c1.563-0.553,2.381-2.267,1.828-3.828
	c-0.552-1.563-2.266-2.381-3.828-1.829s-2.381,2.267-1.829,3.829C28.474,38.846,29.146,39.518,30,39.82z M31,36c0.552,0,1,0.447,1,1
	s-0.448,1-1,1s-1-0.447-1-1S30.448,36,31,36z"/>
</svg>
