<?xml version="1.0" encoding="utf-8"?>
<!-- Generator: Adobe Illustrator 15.0.0, SVG Export Plug-In . SVG Version: 6.00 Build 0)  -->
<!DOCTYPE svg PUBLIC "-//W3C//DTD SVG 1.1//EN" "http://www.w3.org/Graphics/SVG/1.1/DTD/svg11.dtd">
<svg version="1.1" id="Layer_1" xmlns="http://www.w3.org/2000/svg" xmlns:xlink="http://www.w3.org/1999/xlink" x="0px" y="0px"
	 width="64px" height="64px" viewBox="0 0 64 64" enable-background="new 0 0 64 64" xml:space="preserve">
<title>user_edit_2</title>
<path id="user_edit_2" fill="#FFFFFF" d="M57.279,34.78L55.21,32.7c-0.978-0.914-2.493-0.914-3.47,0l-1.79,1.68l0,0l0,0L34.7,49.68
	l0,0l-0.36,0.37c-0.078,0.075-0.143,0.163-0.189,0.261l-4,8.239c-0.245,0.495-0.042,1.095,0.452,1.341
	c0.28,0.139,0.608,0.139,0.888,0l8.188-4.061c0.098-0.049,0.186-0.113,0.26-0.189l0.371-0.371l0,0L55.471,40l0,0l1.809-1.71
	C58.162,37.336,58.094,35.799,57.279,34.78z M35.561,52L38,54.41l-4.811,2.38L35.561,52z M39.561,53.18l-2.75-2.75L50.63,36.5
	l2.74,2.76L39.561,53.18z M55.891,36.88l-1.08,1l-2.74-2.76l1.061-1c0.178-0.183,0.469-0.187,0.65-0.011
	c0.003,0.004,0.007,0.008,0.01,0.011l2.08,2.08c0.18,0.177,0.188,0.463,0.021,0.649v0.03H55.891z M44.74,34.359
	c-3.186-3.869-7.553-6.588-12.43-7.739c5.319-2.936,7.25-9.627,4.315-14.946c-2.936-5.319-9.626-7.251-14.945-4.316
	c-5.319,2.936-7.251,9.627-4.316,14.946c1.003,1.817,2.499,3.313,4.316,4.316C11.314,29.084,3.998,38.346,4,49c0,0.553,0.448,1,1,1
	s1-0.447,1-1c0.001-11.598,9.405-20.999,21.002-20.998c6.27,0.001,12.208,2.802,16.198,7.639c0.353,0.424,0.983,0.481,1.409,0.129
	C45.035,35.416,45.094,34.785,44.74,34.359L44.74,34.359z M18,17c0-4.971,4.029-9,9-9s9,4.029,9,9s-4.029,9-9,9S18,21.971,18,17z"/>
</svg>
