<?xml version="1.0" encoding="utf-8"?>
<!-- Generator: Adobe Illustrator 15.0.0, SVG Export Plug-In . SVG Version: 6.00 Build 0)  -->
<!DOCTYPE svg PUBLIC "-//W3C//DTD SVG 1.1//EN" "http://www.w3.org/Graphics/SVG/1.1/DTD/svg11.dtd">
<svg version="1.1" id="Layer_1" xmlns="http://www.w3.org/2000/svg" xmlns:xlink="http://www.w3.org/1999/xlink" x="0px" y="0px"
	 width="64px" height="64px" viewBox="0 0 64 64" enable-background="new 0 0 64 64" xml:space="preserve">
<title>syncing</title>
<path fill="#FFFFFF" d="M10.29,32.71c0.094,0.095,0.207,0.169,0.33,0.22c0.122,0.045,0.25,0.067,0.38,0.07
	c0.267-0.001,0.523-0.109,0.71-0.3l6-6c0.359-0.42,0.311-1.051-0.109-1.41c-0.375-0.321-0.927-0.321-1.301,0l-4.1,4.1
	c1.433-10.953,11.474-18.669,22.426-17.236c7.829,1.024,14.321,6.559,16.574,14.126c0.114,0.54,0.644,0.886,1.185,0.771
	c0.541-0.114,0.887-0.645,0.772-1.185c-0.013-0.053-0.027-0.106-0.048-0.157C49.688,14.051,37.464,7.374,25.805,10.795
	C17.211,13.317,11.003,20.798,10.11,29.71l-4.4-4.41c-0.359-0.419-0.99-0.468-1.41-0.109c-0.419,0.359-0.468,0.991-0.109,1.41
	c0.034,0.039,0.07,0.076,0.109,0.109L10.29,32.71z"/>
<path fill="#FFFFFF" d="M53.71,31.29c-0.095-0.095-0.206-0.169-0.33-0.22c-0.374-0.154-0.805-0.067-1.09,0.22l-6,6
	c-0.358,0.419-0.312,1.051,0.108,1.41c0.375,0.319,0.928,0.319,1.302,0l4.1-4.101c-1.417,10.955-11.446,18.686-22.401,17.268
	C21.563,50.854,15.059,45.32,12.8,37.75c-0.16-0.53-0.72-0.83-1.25-0.67c-0.53,0.16-0.83,0.72-0.67,1.25
	c3.421,11.658,15.646,18.336,27.306,14.914c8.594-2.521,14.801-10.002,15.694-18.914l4.41,4.41c0.192,0.176,0.448,0.27,0.71,0.26
	c0.266,0.002,0.521-0.104,0.71-0.29c0.388-0.39,0.388-1.021,0-1.41L53.71,31.29z"/>
</svg>
