<?xml version="1.0" encoding="utf-8"?>
<!-- Generator: Adobe Illustrator 15.0.0, SVG Export Plug-In . SVG Version: 6.00 Build 0)  -->
<!DOCTYPE svg PUBLIC "-//W3C//DTD SVG 1.1//EN" "http://www.w3.org/Graphics/SVG/1.1/DTD/svg11.dtd">
<svg version="1.1" id="图层_1" xmlns="http://www.w3.org/2000/svg" xmlns:xlink="http://www.w3.org/1999/xlink" x="0px" y="0px"
	 width="24px" height="24px" viewBox="0 0 24 24" enable-background="new 0 0 24 24" xml:space="preserve">
<path d="M12,0C5.383,0,0,5.383,0,12c0,6.616,5.383,12,12,12c6.616,0,12-5.384,12-12C24,5.383,18.616,0,12,0z M17.443,7.23l-6.5,12.5
	C10.855,19.898,10.683,20,10.5,20c-0.271,0-0.5-0.22-0.5-0.5V14H4.5c-0.23,0-0.432-0.158-0.486-0.381
	c-0.055-0.225,0.051-0.457,0.256-0.563l12.5-6.5c0.192-0.1,0.43-0.064,0.584,0.09C17.508,6.801,17.544,7.037,17.443,7.23z"/>
</svg>
