<?xml version="1.0" encoding="utf-8"?>
<!-- Generator: Adobe Illustrator 15.0.0, SVG Export Plug-In . SVG Version: 6.00 Build 0)  -->
<!DOCTYPE svg PUBLIC "-//W3C//DTD SVG 1.1//EN" "http://www.w3.org/Graphics/SVG/1.1/DTD/svg11.dtd">
<svg version="1.1" id="Layer_1" xmlns="http://www.w3.org/2000/svg" xmlns:xlink="http://www.w3.org/1999/xlink" x="0px" y="0px"
	 width="64px" height="64px" viewBox="0 0 64 64" enable-background="new 0 0 64 64" xml:space="preserve">
<title>layers_2</title>
<path id="layers_2" fill="#A9A9A9" d="M32,38c-0.149-0.001-0.296-0.035-0.43-0.1l-29-14c-0.497-0.241-0.705-0.839-0.464-1.336
	c0.098-0.203,0.262-0.366,0.464-0.464l29-14c0.275-0.133,0.595-0.133,0.87,0l29,14c0.498,0.241,0.705,0.839,0.465,1.336
	c-0.098,0.203-0.262,0.366-0.465,0.464l-29,14C32.303,37.967,32.152,38,32,38z M5.3,23L32,35.891L58.7,23L32,10.11L5.3,23z M32,48
	c-0.149-0.001-0.296-0.035-0.43-0.1l-29-14c-0.497-0.241-0.705-0.84-0.464-1.336c0.098-0.203,0.262-0.366,0.464-0.464l6.21-3
	c0.491-0.254,1.094-0.063,1.348,0.428s0.063,1.094-0.428,1.348c-0.017,0.008-0.033,0.017-0.05,0.024L5.3,33L32,45.891L58.7,33
	l-4.351-2.1c-0.49-0.254-0.682-0.857-0.428-1.348c0.244-0.471,0.814-0.67,1.299-0.452l6.209,3c0.498,0.241,0.705,0.839,0.465,1.335
	c-0.099,0.203-0.262,0.366-0.465,0.465l-29,14C32.296,47.965,32.149,47.999,32,48z M32,58c-0.149-0.001-0.296-0.035-0.43-0.1l-29-14
	c-0.497-0.241-0.705-0.84-0.464-1.336c0.098-0.203,0.262-0.366,0.464-0.465l6.21-3c0.504-0.227,1.096-0.001,1.322,0.502
	c0.217,0.484,0.019,1.055-0.452,1.299L5.3,43L32,55.891L58.7,43l-4.351-2.1c-0.49-0.254-0.682-0.857-0.428-1.348
	c0.244-0.472,0.814-0.67,1.299-0.453l6.209,3c0.498,0.241,0.705,0.84,0.465,1.336c-0.099,0.203-0.262,0.366-0.465,0.465l-29,14
	C32.296,57.965,32.149,57.999,32,58z"/>
</svg>
