<?xml version="1.0" encoding="utf-8"?>
<!-- Generator: Adobe Illustrator 15.0.0, SVG Export Plug-In . SVG Version: 6.00 Build 0)  -->
<!DOCTYPE svg PUBLIC "-//W3C//DTD SVG 1.1//EN" "http://www.w3.org/Graphics/SVG/1.1/DTD/svg11.dtd">
<svg version="1.1" id="Layer_1" xmlns="http://www.w3.org/2000/svg" xmlns:xlink="http://www.w3.org/1999/xlink" x="0px" y="0px"
	 width="64px" height="64px" viewBox="0 0 64 64" enable-background="new 0 0 64 64" xml:space="preserve">
<title>bitcoin</title>
<path d="M31,6C16.088,6,4,18.088,4,33c0,14.912,12.088,27,27,27c14.912,0,27-12.088,27-27C58,18.088,45.912,6,31,6z M31,58
	C17.193,58,6,46.807,6,33C6,19.193,17.193,8,31,8c13.807,0,25,11.193,25,25C56,46.807,44.807,58,31,58z"/>
<path d="M38.83,30.86c3.236-2.115,4.146-6.453,2.031-9.689C39.568,19.192,37.363,18,35,18h-5v-3c0-0.552-0.448-1-1-1s-1,0.448-1,1v3
	h-2v-3c0-0.552-0.448-1-1-1s-1,0.448-1,1v3h-3c-0.552,0-1,0.448-1,1s0.448,1,1,1h3v26h-3c-0.552,0-1,0.447-1,1s0.448,1,1,1h3v3
	c0,0.553,0.448,1,1,1s1-0.447,1-1v-3h2v3c0,0.553,0.448,1,1,1s1-0.447,1-1v-3h5c4.971-0.005,8.996-4.039,8.99-9.01
	C43.987,35.511,41.978,32.345,38.83,30.86z M35,20c2.762,0,5,2.239,5,5s-2.238,5-5,5h-9V20H35z M35,46h-9V32h9c3.866,0,7,3.134,7,7
	S38.866,46,35,46z"/>
</svg>
