<?xml version="1.0" encoding="utf-8"?>
<!-- Generator: Adobe Illustrator 15.0.0, SVG Export Plug-In . SVG Version: 6.00 Build 0)  -->
<!DOCTYPE svg PUBLIC "-//W3C//DTD SVG 1.1//EN" "http://www.w3.org/Graphics/SVG/1.1/DTD/svg11.dtd">
<svg version="1.1" id="图层_1" xmlns="http://www.w3.org/2000/svg" xmlns:xlink="http://www.w3.org/1999/xlink" x="0px" y="0px"
	 width="24px" height="24px" viewBox="0 0 24 24" enable-background="new 0 0 24 24" xml:space="preserve">
<g>
	<path d="M23.5,5h-23C0.224,5,0,5.224,0,5.5v5C0,10.776,0.224,11,0.5,11H1v12.5C1,23.775,1.224,24,1.5,24h21
		c0.275,0,0.5-0.225,0.5-0.5V11h0.5c0.275,0,0.5-0.224,0.5-0.5v-5C24,5.224,23.775,5,23.5,5z M22,23H2V11h20V23z M23,10H1V6h22V10z
		 M8.5,16h7c0.275,0,0.5-0.225,0.5-0.5v-2c0-0.275-0.225-0.5-0.5-0.5h-7C8.224,13,8,13.225,8,13.5v2C8,15.775,8.224,16,8.5,16z
		 M9,14h6v1H9V14z"/>
</g>
</svg>
