<?xml version="1.0" encoding="utf-8"?>
<!-- Generator: Adobe Illustrator 15.0.0, SVG Export Plug-In . SVG Version: 6.00 Build 0)  -->
<!DOCTYPE svg PUBLIC "-//W3C//DTD SVG 1.1//EN" "http://www.w3.org/Graphics/SVG/1.1/DTD/svg11.dtd">
<svg version="1.1" id="Layer_1" xmlns="http://www.w3.org/2000/svg" xmlns:xlink="http://www.w3.org/1999/xlink" x="0px" y="0px"
	 width="64px" height="64px" viewBox="0 0 64 64" enable-background="new 0 0 64 64" xml:space="preserve">
<title>camera</title>
<path d="M32,20c-7.732,0-14,6.268-14,14c0,7.732,6.268,14,14,14c7.732,0,14-6.268,14-14C46,26.268,39.732,20,32,20z M32,46
	c-6.627,0-12-5.373-12-12c0-6.627,5.373-12,12-12c6.627,0,12,5.373,12,12C44,40.627,38.627,46,32,46z"/>
<path d="M32,24c-5.523,0-10,4.477-10,10c0,5.523,4.477,10,10,10c5.523,0,10-4.477,10-10C42,28.477,37.523,24,32,24z M32,42
	c-4.418,0-8-3.582-8-8c0-4.418,3.582-8,8-8c4.418,0,8,3.582,8,8C40,38.418,36.418,42,32,42z"/>
<path d="M56,18h-8c-0.711-0.004-1.365-0.385-1.721-1c0.002-0.033,0.002-0.067,0-0.1l-2.59-4.61c-0.056-0.111-0.134-0.21-0.229-0.29
	c-0.714-1.236-2.032-1.999-3.46-2H24c-1.484-0.001-2.846,0.818-3.54,2.13l-2.69,4.78c-0.003,0.033-0.003,0.066,0,0.1
	C17.403,17.637,16.726,18.016,16,18H8c-2.209,0-4,1.791-4,4v28c0,2.209,1.791,4,4,4h48c2.209,0,4-1.791,4-4V22
	C60,19.791,58.209,18,56,18z M58,50c0,1.104-0.896,2-2,2H8c-1.104,0-2-0.896-2-2V22c0-1.104,0.896-2,2-2h8
	c1.478,0,2.835-0.815,3.53-2.12c0,0,0,0,0-0.08l2.65-4.71c0.348-0.682,1.055-1.104,1.82-1.09h16c0.759,0,1.452,0.43,1.79,1.11
	l2.63,4.68c-0.002,0.026-0.002,0.053,0,0.08c0.7,1.324,2.082,2.146,3.58,2.13h8c1.104,0,2,0.896,2,2V50z"/>
</svg>
