<?xml version="1.0" encoding="utf-8"?>
<!-- Generator: Adobe Illustrator 15.0.0, SVG Export Plug-In . SVG Version: 6.00 Build 0)  -->
<!DOCTYPE svg PUBLIC "-//W3C//DTD SVG 1.1//EN" "http://www.w3.org/Graphics/SVG/1.1/DTD/svg11.dtd">
<svg version="1.1" id="Layer_1" xmlns="http://www.w3.org/2000/svg" xmlns:xlink="http://www.w3.org/1999/xlink" x="0px" y="0px"
	 width="64px" height="64px" viewBox="0 0 64 64" enable-background="new 0 0 64 64" xml:space="preserve">
<title>dollar</title>
<path fill="#FFFFFF" d="M24,40c0-0.553-0.448-1-1-1s-1,0.447-1,1c0,4.109,3.51,7.5,8,8v3c0,0.553,0.448,1,1,1s1-0.447,1-1v-3
	c4.49-0.439,8-3.84,8-8s-3.51-7.5-8-8V20c3.391,0.49,6,3,6,6c0,0.552,0.447,1,1,1s1-0.448,1-1c0-4.11-3.51-7.5-8-8v-3
	c0-0.552-0.448-1-1-1s-1,0.448-1,1v3c-4.49,0.44-8,3.84-8,8s3.51,7.5,8,8v12C26.61,45.51,24,43,24,40z M38,40c0,3-2.609,5.51-6,5.93
	V34.07C35.391,34.49,38,37,38,40z M24,26c0-3,2.61-5.51,6-5.93v11.86C26.61,31.51,24,29,24,26z"/>
<path fill="#FFFFFF" d="M31,60c14.912,0,27-12.088,27-27C58,18.088,45.912,6,31,6C16.088,6,4,18.088,4,33C4,47.912,16.088,60,31,60z
	 M31,8c13.807,0,25,11.193,25,25c0,13.807-11.193,25-25,25C17.193,58,6,46.807,6,33C6,19.193,17.193,8,31,8z"/>
</svg>
