<?xml version="1.0" encoding="utf-8"?>
<!-- Generator: Adobe Illustrator 15.0.0, SVG Export Plug-In . SVG Version: 6.00 Build 0)  -->
<!DOCTYPE svg PUBLIC "-//W3C//DTD SVG 1.1//EN" "http://www.w3.org/Graphics/SVG/1.1/DTD/svg11.dtd">
<svg version="1.1" id="Layer_1" xmlns="http://www.w3.org/2000/svg" xmlns:xlink="http://www.w3.org/1999/xlink" x="0px" y="0px"
	 width="64px" height="64px" viewBox="0 0 64 64" enable-background="new 0 0 64 64" xml:space="preserve">
<title>users_two_switch_2</title>
<path id="users_two_switch_2" fill="#FFFFFF" d="M50,47c0.008-0.07,0.008-0.141,0-0.21c-0.012-0.058-0.028-0.115-0.05-0.17
	c-0.028-0.054-0.062-0.104-0.101-0.15c-0.037-0.058-0.081-0.11-0.129-0.159l0,0L49.6,46.25c-0.06-0.039-0.123-0.072-0.189-0.1h-0.2
	L49,46h-4c-0.553,0-1,0.447-1,1s0.447,1,1,1h1.68c-4.314,3.854-9.895,5.99-15.68,6c-6.64,0-13.4-3-17.23-7.641
	c-0.377-0.402-1.01-0.424-1.414-0.047c-0.368,0.345-0.422,0.909-0.126,1.317C16.42,52.72,23.79,56,31,56
	c6.27-0.021,12.316-2.332,17-6.5V51c0,0.553,0.447,1,1,1s1-0.447,1-1V47L50,47z M49.77,14.36C45.58,9.28,38.21,6,31,6
	c-6.27,0.021-12.316,2.332-17,6.5V11c0-0.552-0.448-1-1-1s-1,0.448-1,1v4l0,0c-0.007,0.07-0.007,0.14,0,0.21
	c0.012,0.058,0.028,0.115,0.05,0.17c0.068,0.109,0.146,0.213,0.23,0.31l0,0l0.12,0.06c0.057,0.04,0.117,0.073,0.18,0.1
	c0.066,0.007,0.133,0.007,0.2,0L13,16h4c0.552,0,1-0.448,1-1s-0.448-1-1-1h-1.68c4.315-3.854,9.895-5.99,15.68-6
	c6.641,0,13.4,3,17.23,7.64c0.354,0.425,0.984,0.483,1.41,0.13C50.065,15.417,50.123,14.785,49.77,14.36z M15.77,30.64
	c2.564-2.099,2.942-5.879,0.843-8.443s-5.879-2.942-8.443-0.843s-2.942,5.879-0.843,8.443c0.252,0.308,0.535,0.591,0.843,0.843
	C3.663,32.157,0.464,36.177,0,40.91c-0.052,0.55,0.352,1.037,0.902,1.089C0.905,42,0.907,42,0.91,42H1
	c0.519,0.002,0.953-0.393,1-0.91c0.553-5.522,5.479-9.552,11.001-8.999c4.758,0.477,8.522,4.241,8.999,8.999
	c0.05,0.553,0.538,0.96,1.09,0.91s0.96-0.537,0.91-1.09c-0.469-4.74-3.681-8.763-8.2-10.27H15.77z M8,26c0-2.209,1.791-4,4-4
	s4,1.791,4,4s-1.791,4-4,4S8,28.209,8,26z M53.8,30.64c2.564-2.099,2.942-5.879,0.843-8.443c-2.098-2.564-5.878-2.942-8.442-0.843
	s-2.942,5.879-0.843,8.443c0.252,0.308,0.534,0.591,0.843,0.843c-4.52,1.507-7.731,5.53-8.2,10.27
	c-0.052,0.55,0.352,1.037,0.902,1.089C38.904,42,38.907,42,38.91,42H39c0.52,0.002,0.953-0.393,1-0.91
	c0.553-5.522,5.479-9.552,11.002-8.999c4.758,0.477,8.521,4.241,8.998,8.999c0.05,0.553,0.537,0.96,1.09,0.91s0.96-0.537,0.91-1.09
	C61.531,36.17,58.319,32.147,53.8,30.64z M46,26c0-2.209,1.791-4,4-4s4,1.791,4,4s-1.791,4-4,4S46,28.209,46,26z"/>
</svg>
