<?xml version="1.0" encoding="utf-8"?>
<!-- Generator: Adobe Illustrator 15.0.0, SVG Export Plug-In . SVG Version: 6.00 Build 0)  -->
<!DOCTYPE svg PUBLIC "-//W3C//DTD SVG 1.1//EN" "http://www.w3.org/Graphics/SVG/1.1/DTD/svg11.dtd">
<svg version="1.1" id="Layer_1" xmlns="http://www.w3.org/2000/svg" xmlns:xlink="http://www.w3.org/1999/xlink" x="0px" y="0px"
	 width="64px" height="64px" viewBox="0 0 64 64" enable-background="new 0 0 64 64" xml:space="preserve">
<title>telephone-01 4aa</title>
<path d="M6,42.54h11.28c1.936-0.027,3.49-1.604,3.49-3.54v-6c0.065-0.451,0.297-0.861,0.65-1.15c1.53-1.53,5.5-3.17,10.64-3.13
	c2.829-0.027,5.634,0.528,8.24,1.63c2.101,1,3,2.05,3,2.7v6.05c-0.005,1.922,1.548,3.484,3.47,3.49c0.004,0,0.008,0,0.01,0H58.1
	c1.916-0.027,3.463-1.574,3.49-3.49v-6.52c0-7.51-13-13.48-29.56-13.48c-11.56,0-22.13,3-26.88,7.77
	c-1.629,1.453-2.593,3.508-2.67,5.69v6.52C2.513,41,4.079,42.54,6,42.54z"/>
</svg>
