<?xml version="1.0" encoding="utf-8"?>
<!-- Generator: Adobe Illustrator 15.0.0, SVG Export Plug-In . SVG Version: 6.00 Build 0)  -->
<!DOCTYPE svg PUBLIC "-//W3C//DTD SVG 1.1//EN" "http://www.w3.org/Graphics/SVG/1.1/DTD/svg11.dtd">
<svg version="1.1" id="Layer_1" xmlns="http://www.w3.org/2000/svg" xmlns:xlink="http://www.w3.org/1999/xlink" x="0px" y="0px"
	 width="64px" height="64px" viewBox="0 0 64 64" enable-background="new 0 0 64 64" xml:space="preserve">
<title>shuffle</title>
<path fill="#FFFFFF" d="M59.92,45.38c0.154-0.374,0.066-0.805-0.22-1.09l-6-6c-0.421-0.358-1.052-0.312-1.41,0.108
	c-0.321,0.375-0.321,0.928,0,1.302l4.3,4.3H47c-6.16,0-9.48-4.51-12.16-8.13l-0.76-1c-0.332-0.44-0.959-0.53-1.4-0.198
	c-0.441,0.33-0.53,0.957-0.2,1.398c0.25,0.33,0.5,0.66,0.75,1C36,40.83,39.83,46,47,46h9.59l-4.29,4.29
	c-0.388,0.39-0.388,1.021,0,1.41c0.185,0.188,0.437,0.296,0.7,0.3c0.266,0.002,0.521-0.104,0.71-0.29l6-6
	C59.801,45.615,59.873,45.503,59.92,45.38z"/>
<path fill="#FFFFFF" d="M5,20h10c6.07,0,9.24,4.24,12,8c0.26,0.35,0.51,0.69,0.76,1c0.191,0.248,0.487,0.393,0.8,0.39
	c0.221-0.001,0.436-0.075,0.61-0.21c0.438-0.334,0.523-0.961,0.19-1.4c-0.25-0.32-0.5-0.66-0.75-1C25.87,23.08,22.08,18,15,18H5
	c-0.552,0-1,0.448-1,1S4.448,20,5,20z"/>
<path fill="#FFFFFF" d="M5,46h10c11.55,0,16.72-13.08,16.93-13.64C32,32.24,36.83,20,47,20h9.59l-4.29,4.29
	c-0.388,0.39-0.388,1.02,0,1.41c0.185,0.188,0.437,0.296,0.7,0.3c0.266,0.001,0.521-0.103,0.71-0.29l6-6
	c0.095-0.094,0.169-0.207,0.22-0.33c0.154-0.374,0.067-0.805-0.22-1.09l-6-6c-0.358-0.419-0.989-0.468-1.41-0.109
	c-0.419,0.359-0.468,0.991-0.108,1.41c0.033,0.039,0.07,0.076,0.108,0.109l4.29,4.3H47c-11.55,0-16.72,13.08-16.93,13.64
	C30,31.76,25.17,44,15,44H5c-0.552,0-1,0.447-1,1S4.448,46,5,46z"/>
</svg>
