<?xml version="1.0" encoding="utf-8"?>
<!-- Generator: Adobe Illustrator 15.0.0, SVG Export Plug-In . SVG Version: 6.00 Build 0)  -->
<!DOCTYPE svg PUBLIC "-//W3C//DTD SVG 1.1//EN" "http://www.w3.org/Graphics/SVG/1.1/DTD/svg11.dtd">
<svg version="1.1" id="Layer_1" xmlns="http://www.w3.org/2000/svg" xmlns:xlink="http://www.w3.org/1999/xlink" x="0px" y="0px"
	 width="64px" height="64px" viewBox="0 0 64 64" enable-background="new 0 0 64 64" xml:space="preserve">
<title>newspaper</title>
<path id="newspaper" fill="#FFFFFF" d="M54,56H8c-2.209,0-4-1.791-4-4V13c0-0.552,0.448-1,1-1h48c0.553,0,1,0.448,1,1v34
	c0,0.553-0.447,1-1,1s-1-0.447-1-1V14H6v38c0,1.104,0.896,2,2,2h46c1.104,0,2-0.896,2-2V10H9c-0.552,0-1-0.448-1-1s0.448-1,1-1h48
	c0.553,0,1,0.448,1,1v43C58,54.209,56.209,56,54,56z M47,26H11c-0.552,0-1-0.448-1-1v-4c0-0.552,0.448-1,1-1h36c0.553,0,1,0.448,1,1
	v4C48,25.552,47.553,26,47,26z M12,24h34v-2H12V24z M47,40H31c-0.552,0-1-0.447-1-1v-8c0-0.552,0.448-1,1-1h16c0.553,0,1,0.448,1,1
	v8C48,39.553,47.553,40,47,40z M32,38h14v-6H32V38z M27,32H11c-0.552,0-1-0.448-1-1s0.448-1,1-1h16c0.552,0,1,0.448,1,1
	S27.552,32,27,32z M27,40H11c-0.552,0-1-0.447-1-1s0.448-1,1-1h16c0.552,0,1,0.447,1,1S27.552,40,27,40z M27,36H11
	c-0.552,0-1-0.447-1-1s0.448-1,1-1h16c0.552,0,1,0.447,1,1S27.552,36,27,36z M27,44H11c-0.552,0-1-0.447-1-1s0.448-1,1-1h16
	c0.552,0,1,0.447,1,1S27.552,44,27,44z M27,48H11c-0.552,0-1-0.447-1-1s0.448-1,1-1h16c0.552,0,1,0.447,1,1S27.552,48,27,48z M47,48
	H31c-0.552,0-1-0.447-1-1s0.448-1,1-1h16c0.553,0,1,0.447,1,1S47.553,48,47,48z M47,44H31c-0.552,0-1-0.447-1-1s0.448-1,1-1h16
	c0.553,0,1,0.447,1,1S47.553,44,47,44z"/>
</svg>
