<?xml version="1.0" encoding="utf-8"?>
<!-- Generator: Adobe Illustrator 15.0.0, SVG Export Plug-In . SVG Version: 6.00 Build 0)  -->
<!DOCTYPE svg PUBLIC "-//W3C//DTD SVG 1.1//EN" "http://www.w3.org/Graphics/SVG/1.1/DTD/svg11.dtd">
<svg version="1.1" id="Layer_1" xmlns="http://www.w3.org/2000/svg" xmlns:xlink="http://www.w3.org/1999/xlink" x="0px" y="0px"
	 width="64px" height="64px" viewBox="0 0 64 64" enable-background="new 0 0 64 64" xml:space="preserve">
<title>power</title>
<path id="power" fill="#FFFFFF" d="M31,26c-0.552,0-1-0.448-1-1V5c0-0.552,0.448-1,1-1s1,0.448,1,1v20C32,25.552,31.552,26,31,26z
	 M31,60C18.297,60.002,7.998,49.707,7.996,37.004C7.994,26.713,14.829,17.674,24.73,14.87c0.538-0.124,1.075,0.212,1.199,0.75
	c0.115,0.499-0.165,1.003-0.649,1.17C14.122,19.955,7.642,31.565,10.807,42.723c3.165,11.158,14.775,17.639,25.934,14.474
	s17.638-14.775,14.473-25.933c-1.987-7.008-7.465-12.485-14.473-14.473c-0.522-0.18-0.8-0.749-0.62-1.271
	c0.167-0.484,0.671-0.764,1.17-0.649c12.222,3.46,19.325,16.174,15.864,28.396C50.349,53.175,41.299,60.011,31,60z"/>
</svg>
