<?xml version="1.0" encoding="utf-8"?>
<!-- Generator: Adobe Illustrator 15.0.0, SVG Export Plug-In . SVG Version: 6.00 Build 0)  -->
<!DOCTYPE svg PUBLIC "-//W3C//DTD SVG 1.1//EN" "http://www.w3.org/Graphics/SVG/1.1/DTD/svg11.dtd">
<svg version="1.1" id="Layer_1" xmlns="http://www.w3.org/2000/svg" xmlns:xlink="http://www.w3.org/1999/xlink" x="0px" y="0px"
	 width="64px" height="64px" viewBox="0 0 64 64" enable-background="new 0 0 64 64" xml:space="preserve">
<title>happy_face</title>
<path fill="#FFFFFF" d="M31,60c14.912,0,27-12.088,27-27S45.912,6,31,6S4,18.088,4,33S16.088,60,31,60z M31,8
	c13.807,0,25,11.193,25,25c0,13.807-11.193,25-25,25C17.193,58,6,46.807,6,33C6,19.193,17.193,8,31,8z"/>
<path fill="#FFFFFF" d="M22,30c2.209,0,4-1.791,4-4s-1.791-4-4-4s-4,1.791-4,4S19.791,30,22,30z M22,24c1.104,0,2,0.896,2,2
	s-0.896,2-2,2s-2-0.896-2-2S20.896,24,22,24z"/>
<path fill="#FFFFFF" d="M40,30c2.209,0,4-1.791,4-4s-1.791-4-4-4s-4,1.791-4,4S37.791,30,40,30z M40,24c1.104,0,2,0.896,2,2
	s-0.896,2-2,2s-2-0.896-2-2S38.896,24,40,24z"/>
<path fill="#FFFFFF" d="M31,52c10.494,0,19-8.507,19-19c0-0.552-0.447-1-1-1s-1,0.448-1,1c0,9.389-7.611,17-17,17
	c-9.389,0-17-7.611-17-17c0-0.552-0.448-1-1-1s-1,0.448-1,1C12,43.493,20.506,52,31,52z"/>
</svg>
