<?xml version="1.0" encoding="utf-8"?>
<!-- Generator: Adobe Illustrator 15.0.0, SVG Export Plug-In . SVG Version: 6.00 Build 0)  -->
<!DOCTYPE svg PUBLIC "-//W3C//DTD SVG 1.1//EN" "http://www.w3.org/Graphics/SVG/1.1/DTD/svg11.dtd">
<svg version="1.1" id="图层_1" xmlns="http://www.w3.org/2000/svg" xmlns:xlink="http://www.w3.org/1999/xlink" x="0px" y="0px"
	 width="24px" height="24px" viewBox="0 0 24 24" enable-background="new 0 0 24 24" xml:space="preserve">
<g>
	<path d="M22,14c0-5.514-4.486-10-10-10C6.486,4,2,8.486,2,14c0,3.214,1.551,6.048,3.915,7.879l-1.268,1.268
		c-0.195,0.195-0.195,0.513,0,0.707C4.744,23.951,4.872,24,5,24s0.256-0.049,0.354-0.146l1.386-1.386C8.272,23.423,10.065,24,12,24
		c1.936,0,3.729-0.577,5.26-1.532l1.387,1.386C18.744,23.951,18.872,24,19,24s0.256-0.049,0.354-0.146
		c0.195-0.194,0.195-0.512,0-0.707l-1.268-1.268C20.449,20.048,22,17.215,22,14z M12,23c-4.962,0-9-4.038-9-9s4.038-9,9-9
		s9,4.038,9,9S16.962,23,12,23z M12.5,8C12.224,8,12,8.224,12,8.5V14H8.5C8.224,14,8,14.225,8,14.5S8.224,15,8.5,15h4
		c0.275,0,0.5-0.225,0.5-0.5v-6C13,8.224,12.775,8,12.5,8z M2.354,8.854c0.195-0.195,0.195-0.512,0-0.707
		c-1.365-1.366-1.365-3.427,0-4.793c1.322-1.322,3.471-1.322,4.793,0c0.195,0.195,0.512,0.195,0.707,0s0.195-0.512,0-0.707
		c-1.699-1.7-4.508-1.7-6.207,0c-1.768,1.77-1.768,4.438,0,6.207C1.744,8.951,1.872,9,2,9S2.256,8.951,2.354,8.854z M22.354,2.646
		c-1.699-1.7-4.508-1.7-6.207,0c-0.194,0.195-0.194,0.512,0,0.707c0.195,0.195,0.513,0.195,0.707,0c1.322-1.322,3.472-1.322,4.793,0
		c1.365,1.366,1.365,3.427,0,4.793c-0.194,0.195-0.194,0.512,0,0.707C21.744,8.951,21.872,9,22,9s0.256-0.049,0.354-0.146
		C24.122,7.084,24.122,4.416,22.354,2.646z"/>
</g>
</svg>
