<?xml version="1.0" encoding="utf-8"?>
<!-- Generator: Adobe Illustrator 15.0.0, SVG Export Plug-In . SVG Version: 6.00 Build 0)  -->
<!DOCTYPE svg PUBLIC "-//W3C//DTD SVG 1.1//EN" "http://www.w3.org/Graphics/SVG/1.1/DTD/svg11.dtd">
<svg version="1.1" id="Layer_1" xmlns="http://www.w3.org/2000/svg" xmlns:xlink="http://www.w3.org/1999/xlink" x="0px" y="0px"
	 width="64px" height="64px" viewBox="0 0 64 64" enable-background="new 0 0 64 64" xml:space="preserve">
<title>rss</title>
<path id="rss" fill="#FFFFFF" d="M54,58H10c-2.209,0-4-1.791-4-4V10c0-2.209,1.791-4,4-4h44c2.209,0,4,1.791,4,4v44
	C58,56.209,56.209,58,54,58z M10,8c-1.104,0-2,0.896-2,2v44c0,1.104,0.896,2,2,2h44c1.104,0,2-0.896,2-2V10c0-1.104-0.896-2-2-2H10z
	 M18,50c-2.209,0-4-1.791-4-4s1.791-4,4-4s4,1.791,4,4S20.209,50,18,50z M18,44c-1.104,0-2,0.896-2,2s0.896,2,2,2s2-0.896,2-2
	S19.104,44,18,44z M35,50c-0.553,0-1-0.447-1-1c0-10.493-8.506-19-19-19c-0.552,0-1-0.448-1-1s0.448-1,1-1c11.598,0,21,9.402,21,21
	C36,49.553,35.553,50,35,50z M49,50c-0.553,0-1-0.447-1-1c0-18.226-14.774-33-33-33c-0.552,0-1-0.448-1-1s0.448-1,1-1
	c19.33,0,35,15.67,35,35C50,49.553,49.553,50,49,50z"/>
</svg>
