<?xml version="1.0" encoding="utf-8"?>
<!-- Generator: Adobe Illustrator 15.0.0, SVG Export Plug-In . SVG Version: 6.00 Build 0)  -->
<!DOCTYPE svg PUBLIC "-//W3C//DTD SVG 1.1//EN" "http://www.w3.org/Graphics/SVG/1.1/DTD/svg11.dtd">
<svg version="1.1" id="Layer_1" xmlns="http://www.w3.org/2000/svg" xmlns:xlink="http://www.w3.org/1999/xlink" x="0px" y="0px"
	 width="64px" height="64px" viewBox="0 0 64 64" enable-background="new 0 0 64 64" xml:space="preserve">
<title>shield</title>
<path d="M31.66,59.939c0.22,0.08,0.46,0.08,0.68,0C42.811,56.18,54,46.34,54,30V13c0-0.552-0.447-1-1-1
	c-9.49,0-17.41-5.44-20.38-7.79c-0.364-0.287-0.876-0.287-1.24,0C28.41,6.56,20.48,12,11,12c-0.552,0-1,0.448-1,1v17
	C10,46.33,21.19,56.18,31.66,59.939z M12,14c9.06-0.34,16.6-5.15,20-7.72c3.4,2.55,10.939,7.36,20,7.72v16
	c0,19.16-16,26.41-20,27.93C28,56.4,12,49.16,12,30V14z"/>
</svg>
