<?xml version="1.0" encoding="utf-8"?>
<!-- Generator: Adobe Illustrator 15.0.0, SVG Export Plug-In . SVG Version: 6.00 Build 0)  -->
<!DOCTYPE svg PUBLIC "-//W3C//DTD SVG 1.1//EN" "http://www.w3.org/Graphics/SVG/1.1/DTD/svg11.dtd">
<svg version="1.1" id="Layer_1" xmlns="http://www.w3.org/2000/svg" xmlns:xlink="http://www.w3.org/1999/xlink" x="0px" y="0px"
	 width="64px" height="64px" viewBox="0 0 64 64" enable-background="new 0 0 64 64" xml:space="preserve">
<title>22</title>
<path fill="#FFFFFF" d="M29.55,8.17c-0.459-0.307-1.08-0.184-1.387,0.276c-0.001,0.001-0.002,0.003-0.003,0.004l0,0l-12,18
	c-0.307,0.459-0.184,1.08,0.275,1.387c0.001,0.001,0.003,0.002,0.004,0.003l0,0C16.608,27.944,16.802,28,17,28
	c0.334-0.002,0.646-0.17,0.83-0.45l12-18C30.131,9.091,30.006,8.475,29.55,8.17z"/>
<path fill="#FFFFFF" d="M45,28c0.197,0.002,0.389-0.057,0.55-0.17c0.461-0.305,0.587-0.925,0.283-1.386
	c-0.001-0.001-0.002-0.003-0.003-0.004l0,0l-12-18c-0.307-0.461-0.929-0.586-1.39-0.28c-0.461,0.306-0.586,0.929-0.28,1.39l12,18
	C44.346,27.833,44.662,28.001,45,28z"/>
<path fill="#FFFFFF" d="M24,24h14c0.553,0,1-0.448,1-1s-0.447-1-1-1H24c-0.552,0-1,0.448-1,1S23.448,24,24,24z"/>
<path fill="#FFFFFF" d="M4.07,31.46L8,52.141c0.134,2.127,1.869,3.801,4,3.859h38c2.115-0.051,3.846-1.699,4-3.811l4-20.729
	c1.137-0.749,1.873-1.974,2-3.33c0.005-0.043,0.005-0.087,0-0.13v-5c0-0.552-0.447-1-1-1H47c-0.553,0-1,0.448-1,1s0.447,1,1,1h11
	v3.93c-0.052,1.094-0.908,1.98-2,2.07H6c-1.077-0.064-1.936-0.923-2-2v-4h11c0.552,0,1-0.448,1-1s-0.448-1-1-1H3
	c-0.552,0-1,0.448-1,1v5.09C2.105,29.482,2.876,30.737,4.07,31.46z M52,51.87c-0.031,1.114-0.891,2.028-2,2.13H12
	c-1.106-0.077-1.972-0.982-2-2.09v-0.1L6.21,32h49.58L52,51.87z"/>
<path fill="#FFFFFF" d="M39,51.13c-0.225-0.001-0.441-0.091-0.6-0.25l-6.521-6.521l-6.52,6.521c-0.351,0.312-0.888,0.28-1.2-0.07
	c-0.286-0.322-0.286-0.808,0-1.13l6.52-6.52l-6.52-6.52c-0.351-0.313-0.383-0.85-0.071-1.201c0.312-0.351,0.849-0.382,1.2-0.07
	c0.025,0.022,0.049,0.046,0.071,0.07L31.91,42l6.52-6.52c0.313-0.352,0.85-0.383,1.2-0.071s0.383,0.849,0.071,1.2
	c-0.022,0.025-0.047,0.049-0.071,0.07L33.109,43.2l6.521,6.52c0.31,0.354,0.274,0.891-0.079,1.2
	C39.398,51.053,39.203,51.128,39,51.13z"/>
</svg>
