<?xml version="1.0" encoding="utf-8"?>
<!-- Generator: Adobe Illustrator 15.0.0, SVG Export Plug-In . SVG Version: 6.00 Build 0)  -->
<!DOCTYPE svg PUBLIC "-//W3C//DTD SVG 1.1//EN" "http://www.w3.org/Graphics/SVG/1.1/DTD/svg11.dtd">
<svg version="1.1" id="Layer_1" xmlns="http://www.w3.org/2000/svg" xmlns:xlink="http://www.w3.org/1999/xlink" x="0px" y="0px"
	 width="64px" height="64px" viewBox="0 0 64 64" enable-background="new 0 0 64 64" xml:space="preserve">
<title>bullet_list-01</title>
<path d="M9,12c1.657,0,3,1.343,3,3s-1.343,3-3,3s-3-1.343-3-3S7.343,12,9,12z"/>
<path d="M9,30c1.657,0,3,1.343,3,3c0,1.656-1.343,3-3,3s-3-1.344-3-3C6,31.343,7.343,30,9,30z"/>
<path d="M9,48c1.657,0,3,1.344,3,3s-1.343,3-3,3s-3-1.344-3-3S7.343,48,9,48z"/>
<path d="M56,14H18c-0.552,0-1,0.448-1,1s0.448,1,1,1h38c0.553,0,1-0.448,1-1S56.553,14,56,14z"/>
<path d="M56,32H18c-0.552,0-1,0.448-1,1c0,0.553,0.448,1,1,1h38c0.553,0,1-0.447,1-1C57,32.448,56.553,32,56,32z"/>
<path d="M56,50H18c-0.552,0-1,0.447-1,1s0.448,1,1,1h38c0.553,0,1-0.447,1-1S56.553,50,56,50z"/>
</svg>
