<?xml version="1.0" encoding="utf-8"?>
<!-- Generator: Adobe Illustrator 15.0.0, SVG Export Plug-In . SVG Version: 6.00 Build 0)  -->
<!DOCTYPE svg PUBLIC "-//W3C//DTD SVG 1.1//EN" "http://www.w3.org/Graphics/SVG/1.1/DTD/svg11.dtd">
<svg version="1.1" id="Layer_1" xmlns="http://www.w3.org/2000/svg" xmlns:xlink="http://www.w3.org/1999/xlink" x="0px" y="0px"
	 width="64px" height="64px" viewBox="0 0 64 64" enable-background="new 0 0 64 64" xml:space="preserve">
<title>alarm</title>
<path fill="#FFFFFF" d="M55,52c0.553,0,1-0.447,1-1s-0.447-1-1-1l0,0c-2.762,0-5-2.238-5-5c0-0.026,0-0.053,0-0.08l-1-13
	c-0.88-12.35-6.689-20.64-15-21.78V7c0-0.552-0.447-1-1-1h-2c-0.552,0-1,0.448-1,1v3.15c-8.31,1.14-14.12,9.43-15,21.77L14,45
	c0,2.762-2.239,5-5,5c-0.552,0-1,0.447-1,1s0.448,1,1,1H55z M13.9,50c1.339-1.287,2.097-3.063,2.1-4.92l1-13
	C17.87,19.88,23.76,12,32,12s14.13,7.88,15,20.08L48,45c0.002,1.883,0.763,3.686,2.109,5H13.9z"/>
<path fill="#FFFFFF" d="M36.2,54.29c-2.333,2.286-6.067,2.286-8.4,0c-0.362-0.417-0.994-0.461-1.411-0.099
	c-0.417,0.362-0.461,0.994-0.099,1.41c0.034,0.039,0.07,0.075,0.109,0.108c3.111,3.05,8.089,3.05,11.2,0
	c0.363-0.417,0.318-1.048-0.098-1.411C37.129,53.976,36.576,53.972,36.2,54.29z"/>
</svg>
