<?xml version="1.0" encoding="utf-8"?>
<!-- Generator: Adobe Illustrator 15.0.0, SVG Export Plug-In . SVG Version: 6.00 Build 0)  -->
<!DOCTYPE svg PUBLIC "-//W3C//DTD SVG 1.1//EN" "http://www.w3.org/Graphics/SVG/1.1/DTD/svg11.dtd">
<svg version="1.1" id="Layer_1" xmlns="http://www.w3.org/2000/svg" xmlns:xlink="http://www.w3.org/1999/xlink" x="0px" y="0px"
	 width="64px" height="64px" viewBox="0 0 64 64" enable-background="new 0 0 64 64" xml:space="preserve">
<title>cloud_download</title>
<path id="cloud_download" d="M49,46h-8c-0.553,0-1-0.447-1-1s0.447-1,1-1h8c4.971,0.008,9.006-4.016,9.014-8.986
	c0.007-4.345-3.092-8.074-7.363-8.864c-0.54-0.097-0.901-0.609-0.811-1.15c1.104-7.094-3.751-13.741-10.846-14.845
	C38.335,10.052,37.668,10,37,10c-5.737,0.023-10.789,3.782-12.46,9.27c-0.156,0.53-0.712,0.833-1.242,0.677
	c-0.148-0.044-0.285-0.122-0.398-0.227c-2.645-2.427-6.756-2.252-9.184,0.393c-1.364,1.486-1.961,3.521-1.616,5.508
	c0.078,0.458-0.171,0.91-0.6,1.09c-4.579,1.935-6.721,7.216-4.786,11.794C8.121,41.834,11.385,43.998,15,44h14c0.552,0,1,0.447,1,1
	s-0.448,1-1,1H15C8.925,46.014,3.989,41.099,3.976,35.023C3.967,30.872,6.297,27.068,10,25.19c0-0.23,0-0.46,0-0.69
	c-0.001-4.694,3.803-8.501,8.498-8.502c1.632,0,3.23,0.469,4.603,1.353c3.114-7.677,11.861-11.376,19.539-8.262
	C48.301,11.385,52.005,16.889,52,23c0,0.47,0,0.93-0.061,1.4c5.855,1.624,9.285,7.685,7.661,13.54C58.279,42.703,53.943,46,49,46z
	 M43.71,48.29c-0.39-0.388-1.021-0.388-1.41,0l-6.3,6.3V27c0-0.552-0.447-1-1-1s-1,0.448-1,1v27.59l-6.29-6.29
	c-0.419-0.358-1.051-0.31-1.41,0.109c-0.32,0.374-0.32,0.927,0,1.301l8,8c0.095,0.095,0.206,0.169,0.33,0.22
	c0.243,0.101,0.517,0.101,0.761,0c0.123-0.051,0.235-0.125,0.33-0.22l8-8c0.389-0.392,0.387-1.024-0.005-1.414
	C43.714,48.294,43.712,48.292,43.71,48.29z"/>
</svg>
