<?xml version="1.0" encoding="utf-8"?>
<!-- Generator: Adobe Illustrator 15.0.0, SVG Export Plug-In . SVG Version: 6.00 Build 0)  -->
<!DOCTYPE svg PUBLIC "-//W3C//DTD SVG 1.1//EN" "http://www.w3.org/Graphics/SVG/1.1/DTD/svg11.dtd">
<svg version="1.1" id="Layer_1" xmlns="http://www.w3.org/2000/svg" xmlns:xlink="http://www.w3.org/1999/xlink" x="0px" y="0px"
	 width="64px" height="64px" viewBox="0 0 64 64" enable-background="new 0 0 64 64" xml:space="preserve">
<title>clock_face</title>
<path fill="#A9A9A9" d="M30,33c0.001,0.268,0.109,0.523,0.3,0.71l12,12c0.187,0.185,0.438,0.289,0.7,0.29
	c0.266,0.002,0.521-0.103,0.71-0.29c0.388-0.39,0.388-1.021,0-1.41L32,32.59V17c0-0.552-0.448-1-1-1s-1,0.448-1,1V33z"/>
<path fill="#A9A9A9" d="M31,12c0.552,0,1-0.448,1-1V7c0-0.552-0.448-1-1-1s-1,0.448-1,1v4C30,11.552,30.448,12,31,12z"/>
<path fill="#A9A9A9" d="M30,59c0,0.553,0.448,1,1,1s1-0.447,1-1v-4c0-0.553-0.448-1-1-1s-1,0.447-1,1V59z"/>
<path fill="#A9A9A9" d="M5,34h4c0.552,0,1-0.447,1-1c0-0.552-0.448-1-1-1H5c-0.552,0-1,0.448-1,1C4,33.553,4.448,34,5,34z"/>
<path fill="#A9A9A9" d="M52,33c0,0.553,0.447,1,1,1h4c0.553,0,1-0.447,1-1c0-0.552-0.447-1-1-1h-4C52.447,32,52,32.448,52,33z"/>
<path fill="#A9A9A9" d="M18.13,12.72c0.276,0.481,0.89,0.646,1.37,0.37c0.48-0.276,0.646-0.889,0.37-1.37l-1-1.729
	c-0.276-0.48-0.89-0.646-1.37-0.37c-0.48,0.276-0.646,0.89-0.37,1.37L18.13,12.72z"/>
<path fill="#A9A9A9" d="M43.87,53.29c-0.276-0.48-0.89-0.646-1.37-0.37c-0.48,0.276-0.646,0.89-0.37,1.37l1,1.729
	c0.276,0.48,0.89,0.646,1.37,0.371c0.48-0.277,0.646-0.891,0.37-1.371L43.87,53.29z"/>
<path fill="#A9A9A9" d="M9.72,44.13l-1.72,1c-0.48,0.273-0.647,0.884-0.374,1.364c0.001,0.002,0.002,0.004,0.003,0.006
	c0.178,0.308,0.505,0.498,0.86,0.5c0.178,0.003,0.354-0.042,0.51-0.13l1.73-1c0.48-0.279,0.644-0.895,0.365-1.375
	C10.816,44.015,10.201,43.852,9.72,44.13z"/>
<path fill="#A9A9A9" d="M50.92,21.5c0.273,0.48,0.885,0.647,1.364,0.374c0.002-0.001,0.004-0.002,0.006-0.003l1.729-1
	c0.48-0.276,0.646-0.89,0.371-1.37c-0.277-0.48-0.891-0.646-1.371-0.37l-1.729,1c-0.479,0.273-0.647,0.884-0.374,1.364
	C50.918,21.496,50.919,21.498,50.92,21.5z"/>
<path fill="#A9A9A9" d="M8,20.87l1.73,1c0.48,0.276,1.094,0.11,1.37-0.37c0.276-0.48,0.11-1.094-0.37-1.37l-1.73-1
	c-0.48-0.276-1.094-0.11-1.37,0.37C7.354,19.98,7.52,20.594,8,20.87z"/>
<path fill="#A9A9A9" d="M53,46.87c0.48,0.276,1.094,0.11,1.37-0.37s0.11-1.094-0.37-1.37l-1.73-1c-0.48-0.276-1.094-0.11-1.369,0.37
	c-0.276,0.48-0.111,1.094,0.369,1.37L53,46.87z"/>
<path fill="#A9A9A9" d="M17.5,56.38c0.479,0.274,1.09,0.108,1.365-0.37c0.002-0.004,0.003-0.007,0.005-0.01l1-1.73
	c0.276-0.48,0.11-1.094-0.37-1.369c-0.48-0.276-1.094-0.111-1.37,0.369l-1,1.73c-0.281,0.476-0.123,1.089,0.352,1.369
	C17.488,56.373,17.494,56.377,17.5,56.38z"/>
<path fill="#A9A9A9" d="M44.5,9.62c-0.479-0.277-1.09-0.114-1.367,0.364c0,0.002-0.002,0.004-0.003,0.006l-1,1.729
	c-0.276,0.481-0.11,1.094,0.37,1.37c0.48,0.276,1.094,0.111,1.37-0.37l1-1.729c0.276-0.478,0.114-1.09-0.364-1.367
	C44.504,9.622,44.502,9.621,44.5,9.62z"/>
</svg>
