<?xml version="1.0" encoding="utf-8"?>
<!-- Generator: Adobe Illustrator 15.0.0, SVG Export Plug-In . SVG Version: 6.00 Build 0)  -->
<!DOCTYPE svg PUBLIC "-//W3C//DTD SVG 1.1//EN" "http://www.w3.org/Graphics/SVG/1.1/DTD/svg11.dtd">
<svg version="1.1" id="Layer_1" xmlns="http://www.w3.org/2000/svg" xmlns:xlink="http://www.w3.org/1999/xlink" x="0px" y="0px"
	 width="64px" height="64px" viewBox="0 0 64 64" enable-background="new 0 0 64 64" xml:space="preserve">
<title>shop_cart</title>
<path d="M10,53c0,1.656,1.343,3,3,3s3-1.344,3-3s-1.343-3-3-3S10,51.344,10,53z M14,53c0,0.553-0.448,1-1,1s-1-0.447-1-1
	s0.448-1,1-1S14,52.447,14,53z"/>
<path d="M57,50c-1.656,0-3,1.344-3,3s1.344,3,3,3s3-1.344,3-3S58.656,50,57,50z M57,54c-0.553,0-1-0.447-1-1s0.447-1,1-1
	s1,0.447,1,1S57.553,54,57,54z"/>
<path d="M5,10h4.26l8.45,27.24C13.18,38.46,10,43.641,10,47c0,0.553,0.448,1,1,1h48c0.553,0,1-0.447,1-1s-0.447-1-1-1H12.12
	c0.59-2.67,3.3-6.609,7-7l40-4c0.513-0.052,0.902-0.484,0.899-1V13c0-0.552-0.447-1-1-1H12l-1-3.3c-0.136-0.434-0.546-0.721-1-0.7H5
	C4.448,8,4,8.448,4,9S4.448,10,5,10z M58,14v19.1l-38.29,3.83L12.6,14H58z"/>
</svg>
