<?xml version="1.0" encoding="utf-8"?>
<!-- Generator: Adobe Illustrator 15.0.0, SVG Export Plug-In . SVG Version: 6.00 Build 0)  -->
<!DOCTYPE svg PUBLIC "-//W3C//DTD SVG 1.1//EN" "http://www.w3.org/Graphics/SVG/1.1/DTD/svg11.dtd">
<svg version="1.1" id="Layer_1" xmlns="http://www.w3.org/2000/svg" xmlns:xlink="http://www.w3.org/1999/xlink" x="0px" y="0px"
	 width="64px" height="64px" viewBox="0 0 64 64" enable-background="new 0 0 64 64" xml:space="preserve">
<title>folder_warning</title>
<path id="folder_warning" d="M53,16h-3v-2c0-2.209-1.791-4-4-4H26c-1.292,0.163-2.555-0.469-3.2-1.6C21.779,6.76,19.924,5.833,18,6
	H8c-2.209,0-4,1.791-4,4v36c0,2.209,1.791,4,4,4h21c0.552,0,1-0.447,1-1s-0.448-1-1-1H10V18h42v19c0,0.553,0.447,1,1,1s1-0.447,1-1
	V17C54,16.448,53.553,16,53,16z M9,16c-0.552,0-1,0.448-1,1v31c-1.104,0-2-0.896-2-2V10c0-1.104,0.896-2,2-2h10
	c1.292-0.163,2.555,0.469,3.2,1.6c1.021,1.64,2.875,2.567,4.8,2.4h20c1.104,0,2,0.896,2,2v2H9z M56,60H34c-2.209,0-4-1.791-4-4
	c0.029-0.606,0.167-1.203,0.41-1.76l0.06-0.12l11.24-18.4c1.256-1.817,3.747-2.272,5.564-1.018c0.378,0.261,0.708,0.585,0.976,0.958
	l11.279,18.47l0.061,0.12c0.241,0.554,0.381,1.146,0.41,1.75C60,58.209,58.209,60,56,60z M32.21,55.1
	C32.092,55.387,32.021,55.69,32,56c0,1.104,0.896,2,2,2h22c1.104,0,2-0.896,2-2c-0.021-0.31-0.092-0.613-0.21-0.9l-11.2-18.33
	c-0.676-0.873-1.932-1.035-2.805-0.359c-0.155,0.119-0.291,0.261-0.405,0.42L32.21,55.1z M45,50c-0.553,0-1-0.447-1-1v-8
	c0-0.553,0.447-1,1-1s1,0.447,1,1v8C46,49.553,45.553,50,45,50z M45,54c-0.553,0.004-1.002-0.441-1.006-0.994
	c-0.002-0.269,0.105-0.527,0.296-0.716c0.392-0.392,1.028-0.392,1.42,0s0.392,1.028,0,1.42C45.521,53.897,45.266,54.002,45,54z"/>
</svg>
