<?xml version="1.0" encoding="utf-8"?>
<!-- Generator: Adobe Illustrator 15.0.0, SVG Export Plug-In . SVG Version: 6.00 Build 0)  -->
<!DOCTYPE svg PUBLIC "-//W3C//DTD SVG 1.1//EN" "http://www.w3.org/Graphics/SVG/1.1/DTD/svg11.dtd">
<svg version="1.1" id="图层_1" xmlns="http://www.w3.org/2000/svg" xmlns:xlink="http://www.w3.org/1999/xlink" x="0px" y="0px"
	 width="24px" height="24px" viewBox="0 0 24 24" enable-background="new 0 0 24 24" xml:space="preserve">
<g>
	<path fill="#FFFFFF" d="M12,0C5.383,0,0,5.383,0,12s5.383,12,12,12s12-5.383,12-12S18.617,0,12,0z M12,23C5.935,23,1,18.064,1,12
		C1,5.935,5.935,1,12,1c6.064,0,11,4.935,11,11C23,18.064,18.064,23,12,23z M17.811,5.538l-8.5,3.5l-0.124,0.15L9.038,9.31l-3.5,8.5
		c-0.077,0.187-0.034,0.399,0.108,0.543C5.742,18.449,5.87,18.5,6,18.5l0.19-0.038l8.5-3.5l0.125-0.149l0.147-0.123l3.5-8.5
		c0.077-0.187,0.034-0.401-0.108-0.544C18.211,5.504,17.996,5.461,17.811,5.538z M6.919,17.081l2.758-6.697l3.939,3.939
		L6.919,17.081z M14.323,13.616l-3.939-3.939l6.697-2.757L14.323,13.616z"/>
</g>
</svg>
