<?xml version="1.0" encoding="utf-8"?>
<!-- Generator: Adobe Illustrator 15.0.0, SVG Export Plug-In . SVG Version: 6.00 Build 0)  -->
<!DOCTYPE svg PUBLIC "-//W3C//DTD SVG 1.1//EN" "http://www.w3.org/Graphics/SVG/1.1/DTD/svg11.dtd">
<svg version="1.1" id="Layer_1" xmlns="http://www.w3.org/2000/svg" xmlns:xlink="http://www.w3.org/1999/xlink" x="0px" y="0px"
	 width="64px" height="64px" viewBox="0 0 64 64" enable-background="new 0 0 64 64" xml:space="preserve">
<title>db</title>
<path id="db" fill="#A9A9A9" d="M32,4c-10.6,0-22,2.19-22,7v42c0,4.811,11.4,7,22,7c10.6,0,22-2.189,22-7V11C54,6.19,42.6,4,32,4z
	 M52,39c0,2-7.12,5-20,5s-20-3-20-5V28.16C15.73,30.78,24.09,32,32,32s16.27-1.22,20-3.84V39z M52,25c0,2-7.12,5-20,5s-20-3-20-5
	V14.16C15.73,16.78,24.09,18,32,18s16.27-1.22,20-3.84V25z M32,6c12.88,0,20,3,20,5s-7.12,5-20,5s-20-3-20-5S19.12,6,32,6z M32,58
	c-12.88,0-20-3-20-5V42.16C15.73,44.78,24.09,46,32,46s16.27-1.22,20-3.84V53C52,55,44.88,58,32,58z"/>
</svg>
