<?xml version="1.0" encoding="utf-8"?>
<!-- Generator: Adobe Illustrator 15.0.0, SVG Export Plug-In . SVG Version: 6.00 Build 0)  -->
<!DOCTYPE svg PUBLIC "-//W3C//DTD SVG 1.1//EN" "http://www.w3.org/Graphics/SVG/1.1/DTD/svg11.dtd">
<svg version="1.1" id="Layer_1" xmlns="http://www.w3.org/2000/svg" xmlns:xlink="http://www.w3.org/1999/xlink" x="0px" y="0px"
	 width="64px" height="64px" viewBox="0 0 64 64" enable-background="new 0 0 64 64" xml:space="preserve">
<title>file_receive</title>
<path id="file_receive" fill="#A9A9A9" d="M55,32H27.41l6.29-6.29c0.358-0.419,0.31-1.051-0.109-1.41
	c-0.374-0.32-0.927-0.32-1.301,0l-8,8c-0.095,0.094-0.169,0.206-0.22,0.33c-0.154,0.374-0.067,0.805,0.22,1.09l8,8
	c0.359,0.42,0.99,0.469,1.41,0.109c0.419-0.359,0.468-0.991,0.108-1.41c-0.033-0.039-0.069-0.075-0.108-0.108L27.41,34H55
	c0.553,0,1-0.447,1-1C56,32.448,55.553,32,55,32z M43.71,17.29l-11-11C32.521,6.103,32.266,5.999,32,6H12c-2.209,0-4,1.791-4,4v40
	c0,2.209,1.791,4,4,4h28c2.209,0,4-1.791,4-4V39c0-0.553-0.447-1-1-1s-1,0.447-1,1v11c0,1.104-0.896,2-2,2H12c-1.104,0-2-0.896-2-2
	V10c0-1.104,0.896-2,2-2h18v8c0,2.209,1.791,4,4,4h8v7c0,0.552,0.447,1,1,1s1-0.448,1-1v-9C44.002,17.734,43.896,17.479,43.71,17.29
	z M32,16V8.41L41.59,18H34C32.896,18,32,17.104,32,16z"/>
</svg>
