<?xml version="1.0" encoding="utf-8"?>
<!-- Generator: Adobe Illustrator 15.0.0, SVG Export Plug-In . SVG Version: 6.00 Build 0)  -->
<!DOCTYPE svg PUBLIC "-//W3C//DTD SVG 1.1//EN" "http://www.w3.org/Graphics/SVG/1.1/DTD/svg11.dtd">
<svg version="1.1" id="Layer_1" xmlns="http://www.w3.org/2000/svg" xmlns:xlink="http://www.w3.org/1999/xlink" x="0px" y="0px"
	 width="64px" height="64px" viewBox="0 0 64 64" enable-background="new 0 0 64 64" xml:space="preserve">
<title>rupee</title>
<path fill="#FFFFFF" d="M31,60c14.912,0,27-12.088,27-27C58,18.088,45.912,6,31,6C16.088,6,4,18.088,4,33C4,47.912,16.088,60,31,60z
	 M31,8c13.807,0,25,11.193,25,25c0,13.807-11.193,25-25,25C17.193,58,6,46.807,6,33C6,19.193,17.193,8,31,8z"/>
<path fill="#FFFFFF" d="M20,25c0,0.552,0.448,1,1,1h15.92c0.052,0.331,0.078,0.665,0.08,1c0,3.866-3.134,7-7,7l0,0h-9
	c-0.552,0.002-0.998,0.452-0.996,1.004c0.001,0.266,0.107,0.52,0.295,0.706l16,16c0.187,0.185,0.438,0.289,0.7,0.29
	c0.266,0.002,0.521-0.103,0.71-0.29c0.388-0.39,0.388-1.021,0-1.41L23.41,36H30c4.971,0,9-4.029,9-9c0-0.334-0.02-0.668-0.061-1H41
	c0.553,0,1-0.448,1-1s-0.447-1-1-1h-2.529c-0.559-1.568-1.538-2.952-2.83-4H41c0.553,0,1-0.448,1-1s-0.447-1-1-1H21
	c-0.552,0-1,0.448-1,1s0.448,1,1,1h9c2.699,0.006,5.153,1.562,6.311,4H21C20.448,24,20,24.448,20,25z"/>
</svg>
