<?xml version="1.0" encoding="utf-8"?>
<!-- Generator: Adobe Illustrator 15.0.0, SVG Export Plug-In . SVG Version: 6.00 Build 0)  -->
<!DOCTYPE svg PUBLIC "-//W3C//DTD SVG 1.1//EN" "http://www.w3.org/Graphics/SVG/1.1/DTD/svg11.dtd">
<svg version="1.1" id="Layer_1" xmlns="http://www.w3.org/2000/svg" xmlns:xlink="http://www.w3.org/1999/xlink" x="0px" y="0px"
	 width="64px" height="64px" viewBox="0 0 64 64" enable-background="new 0 0 64 64" xml:space="preserve">
<title>user_search_2</title>
<path id="user_search_2" fill="#A9A9A9" d="M50,34c-5.523,0.006-9.996,4.486-9.99,10.01c0.002,2.299,0.797,4.528,2.25,6.311l-8,8
	c-0.42,0.359-0.469,0.99-0.109,1.41c0.359,0.419,0.991,0.468,1.41,0.108c0.039-0.033,0.076-0.069,0.109-0.108l8-8
	c4.27,3.504,10.57,2.883,14.074-1.387s2.883-10.57-1.387-14.074C54.566,34.799,52.318,33.996,50,34z M50,52c-4.418,0-8-3.582-8-8
	s3.582-8,8-8s8,3.582,8,8S54.418,52,50,52z M42.79,32.27c-2.938-2.773-6.558-4.719-10.49-5.64c5.323-2.927,7.267-9.615,4.339-14.939
	C33.712,6.368,27.023,4.425,21.7,7.352c-5.324,2.927-7.266,9.616-4.339,14.939c1.006,1.829,2.511,3.333,4.339,4.339
	C11.33,29.086,4.005,38.344,4,49c0,0.553,0.448,1,1,1s1-0.447,1-1c-0.002-11.598,9.398-21.001,20.997-21.003
	c5.363-0.001,10.525,2.05,14.423,5.734c0.403,0.378,1.037,0.357,1.415-0.045C43.213,33.281,43.193,32.648,42.79,32.27z M18,17
	c0-4.971,4.029-9,9-9s9,4.029,9,9s-4.029,9-9,9S18,21.971,18,17z"/>
</svg>
