<svg id="Layer_1" data-name="Layer 1" xmlns="http://www.w3.org/2000/svg" width="64" height="64" viewBox="0 0 64 64"><title>horiz_align_centre-01gtr2-01 211111111</title><circle cx="31.95" cy="31.99" r="5.3"/><path d="M48.55,48.69a1.54,1.54,0,0,1-1.5-1.5,2.1,2.1,0,0,1,.4-1.1,20,20,0,0,0,0-28.3,1.45,1.45,0,0,1,.1-2.1,1.52,1.52,0,0,1,2,0,22.94,22.94,0,0,1,0,32.5A1.39,1.39,0,0,1,48.55,48.69Z"/><path d="M44,44.49a1.54,1.54,0,0,1-1.5-1.5,2.1,2.1,0,0,1,.4-1.1,13.94,13.94,0,0,0,0-19.8h0a1.48,1.48,0,0,1,.4-2.1A1.72,1.72,0,0,1,45,20a17,17,0,0,1,0,24A1.91,1.91,0,0,1,44,44.49Z"/><path d="M39.15,40.59a1.54,1.54,0,0,1-1.5-1.5,2.1,2.1,0,0,1,.4-1.1,8.51,8.51,0,0,0,0-12,1.45,1.45,0,0,1,.1-2.1,1.52,1.52,0,0,1,2,0,11.41,11.41,0,0,1,0,16.2h0A1.23,1.23,0,0,1,39.15,40.59Z"/><path d="M15.35,48.69a1.54,1.54,0,0,0,1.5-1.5,2.1,2.1,0,0,0-.4-1.1,20,20,0,0,1,0-28.3,1.45,1.45,0,0,0-.1-2.1,1.52,1.52,0,0,0-2,0,22.94,22.94,0,0,0,0,32.5A1.39,1.39,0,0,0,15.35,48.69Z"/><path d="M20,44.49a1.54,1.54,0,0,0,1.5-1.5,2.1,2.1,0,0,0-.4-1.1,13.94,13.94,0,0,1,0-19.8h0a1.48,1.48,0,0,0-.4-2.1A1.72,1.72,0,0,0,19,20a17,17,0,0,0,0,24A1.91,1.91,0,0,0,20,44.49Z"/><path d="M24.75,40.59a1.54,1.54,0,0,0,1.5-1.5,2.1,2.1,0,0,0-.4-1.1,8.51,8.51,0,0,1,0-12,1.45,1.45,0,0,0-.1-2.1,1.52,1.52,0,0,0-2,0,11.41,11.41,0,0,0,0,16.2h0A1.23,1.23,0,0,0,24.75,40.59Z"/></svg>