<?xml version="1.0" encoding="utf-8"?>
<!-- Generator: Adobe Illustrator 15.0.0, SVG Export Plug-In . SVG Version: 6.00 Build 0)  -->
<!DOCTYPE svg PUBLIC "-//W3C//DTD SVG 1.1//EN" "http://www.w3.org/Graphics/SVG/1.1/DTD/svg11.dtd">
<svg version="1.1" id="图层_1" xmlns="http://www.w3.org/2000/svg" xmlns:xlink="http://www.w3.org/1999/xlink" x="0px" y="0px"
	 width="24px" height="24px" viewBox="0 0 24 24" enable-background="new 0 0 24 24" xml:space="preserve">
<path d="M23.751,12.839l-11-12.5L12.73,0.321l-0.125-0.114L12.59,0.195C12.424,0.073,12.222-0.001,12-0.001s-0.424,0.074-0.59,0.196
	l-0.015,0.012l-0.126,0.114l-0.021,0.018l-11,12.5c-0.365,0.414-0.324,1.046,0.09,1.411c0.415,0.365,1.047,0.324,1.411-0.09
	l9.25-10.511v19.35c0,0.553,0.447,1,1,1c0.552,0,1-0.447,1-1V3.649L22.25,14.16c0.197,0.225,0.475,0.339,0.751,0.339
	c0.233,0,0.472-0.082,0.66-0.249C24.076,13.885,24.116,13.253,23.751,12.839z"/>
</svg>
