<?xml version="1.0" encoding="utf-8"?>
<!-- Generator: Adobe Illustrator 15.0.0, SVG Export Plug-In . SVG Version: 6.00 Build 0)  -->
<!DOCTYPE svg PUBLIC "-//W3C//DTD SVG 1.1//EN" "http://www.w3.org/Graphics/SVG/1.1/DTD/svg11.dtd">
<svg version="1.1" id="Layer_1" xmlns="http://www.w3.org/2000/svg" xmlns:xlink="http://www.w3.org/1999/xlink" x="0px" y="0px"
	 width="64px" height="64px" viewBox="0 0 64 64" enable-background="new 0 0 64 64" xml:space="preserve">
<title>presentation</title>
<path d="M54,49V13c0-0.552-0.447-1-1-1H9c-0.552,0-1,0.448-1,1v36c0,0.553,0.448,1,1,1h21v0.59l-7.71,7.71
	c-0.388,0.39-0.388,1.021,0,1.41c0.389,0.392,1.022,0.395,1.414,0.006c0.002-0.002,0.004-0.004,0.006-0.006l7.29-7.3l7.29,7.29
	c0.187,0.19,0.442,0.299,0.71,0.3c0.266,0.002,0.521-0.103,0.71-0.29c0.388-0.39,0.388-1.021,0-1.41L32,50.59V50h21
	C53.553,50,54,49.553,54,49z M52,48H10V14h42V48z"/>
<path d="M5,10h52c0.553,0,1-0.448,1-1s-0.447-1-1-1H34V7c0-0.552-0.447-1-1-1h-4c-0.552,0-1,0.448-1,1v1H5C4.448,8,4,8.448,4,9
	S4.448,10,5,10z"/>
<path d="M15,40c0.266,0.002,0.521-0.103,0.71-0.29l5.29-5.3l3.29,3.29c0.39,0.388,1.02,0.388,1.41,0l9.3-9.29l3.29,3.29
	c0.39,0.388,1.021,0.388,1.41,0l6.3-6.29V29c0,0.552,0.447,1,1,1s1-0.448,1-1v-6c-0.002-0.131-0.029-0.26-0.08-0.38
	c-0.102-0.245-0.295-0.438-0.54-0.54C47.26,22.029,47.131,22.001,47,22h-6c-0.553,0-1,0.448-1,1s0.447,1,1,1h3.59L39,29.59
	l-3.29-3.29c-0.39-0.388-1.021-0.388-1.41,0L25,35.59l-3.29-3.29c-0.39-0.388-1.02-0.388-1.41,0l-6,6
	c-0.388,0.39-0.388,1.021,0,1.41C14.486,39.895,14.738,39.999,15,40z"/>
</svg>
