<?xml version="1.0" encoding="utf-8"?>
<!-- Generator: Adobe Illustrator 15.0.0, SVG Export Plug-In . SVG Version: 6.00 Build 0)  -->
<!DOCTYPE svg PUBLIC "-//W3C//DTD SVG 1.1//EN" "http://www.w3.org/Graphics/SVG/1.1/DTD/svg11.dtd">
<svg version="1.1" id="Layer_1" xmlns="http://www.w3.org/2000/svg" xmlns:xlink="http://www.w3.org/1999/xlink" x="0px" y="0px"
	 width="64px" height="64px" viewBox="0 0 64 64" enable-background="new 0 0 64 64" xml:space="preserve">
<title>iphone_rotate</title>
<path d="M28,54c2.209,0,4-1.791,4-4V8c0-2.209-1.791-4-4-4H8C5.791,4,4,5.791,4,8v42c0,2.209,1.791,4,4,4H28z M6,14h24v30H6V14z
	 M8,6h20c1.104,0,2,0.896,2,2v4H6V8C6,6.896,6.896,6,8,6z M6,50v-4h24v4c0,1.104-0.896,2-2,2H8C6.896,52,6,51.104,6,50z"/>
<path d="M17,10h6c0.552,0,1-0.448,1-1s-0.448-1-1-1h-6c-0.552,0-1,0.448-1,1S16.448,10,17,10z"/>
<path d="M13,10c0.552,0.003,1.002-0.442,1.006-0.994c0.001-0.269-0.105-0.527-0.296-0.716c-0.389-0.392-1.022-0.395-1.414-0.006
	c-0.002,0.002-0.004,0.004-0.006,0.006c-0.392,0.389-0.395,1.022-0.006,1.414C12.473,9.895,12.731,10.001,13,10z"/>
<path d="M17,50h2c0.552,0,1-0.447,1-1s-0.448-1-1-1h-2c-0.552,0-1,0.447-1,1S16.448,50,17,50z"/>
<path d="M56,32H35c-0.553,0-1,0.448-1,1c0,0.553,0.447,1,1,1h15v24H20v-1c0-0.553-0.448-1-1-1s-1,0.447-1,1v1h-4
	c-0.86,0.002-1.625-0.545-1.9-1.359c-0.177-0.525-0.746-0.808-1.27-0.631c-0.525,0.177-0.807,0.746-0.63,1.271
	c0.55,1.629,2.08,2.724,3.8,2.72h42c2.209,0,4-1.791,4-4V36C60,33.791,58.209,32,56,32z M58,56c0,1.104-0.896,2-2,2h-4V34h4
	c1.104,0,2,0.896,2,2V56z"/>
<path d="M55,44c-0.553,0-1,0.447-1,1v6c0,0.553,0.447,1,1,1s1-0.447,1-1v-6C56,44.447,55.553,44,55,44z"/>
<path d="M54.29,40.29c-0.39,0.392-0.386,1.025,0.006,1.414c0.392,0.39,1.025,0.386,1.414-0.006c0.387-0.39,0.387-1.019,0-1.408
	C55.309,39.922,54.691,39.922,54.29,40.29z"/>
<path d="M37.5,12h-0.09l2.29-2.29c0.419-0.359,0.468-0.99,0.108-1.41c-0.359-0.419-0.99-0.468-1.41-0.109
	c-0.039,0.034-0.074,0.07-0.108,0.109l-4,4c-0.095,0.094-0.169,0.207-0.22,0.33c-0.154,0.375-0.067,0.805,0.22,1.09l4,4
	c0.194,0.179,0.446,0.278,0.71,0.28c0.266,0.001,0.521-0.103,0.71-0.29c0.388-0.39,0.388-1.02,0-1.41l-2.3-2.3h0.09
	c6.898,0.011,12.488,5.601,12.5,12.5v0.09l-2.29-2.29c-0.359-0.419-0.99-0.468-1.41-0.109c-0.419,0.359-0.468,0.991-0.108,1.41
	c0.033,0.039,0.069,0.076,0.108,0.109l4,4c0.095,0.095,0.206,0.169,0.33,0.22c0.118,0.044,0.243,0.068,0.37,0.07
	c0.268-0.001,0.523-0.109,0.71-0.3l4-4c0.359-0.42,0.311-1.051-0.108-1.41c-0.375-0.321-0.928-0.321-1.302,0l-2.3,2.3V26
	c0.01-0.06,0.01-0.121,0-0.18C51.631,18.081,45.248,11.997,37.5,12z"/>
</svg>
