<?xml version="1.0" encoding="utf-8"?>
<!-- Generator: Adobe Illustrator 15.0.0, SVG Export Plug-In . SVG Version: 6.00 Build 0)  -->
<!DOCTYPE svg PUBLIC "-//W3C//DTD SVG 1.1//EN" "http://www.w3.org/Graphics/SVG/1.1/DTD/svg11.dtd">
<svg version="1.1" id="Layer_1" xmlns="http://www.w3.org/2000/svg" xmlns:xlink="http://www.w3.org/1999/xlink" x="0px" y="0px"
	 width="64px" height="64px" viewBox="0 0 64 64" enable-background="new 0 0 64 64" xml:space="preserve">
<title>lifebelt</title>
<path d="M6.89,45.13c-2.138,4.487-0.232,9.858,4.255,11.995C12.35,57.699,13.666,57.998,15,58c1.34-0.008,2.661-0.313,3.87-0.891
	c7.627,3.854,16.632,3.854,24.26,0c4.485,2.143,9.858,0.243,12-4.242c1.172-2.453,1.172-5.305,0-7.758
	c3.854-7.627,3.854-16.632,0-24.259c2.142-4.485,0.243-9.858-4.243-12c-2.453-1.172-5.304-1.172-7.757,0
	c-7.628-3.854-16.632-3.854-24.26,0c-4.488-2.137-9.858-0.232-11.996,4.255C6.295,14.322,5.996,15.653,6,17
	c0.008,1.34,0.312,2.661,0.89,3.87C3.037,28.498,3.037,37.502,6.89,45.13z M8.44,22.23l8.88,4.64C16.451,28.797,16,30.886,16,33
	c-0.001,2.115,0.453,4.205,1.33,6.13l-8.88,4.64C5.187,36.962,5.183,29.042,8.44,22.23z M18.44,11.37l4.81,8.78
	c-2.033,1.234-3.746,2.93-5,4.95l-8.87-4.64c2.201-3.763,5.335-6.894,9.1-9.09H18.44z M52.58,20.46l-8.85,4.64
	c-1.249-2.038-2.963-3.752-5-5l4.81-8.78c3.764,2.213,6.892,5.362,9.08,9.14H52.58z M44,33c0,7.18-5.82,13-13,13s-13-5.82-13-13
	s5.82-13,13-13S44,25.82,44,33z M43.52,54.63l-4.81-8.78c2.038-1.248,3.751-2.961,5-5l8.89,4.641
	C50.414,49.271,47.286,52.42,43.52,54.63z M9.38,45.54l8.89-4.64c1.249,2.038,2.962,3.752,5,5l-4.81,8.779
	C14.694,52.47,11.565,49.32,9.38,45.54z M15,56c-3.866,0.002-7.001-3.131-7.003-6.997c0-0.536,0.061-1.071,0.183-1.593
	c2.149,3.389,5.021,6.261,8.41,8.41C16.069,55.94,15.535,56.001,15,56z M20.25,55.57l4.82-8.79C26.943,47.586,28.961,48,31,48
	c2.04,0.002,4.059-0.417,5.93-1.23l4.82,8.791C34.953,58.81,27.051,58.813,20.25,55.57z M54,49c0.002,3.866-3.131,7.002-6.997,7.003
	c-0.536,0-1.071-0.062-1.593-0.183c3.387-2.152,6.258-5.023,8.41-8.41C53.94,47.932,54.001,48.465,54,49z M53.561,43.77l-8.881-4.64
	c1.767-3.899,1.767-8.371,0-12.27l8.881-4.64C56.814,29.035,56.814,36.955,53.561,43.77z M47,10
	c3.866-0.001,7.002,3.131,7.003,6.997c0.001,0.536-0.062,1.071-0.183,1.593c-2.149-3.389-5.021-6.261-8.41-8.41
	C45.932,10.06,46.465,9.999,47,10z M41.75,10.43l-4.82,8.79C35.057,18.415,33.039,18,31,18c-2.04-0.002-4.059,0.417-5.93,1.23
	l-4.82-8.79C27.047,7.19,34.949,7.187,41.75,10.43z M8,17c-0.001-3.866,3.131-7.001,6.997-7.003c0.536,0,1.071,0.061,1.593,0.183
	c-3.387,2.151-6.258,5.023-8.41,8.41C8.06,18.068,7.999,17.535,8,17z"/>
</svg>
