<?xml version="1.0" encoding="utf-8"?>
<!-- Generator: Adobe Illustrator 15.0.0, SVG Export Plug-In . SVG Version: 6.00 Build 0)  -->
<!DOCTYPE svg PUBLIC "-//W3C//DTD SVG 1.1//EN" "http://www.w3.org/Graphics/SVG/1.1/DTD/svg11.dtd">
<svg version="1.1" id="Layer_1" xmlns="http://www.w3.org/2000/svg" xmlns:xlink="http://www.w3.org/1999/xlink" x="0px" y="0px"
	 width="64px" height="64px" viewBox="0 0 64 64" enable-background="new 0 0 64 64" xml:space="preserve">
<title>qqq</title>
<path id="sliders_side_2" d="M54,60H8c-2.209,0-4-1.791-4-4V10c0-2.209,1.791-4,4-4h46c2.209,0,4,1.791,4,4v46
	C58,58.209,56.209,60,54,60z M8,8c-1.104,0-2,0.896-2,2v46c0,1.104,0.896,2,2,2h46c1.104,0,2-0.896,2-2V10c0-1.104-0.896-2-2-2H8z"
	/>
<path d="M16.33,24.81c2.253,0,4.08-1.827,4.08-4.08s-1.827-4.08-4.08-4.08s-4.08,1.827-4.08,4.08l0,0
	C12.25,22.983,14.077,24.81,16.33,24.81z M16.33,18.27c1.353,0,2.45,1.097,2.45,2.45c0,1.354-1.097,2.45-2.45,2.45
	s-2.45-1.097-2.45-2.45C13.88,19.367,14.977,18.27,16.33,18.27L16.33,18.27z"/>
<path d="M16.33,38.52c2.253,0,4.08-1.826,4.08-4.08c0-2.253-1.827-4.08-4.08-4.08s-4.08,1.827-4.08,4.08l0,0
	C12.25,36.693,14.077,38.52,16.33,38.52z M16.33,31.98c1.353,0,2.45,1.097,2.45,2.45c0,1.354-1.097,2.45-2.45,2.45
	s-2.45-1.097-2.45-2.45c0.011-1.345,1.105-2.43,2.45-2.43V31.98z"/>
<path d="M16.33,51.22c2.253,0,4.08-1.826,4.08-4.079c0-2.254-1.827-4.08-4.08-4.08s-4.08,1.826-4.08,4.08
	C12.25,49.394,14.077,51.22,16.33,51.22L16.33,51.22z M16.33,44.68c1.353,0,2.45,1.098,2.45,2.45s-1.097,2.45-2.45,2.45
	s-2.45-1.098-2.45-2.45S14.977,44.68,16.33,44.68L16.33,44.68z"/>
<path d="M50.18,19.91h-25c-0.45-0.05-0.855,0.274-0.906,0.725c-0.05,0.45,0.274,0.855,0.725,0.905c0.06,0.007,0.121,0.007,0.181,0
	h25c0.45,0.05,0.855-0.274,0.906-0.725c0.049-0.45-0.275-0.855-0.725-0.905C50.301,19.903,50.24,19.903,50.18,19.91z"/>
<path d="M50.18,33.609h-25c-0.45-0.049-0.855,0.275-0.906,0.725c-0.05,0.451,0.274,0.855,0.725,0.906
	c0.06,0.006,0.121,0.006,0.181,0h25c0.45,0.05,0.855-0.275,0.906-0.725c0.049-0.45-0.275-0.855-0.725-0.906
	C50.301,33.604,50.24,33.604,50.18,33.609z"/>
<path d="M50.18,46.32h-25c-0.45-0.051-0.855,0.274-0.906,0.725c-0.05,0.449,0.274,0.855,0.725,0.905c0.06,0.007,0.121,0.007,0.181,0
	h25c0.45,0.05,0.855-0.274,0.906-0.725c0.049-0.45-0.275-0.855-0.725-0.905C50.301,46.313,50.24,46.313,50.18,46.32z"/>
</svg>
