<?xml version="1.0" encoding="utf-8"?>
<!-- Generator: Adobe Illustrator 15.0.0, SVG Export Plug-In . SVG Version: 6.00 Build 0)  -->
<!DOCTYPE svg PUBLIC "-//W3C//DTD SVG 1.1//EN" "http://www.w3.org/Graphics/SVG/1.1/DTD/svg11.dtd">
<svg version="1.1" id="Layer_1" xmlns="http://www.w3.org/2000/svg" xmlns:xlink="http://www.w3.org/1999/xlink" x="0px" y="0px"
	 width="612px" height="792px" viewBox="0 0 612 792" enable-background="new 0 0 612 792" xml:space="preserve">
<g>
	<path fill="#A9A9A9" d="M257.327,648.45V543.358c-0.191-17.882-14.726-32.321-32.608-32.608h-56.706
		c-4.208-0.574-8.033-2.773-10.71-6.024c-14.248-14.248-29.644-51.351-29.166-99.259c-0.191-26.393,4.876-52.594,15.204-76.882
		c8.893-19.603,19.125-28.401,25.245-28.401h56.706c17.978,0,32.513-14.535,32.608-32.417v-0.095V162.58
		c-0.191-17.882-14.726-32.321-32.608-32.608l-60.817-0.096c-70.093,0-125.747,121.062-125.747,275.687
		c-0.478,107.961,28.018,206.454,72.388,250.824c13.579,15.204,32.704,24.193,53.072,24.958l60.818-0.096
		c8.606-0.096,16.83-3.634,22.854-9.753C253.884,665.376,257.327,657.152,257.327,648.45z M224.527,664.802l-23.715-0.478v0.19
		l-37.103-0.096c-15.683-0.86-30.409-8.032-40.832-19.698C81.664,603.506,55.08,509.603,55.08,405.563
		c0-140.091,50.012-259.144,109.299-259.239h36.433l23.619-0.287c8.894,0,16.065,7.172,16.065,16.065v105.092
		c0,8.893-7.077,15.969-15.97,16.065c0,0,0,0-0.096,0h-24.193l-0.096,0.382l-32.034,0.191
		c-14.535-0.096-29.166,13.865-40.258,37.963c-11.379,26.297-17.212,54.793-17.021,83.385c0,45.613,14.057,89.983,34.711,110.543
		c5.738,6.502,13.866,10.423,22.568,10.901l32.321,0.096v0.19h24.193c8.797,0.191,15.778,7.268,16.065,16.065v105.092
		C240.784,657.247,233.516,664.61,224.527,664.802z"/>
</g>
<title>telephone_receive</title>
<path id="telephone_receive" fill="#A9A9A9" d="M564.188,396H281.233l60.148-60.148c3.443-4.017,2.965-10.041-1.052-13.483
	c-3.538-3.06-8.893-3.06-12.431,0l-76.5,76.5c-3.729,3.729-3.729,9.753-0.095,13.482c0,0,0,0,0.095,0.096l76.5,76.5
	c4.016,3.442,10.04,2.965,13.482-1.052c3.061-3.538,3.061-8.893,0-12.431l-60.148-60.34h282.955c5.26,0,9.563-4.303,9.563-9.563
	S569.447,396,564.188,396z"/>
</svg>
