<?xml version="1.0" encoding="utf-8"?>
<!-- Generator: Adobe Illustrator 15.0.0, SVG Export Plug-In . SVG Version: 6.00 Build 0)  -->
<!DOCTYPE svg PUBLIC "-//W3C//DTD SVG 1.1//EN" "http://www.w3.org/Graphics/SVG/1.1/DTD/svg11.dtd">
<svg version="1.1" id="Layer_1" xmlns="http://www.w3.org/2000/svg" xmlns:xlink="http://www.w3.org/1999/xlink" x="0px" y="0px"
	 width="64px" height="64px" viewBox="0 0 64 64" enable-background="new 0 0 64 64" xml:space="preserve">
<title>knife_fork_spoon</title>
<path id="knife_fork_spoon" fill="#A9A9A9" d="M60,17c0-7.17-4-13-9-13s-9,5.83-9,13c0,6.27,3.1,10.45,8,11v31c0,0.553,0.447,1,1,1
	s1-0.447,1-1V28C56.9,27.45,60,23.27,60,17z M51,26c-4.32,0-7-3.45-7-9c0-6.07,3.141-11,7-11s7,4.93,7,11C58,22.55,55.32,26,51,26z
	 M33,4c-5.13,0-9,9.14-9,21.25c0,6.79,3.38,12,8,12.68V59c0,0.553,0.448,1,1,1c0.553,0,1-0.447,1-1V5C34,4.448,33.553,4,33,4z
	 M26,25.25c0-10.38,2.94-17.67,6-19v29.63C28.57,35.16,26,30.75,26,25.25z M17,4c-0.552,0-1,0.448-1,1v10c0,2.376-1.672,4.425-4,4.9
	V5c0-0.552-0.448-1-1-1s-1,0.448-1,1v14.9c-2.328-0.475-4-2.523-4-4.9V5c0-0.552-0.448-1-1-1S4,4.448,4,5v10
	c0.004,3.477,2.559,6.423,6,6.92V59c0,0.553,0.448,1,1,1s1-0.447,1-1V21.92c3.441-0.497,5.996-3.443,6-6.92V5
	C18,4.448,17.552,4,17,4z"/>
</svg>
