<?xml version="1.0" encoding="utf-8"?>
<!-- Generator: Adobe Illustrator 15.0.0, SVG Export Plug-In . SVG Version: 6.00 Build 0)  -->
<!DOCTYPE svg PUBLIC "-//W3C//DTD SVG 1.1//EN" "http://www.w3.org/Graphics/SVG/1.1/DTD/svg11.dtd">
<svg version="1.1" id="图层_1" xmlns="http://www.w3.org/2000/svg" xmlns:xlink="http://www.w3.org/1999/xlink" x="0px" y="0px"
	 width="24px" height="24px" viewBox="0 0 24 24" enable-background="new 0 0 24 24" xml:space="preserve">
<g>
	<path fill="#FFFFFF" d="M1.271,1.055C1.104,1.141,1,1.313,1,1.5v16c0,0.161,0.078,0.313,0.209,0.407L8,22.757V5.528L1.79,1.093
		C1.638,0.984,1.438,0.969,1.271,1.055z M22.79,6.093L16,1.243v17.229l6.209,4.435c0.15,0.108,0.35,0.125,0.52,0.038
		C22.896,22.859,23,22.686,23,22.5v-16C23,6.338,22.922,6.186,22.79,6.093z M9,22.757l6-4.284V1.243L9,5.528V22.757z"/>
</g>
</svg>
