<?xml version="1.0" encoding="utf-8"?>
<!-- Generator: Adobe Illustrator 15.0.0, SVG Export Plug-In . SVG Version: 6.00 Build 0)  -->
<!DOCTYPE svg PUBLIC "-//W3C//DTD SVG 1.1//EN" "http://www.w3.org/Graphics/SVG/1.1/DTD/svg11.dtd">
<svg version="1.1" id="Layer_1" xmlns="http://www.w3.org/2000/svg" xmlns:xlink="http://www.w3.org/1999/xlink" x="0px" y="0px"
	 width="64px" height="64px" viewBox="0 0 64 64" enable-background="new 0 0 64 64" xml:space="preserve">
<title>iphone_signal</title>
<path fill="#A9A9A9" d="M32,60c2.209,0,4-1.791,4-4V8c0-2.209-1.791-4-4-4H8C5.791,4,4,5.791,4,8v48c0,2.209,1.791,4,4,4H32z M6,14
	h28v36H6V14z M8,6h24c1.104,0,2,0.896,2,2v4H6V8C6,6.896,6.896,6,8,6z M6,56v-4h28v4c0,1.104-0.896,2-2,2H8C6.896,58,6,57.104,6,56z
	"/>
<path fill="#A9A9A9" d="M19,10h6c0.552,0,1-0.448,1-1s-0.448-1-1-1h-6c-0.552,0-1,0.448-1,1S18.448,10,19,10z"/>
<path fill="#A9A9A9" d="M15,10c0.266,0.001,0.521-0.103,0.71-0.29c0.389-0.392,0.386-1.025-0.006-1.414
	c-0.392-0.389-1.025-0.386-1.414,0.006c-0.387,0.39-0.387,1.019,0,1.408C14.479,9.897,14.734,10.001,15,10z"/>
<path fill="#A9A9A9" d="M19,56h2c0.552,0,1-0.447,1-1s-0.448-1-1-1h-2c-0.552,0-1,0.447-1,1S18.448,56,19,56z"/>
<path fill="#A9A9A9" d="M39.29,39.16c0.188,0.188,0.444,0.291,0.71,0.29c0.266,0.001,0.521-0.103,0.71-0.29
	c4.297-4.295,4.298-11.26,0.004-15.557c-0.001-0.001-0.003-0.002-0.004-0.003c-0.342-0.434-0.971-0.508-1.404-0.166
	c-0.434,0.342-0.509,0.971-0.166,1.404c0.047,0.06,0.101,0.114,0.16,0.162c3.51,3.514,3.51,9.206,0,12.72
	c-0.399,0.381-0.416,1.014-0.036,1.414C39.272,39.143,39.281,39.151,39.29,39.16z"/>
<path fill="#A9A9A9" d="M45,44.82c0.188,0.188,0.444,0.291,0.71,0.289c0.266,0.002,0.521-0.102,0.71-0.289
	c7.42-7.42,7.42-19.45,0-26.87c-0.389-0.393-1.023-0.395-1.415-0.005c-0.392,0.39-0.394,1.023-0.005,1.415
	c6.611,6.634,6.611,17.367,0,24c-0.403,0.378-0.424,1.011-0.047,1.414C44.969,44.789,44.984,44.805,45,44.82z"/>
<path fill="#A9A9A9" d="M50.609,12.29c-0.387,0.39-0.387,1.02,0,1.41c9.766,9.762,9.768,25.591,0.006,35.354
	c-0.002,0.002-0.004,0.004-0.006,0.006c-0.387,0.39-0.387,1.02,0,1.409c0.189,0.188,0.445,0.292,0.711,0.29
	c0.255-0.006,0.498-0.109,0.68-0.29c10.541-10.544,10.541-27.636,0-38.18C51.612,11.916,50.998,11.916,50.609,12.29z"/>
</svg>
