<?xml version="1.0" encoding="utf-8"?>
<!-- Generator: Adobe Illustrator 15.0.0, SVG Export Plug-In . SVG Version: 6.00 Build 0)  -->
<!DOCTYPE svg PUBLIC "-//W3C//DTD SVG 1.1//EN" "http://www.w3.org/Graphics/SVG/1.1/DTD/svg11.dtd">
<svg version="1.1" id="Layer_1" xmlns="http://www.w3.org/2000/svg" xmlns:xlink="http://www.w3.org/1999/xlink" x="0px" y="0px"
	 width="64px" height="64px" viewBox="0 0 64 64" enable-background="new 0 0 64 64" xml:space="preserve">
<title>lightening</title>
<path d="M26.62,61.93c0.121,0.049,0.25,0.072,0.38,0.07c0.325,0.002,0.631-0.154,0.82-0.42l24-34c0.201-0.297,0.227-0.678,0.07-1
	C51.729,26.232,51.383,26.007,51,26H36.18L40,3.16c0.074-0.453-0.169-0.898-0.59-1.08c-0.421-0.182-0.912-0.054-1.189,0.31l-26,34
	c-0.337,0.438-0.255,1.064,0.182,1.402C12.574,37.924,12.784,37.997,13,38h16.82L26,60.84C25.925,61.304,26.183,61.758,26.62,61.93z
	 M32,37.16c0.049-0.289-0.031-0.586-0.22-0.811c-0.194-0.227-0.48-0.355-0.78-0.35H15L37.35,6.8L34,26.84
	c-0.049,0.29,0.031,0.585,0.221,0.81c0.193,0.228,0.48,0.356,0.779,0.35h14.07L28.71,56.85L32,37.16z"/>
</svg>
