<?xml version="1.0" encoding="utf-8"?>
<!-- Generator: Adobe Illustrator 15.0.0, SVG Export Plug-In . SVG Version: 6.00 Build 0)  -->
<!DOCTYPE svg PUBLIC "-//W3C//DTD SVG 1.1//EN" "http://www.w3.org/Graphics/SVG/1.1/DTD/svg11.dtd">
<svg version="1.1" id="Layer_1" xmlns="http://www.w3.org/2000/svg" xmlns:xlink="http://www.w3.org/1999/xlink" x="0px" y="0px"
	 width="64px" height="64px" viewBox="0 0 64 64" enable-background="new 0 0 64 64" xml:space="preserve">
<title>user_minus_2</title>
<path id="user_minus_2" fill="#A9A9A9" d="M57,48H33c-0.552,0-1-0.447-1-1s0.448-1,1-1h24c0.553,0,1,0.447,1,1S57.553,48,57,48z
	 M48.43,40.63c-2.725-7.04-8.75-12.279-16.1-14c5.317-2.938,7.246-9.63,4.309-14.948c-2.939-5.317-9.631-7.246-14.949-4.308
	c-5.317,2.938-7.246,9.631-4.308,14.948c1.002,1.813,2.495,3.306,4.308,4.308C11.324,29.09,4.004,38.346,4,49c0,0.553,0.448,1,1,1
	s1-0.447,1-1c-0.013-11.598,9.379-21.01,20.977-21.023c8.667-0.009,16.449,5.307,19.594,13.383c0.224,0.506,0.814,0.733,1.319,0.51
	C48.363,41.658,48.599,41.121,48.43,40.63z M18,17c0-4.971,4.029-9,9-9s9,4.029,9,9s-4.029,9-9,9S18,21.971,18,17z"/>
</svg>
