<?xml version="1.0" encoding="utf-8"?>
<!-- Generator: Adobe Illustrator 15.0.0, SVG Export Plug-In . SVG Version: 6.00 Build 0)  -->
<!DOCTYPE svg PUBLIC "-//W3C//DTD SVG 1.1//EN" "http://www.w3.org/Graphics/SVG/1.1/DTD/svg11.dtd">
<svg version="1.1" id="Layer_1" xmlns="http://www.w3.org/2000/svg" xmlns:xlink="http://www.w3.org/1999/xlink" x="0px" y="0px"
	 width="64px" height="64px" viewBox="0 0 64 64" enable-background="new 0 0 64 64" xml:space="preserve">
<title>arrows_cross</title>
<path fill="#FFFFFF" d="M57.71,32.29l-6-6c-0.359-0.419-0.99-0.468-1.41-0.109c-0.419,0.359-0.468,0.991-0.108,1.41
	c0.033,0.039,0.069,0.076,0.108,0.109l4.29,4.3H32V9.41l4.29,4.29c0.187,0.19,0.442,0.299,0.71,0.3
	c0.266,0.001,0.521-0.103,0.71-0.29c0.388-0.39,0.388-1.02,0-1.41l-6-6c-0.094-0.094-0.207-0.169-0.33-0.22
	c-0.374-0.154-0.805-0.067-1.09,0.22l-6,6c-0.419,0.359-0.468,0.991-0.109,1.41c0.359,0.419,0.99,0.468,1.41,0.109
	c0.039-0.034,0.076-0.07,0.109-0.109l4.3-4.3V32H7.41l4.29-4.29c0.359-0.419,0.31-1.051-0.109-1.41c-0.375-0.32-0.926-0.32-1.301,0
	l-6,6c-0.095,0.094-0.169,0.206-0.22,0.33c-0.154,0.374-0.067,0.805,0.22,1.09l6,6c0.194,0.179,0.447,0.278,0.71,0.28
	c0.266,0.002,0.521-0.103,0.71-0.29c0.388-0.39,0.388-1.021,0-1.41L7.41,34H30v22.59l-4.29-4.29c-0.419-0.358-1.051-0.31-1.41,0.109
	c-0.32,0.374-0.32,0.927,0,1.301l6,6c0.094,0.095,0.207,0.169,0.33,0.22c0.119,0.045,0.244,0.068,0.37,0.07
	c0.267-0.001,0.523-0.109,0.71-0.3l6-6c0.359-0.42,0.311-1.051-0.108-1.41c-0.375-0.321-0.928-0.321-1.302,0l-4.3,4.3V34h22.59
	l-4.29,4.29c-0.388,0.39-0.388,1.021,0,1.41c0.185,0.188,0.437,0.296,0.7,0.3c0.266,0.002,0.521-0.103,0.71-0.29l6-6
	c0.095-0.095,0.169-0.206,0.22-0.33c0.1-0.243,0.1-0.517,0-0.76C57.875,32.499,57.801,32.388,57.71,32.29z"/>
</svg>
