<?xml version="1.0" encoding="utf-8"?>
<!-- Generator: Adobe Illustrator 15.0.0, SVG Export Plug-In . SVG Version: 6.00 Build 0)  -->
<!DOCTYPE svg PUBLIC "-//W3C//DTD SVG 1.1//EN" "http://www.w3.org/Graphics/SVG/1.1/DTD/svg11.dtd">
<svg version="1.1" id="Layer_1" xmlns="http://www.w3.org/2000/svg" xmlns:xlink="http://www.w3.org/1999/xlink" x="0px" y="0px"
	 width="64px" height="64px" viewBox="0 0 64 64" enable-background="new 0 0 64 64" xml:space="preserve">
<title>shield_cross</title>
<path fill="#FFFFFF" d="M8,31.16C8.72,51,27,58.6,30.66,59.939c0.22,0.08,0.46,0.08,0.68,0C35.12,58.58,54,50.75,54,30V13
	c0-0.552-0.447-1-1-1c-9.08,0-17.71-4.89-21.38-7.79l-0.14-0.08c-0.038-0.024-0.078-0.044-0.12-0.06C31.245,4.026,31.123,4.003,31,4
	l0,0c-0.12,0.002-0.238,0.026-0.35,0.07l-0.12,0.06c-0.05,0.021-0.097,0.048-0.14,0.08C26.71,7.11,18.08,12,9,12
	c-0.552,0-1,0.448-1,1v17c0,0.3,0,0.58,0,0.88C7.996,30.92,7.996,30.96,8,31C7.994,31.053,7.994,31.107,8,31.16z M10,32h20v25.54
	C24.83,55.391,11.13,48.189,10.07,32H10z M32,57.54V32h19.93C50.87,48.189,37.17,55.391,32,57.54z M52,30H32V7
	c4.279,2.92,11.891,6.72,20,7V30z M10,14c8.1-0.29,15.72-4.1,20-7v23H10V14z"/>
</svg>
