<?xml version="1.0" encoding="utf-8"?>
<!-- Generator: Adobe Illustrator 15.0.0, SVG Export Plug-In . SVG Version: 6.00 Build 0)  -->
<!DOCTYPE svg PUBLIC "-//W3C//DTD SVG 1.1//EN" "http://www.w3.org/Graphics/SVG/1.1/DTD/svg11.dtd">
<svg version="1.1" id="Layer_1" xmlns="http://www.w3.org/2000/svg" xmlns:xlink="http://www.w3.org/1999/xlink" x="0px" y="0px"
	 width="64px" height="64px" viewBox="0 0 64 64" enable-background="new 0 0 64 64" xml:space="preserve">
<title>file_upload</title>
<path id="file_upload" d="M39.71,36.29l-8-8c-0.094-0.095-0.207-0.169-0.33-0.22c-0.243-0.1-0.517-0.1-0.76,0
	c-0.124,0.051-0.236,0.125-0.33,0.22l-8,8c-0.419,0.359-0.468,0.99-0.109,1.41c0.359,0.419,0.99,0.468,1.41,0.108
	c0.039-0.033,0.076-0.069,0.109-0.108l6.3-6.29V59c0,0.553,0.448,1,1,1s1-0.447,1-1V31.41l6.29,6.29
	c0.39,0.392,1.022,0.394,1.415,0.005C40.098,37.315,40.1,36.682,39.71,36.29L39.71,36.29z M49.71,17.29l-11-11
	C38.521,6.103,38.266,5.999,38,6H16c-2.209,0-4,1.791-4,4v40c0,2.209,1.791,4,4,4h9c0.552,0,1-0.447,1-1s-0.448-1-1-1h-9
	c-1.104,0-2-0.896-2-2V10c0-1.104,0.896-2,2-2h20v8c0,2.209,1.791,4,4,4h8v30c0,1.104-0.896,2-2,2h-9c-0.553,0-1,0.447-1,1
	s0.447,1,1,1h9c2.209,0,4-1.791,4-4V18C50.002,17.734,49.896,17.479,49.71,17.29z M38,16V8.41L47.59,18H40
	C38.896,18,38,17.104,38,16z"/>
</svg>
