<?xml version="1.0" encoding="utf-8"?>
<!-- Generator: Adobe Illustrator 15.0.0, SVG Export Plug-In . SVG Version: 6.00 Build 0)  -->
<!DOCTYPE svg PUBLIC "-//W3C//DTD SVG 1.1//EN" "http://www.w3.org/Graphics/SVG/1.1/DTD/svg11.dtd">
<svg version="1.1" id="Layer_1" xmlns="http://www.w3.org/2000/svg" xmlns:xlink="http://www.w3.org/1999/xlink" x="0px" y="0px"
	 width="64px" height="64px" viewBox="0 0 64 64" enable-background="new 0 0 64 64" xml:space="preserve">
<title>arrows_out</title>
<path d="M20,7c0-0.552-0.448-1-1-1H7C6.448,6,6,6.448,6,7v12c0,0.552,0.448,1,1,1s1-0.448,1-1V9.41L22.29,23.7
	c0.187,0.19,0.443,0.299,0.71,0.3c0.266,0.001,0.521-0.103,0.71-0.29c0.388-0.39,0.388-1.02,0-1.41L9.41,8H19
	C19.552,8,20,7.552,20,7z"/>
<path d="M40.29,23.71c0.389,0.392,1.022,0.395,1.414,0.006c0.002-0.002,0.004-0.004,0.006-0.006L56,9.41V19c0,0.552,0.447,1,1,1
	s1-0.448,1-1V7c-0.002-0.131-0.029-0.26-0.08-0.38c-0.102-0.245-0.295-0.438-0.54-0.54C57.26,6.029,57.131,6.001,57,6H45
	c-0.553,0-1,0.448-1,1s0.447,1,1,1h9.59l-14.3,14.29c-0.392,0.389-0.395,1.022-0.006,1.414C40.286,23.706,40.288,23.708,40.29,23.71
	z"/>
<path d="M6,57c0.001,0.131,0.029,0.26,0.08,0.38c0.102,0.245,0.295,0.438,0.54,0.54C6.74,57.971,6.869,57.998,7,58h12
	c0.552,0,1-0.447,1-1s-0.448-1-1-1H9.41L23.7,41.71c0.359-0.419,0.31-1.051-0.109-1.41c-0.375-0.32-0.926-0.32-1.301,0L8,54.59V45
	c0-0.553-0.448-1-1-1s-1,0.447-1,1V57z"/>
<path d="M40.29,41.71L54.59,56H45c-0.553,0-1,0.447-1,1s0.447,1,1,1h12c0.553,0,1-0.447,1-1V45c0-0.553-0.447-1-1-1s-1,0.447-1,1
	v9.59l-14.29-14.3c-0.39-0.388-1.021-0.388-1.41,0c-0.395,0.386-0.401,1.019-0.016,1.414C40.286,41.706,40.288,41.708,40.29,41.71z"
	/>
<path d="M32,28c-2.209,0-4,1.791-4,4s1.791,4,4,4s4-1.791,4-4S34.209,28,32,28z M32,34c-1.104,0-2-0.896-2-2s0.896-2,2-2
	s2,0.896,2,2S33.104,34,32,34z"/>
</svg>
